<svg width="66" height="66" viewBox="0 0 66 66" fill="none" xmlns="http://www.w3.org/2000/svg">
<g clip-path="url(#clip0_2792_60734)">
<rect width="66" height="66" rx="16" fill="#E60023"/>
<circle cx="32.9993" cy="32.9998" r="18.8499" fill="#E60023"/>
<path d="M32.9911 13.7217C22.3327 13.7217 13.7197 22.3501 13.7197 32.993C13.7197 41.1619 18.7954 48.1407 25.9648 50.9475C25.7907 49.4256 25.6475 47.0774 26.0287 45.4132C26.377 43.9058 28.2811 35.8318 28.2811 35.8318C28.2811 35.8318 27.7103 34.6746 27.7103 32.9775C27.7103 30.2975 29.2641 28.2985 31.1992 28.2985C32.8488 28.2985 33.6422 29.5351 33.6422 31.0105C33.6422 32.6602 32.5953 35.1342 32.04 37.435C31.5794 39.3536 33.0075 40.9239 34.8942 40.9239C38.3212 40.9239 40.9539 37.3072 40.9539 32.1048C40.9539 27.4897 37.6391 24.2697 32.8962 24.2697C27.4084 24.2697 24.1884 28.3779 24.1884 32.6283C24.1884 34.2779 24.8231 36.0543 25.6156 37.0218C25.7742 37.2124 25.7897 37.3866 25.7433 37.5772C25.6001 38.18 25.2672 39.4958 25.2034 39.7658C25.124 40.1141 24.918 40.1944 24.5532 40.0192C22.174 38.8776 20.6831 35.3557 20.6831 32.5334C20.6831 26.4573 25.0921 20.8747 33.4197 20.8747C40.0976 20.8747 45.3 25.633 45.3 32.01C45.3 38.655 41.1125 44.0006 35.3073 44.0006C33.3558 44.0006 31.5165 42.9847 30.8973 41.7802L29.6927 46.3643C29.2641 48.0449 28.0905 50.1387 27.2971 51.4245C29.1054 51.9789 31.0086 52.2798 33.0075 52.2798C43.6504 52.2798 52.2788 43.6514 52.2788 33.0085C52.2624 22.3501 43.6339 13.7217 32.9911 13.7217Z" fill="white"/>
</g>
<defs>
<clipPath id="clip0_2792_60734">
<rect width="66" height="66" fill="white"/>
</clipPath>
</defs>
</svg>
