<svg width="66" height="66" viewBox="0 0 66 66" fill="none" xmlns="http://www.w3.org/2000/svg">
<g clip-path="url(#clip0_2792_60728)">
<rect width="66" height="66" rx="16" fill="#FF0000"/>
<rect x="26.7383" y="26.1812" width="12.524" height="14.1098" fill="#FF0000"/>
<path d="M33.9215 47.6437L25.3869 47.4844C22.6236 47.4289 19.8534 47.5397 17.1443 46.9647C13.0231 46.1056 12.7311 41.8931 12.4256 38.3596C12.0047 33.3919 12.1676 28.3341 12.962 23.4079C13.4105 20.6438 15.1754 18.9944 17.9047 18.815C27.1183 18.1636 36.3931 18.2408 45.5862 18.5447C46.5571 18.5725 47.5347 18.7248 48.4921 18.8981C53.2178 19.7434 53.3331 24.5171 53.6394 28.5357C53.9449 32.5957 53.8159 36.6766 53.232 40.709C52.7635 44.0477 51.8672 46.8475 48.0846 47.1178C43.3453 47.4712 38.7148 47.7558 33.9622 47.6652C33.9624 47.6437 33.9351 47.6437 33.9215 47.6437ZM28.904 39.191C32.4755 37.0985 35.9788 35.0408 39.5298 32.9623C35.9517 30.8698 32.455 28.8121 28.904 26.7336V39.191Z" fill="white"/>
</g>
<defs>
<clipPath id="clip0_2792_60728">
<rect width="66" height="66" fill="white"/>
</clipPath>
</defs>
</svg>
