<svg width="66" height="66" viewBox="0 0 66 66" fill="none" xmlns="http://www.w3.org/2000/svg">
<g clip-path="url(#clip0_2792_60733)">
<rect width="66" height="66" rx="16" fill="#1DA1F2"/>
<path d="M26.8578 46.5455C39.3536 46.5455 46.1871 36.1235 46.1871 27.0859C46.1871 26.7899 46.1811 26.4953 46.1678 26.2019C47.4975 25.2333 48.645 24.0341 49.5566 22.6603C48.3393 23.2052 47.0294 23.5718 45.6553 23.7372C47.0579 22.8905 48.1346 21.551 48.6427 19.9543C47.3091 20.7508 45.8502 21.3122 44.3288 21.6145C43.0891 20.2851 41.3242 19.4536 39.3699 19.4536C35.6183 19.4536 32.576 22.5165 32.576 26.2919C32.576 26.8287 32.6357 27.3506 32.7523 27.8514C27.106 27.5654 22.0993 24.8439 18.7486 20.7057C18.1451 21.7494 17.8277 22.9356 17.8287 24.1432C17.8287 26.5161 19.028 28.6107 20.8519 29.8362C19.7731 29.8031 18.7179 29.5097 17.7752 28.9808C17.7741 29.0095 17.7741 29.0375 17.7741 29.0682C17.7741 32.3804 20.1158 35.1458 23.2243 35.7725C22.6405 35.9325 22.0381 36.0135 21.433 36.0131C20.996 36.0131 20.5701 35.9698 20.1562 35.8898C21.0211 38.6073 23.529 40.5848 26.5025 40.64C24.1773 42.4748 21.2482 43.5676 18.0648 43.5676C17.5233 43.5681 16.9822 43.5364 16.4443 43.4728C19.451 45.413 23.021 46.545 26.8581 46.545" fill="white"/>
</g>
<defs>
<clipPath id="clip0_2792_60733">
<rect width="66" height="66" fill="white"/>
</clipPath>
</defs>
</svg>
