<svg width="66" height="66" viewBox="0 0 66 66" fill="none" xmlns="http://www.w3.org/2000/svg">
<g clip-path="url(#clip0_2792_60729)">
<path d="M33.0108 0C19.2336 0 15.2043 0.0142166 14.4211 0.0792067C11.5937 0.314288 9.83441 0.759572 7.91772 1.71411C6.44061 2.44779 5.27568 3.29825 4.12597 4.49041C2.03214 6.66453 0.763144 9.33928 0.303769 12.5187C0.0804259 14.0622 0.0154535 14.377 0.00225599 22.2611C-0.00281998 24.8892 0.00225599 28.3479 0.00225599 32.9871C0.00225599 46.7568 0.0174839 50.7832 0.0834715 51.5651C0.31189 54.317 0.743347 56.0484 1.65702 57.9422C3.40315 61.5675 6.73807 64.2889 10.6669 65.3044C12.0272 65.6547 13.5297 65.8477 15.4586 65.9391C16.2758 65.9746 24.6055 66 32.9402 66C41.275 66 49.6097 65.9898 50.4066 65.9492C52.64 65.8441 53.937 65.67 55.3709 65.2993C57.319 64.7996 59.1345 63.8806 60.6907 62.6063C62.2469 61.3321 63.5062 59.7334 64.3808 57.9219C65.2767 56.0738 65.731 54.2764 65.9365 51.6682C65.9812 51.0995 66 42.0329 66 32.9784C66 23.9225 65.9797 14.8726 65.935 14.3039C65.7269 11.6535 65.2726 9.87139 64.3478 7.98769C63.5889 6.4457 62.7463 5.29416 61.523 4.11672C59.3403 2.03094 56.6704 0.761603 53.4882 0.30261C51.9467 0.0797144 51.6396 0.0137089 43.7515 0H33.0108Z" fill="url(#paint0_radial_2792_60729)"/>
<path d="M33.0108 0C19.2336 0 15.2043 0.0142166 14.4211 0.0792067C11.5937 0.314288 9.83441 0.759572 7.91772 1.71411C6.44061 2.44779 5.27568 3.29825 4.12597 4.49041C2.03214 6.66453 0.763144 9.33928 0.303769 12.5187C0.0804259 14.0622 0.0154535 14.377 0.00225599 22.2611C-0.00281998 24.8892 0.00225599 28.3479 0.00225599 32.9871C0.00225599 46.7568 0.0174839 50.7832 0.0834715 51.5651C0.31189 54.317 0.743347 56.0484 1.65702 57.9422C3.40315 61.5675 6.73807 64.2889 10.6669 65.3044C12.0272 65.6547 13.5297 65.8477 15.4586 65.9391C16.2758 65.9746 24.6055 66 32.9402 66C41.275 66 49.6097 65.9898 50.4066 65.9492C52.6401 65.8441 53.937 65.67 55.3709 65.2993C57.319 64.7996 59.1345 63.8806 60.6907 62.6063C62.2469 61.3321 63.5062 59.7334 64.3808 57.9219C65.2767 56.0738 65.731 54.2764 65.9365 51.6682C65.9812 51.0995 66 42.0329 66 32.9784C66 23.9225 65.9797 14.8726 65.935 14.3039C65.7269 11.6535 65.2726 9.87139 64.3478 7.98769C63.5889 6.4457 62.7463 5.29416 61.523 4.11672C59.3403 2.03094 56.6704 0.761603 53.4882 0.30261C51.9467 0.0797145 51.6396 0.0137089 43.7515 0H33.0108Z" fill="url(#paint1_radial_2792_60729)"/>
<path d="M33.0012 13.1211C27.6039 13.1211 26.9265 13.1447 24.8067 13.2412C22.691 13.3381 21.2468 13.6731 19.9832 14.1647C18.6761 14.6725 17.5674 15.3517 16.4627 16.457C15.3573 17.562 14.6782 18.671 14.169 19.9781C13.6763 21.2424 13.3409 22.6874 13.2457 24.8028C13.1513 26.9232 13.1265 27.6012 13.1265 33C13.1265 38.3987 13.1505 39.0742 13.2465 41.1946C13.3438 43.3109 13.6788 44.7554 14.1698 46.0194C14.6778 47.3268 15.3568 48.4359 16.4619 49.5409C17.5661 50.6466 18.6749 51.3275 19.9811 51.8352C21.2456 52.3268 22.6901 52.6618 24.8054 52.7587C26.9253 52.8552 27.6022 52.8788 32.9991 52.8788C38.3968 52.8788 39.0721 52.8552 41.1919 52.7587C43.3076 52.6618 44.7534 52.3268 46.0178 51.8352C47.3245 51.3275 48.4316 50.6466 49.5359 49.5409C50.6413 48.4359 51.3203 47.3268 51.8296 46.0198C52.3181 44.7554 52.6535 43.3105 52.7529 41.195C52.8481 39.0746 52.8729 38.3987 52.8729 33C52.8729 27.6012 52.8481 26.9237 52.7529 24.8032C52.6535 22.687 52.3181 21.2424 51.8296 19.9785C51.3203 18.671 50.6413 17.562 49.5359 16.457C48.4304 15.3513 47.3249 14.6721 46.0166 14.1647C44.7497 13.6731 43.3047 13.3381 41.189 13.2412C39.0692 13.1447 38.3943 13.1211 32.9954 13.1211H33.0012ZM31.2183 16.7034C31.7475 16.7026 32.3379 16.7034 33.0012 16.7034C38.3074 16.7034 38.9363 16.7225 41.0317 16.8177C42.9693 16.9064 44.021 17.2302 44.7215 17.5023C45.6489 17.8626 46.3102 18.2933 47.0053 18.9891C47.7009 19.6849 48.1315 20.3475 48.4925 21.2752C48.7645 21.9751 49.0887 23.027 49.1769 24.9652C49.2721 27.0607 49.2928 27.6902 49.2928 32.9954C49.2928 38.3006 49.2721 38.9301 49.1769 41.0257C49.0883 42.9638 48.7645 44.0158 48.4925 44.7157C48.1323 45.6434 47.7009 46.3039 47.0053 46.9993C46.3097 47.695 45.6494 48.1257 44.7215 48.486C44.0218 48.7594 42.9693 49.0824 41.0317 49.171C38.9367 49.2663 38.3074 49.287 33.0012 49.287C27.6945 49.287 27.0656 49.2663 24.9706 49.171C23.033 49.0816 21.9813 48.7577 21.2804 48.4856C20.3529 48.1253 19.6905 47.6946 18.9949 46.9988C18.2994 46.3031 17.8688 45.6421 17.5077 44.714C17.2357 44.0141 16.9115 42.9622 16.8233 41.024C16.7281 38.9284 16.7091 38.2989 16.7091 32.9904C16.7091 27.682 16.7281 27.0558 16.8233 24.9602C16.9119 23.022 17.2357 21.9701 17.5077 21.2694C17.8679 20.3417 18.2994 19.6791 18.9949 18.9833C19.6905 18.2875 20.3529 17.8568 21.2804 17.4957C21.9809 17.2224 23.033 16.8993 24.9706 16.8103C26.804 16.7275 27.5144 16.7026 31.2183 16.6985V16.7034ZM43.6094 20.0042C43.1377 20.0042 42.6766 20.1441 42.2844 20.4062C41.8922 20.6684 41.5866 21.041 41.4061 21.4769C41.2256 21.9129 41.1784 22.3925 41.2705 22.8553C41.3626 23.3181 41.5898 23.7431 41.9234 24.0767C42.257 24.4103 42.682 24.6374 43.1447 24.7294C43.6074 24.8213 44.0869 24.7739 44.5226 24.5933C44.9584 24.4126 45.3308 24.1067 45.5927 23.7143C45.8547 23.3219 45.9944 22.8606 45.9943 22.3888C45.9943 21.0718 44.9261 20.0033 43.6094 20.0033V20.0042ZM33.0012 22.7913C27.365 22.7913 22.7953 27.3622 22.7953 33C22.7953 38.6377 27.365 43.2065 33.0012 43.2065C38.6373 43.2065 43.2058 38.6377 43.2058 33C43.2058 27.3622 38.6369 22.7913 33.0007 22.7913H33.0012ZM33.0012 26.3737C36.6595 26.3737 39.6256 29.3402 39.6256 33C39.6256 36.6593 36.6595 39.6263 33.0012 39.6263C29.3424 39.6263 26.3767 36.6593 26.3767 33C26.3767 29.3402 29.3424 26.3737 33.0012 26.3737V26.3737Z" fill="white"/>
</g>
<defs>
<radialGradient id="paint0_radial_2792_60729" cx="0" cy="0" r="1" gradientUnits="userSpaceOnUse" gradientTransform="translate(17.5313 71.0834) rotate(-90) scale(65.4109 60.8373)">
<stop stop-color="#FFDD55"/>
<stop offset="0.1" stop-color="#FFDD55"/>
<stop offset="0.5" stop-color="#FF543E"/>
<stop offset="1" stop-color="#C837AB"/>
</radialGradient>
<radialGradient id="paint1_radial_2792_60729" cx="0" cy="0" r="1" gradientUnits="userSpaceOnUse" gradientTransform="translate(-11.0553 4.75453) rotate(78.6806) scale(29.2389 120.524)">
<stop stop-color="#3771C8"/>
<stop offset="0.128" stop-color="#3771C8"/>
<stop offset="1" stop-color="#6600FF" stop-opacity="0"/>
</radialGradient>
<clipPath id="clip0_2792_60729">
<rect width="66" height="66" fill="white"/>
</clipPath>
</defs>
</svg>
