<svg width="66" height="66" viewBox="0 0 66 66" fill="none" xmlns="http://www.w3.org/2000/svg">
<g clip-path="url(#clip0_2792_60736)">
<rect width="66" height="66" rx="14" fill="#4353FF"/>
<path d="M42.2702 27.4024C42.2702 27.4024 39.1609 37.3344 38.9076 38.1542C38.8154 37.3109 36.5353 19.4849 36.5353 19.4849C31.2381 19.4849 28.4052 23.3265 26.9081 27.3789C26.9081 27.3789 23.1309 37.3344 22.8085 38.1776C22.7855 37.4046 22.2327 27.4961 22.2327 27.4961C21.9103 22.5301 17.4421 19.5083 13.8262 19.5083L18.2022 46.5168C23.7528 46.4934 26.7469 42.6752 28.313 38.6227C28.313 38.6227 31.6526 29.8385 31.7908 29.4403C31.8138 29.8151 34.1861 46.5168 34.1861 46.5168C39.7597 46.5168 42.7538 42.9328 44.3661 39.0209L52.1738 19.5083C46.6692 19.5083 43.7672 23.3265 42.2702 27.4024Z" fill="white"/>
</g>
<defs>
<clipPath id="clip0_2792_60736">
<rect width="66" height="66" fill="white"/>
</clipPath>
</defs>
</svg>
