<svg width="81" height="80" viewBox="0 0 81 80" fill="none" xmlns="http://www.w3.org/2000/svg">
<g clip-path="url(#clip0_2450_26631)">
<rect width="80" height="80" transform="translate(0.744141)" fill="white"/>
<rect x="1.24414" y="0.5" width="79" height="79" fill="white" stroke="#EFF0F7"/>
<path fill-rule="evenodd" clip-rule="evenodd" d="M57.0545 30.0651C60.5758 30.0651 63.4303 27.2105 63.4303 23.6893C63.4303 20.168 60.5758 17.3135 57.0545 17.3135C53.5333 17.3135 50.6787 20.168 50.6787 23.6893C50.6787 27.2105 53.5333 30.0651 57.0545 30.0651Z" fill="#8055FA"/>
<path fill-rule="evenodd" clip-rule="evenodd" d="M57.0543 46.0784C60.5755 46.0784 63.4301 43.2239 63.4301 39.7028C63.4301 36.1816 60.5755 33.3271 57.0543 33.3271C53.533 33.3271 50.6785 36.1816 50.6785 39.7028C50.6785 43.2239 53.533 46.0784 57.0543 46.0784Z" fill="#7550FB"/>
<path fill-rule="evenodd" clip-rule="evenodd" d="M57.0543 62.6862C60.5755 62.6862 63.4301 59.8316 63.4301 56.3104C63.4301 52.7891 60.5755 49.9346 57.0543 49.9346C53.533 49.9346 50.6785 52.7891 50.6785 56.3104C50.6785 59.8316 53.533 62.6862 57.0543 62.6862Z" fill="#6A4AFC"/>
<path fill-rule="evenodd" clip-rule="evenodd" d="M40.4479 46.0784C43.969 46.0784 46.8235 43.2239 46.8235 39.7028C46.8235 36.1816 43.969 33.3271 40.4479 33.3271C36.9267 33.3271 34.0723 36.1816 34.0723 39.7028C34.0723 43.2239 36.9267 46.0784 40.4479 46.0784Z" fill="#6045FD"/>
<path fill-rule="evenodd" clip-rule="evenodd" d="M40.4476 62.6862C43.9688 62.6862 46.8232 59.8316 46.8232 56.3104C46.8232 52.7891 43.9688 49.9346 40.4476 49.9346C36.9265 49.9346 34.072 52.7891 34.072 56.3104C34.072 59.8316 36.9265 62.6862 40.4476 62.6862Z" fill="#553FFE"/>
<path fill-rule="evenodd" clip-rule="evenodd" d="M24.4337 62.6862C27.9549 62.6862 30.8095 59.8316 30.8095 56.3104C30.8095 52.7891 27.9549 49.9346 24.4337 49.9346C20.9124 49.9346 18.0579 52.7891 18.0579 56.3104C18.0579 59.8316 20.9124 62.6862 24.4337 62.6862Z" fill="#4A3AFF"/>
</g>
<defs>
<clipPath id="clip0_2450_26631">
<rect width="80" height="80" fill="white" transform="translate(0.744141)"/>
</clipPath>
</defs>
</svg>
