<svg width="38" height="58" viewBox="0 0 38 58" fill="none" xmlns="http://www.w3.org/2000/svg">
<g clip-path="url(#clip0_2319_8891)">
<path d="M9.50002 58C14.744 58 19 53.744 19 48.5V39H9.50002C4.25601 39 0 43.256 0 48.5C0 53.744 4.25601 58 9.50002 58Z" fill="#0ACF83"/>
<path d="M0 29.5003C0 24.2563 4.25601 20.0002 9.50002 20.0002H19V39.0003H9.50002C4.25601 39.0003 0 34.7443 0 29.5003Z" fill="#A259FF"/>
<path d="M0 10.5C0 5.25601 4.25601 1 9.50002 1H19V20H9.50002C4.25601 20 0 15.744 0 10.5Z" fill="#F24E1E"/>
<path d="M19 1H28.5C33.744 1 38 5.25601 38 10.5C38 15.744 33.744 20 28.5 20H19V1Z" fill="#FF7262"/>
<path d="M38 29.5003C38 34.7443 33.744 39.0003 28.5 39.0003C23.256 39.0003 19 34.7443 19 29.5003C19 24.2563 23.256 20.0002 28.5 20.0002C33.744 20.0002 38 24.2563 38 29.5003Z" fill="#1ABCFE"/>
</g>
<defs>
<clipPath id="clip0_2319_8891">
<rect width="38" height="58" fill="white"/>
</clipPath>
</defs>
</svg>
