<svg width="1650" height="720" viewBox="0 0 1650 720" fill="none" xmlns="http://www.w3.org/2000/svg">
<g clip-path="url(#clip0)">
<g filter="url(#filter0_d)">
<path d="M22 573C43 599.5 112 695 364 695C630.5 695 730 365 914.5 365C1099 365 1104.5 499.5 1361.5 499.5C1612.5 499.5 1413.5 5 1628 5" stroke="white"/>
</g>
<path d="M15 564C36 590.5 97.5 695 364 695C630.5 695 730 365 914.5 365C1099 365 1104.5 499.5 1361.5 499.5C1618.5 499.5 1403.5 5 1638.5 5" stroke="url(#paint0_linear)" stroke-width="8"/>
</g>
<defs>
<filter id="filter0_d" x="3.60815" y="-0.5" width="1642.39" height="727" filterUnits="userSpaceOnUse" color-interpolation-filters="sRGB">
<feFlood flood-opacity="0" result="BackgroundImageFix"/>
<feColorMatrix in="SourceAlpha" type="matrix" values="0 0 0 0 0 0 0 0 0 0 0 0 0 0 0 0 0 0 127 0"/>
<feOffset dy="13"/>
<feGaussianBlur stdDeviation="9"/>
<feColorMatrix type="matrix" values="0 0 0 0 0.996078 0 0 0 0 0.337255 0 0 0 0 0.376471 0 0 0 0.85 0"/>
<feBlend mode="normal" in2="BackgroundImageFix" result="effect1_dropShadow"/>
<feBlend mode="normal" in="SourceGraphic" in2="effect1_dropShadow" result="shape"/>
</filter>
<linearGradient id="paint0_linear" x1="1545.5" y1="32.4999" x2="52" y2="614.5" gradientUnits="userSpaceOnUse">
<stop stop-color="#FE5660"/>
<stop offset="0.5" stop-color="#F45786"/>
<stop offset="1" stop-color="#FE5660"/>
</linearGradient>
<clipPath id="clip0">
<rect width="1650" height="720" fill="white"/>
</clipPath>
</defs>
</svg>
