<svg width="54" height="54" viewBox="0 0 54 54" fill="none" xmlns="http://www.w3.org/2000/svg">
<rect width="54" height="54" fill="url(#paint0_radial)"/>
<path d="M22.5823 26.8158C22.5823 24.4775 24.4774 22.5814 26.8157 22.5814C29.1541 22.5814 31.0502 24.4775 31.0502 26.8158C31.0502 29.1541 29.1541 31.0502 26.8157 31.0502C24.4774 31.0502 22.5823 29.1541 22.5823 26.8158V26.8158ZM20.2933 26.8158C20.2933 30.4181 23.2134 33.3382 26.8157 33.3382C30.4181 33.3382 33.3382 30.4181 33.3382 26.8158C33.3382 23.2135 30.4181 20.2934 26.8157 20.2934C23.2134 20.2934 20.2934 23.2132 20.2934 26.8158H20.2933ZM32.0722 20.0347C32.0721 20.3362 32.1614 20.631 32.3288 20.8817C32.4962 21.1324 32.7341 21.3279 33.0126 21.4434C33.2911 21.5588 33.5976 21.5891 33.8933 21.5305C34.189 21.4718 34.4606 21.3267 34.6739 21.1136C34.8871 20.9005 35.0324 20.629 35.0913 20.3333C35.1503 20.0377 35.1202 19.7312 35.005 19.4526C34.8897 19.174 34.6944 18.9359 34.4438 18.7683C34.1932 18.6007 33.8986 18.5112 33.5971 18.5111H33.5965C33.1924 18.5113 32.8049 18.6718 32.5191 18.9575C32.2333 19.2432 32.0726 19.6307 32.0722 20.0347V20.0347ZM21.684 37.1552C20.4456 37.0988 19.7725 36.8925 19.3252 36.7182C18.7322 36.4874 18.309 36.2124 17.8641 35.7681C17.4193 35.3238 17.1439 34.9011 16.914 34.3081C16.7396 33.861 16.5333 33.1876 16.4771 31.9492C16.4155 30.6103 16.4032 30.2081 16.4032 26.816C16.4032 23.4239 16.4165 23.0228 16.4771 21.6828C16.5334 20.4444 16.7413 19.7724 16.914 19.3239C17.1449 18.7309 17.4199 18.3078 17.8641 17.8629C18.3084 17.418 18.7311 17.1426 19.3252 16.9127C19.7723 16.7384 20.4456 16.5321 21.684 16.4758C23.023 16.4142 23.4252 16.4019 26.8157 16.4019C30.2063 16.4019 30.6089 16.415 31.949 16.476C33.1874 16.5324 33.8594 16.7402 34.3078 16.913C34.9009 17.1428 35.324 17.4188 35.7689 17.8631C36.2138 18.3073 36.4881 18.7311 36.719 19.3241C36.8934 19.7713 37.0997 20.4446 37.156 21.683C37.2175 23.023 37.2298 23.4241 37.2298 26.8162C37.2298 30.2083 37.2175 30.6094 37.156 31.9494C37.0996 33.1878 36.8923 33.861 36.719 34.3083C36.4881 34.9013 36.2131 35.3245 35.7689 35.7683C35.3246 36.2122 34.9009 36.4876 34.3078 36.7184C33.8607 36.8928 33.1874 37.0991 31.949 37.1554C30.61 37.217 30.2078 37.2293 26.8157 37.2293C23.4236 37.2293 23.0226 37.217 21.684 37.1554V37.1552ZM21.5789 14.1905C20.2266 14.2521 19.3026 14.4665 18.4957 14.7805C17.6605 15.1048 16.9525 15.5398 16.2456 16.2456C15.5386 16.9515 15.1047 17.6595 14.7804 18.4957C14.4664 19.3032 14.252 20.2267 14.1905 21.5789C14.1279 22.9333 14.1135 23.3663 14.1135 26.8158C14.1135 30.2653 14.1279 30.6983 14.1905 32.0527C14.252 33.405 14.4664 34.3284 14.7804 35.1358C15.1047 35.971 15.5387 36.6804 16.2456 37.386C16.9524 38.0915 17.6595 38.5259 18.4957 38.8511C19.3042 39.1651 20.2266 39.3795 21.5789 39.4411C22.9339 39.5027 23.3662 39.518 26.8157 39.518C30.2653 39.518 30.6982 39.5037 32.0526 39.4411C33.4049 39.3795 34.3283 39.1651 35.1358 38.8511C35.971 38.5259 36.679 38.0918 37.3859 37.386C38.0929 36.6801 38.5259 35.971 38.851 35.1358C39.165 34.3284 39.3805 33.4049 39.441 32.0527C39.5026 30.6973 39.5169 30.2653 39.5169 26.8158C39.5169 23.3663 39.5026 22.9333 39.441 21.5789C39.3795 20.2266 39.165 19.3027 38.851 18.4957C38.5259 17.6606 38.0918 16.9526 37.3859 16.2456C36.6801 15.5387 35.971 15.1048 35.1368 14.7805C34.3283 14.4665 33.4048 14.2511 32.0536 14.1905C30.6991 14.1286 30.2663 14.1136 26.8173 14.1136C23.3683 14.1136 22.9345 14.1279 21.5794 14.1905" fill="white"/>
<defs>
<radialGradient id="paint0_radial" cx="0" cy="0" r="1" gradientUnits="userSpaceOnUse" gradientTransform="translate(3.49482 52.817) scale(68.56)">
<stop offset="0.09" stop-color="#FA8F21"/>
<stop offset="0.78" stop-color="#D82D7E"/>
</radialGradient>
</defs>
</svg>
