<svg width="224" height="175" viewBox="0 0 224 175" fill="none" xmlns="http://www.w3.org/2000/svg">
<g clip-path="url(#clip0)">
<g filter="url(#filter0_d)">
<path d="M213.081 116.845V103.273H199.51" stroke="#1B76FF" stroke-opacity="0.01" stroke-width="3" stroke-linecap="round" stroke-linejoin="round"/>
<path d="M213.081 103.273L197.119 119.236C196.839 119.516 196.507 119.738 196.141 119.89C195.774 120.042 195.382 120.12 194.986 120.12C194.59 120.12 194.197 120.042 193.831 119.89C193.465 119.738 193.133 119.516 192.853 119.236L186.564 112.946C186.283 112.666 185.951 112.444 185.585 112.292C185.219 112.141 184.826 112.062 184.43 112.062C184.034 112.062 183.642 112.141 183.276 112.292C182.91 112.444 182.577 112.666 182.297 112.946L167.843 127.401" stroke="#1B76FF" stroke-opacity="0.01" stroke-width="3" stroke-linecap="round" stroke-linejoin="round"/>
</g>
<path d="M213.081 116.845V103.273H199.51" stroke="#1B76FF" stroke-width="4" stroke-linecap="round" stroke-linejoin="round"/>
<path d="M213.081 103.273L197.119 119.236C196.839 119.516 196.507 119.738 196.141 119.89C195.774 120.042 195.382 120.12 194.986 120.12C194.59 120.12 194.197 120.042 193.831 119.89C193.465 119.738 193.133 119.516 192.853 119.236L186.564 112.946C186.283 112.666 185.951 112.444 185.585 112.292C185.219 112.141 184.826 112.062 184.43 112.062C184.034 112.062 183.642 112.141 183.276 112.292C182.91 112.444 182.577 112.666 182.297 112.946L167.843 127.401" stroke="#1B76FF" stroke-width="4" stroke-linecap="round" stroke-linejoin="round"/>
<path opacity="0.08" d="M147.76 15H75.7598C52.5638 15 33.7598 33.804 33.7598 57V129C33.7598 152.196 52.5638 171 75.7598 171H147.76C170.956 171 189.76 152.196 189.76 129V57C189.76 33.804 170.956 15 147.76 15Z" fill="#F4263E"/>
<g filter="url(#filter1_d)">
<path d="M8 123.607C47.838 123.607 27.0136 77.4308 84.0544 98.2553C141.095 119.08 133.291 57.009 160.938 75.5151C188.585 94.0212 193.791 54.527 215.521 50" stroke="#782CE4" stroke-opacity="0.01" stroke-width="4" stroke-linecap="round"/>
</g>
<path d="M8 123.607C47.838 123.607 27.0136 77.4308 84.0544 98.2553C141.095 119.08 133.291 57.009 160.938 75.5151C188.585 94.0212 193.791 54.527 215.521 50" stroke="#782CE4" stroke-width="5" stroke-linecap="round"/>
<g filter="url(#filter2_d)">
<path d="M63.5193 75.4043H160V136.303C160 139.703 157.242 142.461 153.841 142.461H69.6776C66.2765 142.461 63.5193 139.703 63.5193 136.303V75.4043Z" fill="#F4263E" fill-opacity="0.01"/>
</g>
<path d="M62.6953 74.8315H160.824V136.77C160.824 140.229 158.019 143.034 154.56 143.034H68.9588C65.4996 143.034 62.6953 140.229 62.6953 136.77V74.8315Z" fill="#F4263E"/>
<path d="M160.824 74.8315L113.746 42.1102C112.551 41.2803 110.968 41.2803 109.773 42.1102L62.6953 74.8315H160.824Z" fill="#F4263E"/>
<path d="M62.6953 74.8315L110.965 108.381C111.443 108.713 112.076 108.713 112.554 108.381L160.824 74.8315H62.6953Z" fill="#C6182C"/>
<g filter="url(#filter3_d)">
<path d="M75.78 35.176C75.78 31.9075 78.4298 29.2578 81.6985 29.2578H141.388C144.655 29.2578 147.305 31.9075 147.305 35.176V82.9236L111.248 108L75.78 82.6064V35.176Z" fill="white" fill-opacity="0.01"/>
</g>
<path d="M74.6064 34.0782C74.6064 30.7024 77.3432 27.9658 80.7191 27.9658H142.367C145.742 27.9658 148.479 30.7024 148.479 34.0782V83.3927L111.238 109.292L74.6064 83.0651V34.0782Z" fill="white"/>
<g filter="url(#filter4_d)">
<path d="M82.1551 52.0761C81.4892 49.8173 81.5756 47.4033 82.4014 45.1979C83.2271 42.9925 84.7474 41.1153 86.733 39.8493C88.7187 38.5832 91.0621 37.997 93.4099 38.1789C95.7578 38.3609 97.9829 39.3011 99.7498 40.8579" stroke="#1B76FF" stroke-opacity="0.01" stroke-width="3.2" stroke-linecap="round"/>
</g>
<path d="M82.1551 52.0761C81.4892 49.8173 81.5756 47.4033 82.4014 45.1979C83.2271 42.9925 84.7474 41.1153 86.733 39.8493C88.7187 38.5832 91.0621 37.997 93.4099 38.1789C95.7578 38.3609 97.9829 39.3011 99.7498 40.8579" stroke="#1B76FF" stroke-width="3.84653" stroke-linecap="round"/>
<g filter="url(#filter5_d)">
<path d="M99.7445 40.8533C100.906 41.8754 101.836 43.1338 102.471 44.5444C103.107 45.9549 103.434 47.485 103.43 49.0321" stroke="#FFCD1D" stroke-opacity="0.01" stroke-width="3.2" stroke-linecap="round"/>
</g>
<path d="M99.7445 40.8533C100.906 41.8754 101.836 43.1338 102.471 44.5444C103.107 45.9549 103.434 47.485 103.43 49.0321" stroke="#FFCD1D" stroke-width="3.84653" stroke-linecap="round"/>
<g filter="url(#filter6_d)">
<path d="M103.43 49.0056C103.43 51.6169 102.489 54.1408 100.779 56.1147C99.0699 58.0887 96.7062 59.3805 94.1216 59.7534C91.5371 60.1263 88.9047 59.5553 86.7068 58.1451C84.509 56.7349 82.8929 54.5799 82.1548 52.0751" stroke="#782CE4" stroke-opacity="0.01" stroke-width="3" stroke-linecap="round"/>
</g>
<path d="M103.43 49.0056C103.43 51.6169 102.489 54.1408 100.779 56.1147C99.0699 58.0887 96.7062 59.3805 94.1216 59.7534C91.5371 60.1263 88.9047 59.5553 86.7068 58.1451C84.509 56.7349 82.8929 54.5799 82.1548 52.0751" stroke="#782CE4" stroke-width="3.84653" stroke-linecap="round"/>
<g filter="url(#filter7_d)">
<path d="M81.7129 83.7583C94.5764 83.7583 95.2397 71.8096 104.887 70.9561C114.535 70.1026 117.751 78.1054 127.983 78.1054C138.216 78.1054 134.843 68.6284 141.139 68.6284" stroke="#FFCD1D" stroke-opacity="0.01" stroke-width="1.8" stroke-linecap="round"/>
</g>
<path d="M81.7129 83.7583C94.5764 83.7583 95.2397 71.8096 104.887 70.9561C114.535 70.1026 117.751 78.1054 127.983 78.1054C138.216 78.1054 134.843 68.6284 141.139 68.6284" stroke="#FFCD1D" stroke-width="2.29693" stroke-linecap="round"/>
<g filter="url(#filter8_d)">
<path d="M81.7119 83.7584C94.5632 83.7584 92.6631 76.162 105.668 79.9602C118.672 83.7584 116.896 72.511 124.49 71.3731C132.084 70.2351 134.363 78.0637 141.373 77.251" stroke="#1B76FF" stroke-opacity="0.01" stroke-width="1.8" stroke-linecap="round"/>
</g>
<path d="M81.7119 83.7584C94.5632 83.7584 92.6631 76.162 105.668 79.9602C118.672 83.7584 116.896 72.511 124.49 71.3731C132.084 70.2351 134.363 78.0637 141.373 77.251" stroke="#1B76FF" stroke-width="2.29693" stroke-linecap="round"/>
<g filter="url(#filter9_d)">
<path d="M116.423 35.4431H114.03C113.156 35.4431 112.448 36.1513 112.448 37.0249V39.4183C112.448 40.2919 113.156 41.0001 114.03 41.0001H116.423C117.297 41.0001 118.005 40.2919 118.005 39.4183V37.0249C118.005 36.1513 117.297 35.4431 116.423 35.4431Z" fill="#782CE4" fill-opacity="0.01"/>
</g>
<path d="M116.526 35.2051H113.927C112.979 35.2051 112.21 35.9739 112.21 36.9223V39.5207C112.21 40.4691 112.979 41.2379 113.927 41.2379H116.526C117.474 41.2379 118.243 40.4691 118.243 39.5207V36.9223C118.243 35.9739 117.474 35.2051 116.526 35.2051Z" fill="#782CE4"/>
<g filter="url(#filter10_d)">
<path d="M116.421 45.1008H114.032C113.16 45.1008 112.453 45.8078 112.453 46.6798V49.069C112.453 49.9411 113.16 50.648 114.032 50.648H116.421C117.293 50.648 118 49.9411 118 49.069V46.6798C118 45.8078 117.293 45.1008 116.421 45.1008Z" fill="#FFCD1D" fill-opacity="0.01"/>
</g>
<path d="M116.526 44.8579H113.927C112.979 44.8579 112.21 45.6267 112.21 46.5751V49.1736C112.21 50.122 112.979 50.8908 113.927 50.8908H116.526C117.474 50.8908 118.243 50.122 118.243 49.1736V46.5751C118.243 45.6267 117.474 44.8579 116.526 44.8579Z" fill="#FFCD1D"/>
<g filter="url(#filter11_d)">
<path d="M116.421 54.7532H114.032C113.16 54.7532 112.453 55.4601 112.453 56.3321V58.7214C112.453 59.5934 113.16 60.3003 114.032 60.3003H116.421C117.293 60.3003 118 59.5934 118 58.7214V56.3321C118 55.4601 117.293 54.7532 116.421 54.7532Z" fill="#1B76FF" fill-opacity="0.01"/>
</g>
<path d="M116.526 54.5103H113.927C112.979 54.5103 112.21 55.2791 112.21 56.2275V58.8259C112.21 59.7743 112.979 60.5431 113.927 60.5431H116.526C117.474 60.5431 118.243 59.7743 118.243 58.8259V56.2275C118.243 55.2791 117.474 54.5103 116.526 54.5103Z" fill="#1B76FF"/>
<path opacity="0.5" d="M141.345 37.0903H121.913C121.344 37.0903 120.883 37.5516 120.883 38.1207V38.3223C120.883 38.8914 121.344 39.3527 121.913 39.3527H141.345C141.914 39.3527 142.375 38.8914 142.375 38.3223V38.1207C142.375 37.5516 141.914 37.0903 141.345 37.0903Z" fill="#BEBFCC"/>
<path opacity="0.5" d="M136.299 46.7427H121.913C121.344 46.7427 120.883 47.204 120.883 47.773V47.9747C120.883 48.5437 121.344 49.005 121.913 49.005H136.299C136.868 49.005 137.329 48.5437 137.329 47.9747V47.773C137.329 47.204 136.868 46.7427 136.299 46.7427Z" fill="#BEBFCC"/>
<path opacity="0.5" d="M139.52 56.3955H121.913C121.344 56.3955 120.883 56.8568 120.883 57.4258V57.6275C120.883 58.1965 121.344 58.6578 121.913 58.6578H139.52C140.089 58.6578 140.55 58.1965 140.55 57.6275V57.4258C140.55 56.8568 140.089 56.3955 139.52 56.3955Z" fill="#BEBFCC"/>
<path d="M150.561 133.987L112.713 104.38C111.952 103.785 110.882 103.79 110.126 104.392L72.9629 133.987" stroke="#C6182C" stroke-width="4.39604" stroke-linecap="round"/>
<path d="M116.898 110.452L111.44 106.146L106.183 110.328L116.898 110.452Z" fill="#F4263E"/>
<g filter="url(#filter12_d)">
<path d="M55.357 43.8223H31.0609C24.6307 43.8223 19.4179 49.035 19.4179 55.4653V78.7958C19.4179 85.2261 24.6307 90.4389 31.0609 90.4389H55.357C61.7872 90.4389 67 85.2261 67 78.7958V55.4653C67 49.035 61.7872 43.8223 55.357 43.8223Z" fill="white" fill-opacity="0.01"/>
</g>
<path d="M56.0301 42.5308H30.3878C23.6012 42.5308 18.0996 48.0324 18.0996 54.819V79.4423C18.0996 86.2288 23.6012 91.7305 30.3878 91.7305H56.0301C62.8167 91.7305 68.3183 86.2288 68.3183 79.4423V54.819C68.3183 48.0324 62.8167 42.5308 56.0301 42.5308Z" fill="white"/>
<g filter="url(#filter13_d)">
<path d="M34 63.0097C34 61.1476 32.7907 59.6382 31.299 59.6382C29.8072 59.6382 28.5979 61.1476 28.5979 63.0097V79.6286C28.5979 81.4906 29.8072 83.0001 31.299 83.0001C32.7907 83.0001 34 81.4906 34 79.6286V63.0097Z" fill="#F4263E" fill-opacity="0.01"/>
</g>
<path d="M34.9534 62.3122C34.9534 60.2939 33.3172 58.6577 31.299 58.6577C29.2807 58.6577 27.6445 60.2939 27.6445 62.3122V80.326C27.6445 82.3443 29.2807 83.9804 31.299 83.9804C33.3172 83.9804 34.9534 82.3443 34.9534 80.326V62.3122Z" fill="#F4263E"/>
<g filter="url(#filter14_d)">
<path d="M46 68.7382C46 66.9228 44.7505 65.4512 43.2091 65.4512C41.6678 65.4512 40.4183 66.9228 40.4183 68.7382V79.713C40.4183 81.5284 41.6678 83 43.2091 83C44.7505 83 46 81.5284 46 79.713V68.7382Z" fill="#FF961B" fill-opacity="0.01"/>
</g>
<path d="M46.8636 68.1247C46.8636 66.1064 45.2274 64.4702 43.2091 64.4702C41.1908 64.4702 39.5547 66.1064 39.5547 68.1247V80.3265C39.5547 82.3448 41.1908 83.9809 43.2091 83.9809C45.2274 83.9809 46.8636 82.3448 46.8636 80.3265V68.1247Z" fill="#FF961B"/>
<g filter="url(#filter15_d)">
<path d="M58 55.309C58 53.4103 56.7102 51.8711 55.1192 51.8711C53.5282 51.8711 52.2385 53.4103 52.2385 55.309V79.5622C52.2385 81.4609 53.5282 83 55.1192 83C56.7102 83 58 81.4609 58 79.5622V55.309Z" fill="#782CE4" fill-opacity="0.01"/>
</g>
<path d="M58.7737 54.5451C58.7737 52.5268 57.1375 50.8906 55.1192 50.8906C53.1009 50.8906 51.4648 52.5268 51.4648 54.5451V80.3262C51.4648 82.3445 53.1009 83.9806 55.1192 83.9806C57.1375 83.9806 58.7737 82.3445 58.7737 80.3262V54.5451Z" fill="#782CE4"/>
</g>
<defs>
<filter id="filter0_d" x="160.343" y="100.773" width="60.238" height="39.128" filterUnits="userSpaceOnUse" color-interpolation-filters="sRGB">
<feFlood flood-opacity="0" result="BackgroundImageFix"/>
<feColorMatrix in="SourceAlpha" type="matrix" values="0 0 0 0 0 0 0 0 0 0 0 0 0 0 0 0 0 0 127 0"/>
<feOffset dy="5"/>
<feGaussianBlur stdDeviation="3"/>
<feColorMatrix type="matrix" values="0 0 0 0 0.104167 0 0 0 0 0.4625 0 0 0 0 1 0 0 0 0.22 0"/>
<feBlend mode="normal" in2="BackgroundImageFix" result="effect1_dropShadow"/>
<feBlend mode="normal" in="SourceGraphic" in2="effect1_dropShadow" result="shape"/>
</filter>
<filter id="filter1_d" x="0" y="44.9995" width="223.521" height="89.6074" filterUnits="userSpaceOnUse" color-interpolation-filters="sRGB">
<feFlood flood-opacity="0" result="BackgroundImageFix"/>
<feColorMatrix in="SourceAlpha" type="matrix" values="0 0 0 0 0 0 0 0 0 0 0 0 0 0 0 0 0 0 127 0"/>
<feOffset dy="3"/>
<feGaussianBlur stdDeviation="3"/>
<feColorMatrix type="matrix" values="0 0 0 0 0.470588 0 0 0 0 0.172549 0 0 0 0 0.894118 0 0 0 0.21 0"/>
<feBlend mode="normal" in2="BackgroundImageFix" result="effect1_dropShadow"/>
<feBlend mode="normal" in="SourceGraphic" in2="effect1_dropShadow" result="shape"/>
</filter>
<filter id="filter2_d" x="46.5193" y="74.4043" width="130.481" height="101.057" filterUnits="userSpaceOnUse" color-interpolation-filters="sRGB">
<feFlood flood-opacity="0" result="BackgroundImageFix"/>
<feColorMatrix in="SourceAlpha" type="matrix" values="0 0 0 0 0 0 0 0 0 0 0 0 0 0 0 0 0 0 127 0"/>
<feOffset dy="16"/>
<feGaussianBlur stdDeviation="8.5"/>
<feColorMatrix type="matrix" values="0 0 0 0 0.956863 0 0 0 0 0.14902 0 0 0 0 0.243137 0 0 0 0.21 0"/>
<feBlend mode="normal" in2="BackgroundImageFix" result="effect1_dropShadow"/>
<feBlend mode="normal" in="SourceGraphic" in2="effect1_dropShadow" result="shape"/>
</filter>
<filter id="filter3_d" x="53.78" y="0.257812" width="115.525" height="122.742" filterUnits="userSpaceOnUse" color-interpolation-filters="sRGB">
<feFlood flood-opacity="0" result="BackgroundImageFix"/>
<feColorMatrix in="SourceAlpha" type="matrix" values="0 0 0 0 0 0 0 0 0 0 0 0 0 0 0 0 0 0 127 0"/>
<feOffset dy="-7"/>
<feGaussianBlur stdDeviation="11"/>
<feColorMatrix type="matrix" values="0 0 0 0 0.121042 0 0 0 0 0.143938 0 0 0 0 0.35 0 0 0 0.1 0"/>
<feBlend mode="normal" in2="BackgroundImageFix" result="effect1_dropShadow"/>
<feBlend mode="normal" in="SourceGraphic" in2="effect1_dropShadow" result="shape"/>
</filter>
<filter id="filter4_d" x="78.1119" y="36.5464" width="25.2379" height="21.1301" filterUnits="userSpaceOnUse" color-interpolation-filters="sRGB">
<feFlood flood-opacity="0" result="BackgroundImageFix"/>
<feColorMatrix in="SourceAlpha" type="matrix" values="0 0 0 0 0 0 0 0 0 0 0 0 0 0 0 0 0 0 127 0"/>
<feOffset dy="2"/>
<feGaussianBlur stdDeviation="1"/>
<feColorMatrix type="matrix" values="0 0 0 0 0.104167 0 0 0 0 0.4625 0 0 0 0 1 0 0 0 0.15 0"/>
<feBlend mode="normal" in2="BackgroundImageFix" result="effect1_dropShadow"/>
<feBlend mode="normal" in="SourceGraphic" in2="effect1_dropShadow" result="shape"/>
</filter>
<filter id="filter5_d" x="96.1445" y="38.2532" width="10.8856" height="15.3788" filterUnits="userSpaceOnUse" color-interpolation-filters="sRGB">
<feFlood flood-opacity="0" result="BackgroundImageFix"/>
<feColorMatrix in="SourceAlpha" type="matrix" values="0 0 0 0 0 0 0 0 0 0 0 0 0 0 0 0 0 0 127 0"/>
<feOffset dy="1"/>
<feGaussianBlur stdDeviation="1"/>
<feColorMatrix type="matrix" values="0 0 0 0 1 0 0 0 0 0.80475 0 0 0 0 0.1125 0 0 0 0.2 0"/>
<feBlend mode="normal" in2="BackgroundImageFix" result="effect1_dropShadow"/>
<feBlend mode="normal" in="SourceGraphic" in2="effect1_dropShadow" result="shape"/>
</filter>
<filter id="filter6_d" x="78.6544" y="47.0056" width="28.2756" height="17.8591" filterUnits="userSpaceOnUse" color-interpolation-filters="sRGB">
<feFlood flood-opacity="0" result="BackgroundImageFix"/>
<feColorMatrix in="SourceAlpha" type="matrix" values="0 0 0 0 0 0 0 0 0 0 0 0 0 0 0 0 0 0 127 0"/>
<feOffset dy="1.5"/>
<feGaussianBlur stdDeviation="1"/>
<feColorMatrix type="matrix" values="0 0 0 0 0.470588 0 0 0 0 0.172549 0 0 0 0 0.894118 0 0 0 0.2 0"/>
<feBlend mode="normal" in2="BackgroundImageFix" result="effect1_dropShadow"/>
<feBlend mode="normal" in="SourceGraphic" in2="effect1_dropShadow" result="shape"/>
</filter>
<filter id="filter7_d" x="77.8129" y="65.7285" width="67.2261" height="22.9299" filterUnits="userSpaceOnUse" color-interpolation-filters="sRGB">
<feFlood flood-opacity="0" result="BackgroundImageFix"/>
<feColorMatrix in="SourceAlpha" type="matrix" values="0 0 0 0 0 0 0 0 0 0 0 0 0 0 0 0 0 0 127 0"/>
<feOffset dy="1"/>
<feGaussianBlur stdDeviation="1.5"/>
<feColorMatrix type="matrix" values="0 0 0 0 1 0 0 0 0 0.80475 0 0 0 0 0.1125 0 0 0 0.28 0"/>
<feBlend mode="normal" in2="BackgroundImageFix" result="effect1_dropShadow"/>
<feBlend mode="normal" in="SourceGraphic" in2="effect1_dropShadow" result="shape"/>
</filter>
<filter id="filter8_d" x="77.8119" y="68.3599" width="67.4612" height="20.2985" filterUnits="userSpaceOnUse" color-interpolation-filters="sRGB">
<feFlood flood-opacity="0" result="BackgroundImageFix"/>
<feColorMatrix in="SourceAlpha" type="matrix" values="0 0 0 0 0 0 0 0 0 0 0 0 0 0 0 0 0 0 127 0"/>
<feOffset dy="1"/>
<feGaussianBlur stdDeviation="1.5"/>
<feColorMatrix type="matrix" values="0 0 0 0 0.104167 0 0 0 0 0.4625 0 0 0 0 1 0 0 0 0.2 0"/>
<feBlend mode="normal" in2="BackgroundImageFix" result="effect1_dropShadow"/>
<feBlend mode="normal" in="SourceGraphic" in2="effect1_dropShadow" result="shape"/>
</filter>
<filter id="filter9_d" x="110.448" y="34.4431" width="9.55698" height="9.55698" filterUnits="userSpaceOnUse" color-interpolation-filters="sRGB">
<feFlood flood-opacity="0" result="BackgroundImageFix"/>
<feColorMatrix in="SourceAlpha" type="matrix" values="0 0 0 0 0 0 0 0 0 0 0 0 0 0 0 0 0 0 127 0"/>
<feOffset dy="1"/>
<feGaussianBlur stdDeviation="1"/>
<feColorMatrix type="matrix" values="0 0 0 0 0.470588 0 0 0 0 0.172549 0 0 0 0 0.894118 0 0 0 0.25 0"/>
<feBlend mode="normal" in2="BackgroundImageFix" result="effect1_dropShadow"/>
<feBlend mode="normal" in="SourceGraphic" in2="effect1_dropShadow" result="shape"/>
</filter>
<filter id="filter10_d" x="110.453" y="44.1008" width="9.54715" height="9.54715" filterUnits="userSpaceOnUse" color-interpolation-filters="sRGB">
<feFlood flood-opacity="0" result="BackgroundImageFix"/>
<feColorMatrix in="SourceAlpha" type="matrix" values="0 0 0 0 0 0 0 0 0 0 0 0 0 0 0 0 0 0 127 0"/>
<feOffset dy="1"/>
<feGaussianBlur stdDeviation="1"/>
<feColorMatrix type="matrix" values="0 0 0 0 1 0 0 0 0 0.80475 0 0 0 0 0.1125 0 0 0 0.25 0"/>
<feBlend mode="normal" in2="BackgroundImageFix" result="effect1_dropShadow"/>
<feBlend mode="normal" in="SourceGraphic" in2="effect1_dropShadow" result="shape"/>
</filter>
<filter id="filter11_d" x="109.453" y="53.7532" width="11.5471" height="11.5472" filterUnits="userSpaceOnUse" color-interpolation-filters="sRGB">
<feFlood flood-opacity="0" result="BackgroundImageFix"/>
<feColorMatrix in="SourceAlpha" type="matrix" values="0 0 0 0 0 0 0 0 0 0 0 0 0 0 0 0 0 0 127 0"/>
<feOffset dy="2"/>
<feGaussianBlur stdDeviation="1.5"/>
<feColorMatrix type="matrix" values="0 0 0 0 0.104167 0 0 0 0 0.4625 0 0 0 0 1 0 0 0 0.18 0"/>
<feBlend mode="normal" in2="BackgroundImageFix" result="effect1_dropShadow"/>
<feBlend mode="normal" in="SourceGraphic" in2="effect1_dropShadow" result="shape"/>
</filter>
<filter id="filter12_d" x="9.41791" y="36.8223" width="67.5821" height="66.6166" filterUnits="userSpaceOnUse" color-interpolation-filters="sRGB">
<feFlood flood-opacity="0" result="BackgroundImageFix"/>
<feColorMatrix in="SourceAlpha" type="matrix" values="0 0 0 0 0 0 0 0 0 0 0 0 0 0 0 0 0 0 127 0"/>
<feOffset dy="3"/>
<feGaussianBlur stdDeviation="5"/>
<feColorMatrix type="matrix" values="0 0 0 0 0.121042 0 0 0 0 0.143938 0 0 0 0 0.35 0 0 0 0.08 0"/>
<feBlend mode="normal" in2="BackgroundImageFix" result="effect1_dropShadow"/>
<feBlend mode="normal" in="SourceGraphic" in2="effect1_dropShadow" result="shape"/>
</filter>
<filter id="filter13_d" x="23.5979" y="57.6382" width="15.4021" height="33.3619" filterUnits="userSpaceOnUse" color-interpolation-filters="sRGB">
<feFlood flood-opacity="0" result="BackgroundImageFix"/>
<feColorMatrix in="SourceAlpha" type="matrix" values="0 0 0 0 0 0 0 0 0 0 0 0 0 0 0 0 0 0 127 0"/>
<feOffset dy="3"/>
<feGaussianBlur stdDeviation="2.5"/>
<feColorMatrix type="matrix" values="0 0 0 0 0.956863 0 0 0 0 0.14902 0 0 0 0 0.243137 0 0 0 0.12 0"/>
<feBlend mode="normal" in2="BackgroundImageFix" result="effect1_dropShadow"/>
<feBlend mode="normal" in="SourceGraphic" in2="effect1_dropShadow" result="shape"/>
</filter>
<filter id="filter14_d" x="35.4183" y="62.4512" width="15.5817" height="27.5489" filterUnits="userSpaceOnUse" color-interpolation-filters="sRGB">
<feFlood flood-opacity="0" result="BackgroundImageFix"/>
<feColorMatrix in="SourceAlpha" type="matrix" values="0 0 0 0 0 0 0 0 0 0 0 0 0 0 0 0 0 0 127 0"/>
<feOffset dy="2"/>
<feGaussianBlur stdDeviation="2.5"/>
<feColorMatrix type="matrix" values="0 0 0 0 1 0 0 0 0 0.587917 0 0 0 0 0.104167 0 0 0 0.35 0"/>
<feBlend mode="normal" in2="BackgroundImageFix" result="effect1_dropShadow"/>
<feBlend mode="normal" in="SourceGraphic" in2="effect1_dropShadow" result="shape"/>
</filter>
<filter id="filter15_d" x="49.2385" y="51.8711" width="11.7615" height="37.129" filterUnits="userSpaceOnUse" color-interpolation-filters="sRGB">
<feFlood flood-opacity="0" result="BackgroundImageFix"/>
<feColorMatrix in="SourceAlpha" type="matrix" values="0 0 0 0 0 0 0 0 0 0 0 0 0 0 0 0 0 0 127 0"/>
<feOffset dy="3"/>
<feGaussianBlur stdDeviation="1.5"/>
<feColorMatrix type="matrix" values="0 0 0 0 0.470588 0 0 0 0 0.172549 0 0 0 0 0.894118 0 0 0 0.3 0"/>
<feBlend mode="normal" in2="BackgroundImageFix" result="effect1_dropShadow"/>
<feBlend mode="normal" in="SourceGraphic" in2="effect1_dropShadow" result="shape"/>
</filter>
<clipPath id="clip0">
<rect width="224" height="175" fill="white"/>
</clipPath>
</defs>
</svg>
