<svg width="56" height="56" viewBox="0 0 56 56" fill="none" xmlns="http://www.w3.org/2000/svg">
<path d="M38 0H18C8.05887 0 0 8.05887 0 18V38C0 47.9411 8.05887 56 18 56H38C47.9411 56 56 47.9411 56 38V18C56 8.05887 47.9411 0 38 0Z" fill="#FFF1F3"/>
<g filter="url(#filter0_d)">
<path d="M42.86 21.29C42.8182 21.2722 42.7721 21.2674 42.7275 21.2761C42.683 21.2848 42.642 21.3066 42.61 21.3387L30.4262 33.52C29.7816 34.1642 28.9076 34.5261 27.9962 34.5261C27.0849 34.5261 26.2109 34.1642 25.5663 33.52L13.3875 21.3387C13.3556 21.3063 13.3147 21.2843 13.2701 21.2756C13.2254 21.2669 13.1792 21.2719 13.1375 21.29C13.0965 21.3076 13.0616 21.337 13.0372 21.3743C13.0127 21.4117 12.9998 21.4554 13 21.5V36.5C13 37.163 13.2634 37.7989 13.7322 38.2678C14.2011 38.7366 14.837 39 15.5 39H40.5C41.163 39 41.7989 38.7366 42.2678 38.2678C42.7366 37.7989 43 37.163 43 36.5V21.5C43.0002 21.455 42.9869 21.4111 42.962 21.3737C42.9371 21.3363 42.9016 21.3071 42.86 21.29Z" fill="#F4263E" fill-opacity="0.01"/>
<path d="M26.8909 32.195C27.1842 32.4875 27.5816 32.6518 27.9959 32.6518C28.4101 32.6518 28.8075 32.4875 29.1009 32.195L41.2084 20.0875C41.2903 20.0055 41.3479 19.9024 41.3746 19.7896C41.4013 19.6768 41.3961 19.5588 41.3596 19.4488C41.2221 19.0375 40.8396 19 40.4971 19H15.4971C15.1534 19 14.7684 19.0375 14.6334 19.4488C14.5969 19.5588 14.5917 19.6768 14.6184 19.7896C14.6451 19.9024 14.7026 20.0055 14.7846 20.0875L26.8909 32.195Z" fill="#F4263E" fill-opacity="0.01"/>
</g>
<path d="M42.86 21.29C42.8182 21.2722 42.7721 21.2674 42.7275 21.2761C42.683 21.2848 42.642 21.3066 42.61 21.3387L30.4262 33.52C29.7816 34.1642 28.9076 34.5261 27.9962 34.5261C27.0849 34.5261 26.2109 34.1642 25.5663 33.52L13.3875 21.3387C13.3556 21.3063 13.3147 21.2843 13.2701 21.2756C13.2254 21.2669 13.1792 21.2719 13.1375 21.29C13.0965 21.3076 13.0616 21.337 13.0372 21.3743C13.0127 21.4117 12.9998 21.4554 13 21.5V36.5C13 37.163 13.2634 37.7989 13.7322 38.2678C14.2011 38.7366 14.837 39 15.5 39H40.5C41.163 39 41.7989 38.7366 42.2678 38.2678C42.7366 37.7989 43 37.163 43 36.5V21.5C43.0002 21.455 42.9869 21.4111 42.962 21.3737C42.9371 21.3363 42.9016 21.3071 42.86 21.29Z" fill="#F4263E"/>
<path d="M26.8909 32.195C27.1842 32.4875 27.5816 32.6518 27.9959 32.6518C28.4101 32.6518 28.8075 32.4875 29.1009 32.195L41.2084 20.0875C41.2903 20.0055 41.3479 19.9024 41.3746 19.7896C41.4013 19.6768 41.3961 19.5588 41.3596 19.4488C41.2221 19.0375 40.8396 19 40.4971 19H15.4971C15.1534 19 14.7684 19.0375 14.6334 19.4488C14.5969 19.5588 14.5917 19.6768 14.6184 19.7896C14.6451 19.9024 14.7026 20.0055 14.7846 20.0875L26.8909 32.195Z" fill="#F4263E"/>
<defs>
<filter id="filter0_d" x="9" y="18" width="38" height="28" filterUnits="userSpaceOnUse" color-interpolation-filters="sRGB">
<feFlood flood-opacity="0" result="BackgroundImageFix"/>
<feColorMatrix in="SourceAlpha" type="matrix" values="0 0 0 0 0 0 0 0 0 0 0 0 0 0 0 0 0 0 127 0"/>
<feOffset dy="3"/>
<feGaussianBlur stdDeviation="2"/>
<feColorMatrix type="matrix" values="0 0 0 0 0.956863 0 0 0 0 0.14902 0 0 0 0 0.243137 0 0 0 0.26 0"/>
<feBlend mode="normal" in2="BackgroundImageFix" result="effect1_dropShadow"/>
<feBlend mode="normal" in="SourceGraphic" in2="effect1_dropShadow" result="shape"/>
</filter>
</defs>
</svg>
