<svg width="12" height="12" viewBox="0 0 12 12" fill="none" xmlns="http://www.w3.org/2000/svg">
<path d="M11.687 0.140547C11.5254 0.0245871 11.3243 -0.0223735 11.1281 0.00999493C10.9318 0.0423634 10.7564 0.15141 10.6405 0.313147L3.62305 10.1028L1.28056 7.75697C1.13993 7.61619 0.949167 7.53708 0.750239 7.53703C0.55131 7.53698 0.36051 7.61601 0.219813 7.75672C0.079116 7.89743 4.69048e-05 8.08831 2.08617e-08 8.28735C-4.68631e-05 8.4864 0.0789323 8.67731 0.219563 8.81809L3.18706 11.7868C3.26497 11.8618 3.35793 11.9194 3.45977 11.9557C3.56162 11.992 3.67002 12.0063 3.77778 11.9975C3.88555 11.9887 3.99021 11.957 4.08482 11.9047C4.17943 11.8523 4.26183 11.7804 4.32655 11.6938L11.8595 1.18766C11.9754 1.02591 12.0224 0.824725 11.99 0.628356C11.9577 0.431987 11.8487 0.256518 11.687 0.140547Z" fill="white"/>
</svg>
