<svg width="29" height="34" viewBox="0 0 29 34" fill="none" xmlns="http://www.w3.org/2000/svg">
<g filter="url(#filter0_d)">
<path d="M14.4997 17.8079C18.3088 17.8079 21.3968 14.72 21.3968 10.9108C21.3968 7.10162 18.3088 4.01367 14.4997 4.01367C10.6905 4.01367 7.60254 7.10162 7.60254 10.9108C7.60254 14.72 10.6905 17.8079 14.4997 17.8079Z" fill="white" fill-opacity="0.01"/>
<path d="M14.5 2C11.9813 2.00291 9.56667 3.00474 7.7857 4.7857C6.00474 6.56667 5.00291 8.98134 5 11.5C5 18.047 11.538 23.988 13.541 25.653C13.8103 25.8767 14.1494 25.9992 14.4995 25.9992C14.8496 25.9992 15.1887 25.8767 15.458 25.653C17.458 23.988 24 18.045 24 11.499C23.9968 8.98051 22.9949 6.5661 21.2139 4.78535C19.433 3.0046 17.0185 2.00291 14.5 2ZM14.5 16.5C13.5111 16.5 12.5444 16.2068 11.7221 15.6573C10.8999 15.1079 10.259 14.327 9.8806 13.4134C9.50216 12.4998 9.40315 11.4945 9.59607 10.5245C9.789 9.55464 10.2652 8.66373 10.9645 7.96447C11.6637 7.2652 12.5546 6.789 13.5245 6.59607C14.4945 6.40315 15.4998 6.50216 16.4134 6.8806C17.327 7.25904 18.1079 7.8999 18.6573 8.72215C19.2068 9.54439 19.5 10.5111 19.5 11.5C19.5 12.1566 19.3707 12.8068 19.1194 13.4134C18.8681 14.02 18.4998 14.5712 18.0355 15.0355C17.5712 15.4998 17.02 15.8681 16.4134 16.1194C15.8068 16.3707 15.1566 16.5 14.5 16.5Z" fill="#F4263E" fill-opacity="0.01"/>
</g>
<path d="M14.4997 17.8079C18.3088 17.8079 21.3968 14.72 21.3968 10.9108C21.3968 7.10162 18.3088 4.01367 14.4997 4.01367C10.6905 4.01367 7.60254 7.10162 7.60254 10.9108C7.60254 14.72 10.6905 17.8079 14.4997 17.8079Z" fill="white"/>
<path d="M14.5 2C11.9813 2.00291 9.56667 3.00474 7.7857 4.7857C6.00474 6.56667 5.00291 8.98134 5 11.5C5 18.047 11.538 23.988 13.541 25.653C13.8103 25.8767 14.1494 25.9992 14.4995 25.9992C14.8496 25.9992 15.1887 25.8767 15.458 25.653C17.458 23.988 24 18.045 24 11.499C23.9968 8.98051 22.9949 6.5661 21.2139 4.78535C19.433 3.0046 17.0185 2.00291 14.5 2ZM14.5 16.5C13.5111 16.5 12.5444 16.2068 11.7221 15.6573C10.8999 15.1079 10.259 14.327 9.8806 13.4134C9.50216 12.4998 9.40315 11.4945 9.59607 10.5245C9.789 9.55464 10.2652 8.66373 10.9645 7.96447C11.6637 7.2652 12.5546 6.789 13.5245 6.59607C14.4945 6.40315 15.4998 6.50216 16.4134 6.8806C17.327 7.25904 18.1079 7.8999 18.6573 8.72215C19.2068 9.54439 19.5 10.5111 19.5 11.5C19.5 12.1566 19.3707 12.8068 19.1194 13.4134C18.8681 14.02 18.4998 14.5712 18.0355 15.0355C17.5712 15.4998 17.02 15.8681 16.4134 16.1194C15.8068 16.3707 15.1566 16.5 14.5 16.5Z" fill="#F4263E"/>
<defs>
<filter id="filter0_d" x="0" y="0" width="29" height="33.9992" filterUnits="userSpaceOnUse" color-interpolation-filters="sRGB">
<feFlood flood-opacity="0" result="BackgroundImageFix"/>
<feColorMatrix in="SourceAlpha" type="matrix" values="0 0 0 0 0 0 0 0 0 0 0 0 0 0 0 0 0 0 127 0"/>
<feOffset dy="3"/>
<feGaussianBlur stdDeviation="2.5"/>
<feColorMatrix type="matrix" values="0 0 0 0 0.956863 0 0 0 0 0.14902 0 0 0 0 0.243137 0 0 0 0.22 0"/>
<feBlend mode="normal" in2="BackgroundImageFix" result="effect1_dropShadow"/>
<feBlend mode="normal" in="SourceGraphic" in2="effect1_dropShadow" result="shape"/>
</filter>
</defs>
</svg>
