<svg width="54" height="54" viewBox="0 0 54 54" fill="none" xmlns="http://www.w3.org/2000/svg">
<rect width="54" height="54" fill="#0A66C2"/>
<path d="M15.5249 18.6898C15.5249 17.977 15.7752 17.3889 16.2759 16.9256C16.7765 16.4623 17.4274 16.2307 18.2284 16.2307C19.0152 16.2307 19.6517 16.4587 20.138 16.9149C20.6387 17.3854 20.889 17.9984 20.889 18.754C20.889 19.4383 20.6458 20.0085 20.1595 20.4647C19.6589 20.9352 19.0008 21.1704 18.1855 21.1704H18.164C17.3773 21.1704 16.7408 20.9352 16.2544 20.4647C15.7681 19.9943 15.5249 19.4026 15.5249 18.6898ZM15.8038 37.401V23.1164H20.5672V37.401H15.8038ZM23.2063 37.401H27.9696V29.4247C27.9696 28.9257 28.0269 28.5408 28.1413 28.27C28.3415 27.7852 28.6455 27.3754 29.0532 27.0404C29.4609 26.7053 29.9722 26.5378 30.5873 26.5378C32.1894 26.5378 32.9904 27.6142 32.9904 29.7668V37.401H37.7538V29.2109C37.7538 27.1009 37.2531 25.5007 36.2518 24.4101C35.2505 23.3195 33.9274 22.7742 32.2824 22.7742C30.4371 22.7742 28.9995 23.5654 27.9696 25.1479V25.1906H27.9482L27.9696 25.1479V23.1164H23.2063C23.2349 23.5726 23.2492 24.991 23.2492 27.3718C23.2492 29.7526 23.2349 33.0956 23.2063 37.401Z" fill="white"/>
</svg>
