<svg width="148" height="130" viewBox="0 0 148 130" fill="none" xmlns="http://www.w3.org/2000/svg">
<path opacity="0.33" d="M91.999 15H49.999C33.9827 15 20.999 27.9837 20.999 44V86C20.999 102.016 33.9827 115 49.999 115H91.999C108.015 115 120.999 102.016 120.999 86V44C120.999 27.9837 108.015 15 91.999 15Z" fill="#E7E8F1"/>
<g filter="url(#filter0_d)">
<path d="M70.6375 36.5947H25.0866C17.7067 36.5947 11.7241 42.5773 11.7241 49.9572V101.933C11.7241 109.313 17.7067 115.295 25.0866 115.295H70.6375C78.0174 115.295 84 109.313 84 101.933V49.9572C84 42.5773 78.0174 36.5947 70.6375 36.5947Z" fill="white" fill-opacity="0.01"/>
</g>
<path d="M71.7241 34.7173H24C16.268 34.7173 10 40.9853 10 48.7173V103.172C10 110.904 16.268 117.172 24 117.172H71.7241C79.4561 117.172 85.7241 110.904 85.7241 103.172V48.7173C85.7241 40.9853 79.4561 34.7173 71.7241 34.7173Z" fill="white"/>
<g filter="url(#filter1_d)">
<path d="M32.9279 93.2371H30.8764C30.1276 93.2371 29.5206 93.8441 29.5206 94.5928V96.6443C29.5206 97.3931 30.1276 98.0001 30.8764 98.0001H32.9279C33.6766 98.0001 34.2836 97.3931 34.2836 96.6443V94.5928C34.2836 93.8441 33.6766 93.2371 32.9279 93.2371Z" fill="#FFCD1D" fill-opacity="0.01"/>
</g>
<path d="M33.2013 92.6021H30.6029C29.6545 92.6021 28.8857 93.3709 28.8857 94.3193V96.9177C28.8857 97.8661 29.6545 98.6349 30.6029 98.6349H33.2013C34.1497 98.6349 34.9186 97.8661 34.9186 96.9177V94.3193C34.9186 93.3709 34.1497 92.6021 33.2013 92.6021Z" fill="#FFCD1D"/>
<g filter="url(#filter2_d)">
<path d="M32.8057 103.172H30.9985C30.3389 103.172 29.8042 103.707 29.8042 104.367V106.174C29.8042 106.833 30.3389 107.368 30.9985 107.368H32.8057C33.4653 107.368 34 106.833 34 106.174V104.367C34 103.707 33.4653 103.172 32.8057 103.172Z" fill="#1B76FF" fill-opacity="0.01"/>
</g>
<path d="M33.2013 102.254H30.6029C29.6545 102.254 28.8857 103.023 28.8857 103.971V106.57C28.8857 107.518 29.6545 108.287 30.6029 108.287H33.2013C34.1497 108.287 34.9186 107.518 34.9186 106.57V103.971C34.9186 103.023 34.1497 102.254 33.2013 102.254Z" fill="#1B76FF"/>
<path opacity="0.5" d="M55.3436 94.1187H39.0576C38.2292 94.1187 37.5576 94.7902 37.5576 95.6187C37.5576 96.4471 38.2292 97.1187 39.0576 97.1187H55.3436C56.172 97.1187 56.8436 96.4471 56.8436 95.6187C56.8436 94.7902 56.172 94.1187 55.3436 94.1187Z" fill="#BEBFCC"/>
<path opacity="0.5" d="M65.3378 103.771H39.0576C38.2292 103.771 37.5576 104.443 37.5576 105.271C37.5576 106.099 38.2292 106.771 39.0576 106.771H65.3378C66.1662 106.771 66.8378 106.099 66.8378 105.271C66.8378 104.443 66.1662 103.771 65.3378 103.771Z" fill="#BEBFCC"/>
<g filter="url(#filter3_d)">
<path d="M66.1357 67.5C66.1357 71.4329 64.9695 73.8925 62.7845 77.1626C60.5996 80.4326 57.4939 82.9813 53.8605 84.4863C50.227 85.9914 46.2287 86.3851 42.3715 85.6179C38.5142 84.8507 34.9711 82.9568 32.1901 80.1759C29.4092 77.3949 27.5153 73.8518 26.748 69.9945C25.9808 66.1372 26.3746 62.139 27.8796 58.5055C29.3846 54.8721 31.9334 51.7664 35.2034 49.5815C38.4735 47.3964 41.0671 46.2302 45 46.2302V67.5H66.1357Z" fill="#FFCD1D" fill-opacity="0.01"/>
</g>
<path d="M67.7381 66.1151C67.7381 70.3649 66.4779 74.5192 64.1168 78.0528C61.7558 81.5863 58.3999 84.3404 54.4737 85.9667C50.5474 87.593 46.227 88.0185 42.0589 87.1894C37.8908 86.3604 34.0622 84.3139 31.0571 81.3089C28.0521 78.3038 26.0056 74.4752 25.1765 70.3071C24.3475 66.139 24.773 61.8186 26.3993 57.8923C28.0256 53.9661 30.7797 50.6102 34.3132 48.2492C37.8468 45.8881 42.0011 44.6279 46.2509 44.6279V66.1151H67.7381Z" fill="#FFCD1D"/>
<g filter="url(#filter4_d)">
<path d="M50 41.9312C52.6835 41.9312 55.3407 42.4597 57.8198 43.4866C60.2991 44.5135 62.5517 46.0187 64.4492 47.9161C66.3467 49.8137 67.8519 52.0663 68.8788 54.5455C69.9057 57.0247 70.4342 59.6819 70.4342 62.3654H50V41.9312Z" fill="#1B76FF" fill-opacity="0.01"/>
</g>
<path d="M49.4735 41.4048C52.2953 41.4048 55.0894 41.9606 57.6963 43.0404C60.3033 44.1202 62.672 45.703 64.6673 47.6982C66.6625 49.6935 68.2453 52.0622 69.3251 54.6692C70.4049 57.2761 70.9607 60.0702 70.9607 62.892H49.4735V41.4048Z" fill="#1B76FF"/>
<g filter="url(#filter5_d)">
<path d="M116.739 15.2546H71.5355C64.2119 15.2546 58.2749 21.0706 58.2749 28.245V86.0097C58.2749 93.1841 64.2119 99 71.5355 99H116.739C124.063 99 130 93.1841 130 86.0097V28.245C130 21.0706 124.063 15.2546 116.739 15.2546Z" fill="white" fill-opacity="0.01"/>
</g>
<path d="M117.999 12H70.2754C62.5434 12 56.2754 18.268 56.2754 26V88.2546C56.2754 95.9866 62.5434 102.255 70.2754 102.255H117.999C125.731 102.255 131.999 95.9866 131.999 88.2546V26C131.999 18.268 125.731 12 117.999 12Z" fill="white"/>
<g filter="url(#filter6_d)">
<path d="M104.272 25.2126H104.272C103.318 25.2126 102.544 26.1409 102.544 27.286V48.9266C102.544 50.0717 103.318 51 104.272 51C105.226 51 106 50.0717 106 48.9266V27.286C106 26.1409 105.226 25.2126 104.272 25.2126Z" fill="#FFCD1D" fill-opacity="0.01"/>
</g>
<path d="M104.272 24.1064H104.272C103.029 24.1064 102.021 25.1143 102.021 26.3576V49.8551C102.021 51.0984 103.029 52.1062 104.272 52.1062H104.272C105.515 52.1062 106.523 51.0984 106.523 49.8551V26.3576C106.523 25.1143 105.515 24.1064 104.272 24.1064Z" fill="#FFCD1D"/>
<g filter="url(#filter7_d)">
<path d="M113.277 37.0015H113.277C112.326 37.0015 111.554 37.8718 111.554 38.9455V49.056C111.554 50.1297 112.326 51 113.277 51C114.229 51 115 50.1297 115 49.056V38.9455C115 37.8718 114.229 37.0015 113.277 37.0015Z" fill="#FF961B" fill-opacity="0.01"/>
</g>
<path d="M113.277 35.8955H113.277C112.034 35.8955 111.026 36.9034 111.026 38.1467V49.8547C111.026 51.098 112.034 52.1059 113.277 52.1059C114.52 52.1059 115.528 51.098 115.528 49.8547V38.1467C115.528 36.9034 114.52 35.8955 113.277 35.8955Z" fill="#FF961B"/>
<g filter="url(#filter8_d)">
<path d="M122.282 28.8967H122.282C121.333 28.8967 120.564 29.8129 120.564 30.9431V48.9536C120.564 50.0838 121.333 51 122.282 51C123.231 51 124 50.0838 124 48.9536V30.9431C124 29.8129 123.231 28.8967 122.282 28.8967Z" fill="#F4263E" fill-opacity="0.01"/>
</g>
<path d="M122.282 27.7905H122.282C121.039 27.7905 120.031 28.7984 120.031 30.0417V49.855C120.031 51.0983 121.039 52.1062 122.282 52.1062H122.282C123.526 52.1062 124.533 51.0983 124.533 49.855V30.0417C124.533 28.7984 123.526 27.7905 122.282 27.7905Z" fill="#F4263E"/>
<path opacity="0.5" d="M113.962 59.1489H67.2598C66.4314 59.1489 65.7598 59.8205 65.7598 60.6489C65.7598 61.4774 66.4314 62.1489 67.2598 62.1489H113.962C114.791 62.1489 115.462 61.4774 115.462 60.6489C115.462 59.8205 114.791 59.1489 113.962 59.1489Z" fill="#BEBFCC"/>
<path opacity="0.5" d="M91.45 66.1489H67.2598C66.4314 66.1489 65.7598 66.8205 65.7598 67.6489C65.7598 68.4774 66.4314 69.1489 67.2598 69.1489H91.45C92.2784 69.1489 92.95 68.4774 92.95 67.6489C92.95 66.8205 92.2784 66.1489 91.45 66.1489Z" fill="#BEBFCC"/>
<path opacity="0.5" d="M122.98 73.0957H67.3132C66.4553 73.0957 65.7598 73.7912 65.7598 74.6491V74.6491C65.7598 75.507 66.4553 76.2025 67.3132 76.2025H122.98C123.838 76.2025 124.534 75.507 124.534 74.6491C124.534 73.7912 123.838 73.0957 122.98 73.0957Z" fill="#BEBFCC"/>
<g filter="url(#filter9_d)">
<path d="M97.5169 80.2979H67.4312C66.6121 80.2979 65.9481 80.9027 65.9481 81.6489C65.9481 82.395 66.6121 82.9999 67.4312 82.9999H97.5169C98.336 82.9999 99 82.395 99 81.6489C99 80.9027 98.336 80.2979 97.5169 80.2979Z" fill="#782CE4" fill-opacity="0.01"/>
</g>
<path d="M97.6883 80.1489H67.2598C66.4314 80.1489 65.7598 80.8205 65.7598 81.6489C65.7598 82.4774 66.4314 83.1489 67.2598 83.1489H97.6883C98.5168 83.1489 99.1883 82.4774 99.1883 81.6489C99.1883 80.8205 98.5168 80.1489 97.6883 80.1489Z" fill="#782CE4"/>
<path opacity="0.5" d="M115.815 87.1489H67.2598C66.4314 87.1489 65.7598 87.8205 65.7598 88.6489C65.7598 89.4774 66.4314 90.1489 67.2598 90.1489H115.815C116.644 90.1489 117.315 89.4774 117.315 88.6489C117.315 87.8205 116.644 87.1489 115.815 87.1489Z" fill="#BEBFCC"/>
<g filter="url(#filter10_d)">
<path d="M85.4342 24.8662H74.0855C69.907 24.8662 66.5197 28.2535 66.5197 32.432V43.7807C66.5197 47.9592 69.907 51.3466 74.0855 51.3466H85.4342C89.6127 51.3466 93 47.9592 93 43.7807V32.432C93 28.2535 89.6127 24.8662 85.4342 24.8662Z" fill="#F4263E" fill-opacity="0.01"/>
</g>
<path d="M85.7598 24.1064H73.7598C69.3415 24.1064 65.7598 27.6882 65.7598 32.1064V44.1064C65.7598 48.5247 69.3415 52.1064 73.7598 52.1064H85.7598C90.1781 52.1064 93.7598 48.5247 93.7598 44.1064V32.1064C93.7598 27.6882 90.1781 24.1064 85.7598 24.1064Z" fill="#F4263E"/>
<g filter="url(#filter11_d)">
<path d="M79.7598 30.8662C78.3278 30.8662 76.928 31.2908 75.7373 32.0865C74.5467 32.882 73.6187 34.0128 73.0707 35.3358C72.5227 36.6587 72.3793 38.1145 72.6587 39.519C72.9381 40.9234 73.6276 42.2135 74.6402 43.226C75.6527 44.2386 76.9428 44.9281 78.3472 45.2075C79.7517 45.4869 81.2075 45.3435 82.5304 44.7955C83.8534 44.2475 84.9842 43.3195 85.7797 42.1289C86.5754 40.9382 87 39.5384 87 38.1064C86.9979 36.1868 86.2344 34.3465 84.8771 32.9891C83.5197 31.6318 81.6794 30.8683 79.7598 30.8662ZM83.9332 38.6477L77.6537 42.0658C77.5617 42.1118 77.4596 42.1335 77.3568 42.1289C77.2541 42.1243 77.1543 42.0934 77.0669 42.0394C76.9794 41.9853 76.9071 41.9098 76.8571 41.8201C76.807 41.7303 76.7807 41.6292 76.7806 41.5264L76.7812 34.7936C76.7812 34.6909 76.8075 34.5898 76.8575 34.5C76.9076 34.4102 76.9796 34.3347 77.067 34.2806C77.1545 34.2265 77.2542 34.1956 77.3568 34.1909C77.4596 34.1862 77.5617 34.2078 77.6537 34.2536L83.9338 37.5653C84.0347 37.6152 84.1195 37.6923 84.1789 37.788C84.2382 37.8836 84.2696 37.9939 84.2696 38.1064C84.2695 38.219 84.238 38.3292 84.1785 38.4248C84.1191 38.5203 84.0341 38.5979 83.9332 38.6477Z" fill="white" fill-opacity="0.01"/>
</g>
<path d="M79.7598 30.1064C78.1775 30.1064 76.6308 30.5756 75.3152 31.4547C73.9996 32.3337 72.9742 33.5832 72.3687 35.045C71.7632 36.5068 71.6048 38.1153 71.9135 39.6672C72.2222 41.219 72.9841 42.6445 74.1029 43.7633C75.2217 44.8821 76.6472 45.644 78.199 45.9527C79.7509 46.2614 81.3594 46.103 82.8212 45.4975C84.283 44.892 85.5325 43.8666 86.4115 42.551C87.2906 41.2354 87.7598 39.6887 87.7598 38.1064C87.7575 35.9854 86.9139 33.9519 85.4141 32.4521C83.9143 30.9523 81.8808 30.1087 79.7598 30.1064ZM82.9784 38.7024L78.0578 41.1624C77.9562 41.2132 77.8433 41.2372 77.7298 41.2321C77.6163 41.227 77.506 41.1929 77.4094 41.1332C77.3127 41.0735 77.2329 40.9901 77.1776 40.8909C77.1222 40.7917 77.0932 40.68 77.0931 40.5664V35.6451C77.0931 35.5316 77.1221 35.4199 77.1774 35.3207C77.2327 35.2215 77.3123 35.138 77.4089 35.0783C77.5055 35.0185 77.6157 34.9844 77.7291 34.9792C77.8426 34.974 77.9555 34.9978 78.0571 35.0484L82.9791 37.5064C83.0905 37.5616 83.1843 37.6468 83.2499 37.7525C83.3154 37.8581 83.3501 37.98 83.3501 38.1043C83.35 38.2287 83.3152 38.3505 83.2495 38.4561C83.1838 38.5616 83.0899 38.6468 82.9784 38.7018V38.7024Z" fill="white"/>
<defs>
<filter id="filter0_d" x="1.7241" y="28.5947" width="92.2759" height="98.7005" filterUnits="userSpaceOnUse" color-interpolation-filters="sRGB">
<feFlood flood-opacity="0" result="BackgroundImageFix"/>
<feColorMatrix in="SourceAlpha" type="matrix" values="0 0 0 0 0 0 0 0 0 0 0 0 0 0 0 0 0 0 127 0"/>
<feOffset dy="2"/>
<feGaussianBlur stdDeviation="5"/>
<feColorMatrix type="matrix" values="0 0 0 0 0.121042 0 0 0 0 0.143938 0 0 0 0 0.35 0 0 0 0.1 0"/>
<feBlend mode="normal" in2="BackgroundImageFix" result="effect1_dropShadow"/>
<feBlend mode="normal" in="SourceGraphic" in2="effect1_dropShadow" result="shape"/>
</filter>
<filter id="filter1_d" x="26.5206" y="91.2371" width="10.763" height="10.763" filterUnits="userSpaceOnUse" color-interpolation-filters="sRGB">
<feFlood flood-opacity="0" result="BackgroundImageFix"/>
<feColorMatrix in="SourceAlpha" type="matrix" values="0 0 0 0 0 0 0 0 0 0 0 0 0 0 0 0 0 0 127 0"/>
<feOffset dy="1"/>
<feGaussianBlur stdDeviation="1.5"/>
<feColorMatrix type="matrix" values="0 0 0 0 1 0 0 0 0 0.80475 0 0 0 0 0.1125 0 0 0 0.5 0"/>
<feBlend mode="normal" in2="BackgroundImageFix" result="effect1_dropShadow"/>
<feBlend mode="normal" in="SourceGraphic" in2="effect1_dropShadow" result="shape"/>
</filter>
<filter id="filter2_d" x="26.8042" y="101.172" width="10.1958" height="10.1958" filterUnits="userSpaceOnUse" color-interpolation-filters="sRGB">
<feFlood flood-opacity="0" result="BackgroundImageFix"/>
<feColorMatrix in="SourceAlpha" type="matrix" values="0 0 0 0 0 0 0 0 0 0 0 0 0 0 0 0 0 0 127 0"/>
<feOffset dy="1"/>
<feGaussianBlur stdDeviation="1.5"/>
<feColorMatrix type="matrix" values="0 0 0 0 0.104167 0 0 0 0 0.4625 0 0 0 0 1 0 0 0 0.5 0"/>
<feBlend mode="normal" in2="BackgroundImageFix" result="effect1_dropShadow"/>
<feBlend mode="normal" in="SourceGraphic" in2="effect1_dropShadow" result="shape"/>
</filter>
<filter id="filter3_d" x="20.366" y="45.2302" width="51.7698" height="51.7697" filterUnits="userSpaceOnUse" color-interpolation-filters="sRGB">
<feFlood flood-opacity="0" result="BackgroundImageFix"/>
<feColorMatrix in="SourceAlpha" type="matrix" values="0 0 0 0 0 0 0 0 0 0 0 0 0 0 0 0 0 0 127 0"/>
<feOffset dy="5"/>
<feGaussianBlur stdDeviation="3"/>
<feColorMatrix type="matrix" values="0 0 0 0 1 0 0 0 0 0.80475 0 0 0 0 0.1125 0 0 0 0.3 0"/>
<feBlend mode="normal" in2="BackgroundImageFix" result="effect1_dropShadow"/>
<feBlend mode="normal" in="SourceGraphic" in2="effect1_dropShadow" result="shape"/>
</filter>
<filter id="filter4_d" x="45" y="39.9312" width="30.4342" height="30.4342" filterUnits="userSpaceOnUse" color-interpolation-filters="sRGB">
<feFlood flood-opacity="0" result="BackgroundImageFix"/>
<feColorMatrix in="SourceAlpha" type="matrix" values="0 0 0 0 0 0 0 0 0 0 0 0 0 0 0 0 0 0 127 0"/>
<feOffset dy="3"/>
<feGaussianBlur stdDeviation="2.5"/>
<feColorMatrix type="matrix" values="0 0 0 0 0.104167 0 0 0 0 0.4625 0 0 0 0 1 0 0 0 0.26 0"/>
<feBlend mode="normal" in2="BackgroundImageFix" result="effect1_dropShadow"/>
<feBlend mode="normal" in="SourceGraphic" in2="effect1_dropShadow" result="shape"/>
</filter>
<filter id="filter5_d" x="42.2749" y="3.25464" width="103.725" height="115.745" filterUnits="userSpaceOnUse" color-interpolation-filters="sRGB">
<feFlood flood-opacity="0" result="BackgroundImageFix"/>
<feColorMatrix in="SourceAlpha" type="matrix" values="0 0 0 0 0 0 0 0 0 0 0 0 0 0 0 0 0 0 127 0"/>
<feOffset dy="4"/>
<feGaussianBlur stdDeviation="8"/>
<feColorMatrix type="matrix" values="0 0 0 0 0.121042 0 0 0 0 0.143938 0 0 0 0 0.35 0 0 0 0.15 0"/>
<feBlend mode="normal" in2="BackgroundImageFix" result="effect1_dropShadow"/>
<feBlend mode="normal" in="SourceGraphic" in2="effect1_dropShadow" result="shape"/>
</filter>
<filter id="filter6_d" x="99.5444" y="25.2126" width="9.45562" height="31.7873" filterUnits="userSpaceOnUse" color-interpolation-filters="sRGB">
<feFlood flood-opacity="0" result="BackgroundImageFix"/>
<feColorMatrix in="SourceAlpha" type="matrix" values="0 0 0 0 0 0 0 0 0 0 0 0 0 0 0 0 0 0 127 0"/>
<feOffset dy="3"/>
<feGaussianBlur stdDeviation="1.5"/>
<feColorMatrix type="matrix" values="0 0 0 0 1 0 0 0 0 0.803922 0 0 0 0 0.113725 0 0 0 0.35 0"/>
<feBlend mode="normal" in2="BackgroundImageFix" result="effect1_dropShadow"/>
<feBlend mode="normal" in="SourceGraphic" in2="effect1_dropShadow" result="shape"/>
</filter>
<filter id="filter7_d" x="108.554" y="37.0015" width="9.44568" height="19.9986" filterUnits="userSpaceOnUse" color-interpolation-filters="sRGB">
<feFlood flood-opacity="0" result="BackgroundImageFix"/>
<feColorMatrix in="SourceAlpha" type="matrix" values="0 0 0 0 0 0 0 0 0 0 0 0 0 0 0 0 0 0 127 0"/>
<feOffset dy="3"/>
<feGaussianBlur stdDeviation="1.5"/>
<feColorMatrix type="matrix" values="0 0 0 0 1 0 0 0 0 0.587917 0 0 0 0 0.104167 0 0 0 0.35 0"/>
<feBlend mode="normal" in2="BackgroundImageFix" result="effect1_dropShadow"/>
<feBlend mode="normal" in="SourceGraphic" in2="effect1_dropShadow" result="shape"/>
</filter>
<filter id="filter8_d" x="117.564" y="28.8967" width="9.4356" height="28.1032" filterUnits="userSpaceOnUse" color-interpolation-filters="sRGB">
<feFlood flood-opacity="0" result="BackgroundImageFix"/>
<feColorMatrix in="SourceAlpha" type="matrix" values="0 0 0 0 0 0 0 0 0 0 0 0 0 0 0 0 0 0 127 0"/>
<feOffset dy="3"/>
<feGaussianBlur stdDeviation="1.5"/>
<feColorMatrix type="matrix" values="0 0 0 0 0.956863 0 0 0 0 0.14902 0 0 0 0 0.243137 0 0 0 0.2 0"/>
<feBlend mode="normal" in2="BackgroundImageFix" result="effect1_dropShadow"/>
<feBlend mode="normal" in="SourceGraphic" in2="effect1_dropShadow" result="shape"/>
</filter>
<filter id="filter9_d" x="62.9481" y="79.2979" width="39.0518" height="8.70204" filterUnits="userSpaceOnUse" color-interpolation-filters="sRGB">
<feFlood flood-opacity="0" result="BackgroundImageFix"/>
<feColorMatrix in="SourceAlpha" type="matrix" values="0 0 0 0 0 0 0 0 0 0 0 0 0 0 0 0 0 0 127 0"/>
<feOffset dy="2"/>
<feGaussianBlur stdDeviation="1.5"/>
<feColorMatrix type="matrix" values="0 0 0 0 0.470588 0 0 0 0 0.172549 0 0 0 0 0.894118 0 0 0 0.19 0"/>
<feBlend mode="normal" in2="BackgroundImageFix" result="effect1_dropShadow"/>
<feBlend mode="normal" in="SourceGraphic" in2="effect1_dropShadow" result="shape"/>
</filter>
<filter id="filter10_d" x="59.5197" y="22.8662" width="40.4803" height="40.4803" filterUnits="userSpaceOnUse" color-interpolation-filters="sRGB">
<feFlood flood-opacity="0" result="BackgroundImageFix"/>
<feColorMatrix in="SourceAlpha" type="matrix" values="0 0 0 0 0 0 0 0 0 0 0 0 0 0 0 0 0 0 127 0"/>
<feOffset dy="5"/>
<feGaussianBlur stdDeviation="3.5"/>
<feColorMatrix type="matrix" values="0 0 0 0 0.956863 0 0 0 0 0.14902 0 0 0 0 0.243137 0 0 0 0.23 0"/>
<feBlend mode="normal" in2="BackgroundImageFix" result="effect1_dropShadow"/>
<feBlend mode="normal" in="SourceGraphic" in2="effect1_dropShadow" result="shape"/>
</filter>
<filter id="filter11_d" x="67.5196" y="27.8662" width="24.4804" height="24.4804" filterUnits="userSpaceOnUse" color-interpolation-filters="sRGB">
<feFlood flood-opacity="0" result="BackgroundImageFix"/>
<feColorMatrix in="SourceAlpha" type="matrix" values="0 0 0 0 0 0 0 0 0 0 0 0 0 0 0 0 0 0 127 0"/>
<feOffset dy="2"/>
<feGaussianBlur stdDeviation="2.5"/>
<feColorMatrix type="matrix" values="0 0 0 0 0.570833 0 0 0 0 0 0 0 0 0 0 0 0 0 0.2 0"/>
<feBlend mode="normal" in2="BackgroundImageFix" result="effect1_dropShadow"/>
<feBlend mode="normal" in="SourceGraphic" in2="effect1_dropShadow" result="shape"/>
</filter>
</defs>
</svg>
