<svg width="40" height="40" viewBox="0 0 40 40" fill="none" xmlns="http://www.w3.org/2000/svg">
<path d="M20 6.09264H34.3704C33.252 4.93994 32 3.92682 30.6445 3.07422H20V6.09264V6.09264Z" fill="white"/>
<path d="M20 12.4641H38.5317C38.067 11.3214 37.5026 10.2375 36.8508 9.2207H20V12.4641Z" fill="white"/>
<path d="M20 18.4361H39.9396C39.8654 17.4766 39.7231 16.5276 39.513 15.5938H20V18.4361Z" fill="white"/>
<path d="M20.0001 21.5645H0.0605469C0.14378 22.6411 0.312949 23.7045 0.567107 24.748H39.4331C39.6872 23.7046 39.8565 22.6412 39.9397 21.5647H20.0001V21.5645Z" fill="white"/>
<path d="M3.32882 31.0636H36.6766C37.3489 30.0462 37.9337 28.9582 38.4195 27.8086H1.58105C2.06681 28.956 2.65336 30.0443 3.32882 31.0636Z" fill="white"/>
<path d="M9.43575 36.9943H30.5803C31.8886 36.1812 33.0991 35.218 34.1869 34.123H5.82471C6.91295 35.2159 8.1247 36.1797 9.43575 36.9943Z" fill="white"/>
<path d="M12.0254 1.64844C11.9094 1.6987 11.7941 1.74991 11.6792 1.80234L11.9702 1.76005L12.0254 1.64844Z" fill="#4961A1"/>
<path d="M20 18.4357V15.5934V12.4644V9.22117V6.09237V3.07409V0C18.9384 0 17.8728 0.0839087 16.8328 0.249429C15.3418 0.486562 13.9026 0.888 12.5358 1.43631L12.6959 1.76087L13.5071 1.87869L12.9202 2.45092L13.0588 3.25893L12.3332 2.87749L11.6076 3.25893L11.7463 2.45092L11.2763 1.99273C8.22576 3.46863 5.59648 5.70093 3.64239 8.47843L4.29867 8.38303L4.66146 7.64799L5.02425 8.38303L5.83551 8.50086L5.24855 9.07308L5.38718 9.88109L4.6616 9.49965L3.93601 9.88109L4.07464 9.07308L3.57038 8.58152C3.17934 9.14483 2.81587 9.7303 2.48227 10.336L2.49618 10.3644L3.30744 10.4822L2.72048 11.0545L2.85911 11.8625L2.13352 11.481L1.82289 11.6443C1.5717 12.1915 1.34362 12.7528 1.1404 13.3273C0.720588 14.514 0.41576 15.7338 0.227405 16.9755L0.716805 17.0466L0.14201 17.6069C0.140118 17.623 0.137956 17.6392 0.136065 17.6553L0.268346 18.4267L0.0695861 18.3222C0.0232404 18.8782 0 19.4378 0 20C0 20.524 0.0204029 21.0455 0.0603981 21.5641H20V18.4357ZM2.85884 20.6599L2.13325 20.2785L1.40767 20.6599L1.5463 19.852L0.959343 19.2798L1.7706 19.162L2.13339 18.4269L2.49618 19.162L3.30744 19.2798L2.72048 19.852L2.85884 20.6599ZM2.72021 15.4453L2.85884 16.2533L2.13325 15.8719L1.40767 16.2533L1.5463 15.4453L0.959343 14.8731L1.7706 14.7552L2.13339 14.0202L2.49618 14.7552L3.30744 14.8731L2.72021 15.4453ZM5.38705 18.4268L4.66146 18.0454L3.93587 18.4268L4.0745 17.6188L3.48755 17.0466L4.2988 16.9287L4.6616 16.1937L5.02439 16.9287L5.83564 17.0466L5.24869 17.6188L5.38705 18.4268ZM5.24855 13.2122L5.38718 14.0202L4.6616 13.6387L3.93601 14.0202L4.07464 13.2122L3.48768 12.6399L4.29894 12.5221L4.66173 11.7871L5.02452 12.5221L5.83578 12.6399L5.24855 13.2122ZM7.97781 20.6599L7.25223 20.2785L6.52664 20.6599L6.66527 19.852L6.07831 19.2798L6.88957 19.162L7.25236 18.4269L7.61516 19.162L8.42641 19.2798L7.83945 19.852L7.97781 20.6599ZM7.83918 15.4453L7.97781 16.2533L7.25223 15.8719L6.52664 16.2533L6.66527 15.4453L6.07831 14.8731L6.88957 14.7552L7.25236 14.0202L7.61516 14.7552L8.42641 14.8731L7.83918 15.4453ZM7.83918 11.0545L7.97781 11.8625L7.25223 11.481L6.52664 11.8625L6.66527 11.0545L6.07831 10.4822L6.88957 10.3644L7.25236 9.62937L7.61516 10.3644L8.42641 10.4822L7.83918 11.0545ZM7.83918 6.67594L7.97781 7.48395L7.25223 7.10251L6.52664 7.48395L6.66527 6.67594L6.07831 6.10372L6.88957 5.98589L7.25236 5.25085L7.61516 5.98589L8.42641 6.10372L7.83918 6.67594ZM10.4679 18.4268L9.74233 18.0454L9.01674 18.4268L9.15537 17.6188L8.56842 17.0466L9.37967 16.9287L9.74246 16.1937L10.1053 16.9287L10.9165 17.0466L10.3296 17.6188L10.4679 18.4268ZM10.3294 13.2122L10.4681 14.0202L9.74246 13.6387L9.01688 14.0202L9.15551 13.2122L8.56855 12.6399L9.37981 12.5221L9.7426 11.7871L10.1054 12.5221L10.9166 12.6399L10.3294 13.2122ZM10.3294 9.07308L10.4681 9.88109L9.74246 9.49965L9.01688 9.88109L9.15551 9.07308L8.56855 8.50086L9.37981 8.38303L9.7426 7.64799L10.1054 8.38303L10.9166 8.50086L10.3294 9.07308ZM10.3294 4.49026L10.4681 5.29827L9.74246 4.91683L9.01688 5.29827L9.15551 4.49026L8.56855 3.91804L9.37981 3.80021L9.7426 3.06517L10.1054 3.80021L10.9166 3.91804L10.3294 4.49026ZM13.0587 20.6599L12.3331 20.2785L11.6075 20.6599L11.7461 19.852L11.1592 19.2798L11.9704 19.162L12.3332 18.4269L12.696 19.162L13.5073 19.2798L12.9203 19.852L13.0587 20.6599ZM12.9202 15.4453L13.0588 16.2533L12.3332 15.8719L11.6076 16.2533L11.7463 15.4453L11.1593 14.8731L11.9706 14.7552L12.3334 14.0202L12.6962 14.7552L13.5074 14.8731L12.9202 15.4453ZM12.9202 11.0545L13.0588 11.8625L12.3332 11.481L11.6076 11.8625L11.7463 11.0545L11.1593 10.4822L11.9706 10.3644L12.3334 9.62937L12.6962 10.3644L13.5074 10.4822L12.9202 11.0545ZM12.9202 6.67594L13.0588 7.48395L12.3332 7.10251L11.6076 7.48395L11.7463 6.67594L11.1593 6.10372L11.9706 5.98589L12.3334 5.25085L12.6962 5.98589L13.5074 6.10372L12.9202 6.67594ZM15.6662 18.4268L14.9406 18.0454L14.215 18.4268L14.3537 17.6188L13.7667 17.0466L14.578 16.9287L14.9408 16.1937L15.3035 16.9287L16.1148 17.0466L15.5278 17.6188L15.6662 18.4268ZM15.5276 13.2122L15.6662 14.0202L14.9406 13.6387L14.215 14.0202L14.3537 13.2122L13.7667 12.6399L14.578 12.5221L14.9408 11.7871L15.3035 12.5221L16.1148 12.6399L15.5276 13.2122ZM15.5276 9.07308L15.6662 9.88109L14.9406 9.49965L14.215 9.88109L14.3537 9.07308L13.7667 8.50086L14.578 8.38303L14.9408 7.64799L15.3035 8.38303L16.1148 8.50086L15.5276 9.07308ZM15.5276 4.49026L15.6662 5.29827L14.9406 4.91683L14.215 5.29827L14.3537 4.49026L13.7667 3.91804L14.578 3.80021L14.9408 3.06517L15.3035 3.80021L16.1148 3.91804L15.5276 4.49026ZM18.2568 20.6599L17.5312 20.2785L16.8057 20.6599L16.9443 19.852L16.3573 19.2798L17.1686 19.162L17.5314 18.4269L17.8942 19.162L18.7054 19.2798L18.1185 19.852L18.2568 20.6599ZM18.1183 15.4453L18.257 16.2533L17.5314 15.8719L16.8058 16.2533L16.9444 15.4453L16.3575 14.8731L17.1687 14.7552L17.5315 14.0202L17.8943 14.7552L18.7056 14.8731L18.1183 15.4453ZM18.1183 11.0545L18.257 11.8625L17.5314 11.481L16.8058 11.8625L16.9444 11.0545L16.3575 10.4822L17.1687 10.3644L17.5315 9.62937L17.8943 10.3644L18.7056 10.4822L18.1183 11.0545ZM18.1183 6.67594L18.257 7.48395L17.5314 7.10251L16.8058 7.48395L16.9444 6.67594L16.3575 6.10372L17.1687 5.98589L17.5315 5.25085L17.8943 5.98589L18.7056 6.10372L18.1183 6.67594ZM18.1183 2.45092L18.257 3.25893L17.5314 2.87749L16.8058 3.25893L16.9444 2.45092L16.3575 1.87869L17.1687 1.76087L17.5315 1.02582L17.8943 1.76087L18.7056 1.87869L18.1183 2.45092Z" fill="#0233AD"/>
<path d="M20 0V3.07409H30.6445C27.5233 1.11108 23.853 0 20 0Z" fill="#FF0000"/>
<path d="M20 9.22061H36.8508C36.1263 8.09047 35.2939 7.04371 34.3704 6.0918H20V9.22061Z" fill="#FF0000"/>
<path d="M20 15.5938H39.513C39.3406 14.8273 39.1228 14.071 38.8597 13.3277C38.7568 13.0365 38.6472 12.749 38.5317 12.4648H20V15.5938Z" fill="#FF0000"/>
<path d="M20 21.5639V21.5642H39.9396C39.9797 21.0455 40 20.5238 40 19.9998C40 19.4758 39.9796 18.9541 39.9396 18.4355H20V21.5639Z" fill="#FF0000"/>
<path d="M1.1325 26.6517C1.27059 27.0436 1.4203 27.4291 1.58083 27.8084H38.4193C38.5794 27.4293 38.729 27.0438 38.8672 26.6517C39.0879 26.0257 39.2764 25.3907 39.4328 24.748H0.566895C0.723362 25.3907 0.911853 26.0257 1.1325 26.6517Z" fill="#FF0000"/>
<path d="M5.8248 34.1228H34.1869C35.11 33.1937 35.9448 32.1698 36.6763 31.0625H3.32861C4.06109 32.1679 4.89815 33.1921 5.8248 34.1228Z" fill="#FF0000"/>
<path d="M16.833 39.7502C17.5399 39.8627 18.2631 39.9381 18.9822 39.9742C19.3204 39.9911 19.6629 39.9996 20.0002 39.9996C20.3374 39.9996 20.6798 39.9911 21.0181 39.9742C24.4939 39.8 27.7638 38.745 30.5806 36.9941H9.43604C11.6562 38.3736 14.1611 39.3251 16.833 39.7502Z" fill="#FF0000"/>
<path d="M7.25217 5.25L6.88938 5.98505L6.07812 6.10287L6.66522 6.6751L6.52658 7.48311L7.25217 7.10167L7.97776 7.48311L7.83913 6.6751L8.42622 6.10287L7.61497 5.98505L7.25217 5.25Z" fill="#FFFCFD"/>
<path d="M12.3331 5.25L11.9703 5.98505L11.1592 6.10287L11.7461 6.6751L11.6075 7.48311L12.3331 7.10167L13.0587 7.48311L12.9202 6.6751L13.5071 6.10287L12.6959 5.98505L12.3331 5.25Z" fill="#FFFCFD"/>
<path d="M17.5313 5.25L17.1687 5.98505L16.3574 6.10287L16.9444 6.6751L16.8059 7.48311L17.5313 7.10167L18.2569 7.48311L18.1184 6.6751L18.7054 6.10287L17.8941 5.98505L17.5313 5.25Z" fill="#FFFCFD"/>
<path d="M2.85898 11.8624L2.72035 11.0544L3.3073 10.4821L2.49605 10.3643L2.48213 10.3359C2.24743 10.7621 2.02732 11.1984 1.82275 11.644L2.13339 11.4808L2.85898 11.8624Z" fill="#FFFCFD"/>
<path d="M7.25217 9.62891L6.88938 10.3641L6.07812 10.4819L6.66522 11.0541L6.52658 11.862L7.25217 11.4806L7.97776 11.862L7.83913 11.0541L8.42622 10.4819L7.61497 10.3641L7.25217 9.62891Z" fill="#FFFCFD"/>
<path d="M12.3331 9.62891L11.9703 10.3641L11.1592 10.4819L11.7461 11.0541L11.6075 11.862L12.3331 11.4806L13.0587 11.862L12.9202 11.0541L13.5071 10.4819L12.6959 10.3641L12.3331 9.62891Z" fill="#FFFCFD"/>
<path d="M17.5313 9.62891L17.1687 10.3641L16.3574 10.4819L16.9444 11.0541L16.8059 11.862L17.5313 11.4806L18.2569 11.862L18.1184 11.0541L18.7054 10.4819L17.8941 10.3641L17.5313 9.62891Z" fill="#FFFCFD"/>
<path d="M2.13352 14.0195L1.77073 14.7546L0.959473 14.8725L1.54656 15.4448L1.40793 16.2526L2.13352 15.8712L2.85911 16.2526L2.72047 15.4448L3.30757 14.8725L2.49631 14.7546L2.13352 14.0195Z" fill="#FFFCFD"/>
<path d="M7.25217 14.0195L6.88938 14.7546L6.07812 14.8725L6.66522 15.4448L6.52658 16.2526L7.25217 15.8712L7.97776 16.2526L7.83913 15.4448L8.42622 14.8725L7.61497 14.7546L7.25217 14.0195Z" fill="#FFFCFD"/>
<path d="M12.3331 14.0195L11.9703 14.7546L11.1592 14.8725L11.7461 15.4448L11.6075 16.2526L12.3331 15.8712L13.0587 16.2526L12.9202 15.4448L13.5071 14.8725L12.6959 14.7546L12.3331 14.0195Z" fill="#FFFCFD"/>
<path d="M17.5313 14.0195L17.1687 14.7546L16.3574 14.8725L16.9444 15.4448L16.8059 16.2526L17.5313 15.8712L18.2569 16.2526L18.1184 15.4448L18.7054 14.8725L17.8941 14.7546L17.5313 14.0195Z" fill="#FFFCFD"/>
<path d="M2.49631 19.1608L2.13352 18.4258L1.77073 19.1608L0.959473 19.2788L1.54656 19.8509L1.40793 20.6589L2.13352 20.2774L2.85911 20.6589L2.72047 19.8509L3.30757 19.2788L2.49631 19.1608Z" fill="#FFFCFD"/>
<path d="M7.61497 19.1608L7.25217 18.4258L6.88938 19.1608L6.07812 19.2788L6.66522 19.8509L6.52658 20.6589L7.25217 20.2774L7.97776 20.6589L7.83913 19.8509L8.42622 19.2788L7.61497 19.1608Z" fill="#FFFCFD"/>
<path d="M12.6959 19.1608L12.3331 18.4258L11.9703 19.1608L11.1592 19.2788L11.7461 19.8509L11.6075 20.6589L12.3331 20.2774L13.0587 20.6589L12.9202 19.8509L13.5071 19.2788L12.6959 19.1608Z" fill="#FFFCFD"/>
<path d="M17.8941 19.1608L17.5313 18.4258L17.1687 19.1608L16.3574 19.2788L16.9444 19.8509L16.8059 20.6589L17.5313 20.2774L18.2569 20.6589L18.1184 19.8509L18.7054 19.2788L17.8941 19.1608Z" fill="#FFFCFD"/>
<path d="M11.6075 3.25816L12.333 2.87672L13.0586 3.25816L12.92 2.45015L13.507 1.87793L12.6957 1.7601L12.5356 1.43555C12.3644 1.50419 12.1943 1.57526 12.0252 1.64849L11.9701 1.7601L11.6791 1.80239C11.5438 1.86414 11.4095 1.92738 11.2759 1.9921L11.7458 2.45029L11.6075 3.25816Z" fill="#FFFCFD"/>
<path d="M17.5313 1.02539L17.1687 1.76044L16.3574 1.87826L16.9444 2.45049L16.8059 3.2585L17.5313 2.87692L18.2569 3.2585L18.1184 2.45049L18.7054 1.87826L17.8941 1.76044L17.5313 1.02539Z" fill="#FFFCFD"/>
<path d="M9.74241 3.06445L9.37961 3.7995L8.56836 3.91732L9.15532 4.48955L9.01682 5.29756L9.74241 4.91612L10.4679 5.29756L10.3294 4.48955L10.9163 3.91732L10.1051 3.7995L9.74241 3.06445Z" fill="#FFFCFD"/>
<path d="M14.9406 3.06445L14.5779 3.7995L13.7666 3.91732L14.3536 4.48955L14.2151 5.29756L14.9406 4.91612L15.6662 5.29756L15.5276 4.48955L16.1146 3.91732L15.3034 3.7995L14.9406 3.06445Z" fill="#FFFCFD"/>
<path d="M3.93608 9.88154L4.66167 9.5001L5.38725 9.88154L5.24862 9.07353L5.83558 8.50131L5.02432 8.38348L4.66153 7.64844L4.29874 8.38348L3.64247 8.47888C3.61828 8.5132 3.59423 8.54765 3.57031 8.58211L4.07458 9.07367L3.93608 9.88154Z" fill="#FFFCFD"/>
<path d="M9.74241 7.64844L9.37961 8.38362L8.56836 8.50144L9.15532 9.07367L9.01682 9.88154L9.74241 9.5001L10.4679 9.88154L10.3294 9.07367L10.9163 8.50144L10.1051 8.38362L9.74241 7.64844Z" fill="#FFFCFD"/>
<path d="M14.9406 7.64844L14.5779 8.38362L13.7666 8.50144L14.3536 9.07367L14.2151 9.88154L14.9406 9.5001L15.6662 9.88154L15.5276 9.07367L16.1146 8.50144L15.3034 8.38362L14.9406 7.64844Z" fill="#FFFCFD"/>
<path d="M4.66135 11.7871L4.29856 12.5222L3.4873 12.6401L4.0744 13.2123L3.93576 14.0202L4.66135 13.6388L5.38694 14.0202L5.24844 13.2123L5.8354 12.6401L5.02414 12.5222L4.66135 11.7871Z" fill="#FFFCFD"/>
<path d="M9.74241 11.7871L9.37961 12.5222L8.56836 12.6401L9.15532 13.2123L9.01682 14.0202L9.74241 13.6388L10.4679 14.0202L10.3294 13.2123L10.9163 12.6401L10.1051 12.5222L9.74241 11.7871Z" fill="#FFFCFD"/>
<path d="M14.9406 11.7871L14.5779 12.5222L13.7666 12.6401L14.3536 13.2123L14.2151 14.0202L14.9406 13.6388L15.6662 14.0202L15.5276 13.2123L16.1146 12.6401L15.3034 12.5222L14.9406 11.7871Z" fill="#FFFCFD"/>
<path d="M0.227132 16.9766C0.195244 17.1864 0.166869 17.3969 0.141602 17.608L0.716397 17.0476L0.227132 16.9766Z" fill="#FFFCFD"/>
<path d="M0.135814 17.6562C0.110007 17.878 0.0878472 18.1002 0.0693359 18.3232L0.268096 18.4276L0.135814 17.6562Z" fill="#FFFCFD"/>
<path d="M5.02414 16.9284L4.66135 16.1934L4.29856 16.9284L3.4873 17.0464L4.0744 17.6185L3.93576 18.4265L4.66135 18.045L5.38694 18.4265L5.24844 17.6185L5.8354 17.0464L5.02414 16.9284Z" fill="#FFFCFD"/>
<path d="M10.1051 16.9284L9.74241 16.1934L9.37961 16.9284L8.56836 17.0464L9.15532 17.6185L9.01682 18.4265L9.74241 18.045L10.4679 18.4265L10.3294 17.6185L10.9163 17.0464L10.1051 16.9284Z" fill="#FFFCFD"/>
<path d="M15.3034 16.9284L14.9406 16.1934L14.5779 16.9284L13.7666 17.0464L14.3536 17.6185L14.2151 18.4265L14.9406 18.045L15.6662 18.4265L15.5276 17.6185L16.1146 17.0464L15.3034 16.9284Z" fill="#FFFCFD"/>
</svg>
