<svg width="160" height="160" viewBox="0 0 160 160" fill="none" xmlns="http://www.w3.org/2000/svg">
<path opacity="0.08" d="M112 0H48C21.4903 0 0 21.4903 0 48V112C0 138.51 21.4903 160 48 160H112C138.51 160 160 138.51 160 112V48C160 21.4903 138.51 0 112 0Z" fill="#3FDCFF"/>
<g filter="url(#filter0_d)">
<path d="M62.9047 27H38.4968C31.595 27 26 32.595 26 39.4968V63.8376C26 70.7394 31.595 76.3344 38.4968 76.3344H62.9047C69.8065 76.3344 75.4015 70.7394 75.4015 63.8376V39.4968C75.4015 32.595 69.8065 27 62.9047 27Z" fill="white" fill-opacity="0.01"/>
</g>
<path d="M62.9047 27H38.4968C31.595 27 26 32.595 26 39.4968V63.8376C26 70.7394 31.595 76.3344 38.4968 76.3344H62.9047C69.8065 76.3344 75.4015 70.7394 75.4015 63.8376V39.4968C75.4015 32.595 69.8065 27 62.9047 27Z" fill="white"/>
<path d="M53.0554 66.1436V52.9371H57.7114L58.4085 47.7903H53.0553V44.5043C53.0553 43.0142 53.4899 41.9987 55.7344 41.9987L58.5969 41.9975V37.3942C58.1018 37.3316 56.4025 37.1914 54.4257 37.1914C50.2984 37.1914 47.4727 39.5899 47.4727 43.9947V47.7903H42.8048V52.9371H47.4727V66.1434H53.0554V66.1436Z" fill="#1B76FF"/>
<g filter="url(#filter1_d)">
<path d="M120.637 27H96.2292C89.3274 27 83.7324 32.595 83.7324 39.4968V63.8376C83.7324 70.7394 89.3274 76.3344 96.2292 76.3344H120.637C127.539 76.3344 133.134 70.7394 133.134 63.8376V39.4968C133.134 32.595 127.539 27 120.637 27Z" fill="white" fill-opacity="0.01"/>
</g>
<path d="M120.637 27H96.2292C89.3274 27 83.7324 32.595 83.7324 39.4968V63.8376C83.7324 70.7394 89.3274 76.3344 96.2292 76.3344H120.637C127.539 76.3344 133.134 70.7394 133.134 63.8376V39.4968C133.134 32.595 127.539 27 120.637 27Z" fill="white"/>
<path d="M113.592 39.1755V39.1699H115.03L115.555 39.2753C115.906 39.3438 116.224 39.4334 116.51 39.5444C116.795 39.6554 117.072 39.7848 117.339 39.9328C117.607 40.0807 117.849 40.2314 118.067 40.3849C118.283 40.5366 118.476 40.6975 118.648 40.8676C118.817 41.0396 119.082 41.084 119.441 41.0007C119.801 40.9175 120.188 40.8019 120.603 40.654C121.018 40.5061 121.428 40.3396 121.834 40.1547C122.24 39.9697 122.487 39.8523 122.575 39.8024C122.662 39.7506 122.708 39.7229 122.713 39.7192L122.719 39.7108L122.747 39.697L122.774 39.6831L122.802 39.6692L122.83 39.6554L122.835 39.647L122.843 39.6415L122.852 39.6359L122.857 39.6276L122.885 39.6193L122.913 39.6138L122.907 39.6554L122.899 39.697L122.885 39.7386L122.871 39.7802L122.857 39.8079L122.843 39.8357L122.83 39.8773C122.82 39.905 122.811 39.942 122.802 39.9882C122.793 40.0345 122.705 40.2194 122.539 40.543C122.373 40.8667 122.166 41.1949 121.917 41.5278C121.668 41.8607 121.445 42.1122 121.248 42.2823C121.048 42.4543 120.917 42.5745 120.852 42.6429C120.787 42.7132 120.709 42.7779 120.617 42.8371L120.479 42.9287L120.451 42.9425L120.423 42.9564L120.418 42.9647L120.409 42.9703L120.401 42.9758L120.396 42.9841L120.368 42.998L120.34 43.0119L120.335 43.0202L120.326 43.0257L120.318 43.0313L120.313 43.0396L120.307 43.0479L120.299 43.0535L120.291 43.059L120.285 43.0674H120.423L121.198 42.9009C121.714 42.79 122.207 42.6559 122.678 42.4987L123.424 42.249L123.507 42.2213L123.549 42.2074L123.576 42.1936L123.604 42.1797L123.632 42.1658L123.659 42.1519L123.715 42.1436L123.77 42.1381V42.1936L123.756 42.1991L123.742 42.2074L123.737 42.2157L123.729 42.2213L123.72 42.2268L123.715 42.2352L123.709 42.2435L123.701 42.249L123.693 42.2546L123.687 42.2629L123.682 42.2712L123.673 42.2768L123.659 42.3045L123.646 42.3323L123.637 42.3378C123.634 42.3433 123.517 42.5005 123.286 42.8094C123.056 43.1201 122.931 43.2772 122.913 43.281C122.894 43.2865 122.868 43.3142 122.835 43.3642C122.804 43.4159 122.608 43.6221 122.249 43.9828C121.889 44.3434 121.537 44.6642 121.192 44.9453C120.846 45.2283 120.67 45.5759 120.667 45.9883C120.661 46.3989 120.64 46.8631 120.603 47.3809C120.566 47.8987 120.497 48.4581 120.396 49.0591C120.294 49.6602 120.137 50.3398 119.925 51.098C119.713 51.8562 119.455 52.596 119.151 53.3172C118.847 54.0384 118.529 54.6857 118.197 55.259C117.865 55.8323 117.561 56.3177 117.284 56.7153C117.007 57.1129 116.726 57.4874 116.44 57.8388C116.155 58.1901 115.793 58.5859 115.356 59.026C114.917 59.4643 114.678 59.7047 114.637 59.7473C114.595 59.788 114.414 59.9396 114.095 60.2022C113.778 60.4666 113.437 60.7311 113.072 60.9955C112.708 61.2582 112.375 61.4773 112.07 61.653C111.766 61.8287 111.399 62.0293 110.969 62.2549C110.542 62.4824 110.079 62.6932 109.581 62.8874C109.083 63.0816 108.558 63.2619 108.004 63.4283C107.451 63.5948 106.916 63.7242 106.4 63.8167C105.884 63.9091 105.298 63.9877 104.644 64.0525L103.662 64.1496V64.1634H101.864V64.1496L101.629 64.1357C101.472 64.1264 101.343 64.1172 101.242 64.1079C101.14 64.0987 100.758 64.0478 100.094 63.9554C99.4301 63.8629 98.9092 63.7704 98.5312 63.678C98.1532 63.5855 97.5908 63.4098 96.844 63.1509C96.0972 62.892 95.4583 62.6303 94.9272 62.3659C94.398 62.1033 94.0661 61.9368 93.9315 61.8666C93.7987 61.7981 93.6494 61.7131 93.4834 61.6114L93.2345 61.4588L93.229 61.4505L93.2207 61.4449L93.2124 61.4394L93.2068 61.4311L93.1792 61.4172L93.1515 61.4033L93.146 61.395L93.1377 61.3894L93.1294 61.3839L93.1239 61.3756L93.1183 61.3673L93.11 61.3617H93.0962V61.3062L93.1239 61.3118L93.1515 61.3201L93.276 61.334C93.359 61.3432 93.5848 61.3571 93.9536 61.3756C94.3224 61.3941 94.7142 61.3941 95.1291 61.3756C95.544 61.3571 95.9681 61.3155 96.4014 61.2508C96.8348 61.186 97.3465 61.0751 97.9365 60.9179C98.5266 60.7607 99.0687 60.5739 99.5629 60.3575C100.055 60.1393 100.406 59.9766 100.614 59.8693C100.82 59.7639 101.136 59.5679 101.56 59.2812L102.196 58.8513L102.202 58.8429L102.21 58.8374L102.218 58.8318L102.224 58.8235L102.229 58.8152L102.237 58.8097L102.246 58.8041L102.251 58.7958L102.279 58.7875L102.307 58.7819L102.312 58.7542L102.32 58.7264L102.329 58.7209L102.334 58.7126L102.113 58.6987C101.966 58.6895 101.823 58.6802 101.684 58.671C101.546 58.6617 101.329 58.6201 101.034 58.5461C100.739 58.4721 100.421 58.3612 100.08 58.2133C99.739 58.0653 99.4071 57.8896 99.0844 57.6862C98.7617 57.4828 98.5284 57.3135 98.3846 57.1786C98.2426 57.0454 98.0582 56.8568 97.8314 56.6127C97.6065 56.3667 97.411 56.1143 97.245 55.8554C97.0791 55.5965 96.9205 55.2978 96.7693 54.9594L96.5397 54.4545L96.5259 54.4129L96.5121 54.3713L96.5038 54.3436L96.4982 54.3158L96.5397 54.3214L96.5812 54.3297L96.8855 54.3713C97.0883 54.399 97.4064 54.4083 97.8397 54.399C98.273 54.3898 98.5727 54.3713 98.7386 54.3436C98.9046 54.3158 99.006 54.2973 99.0429 54.2881L99.0982 54.2742L99.1673 54.2603L99.2365 54.2465L99.242 54.2381L99.2503 54.2326L99.2586 54.227L99.2642 54.2187L99.2088 54.2049L99.1535 54.191L99.0982 54.1771L99.0429 54.1632L98.9876 54.1494C98.9507 54.1401 98.8862 54.1216 98.7939 54.0939C98.7018 54.0662 98.4528 53.9644 98.0472 53.7888C97.6415 53.6131 97.3188 53.442 97.0791 53.2756C96.8388 53.1087 96.6096 52.9261 96.3931 52.7291C96.1774 52.5294 95.9405 52.2723 95.6823 51.9579C95.4242 51.6436 95.1937 51.2783 94.9908 50.8622C94.788 50.4461 94.6359 50.0485 94.5345 49.6694C94.4334 49.2925 94.3668 48.9072 94.3353 48.5182L94.2855 47.9357L94.3132 47.9412L94.3408 47.9495L94.3685 47.9634L94.3962 47.9773L94.4238 47.9912L94.4515 48.005L94.8802 48.1992C95.166 48.3287 95.521 48.4396 95.9451 48.5321C96.3692 48.6245 96.6227 48.6754 96.7057 48.6847L96.8302 48.6985H97.0791L97.0736 48.6902L97.0653 48.6847L97.057 48.6791L97.0514 48.6708L97.0459 48.6625L97.0376 48.6569L97.0293 48.6514L97.0238 48.643L96.9961 48.6292L96.9685 48.6153L96.9629 48.607L96.9546 48.6014L96.9463 48.5959L96.9408 48.5876L96.9131 48.5737L96.8855 48.5598L96.88 48.5515C96.8744 48.5478 96.7951 48.4886 96.6421 48.374C96.4909 48.2575 96.3323 48.1067 96.1663 47.9218C96.0004 47.7369 95.8344 47.5427 95.6685 47.3393C95.5022 47.1354 95.3541 46.9173 95.2259 46.6874C95.0969 46.4562 94.9604 46.1622 94.8166 45.8053C94.6746 45.4502 94.5667 45.0924 94.493 44.7317C94.4192 44.3711 94.3777 44.0151 94.3685 43.6638C94.3593 43.3124 94.3685 43.0119 94.3962 42.7622C94.4238 42.5126 94.4791 42.2305 94.5621 41.9162C94.6451 41.6018 94.765 41.2689 94.9217 40.9175L95.1568 40.3905L95.1706 40.3489L95.1844 40.3073L95.1928 40.3017L95.1983 40.2934L95.2038 40.2851L95.2121 40.2795L95.2204 40.2851L95.2259 40.2934L95.2315 40.3017L95.2398 40.3073L95.2481 40.3128L95.2536 40.3211L95.2591 40.3294L95.2674 40.335L95.2813 40.3627L95.2951 40.3905L95.3034 40.396L95.3089 40.4043L95.6823 40.8204C95.9312 41.0978 96.2263 41.4076 96.5674 41.7497C96.9085 42.0918 97.0975 42.2694 97.1344 42.2823C97.1713 42.2971 97.2174 42.3396 97.2727 42.4099C97.328 42.4784 97.5124 42.642 97.8259 42.9009C98.1394 43.1598 98.5496 43.4603 99.0567 43.8025C99.5638 44.1446 100.126 44.4821 100.744 44.815C101.362 45.1478 102.025 45.4483 102.735 45.7165C103.445 45.9847 103.943 46.1603 104.229 46.2436C104.515 46.3268 105.003 46.4331 105.695 46.5626C106.386 46.692 106.907 46.7752 107.258 46.8122C107.608 46.8492 107.848 46.8705 107.977 46.876L108.17 46.8816L108.165 46.84L108.157 46.7983L108.101 46.4516C108.064 46.2204 108.046 45.8968 108.046 45.4807C108.046 45.0646 108.078 44.6809 108.143 44.3295C108.207 43.9781 108.304 43.6221 108.433 43.2615C108.562 42.9009 108.689 42.6115 108.812 42.3933C108.937 42.1769 109.102 41.93 109.304 41.6526C109.507 41.3752 109.77 41.0886 110.093 40.7927C110.415 40.4968 110.784 40.2333 111.199 40.0021C111.614 39.771 111.997 39.5953 112.347 39.4751C112.697 39.3549 112.992 39.2762 113.232 39.2393C113.472 39.2023 113.592 39.181 113.592 39.1755Z" fill="#3FDCFF"/>
<g filter="url(#filter2_d)">
<path d="M120.637 84.666H96.2292C89.3274 84.666 83.7324 90.261 83.7324 97.1628V121.504C83.7324 128.405 89.3274 134 96.2292 134H120.637C127.539 134 133.134 128.405 133.134 121.504V97.1628C133.134 90.261 127.539 84.666 120.637 84.666Z" fill="white" fill-opacity="0.01"/>
</g>
<path d="M120.637 84.666H96.2292C89.3274 84.666 83.7324 90.261 83.7324 97.1628V121.504C83.7324 128.405 89.3274 134 96.2292 134H120.637C127.539 134 133.134 128.405 133.134 121.504V97.1628C133.134 90.261 127.539 84.666 120.637 84.666Z" fill="white"/>
<path d="M124.215 101.404C123.838 99.9897 122.722 98.8736 121.302 98.4911C118.734 97.8047 108.433 97.8047 108.433 97.8047C108.433 97.8047 98.1365 97.8047 95.5638 98.4911C94.149 98.8684 93.0329 99.9845 92.6504 101.404C91.964 103.972 91.964 109.332 91.964 109.332C91.964 109.332 91.964 114.693 92.6504 117.26C93.0277 118.675 94.1438 119.791 95.5638 120.174C98.1365 120.86 108.433 120.86 108.433 120.86C108.433 120.86 118.734 120.86 121.302 120.174C122.717 119.796 123.833 118.68 124.215 117.26C124.902 114.693 124.902 109.332 124.902 109.332C124.902 109.332 124.902 103.972 124.215 101.404Z" fill="#F4263E"/>
<path d="M105.142 114.273L113.699 109.332L105.142 104.391V114.273Z" fill="white"/>
<g filter="url(#filter3_d)">
<path d="M62.9047 84.666H38.4968C31.595 84.666 26 90.261 26 97.1628V121.504C26 128.405 31.595 134 38.4968 134H62.9047C69.8065 134 75.4015 128.405 75.4015 121.504V97.1628C75.4015 90.261 69.8065 84.666 62.9047 84.666Z" fill="white" fill-opacity="0.01"/>
</g>
<path d="M62.9047 84.666H38.4968C31.595 84.666 26 90.261 26 97.1628V121.504C26 128.405 31.595 134 38.4968 134H62.9047C69.8065 134 75.4015 128.405 75.4015 121.504V97.1628C75.4015 90.261 69.8065 84.666 62.9047 84.666Z" fill="white"/>
<g filter="url(#filter4_d)">
<path d="M45.6116 109.332C45.6116 106.521 47.8903 104.241 50.702 104.241C53.5138 104.241 55.7937 106.521 55.7937 109.332C55.7937 112.144 53.5138 114.424 50.702 114.424C47.8903 114.424 45.6116 112.144 45.6116 109.332ZM42.8591 109.332C42.8591 113.664 46.3704 117.175 50.702 117.175C55.0337 117.175 58.5449 113.664 58.5449 109.332C58.5449 105.001 55.0337 101.489 50.702 101.489C46.3704 101.489 42.8592 105.001 42.8592 109.332H42.8591ZM57.0227 101.179C57.0226 101.541 57.1299 101.895 57.3312 102.197C57.5325 102.498 57.8186 102.733 58.1535 102.872C58.4883 103.011 58.8568 103.048 59.2124 102.977C59.568 102.906 59.8946 102.732 60.1511 102.476C60.4075 102.22 60.5822 101.893 60.6531 101.538C60.7239 101.182 60.6878 100.813 60.5492 100.479C60.4106 100.144 60.1758 99.8572 59.8744 99.6557C59.5731 99.4542 59.2188 99.3465 58.8563 99.3464H58.8556C58.3696 99.3466 57.9037 99.5397 57.56 99.8832C57.2164 100.227 57.0231 100.693 57.0227 101.179ZM44.5314 121.765C43.0423 121.697 42.2329 121.449 41.695 121.24C40.9819 120.962 40.4731 120.631 39.9382 120.097C39.4032 119.563 39.0721 119.055 38.7957 118.342C38.586 117.804 38.3379 116.994 38.2703 115.505C38.1962 113.895 38.1814 113.411 38.1814 109.333C38.1814 105.254 38.1974 104.772 38.2703 103.16C38.3381 101.671 38.5879 100.863 38.7957 100.324C39.0733 99.6107 39.4039 99.1019 39.9382 98.5669C40.4724 98.032 40.9807 97.7008 41.695 97.4245C42.2326 97.2148 43.0423 96.9667 44.5314 96.899C46.1414 96.825 46.625 96.8102 50.702 96.8102C54.779 96.8102 55.2632 96.826 56.8745 96.8993C58.3636 96.9671 59.1717 97.217 59.7109 97.4247C60.424 97.7011 60.9328 98.033 61.4677 98.5672C62.0027 99.1014 62.3326 99.6109 62.6102 100.324C62.8199 100.862 63.0679 101.671 63.1356 103.16C63.2097 104.772 63.2245 105.254 63.2245 109.333C63.2245 113.412 63.2097 113.894 63.1356 115.505C63.0678 116.994 62.8186 117.804 62.6102 118.342C62.3326 119.055 62.002 119.564 61.4677 120.097C60.9335 120.631 60.424 120.962 59.7109 121.24C59.1732 121.45 58.3636 121.698 56.8745 121.765C55.2645 121.839 54.7809 121.854 50.702 121.854C46.6232 121.854 46.1409 121.839 44.5314 121.765ZM44.4049 94.1511C42.779 94.2251 41.6679 94.483 40.6976 94.8605C39.6933 95.2504 38.842 95.7735 37.9919 96.6223C37.1418 97.471 36.6201 98.3224 36.2302 99.3279C35.8526 100.299 35.5948 101.409 35.5207 103.035C35.4455 104.664 35.4282 105.185 35.4282 109.332C35.4282 113.48 35.4455 114.001 35.5207 115.629C35.5948 117.256 35.8526 118.366 36.2302 119.337C36.6201 120.341 37.1419 121.194 37.9919 122.043C38.8419 122.891 39.6921 123.413 40.6976 123.804C41.6697 124.182 42.779 124.44 44.4049 124.514C46.0344 124.588 46.5542 124.606 50.702 124.606C54.8499 124.606 55.3706 124.589 56.9991 124.514C58.6252 124.44 59.7356 124.182 60.7065 123.804C61.7108 123.413 62.5621 122.891 63.4122 122.043C64.2622 121.194 64.7829 120.341 65.1739 119.337C65.5515 118.366 65.8105 117.255 65.8833 115.629C65.9574 114 65.9746 113.48 65.9746 109.332C65.9746 105.185 65.9574 104.664 65.8833 103.035C65.8093 101.409 65.5515 100.298 65.1739 99.3279C64.7829 98.3237 64.2609 97.4724 63.4122 96.6223C62.5634 95.7722 61.7108 95.2504 60.7077 94.8605C59.7356 94.483 58.6251 94.2239 57.0003 94.1511C55.3715 94.0767 54.8511 94.0586 50.7039 94.0586C46.5566 94.0586 46.035 94.0758 44.4056 94.1511" fill="url(#paint0_radial)" fill-opacity="0.01"/>
</g>
<path d="M45.6116 109.332C45.6116 106.521 47.8903 104.241 50.702 104.241C53.5138 104.241 55.7937 106.521 55.7937 109.332C55.7937 112.144 53.5138 114.424 50.702 114.424C47.8903 114.424 45.6116 112.144 45.6116 109.332ZM42.8591 109.332C42.8591 113.664 46.3704 117.175 50.702 117.175C55.0337 117.175 58.5449 113.664 58.5449 109.332C58.5449 105.001 55.0337 101.489 50.702 101.489C46.3704 101.489 42.8592 105.001 42.8592 109.332H42.8591ZM57.0227 101.179C57.0226 101.541 57.1299 101.895 57.3312 102.197C57.5325 102.498 57.8186 102.733 58.1535 102.872C58.4883 103.011 58.8568 103.048 59.2124 102.977C59.568 102.906 59.8946 102.732 60.1511 102.476C60.4075 102.22 60.5822 101.893 60.6531 101.538C60.7239 101.182 60.6878 100.813 60.5492 100.479C60.4106 100.144 60.1758 99.8572 59.8744 99.6557C59.5731 99.4542 59.2188 99.3465 58.8563 99.3464H58.8556C58.3696 99.3466 57.9037 99.5397 57.56 99.8832C57.2164 100.227 57.0231 100.693 57.0227 101.179ZM44.5314 121.765C43.0423 121.697 42.2329 121.449 41.695 121.24C40.9819 120.962 40.4731 120.631 39.9382 120.097C39.4032 119.563 39.0721 119.055 38.7957 118.342C38.586 117.804 38.3379 116.994 38.2703 115.505C38.1962 113.895 38.1814 113.411 38.1814 109.333C38.1814 105.254 38.1974 104.772 38.2703 103.16C38.3381 101.671 38.5879 100.863 38.7957 100.324C39.0733 99.6107 39.4039 99.1019 39.9382 98.5669C40.4724 98.032 40.9807 97.7008 41.695 97.4245C42.2326 97.2148 43.0423 96.9667 44.5314 96.899C46.1414 96.825 46.625 96.8102 50.702 96.8102C54.779 96.8102 55.2632 96.826 56.8745 96.8993C58.3636 96.9671 59.1717 97.217 59.7109 97.4247C60.424 97.7011 60.9328 98.033 61.4677 98.5672C62.0027 99.1014 62.3326 99.6109 62.6102 100.324C62.8199 100.862 63.0679 101.671 63.1356 103.16C63.2097 104.772 63.2245 105.254 63.2245 109.333C63.2245 113.412 63.2097 113.894 63.1356 115.505C63.0678 116.994 62.8186 117.804 62.6102 118.342C62.3326 119.055 62.002 119.564 61.4677 120.097C60.9335 120.631 60.424 120.962 59.7109 121.24C59.1732 121.45 58.3636 121.698 56.8745 121.765C55.2645 121.839 54.7809 121.854 50.702 121.854C46.6232 121.854 46.1409 121.839 44.5314 121.765ZM44.4049 94.1511C42.779 94.2251 41.6679 94.483 40.6976 94.8605C39.6933 95.2504 38.842 95.7735 37.9919 96.6223C37.1418 97.471 36.6201 98.3224 36.2302 99.3279C35.8526 100.299 35.5948 101.409 35.5207 103.035C35.4455 104.664 35.4282 105.185 35.4282 109.332C35.4282 113.48 35.4455 114.001 35.5207 115.629C35.5948 117.256 35.8526 118.366 36.2302 119.337C36.6201 120.341 37.1419 121.194 37.9919 122.043C38.8419 122.891 39.6921 123.413 40.6976 123.804C41.6697 124.182 42.779 124.44 44.4049 124.514C46.0344 124.588 46.5542 124.606 50.702 124.606C54.8499 124.606 55.3706 124.589 56.9991 124.514C58.6252 124.44 59.7356 124.182 60.7065 123.804C61.7108 123.413 62.5621 122.891 63.4122 122.043C64.2622 121.194 64.7829 120.341 65.1739 119.337C65.5515 118.366 65.8105 117.255 65.8833 115.629C65.9574 114 65.9746 113.48 65.9746 109.332C65.9746 105.185 65.9574 104.664 65.8833 103.035C65.8093 101.409 65.5515 100.298 65.1739 99.3279C64.7829 98.3237 64.2609 97.4724 63.4122 96.6223C62.5634 95.7722 61.7108 95.2504 60.7077 94.8605C59.7356 94.483 58.6251 94.2239 57.0003 94.1511C55.3715 94.0767 54.8511 94.0586 50.7039 94.0586C46.5566 94.0586 46.035 94.0758 44.4056 94.1511" fill="url(#paint1_radial)"/>
<defs>
<filter id="filter0_d" x="17.6688" y="22.8344" width="66.0638" height="65.9967" filterUnits="userSpaceOnUse" color-interpolation-filters="sRGB">
<feFlood flood-opacity="0" result="BackgroundImageFix"/>
<feColorMatrix in="SourceAlpha" type="matrix" values="0 0 0 0 0 0 0 0 0 0 0 0 0 0 0 0 0 0 127 0"/>
<feOffset dy="4.16558"/>
<feGaussianBlur stdDeviation="4.16558"/>
<feColorMatrix type="matrix" values="0 0 0 0 0.147066 0 0 0 0 0.578277 0 0 0 0 0.820833 0 0 0 0.16 0"/>
<feBlend mode="normal" in2="BackgroundImageFix" result="effect1_dropShadow"/>
<feBlend mode="normal" in="SourceGraphic" in2="effect1_dropShadow" result="shape"/>
</filter>
<filter id="filter1_d" x="75.4013" y="22.8344" width="66.0638" height="65.9967" filterUnits="userSpaceOnUse" color-interpolation-filters="sRGB">
<feFlood flood-opacity="0" result="BackgroundImageFix"/>
<feColorMatrix in="SourceAlpha" type="matrix" values="0 0 0 0 0 0 0 0 0 0 0 0 0 0 0 0 0 0 127 0"/>
<feOffset dy="4.16558"/>
<feGaussianBlur stdDeviation="4.16558"/>
<feColorMatrix type="matrix" values="0 0 0 0 0.147066 0 0 0 0 0.578277 0 0 0 0 0.820833 0 0 0 0.16 0"/>
<feBlend mode="normal" in2="BackgroundImageFix" result="effect1_dropShadow"/>
<feBlend mode="normal" in="SourceGraphic" in2="effect1_dropShadow" result="shape"/>
</filter>
<filter id="filter2_d" x="75.4013" y="80.5004" width="66.0638" height="65.9967" filterUnits="userSpaceOnUse" color-interpolation-filters="sRGB">
<feFlood flood-opacity="0" result="BackgroundImageFix"/>
<feColorMatrix in="SourceAlpha" type="matrix" values="0 0 0 0 0 0 0 0 0 0 0 0 0 0 0 0 0 0 127 0"/>
<feOffset dy="4.16558"/>
<feGaussianBlur stdDeviation="4.16558"/>
<feColorMatrix type="matrix" values="0 0 0 0 0.147066 0 0 0 0 0.578277 0 0 0 0 0.820833 0 0 0 0.16 0"/>
<feBlend mode="normal" in2="BackgroundImageFix" result="effect1_dropShadow"/>
<feBlend mode="normal" in="SourceGraphic" in2="effect1_dropShadow" result="shape"/>
</filter>
<filter id="filter3_d" x="17.6688" y="80.5004" width="66.0638" height="65.9967" filterUnits="userSpaceOnUse" color-interpolation-filters="sRGB">
<feFlood flood-opacity="0" result="BackgroundImageFix"/>
<feColorMatrix in="SourceAlpha" type="matrix" values="0 0 0 0 0 0 0 0 0 0 0 0 0 0 0 0 0 0 127 0"/>
<feOffset dy="4.16558"/>
<feGaussianBlur stdDeviation="4.16558"/>
<feColorMatrix type="matrix" values="0 0 0 0 0.147066 0 0 0 0 0.578277 0 0 0 0 0.820833 0 0 0 0.16 0"/>
<feBlend mode="normal" in2="BackgroundImageFix" result="effect1_dropShadow"/>
<feBlend mode="normal" in="SourceGraphic" in2="effect1_dropShadow" result="shape"/>
</filter>
<filter id="filter4_d" x="19.9033" y="89.8246" width="61.5962" height="61.5972" filterUnits="userSpaceOnUse" color-interpolation-filters="sRGB">
<feFlood flood-opacity="0" result="BackgroundImageFix"/>
<feColorMatrix in="SourceAlpha" type="matrix" values="0 0 0 0 0 0 0 0 0 0 0 0 0 0 0 0 0 0 127 0"/>
<feOffset dy="11.2909"/>
<feGaussianBlur stdDeviation="7.76246"/>
<feColorMatrix type="matrix" values="0 0 0 0 0.54902 0 0 0 0 0.227451 0 0 0 0 0.666667 0 0 0 0.15 0"/>
<feBlend mode="normal" in2="BackgroundImageFix" result="effect1_dropShadow"/>
<feBlend mode="normal" in="SourceGraphic" in2="effect1_dropShadow" result="shape"/>
</filter>
<radialGradient id="paint0_radial" cx="0" cy="0" r="1" gradientUnits="userSpaceOnUse" gradientTransform="translate(37.4052 123.937) scale(38.7826 38.7841)">
<stop offset="0.09" stop-color="#FA8F21"/>
<stop offset="0.78" stop-color="#D82D7E"/>
</radialGradient>
<radialGradient id="paint1_radial" cx="0" cy="0" r="1" gradientUnits="userSpaceOnUse" gradientTransform="translate(37.4052 123.937) scale(38.7826 38.7841)">
<stop offset="0.09" stop-color="#FA8F21"/>
<stop offset="0.78" stop-color="#D82D7E"/>
</radialGradient>
</defs>
</svg>
