<svg width="94" height="97" viewBox="0 0 94 97" fill="none" xmlns="http://www.w3.org/2000/svg">
<path opacity="0.07" d="M68 0H26C11.6406 0 0 11.6406 0 26V68C0 82.3594 11.6406 94 26 94H68C82.3594 94 94 82.3594 94 68V26C94 11.6406 82.3594 0 68 0Z" fill="#782CE4"/>
<g filter="url(#filter0_d)">
<path d="M60.9559 15.2881H33.0441C23.2377 15.2881 15.2881 23.2377 15.2881 33.0441V60.9559C15.2881 70.7623 23.2377 78.7119 33.0441 78.7119H60.9559C70.7623 78.7119 78.7119 70.7623 78.7119 60.9559V33.0441C78.7119 23.2377 70.7623 15.2881 60.9559 15.2881Z" fill="white" fill-opacity="0.01"/>
</g>
<path d="M60.9559 15.2881H33.0441C23.2377 15.2881 15.2881 23.2377 15.2881 33.0441V60.9559C15.2881 70.7623 23.2377 78.7119 33.0441 78.7119H60.9559C70.7623 78.7119 78.7119 70.7623 78.7119 60.9559V33.0441C78.7119 23.2377 70.7623 15.2881 60.9559 15.2881Z" fill="white"/>
<path d="M60.9118 33.0867C62.7389 34.9138 64.1883 37.0829 65.1771 39.4702C66.1659 41.8574 66.6748 44.416 66.6748 47C66.6748 49.5839 66.1659 52.1425 65.1771 54.5297C64.1883 56.917 62.7389 59.0861 60.9118 60.9132C59.0847 62.7403 56.9156 64.1897 54.5283 65.1785C52.1411 66.1673 49.5825 66.6763 46.9986 66.6763C44.4146 66.6763 41.856 66.1673 39.4688 65.1785C37.0815 64.1897 34.9124 62.7403 33.0853 60.9132C31.2582 59.0861 29.8089 56.917 28.82 54.5298C27.8312 52.1425 27.3223 49.5839 27.3223 47C27.3223 44.416 27.8312 41.8574 28.82 39.4702C29.8089 37.0829 31.2582 34.9138 33.0853 33.0867C34.9124 31.2596 37.0815 29.8103 39.4688 28.8214C41.856 27.8326 44.4146 27.3237 46.9986 27.3237C49.5825 27.3237 52.1411 27.8326 54.5283 28.8214C56.9156 29.8103 59.0847 31.2596 60.9118 33.0867Z" stroke="#F0F1F5" stroke-width="8.878" stroke-linecap="round"/>
<g filter="url(#filter1_d)">
<path d="M50.7925 66.3071C48.2571 66.8053 45.6483 66.7993 43.1152 66.2893C40.5821 65.7794 38.1743 64.7755 36.0291 63.3349C33.884 61.8944 32.0436 60.0455 30.6131 57.8937C29.1825 55.7419 28.1897 53.3295 27.6915 50.794C27.1933 48.2586 27.1993 45.6498 27.7093 43.1167C28.2192 40.5836 29.2231 38.1758 30.6637 36.0307C32.1042 33.8855 33.9531 32.0451 36.1049 30.6146C38.2567 29.184 40.6692 28.1912 43.2046 27.693C45.74 27.1948 48.3488 27.2008 50.8819 27.7108C53.415 28.2207 55.8228 29.2247 57.968 30.6652C60.1131 32.1057 61.9535 33.9546 63.3841 36.1064C64.8146 38.2582 65.8074 40.6707 66.3056 43.2061C66.8038 45.7415 66.7978 48.3503 66.2878 50.8834C65.7779 53.4165 64.774 55.8243 63.3334 57.9695C61.8929 60.1146 60.044 61.955 57.8922 63.3856C55.7404 64.8161 53.328 65.8089 50.7925 66.3071Z" stroke="#782CE4" stroke-opacity="0.01" stroke-width="8.878" stroke-linecap="round"/>
</g>
<path d="M50.7925 66.3071C48.2571 66.8053 45.6483 66.7993 43.1152 66.2893C40.5821 65.7794 38.1743 64.7755 36.0291 63.3349C33.884 61.8944 32.0436 60.0455 30.6131 57.8937C29.1825 55.7419 28.1897 53.3295 27.6915 50.794C27.1933 48.2586 27.1993 45.6498 27.7093 43.1167C28.2192 40.5836 29.2231 38.1758 30.6637 36.0307C32.1042 33.8855 33.9531 32.0451 36.1049 30.6146C38.2567 29.184 40.6692 28.1912 43.2046 27.693C45.74 27.1948 48.3488 27.2008 50.8819 27.7108C53.415 28.2207 55.8228 29.2247 57.968 30.6652C60.1131 32.1057 61.9535 33.9546 63.3841 36.1064C64.8146 38.2582 65.8074 40.6707 66.3056 43.2061C66.8038 45.7415 66.7978 48.3503 66.2878 50.8834C65.7779 53.4165 64.774 55.8243 63.3334 57.9695C61.8929 60.1146 60.044 61.955 57.8922 63.3856C55.7404 64.8161 53.328 65.8089 50.7925 66.3071Z" stroke="#782CE4" stroke-width="8.878" stroke-linecap="round"/>
<defs>
<filter id="filter0_d" x="1.77045" y="5.63264" width="90.4591" height="90.4591" filterUnits="userSpaceOnUse" color-interpolation-filters="sRGB">
<feFlood flood-opacity="0" result="BackgroundImageFix"/>
<feColorMatrix in="SourceAlpha" type="matrix" values="0 0 0 0 0 0 0 0 0 0 0 0 0 0 0 0 0 0 127 0"/>
<feOffset dy="3.86219"/>
<feGaussianBlur stdDeviation="6.75882"/>
<feColorMatrix type="matrix" values="0 0 0 0 0.015 0 0 0 0 0.02475 0 0 0 0 0.1125 0 0 0 0.16 0"/>
<feBlend mode="normal" in2="BackgroundImageFix" result="effect1_dropShadow"/>
<feBlend mode="normal" in="SourceGraphic" in2="effect1_dropShadow" result="shape"/>
</filter>
<filter id="filter1_d" x="18.4443" y="22.8848" width="57.1086" height="57.1086" filterUnits="userSpaceOnUse" color-interpolation-filters="sRGB">
<feFlood flood-opacity="0" result="BackgroundImageFix"/>
<feColorMatrix in="SourceAlpha" type="matrix" values="0 0 0 0 0 0 0 0 0 0 0 0 0 0 0 0 0 0 127 0"/>
<feOffset dy="4.439"/>
<feGaussianBlur stdDeviation="2.2195"/>
<feColorMatrix type="matrix" values="0 0 0 0 0.470588 0 0 0 0 0.172549 0 0 0 0 0.894118 0 0 0 0.26 0"/>
<feBlend mode="normal" in2="BackgroundImageFix" result="effect1_dropShadow"/>
<feBlend mode="normal" in="SourceGraphic" in2="effect1_dropShadow" result="shape"/>
</filter>
</defs>
</svg>
