<svg width="56" height="56" viewBox="0 0 56 56" fill="none" xmlns="http://www.w3.org/2000/svg">
<path d="M38 0H18C8.05887 0 0 8.05887 0 18V38C0 47.9411 8.05887 56 18 56H38C47.9411 56 56 47.9411 56 38V18C56 8.05887 47.9411 0 38 0Z" fill="#FFFAF1"/>
<g filter="url(#filter0_d)">
<path d="M36.0036 30.3467C35.1738 29.5209 34.0507 29.0574 32.88 29.0574C31.7093 29.0574 30.5862 29.5209 29.7563 30.3467L28.5835 31.5209C27.6723 32.2803 27.005 33.2912 26.6649 34.4275C26.3248 35.5638 26.3269 36.7751 26.671 37.9102C22.812 36.278 19.7409 33.2064 18.1093 29.3471C19.244 29.6935 20.4557 29.697 21.5924 29.3572C22.7291 29.0175 23.7401 28.3496 24.4986 27.4374L25.6799 26.259C26.5057 25.4291 26.9693 24.306 26.9693 23.1353C26.9693 21.9646 26.5057 20.8415 25.6799 20.0116L20.5756 14.9272C20.2053 14.5575 19.7493 14.2852 19.2483 14.1345C18.7473 13.9837 18.2168 13.9593 17.704 14.0633C17.1912 14.1673 16.7121 14.3966 16.3095 14.7306C15.9068 15.0647 15.5929 15.4931 15.396 15.9778C14.3804 18.4726 13.9094 21.1555 14.0144 23.847C14.1194 26.5385 14.798 29.1765 16.0049 31.5846C17.2117 33.9926 18.9189 36.1152 21.0123 37.8101C23.1057 39.5051 25.5369 40.7335 28.1434 41.413C32.093 42.4097 36.2567 42.1319 40.0389 40.6193C40.5239 40.4224 40.9526 40.1085 41.2867 39.7055C41.6209 39.3026 41.8501 38.8232 41.9539 38.3101C42.0576 37.7971 42.0327 37.2663 41.8814 36.7652C41.7301 36.264 41.4571 35.8082 41.0867 35.4383L36.0036 30.3467Z" fill="#FFCD1D" fill-opacity="0.01"/>
</g>
<path d="M36.0036 30.3467C35.1738 29.5209 34.0507 29.0574 32.88 29.0574C31.7093 29.0574 30.5862 29.5209 29.7563 30.3467L28.5835 31.5209C27.6723 32.2803 27.005 33.2912 26.6649 34.4275C26.3248 35.5638 26.3269 36.7751 26.671 37.9102C22.812 36.278 19.7409 33.2064 18.1093 29.3471C19.244 29.6935 20.4557 29.697 21.5924 29.3572C22.7291 29.0175 23.7401 28.3496 24.4986 27.4374L25.6799 26.259C26.5057 25.4291 26.9693 24.306 26.9693 23.1353C26.9693 21.9646 26.5057 20.8415 25.6799 20.0116L20.5756 14.9272C20.2053 14.5575 19.7493 14.2852 19.2483 14.1345C18.7473 13.9837 18.2168 13.9593 17.704 14.0633C17.1912 14.1673 16.7121 14.3966 16.3095 14.7306C15.9068 15.0647 15.5929 15.4931 15.396 15.9778C14.3804 18.4726 13.9094 21.1555 14.0144 23.847C14.1194 26.5385 14.798 29.1765 16.0049 31.5846C17.2117 33.9926 18.9189 36.1152 21.0123 37.8101C23.1057 39.5051 25.5369 40.7335 28.1434 41.413C32.093 42.4097 36.2567 42.1319 40.0389 40.6193C40.5239 40.4224 40.9526 40.1085 41.2867 39.7055C41.6209 39.3026 41.8501 38.8232 41.9539 38.3101C42.0576 37.7971 42.0327 37.2663 41.8814 36.7652C41.7301 36.264 41.4571 35.8082 41.0867 35.4383L36.0036 30.3467Z" fill="#FFCD1D"/>
<defs>
<filter id="filter0_d" x="10" y="13" width="36.0167" height="36" filterUnits="userSpaceOnUse" color-interpolation-filters="sRGB">
<feFlood flood-opacity="0" result="BackgroundImageFix"/>
<feColorMatrix in="SourceAlpha" type="matrix" values="0 0 0 0 0 0 0 0 0 0 0 0 0 0 0 0 0 0 127 0"/>
<feOffset dy="3"/>
<feGaussianBlur stdDeviation="2"/>
<feColorMatrix type="matrix" values="0 0 0 0 0.956863 0 0 0 0 0.729412 0 0 0 0 0.14902 0 0 0 0.41 0"/>
<feBlend mode="normal" in2="BackgroundImageFix" result="effect1_dropShadow"/>
<feBlend mode="normal" in="SourceGraphic" in2="effect1_dropShadow" result="shape"/>
</filter>
</defs>
</svg>
