<svg width="80" height="80" viewBox="0 0 80 80" fill="none" xmlns="http://www.w3.org/2000/svg">
<path opacity="0.1" d="M54 0H26C11.6406 0 0 11.6406 0 26V54C0 68.3594 11.6406 80 26 80H54C68.3594 80 80 68.3594 80 54V26C80 11.6406 68.3594 0 54 0Z" fill="#FF961B"/>
<g filter="url(#filter0_d)">
<path d="M59.6652 57.0673C59.6652 57.3862 59.7919 57.6921 60.0174 57.9176C60.2429 58.1431 60.5488 58.2698 60.8677 58.2698H67.6519C67.8488 58.2696 68.0427 58.2212 68.2165 58.1285C68.3903 58.0359 68.5388 57.9021 68.6487 57.7387C68.7587 57.5753 68.8268 57.3874 68.8471 57.1915C68.8675 56.9956 68.8394 56.7977 68.7653 56.6152C68.0518 54.8319 66.8714 53.2735 65.3481 52.1035C63.8248 50.9336 62.0147 50.1951 60.1077 49.9657C59.9083 49.9416 59.7059 49.9679 59.5192 50.0422C59.3325 50.1164 59.1674 50.2363 59.039 50.3908C58.9106 50.5453 58.8229 50.7296 58.784 50.9267C58.7451 51.1238 58.7562 51.3275 58.8163 51.5193C59.3791 53.3148 59.6653 55.1856 59.6652 57.0673Z" fill="#FF961B" fill-opacity="0.01"/>
<path d="M23.2724 51.4141C23.3303 51.234 23.3449 51.0427 23.3149 50.8559C23.285 50.669 23.2113 50.4919 23.1 50.3389C22.9887 50.1858 22.8429 50.0612 22.6743 49.9752C22.5058 49.8892 22.3193 49.8441 22.1301 49.8438H22.1012C19.9469 49.8448 17.8422 50.4903 16.0577 51.6971C14.2732 52.9039 12.8904 54.6169 12.0873 56.6158C12.0136 56.7984 11.986 56.9963 12.0067 57.1921C12.0274 57.3878 12.0958 57.5755 12.206 57.7386C12.3162 57.9018 12.4647 58.0353 12.6386 58.1277C12.8124 58.22 13.0063 58.2682 13.2031 58.2681H21.1874C21.5063 58.2681 21.8121 58.1414 22.0376 57.9159C22.2631 57.6904 22.3898 57.3845 22.3898 57.0656C22.3889 55.1474 22.6867 53.2408 23.2724 51.4141Z" fill="#FF961B" fill-opacity="0.01"/>
<path d="M35.2078 42.1757C35.3014 42.2331 35.3775 42.315 35.4278 42.4125C35.4782 42.5101 35.5009 42.6195 35.4935 42.729C35.486 42.8386 35.4488 42.944 35.3857 43.0338C35.3226 43.1236 35.2361 43.1945 35.1356 43.2387C32.4258 44.3957 30.1153 46.3229 28.4908 48.7811C26.8662 51.2392 25.9991 54.1203 25.9971 57.0668C25.9971 57.3857 26.1238 57.6915 26.3493 57.917C26.5748 58.1426 26.8806 58.2692 27.1995 58.2692H54.8557C55.1746 58.2692 55.4805 58.1426 55.706 57.917C55.9315 57.6915 56.0582 57.3857 56.0582 57.0668C56.0532 54.1159 55.1805 51.2316 53.5488 48.7729C51.9171 46.3142 49.5983 44.3896 46.8811 43.2387C46.7795 43.1946 46.692 43.1234 46.6282 43.0329C46.5643 42.9424 46.5266 42.8361 46.5192 42.7256C46.5117 42.6151 46.5348 42.5046 46.5859 42.4064C46.6371 42.3081 46.7142 42.2258 46.809 42.1685C48.9539 40.8945 50.6209 38.951 51.5534 36.6371C52.486 34.3231 52.6325 31.7669 51.9704 29.3615C51.3083 26.9562 49.8742 24.835 47.8889 23.3243C45.9035 21.8135 43.4768 20.9969 40.982 21C38.4873 21.0031 36.0626 21.8258 34.081 23.3415C32.0994 24.8571 30.6707 26.9819 30.0146 29.3888C29.3584 31.7958 29.5113 34.3517 30.4496 36.6633C31.3879 38.9749 33.0597 40.9142 35.2078 42.1829V42.1757ZM34.4142 32.3854C34.4142 31.9307 34.4651 31.4774 34.5657 31.0339C34.6075 30.8483 34.6927 30.6752 34.8143 30.529C34.936 30.3827 35.0906 30.2674 35.2655 30.1925C35.4404 30.1176 35.6305 30.0853 35.8203 30.0982C36.0101 30.1111 36.1942 30.1689 36.3573 30.2667C38.6624 31.6544 41.3023 32.387 43.9928 32.3854C44.6963 32.3848 45.3989 32.3325 46.0947 32.2291C46.2826 32.201 46.4745 32.2178 46.6546 32.2781C46.8348 32.3385 46.9981 32.4406 47.1311 32.5763C47.2642 32.7119 47.3632 32.8771 47.42 33.0584C47.4769 33.2396 47.49 33.4318 47.4583 33.6191C47.1526 35.2293 46.2571 36.6675 44.9468 37.6521C43.6366 38.6367 42.0061 39.0969 40.3744 38.9426C38.7427 38.7883 37.2274 38.0306 36.125 36.8178C35.0226 35.6049 34.4125 34.0244 34.4142 32.3854Z" fill="#FF961B" fill-opacity="0.01"/>
<path d="M58.9694 45.9999C60.0069 46.0063 61.0208 45.6897 61.8704 45.094C62.72 44.4983 63.3632 43.6532 63.7109 42.6755C64.0586 41.698 64.0936 40.6364 63.8109 39.6381C63.5283 38.6398 62.9421 37.754 62.1336 37.1038C61.325 36.4535 60.3342 36.0709 59.2984 36.0089C58.2627 35.947 57.2334 36.2088 56.3531 36.7581C55.4728 37.3074 54.7853 38.1169 54.3857 39.0744C53.986 40.032 53.8943 41.0901 54.123 42.1022C54.3767 43.2013 54.9924 44.1831 55.8714 44.89C56.7504 45.597 57.8415 45.9879 58.9694 45.9999Z" fill="#FF961B" fill-opacity="0.01"/>
<path d="M22 46C24.7614 46 27 43.7614 27 41C27 38.2385 24.7614 36 22 36C19.2385 36 17 38.2385 17 41C17 43.7614 19.2385 46 22 46Z" fill="#FF961B" fill-opacity="0.01"/>
</g>
<path d="M59.6652 57.0673C59.6652 57.3862 59.7919 57.6921 60.0174 57.9176C60.2429 58.1431 60.5488 58.2698 60.8677 58.2698H67.6519C67.8488 58.2696 68.0427 58.2212 68.2165 58.1285C68.3903 58.0359 68.5388 57.9021 68.6487 57.7387C68.7587 57.5753 68.8268 57.3874 68.8471 57.1915C68.8675 56.9956 68.8394 56.7977 68.7653 56.6152C68.0518 54.8319 66.8714 53.2735 65.3481 52.1035C63.8248 50.9336 62.0147 50.1951 60.1077 49.9657C59.9083 49.9416 59.7059 49.9679 59.5192 50.0422C59.3325 50.1164 59.1674 50.2363 59.039 50.3908C58.9106 50.5453 58.8229 50.7296 58.784 50.9267C58.7451 51.1238 58.7562 51.3275 58.8163 51.5193C59.3791 53.3148 59.6653 55.1856 59.6652 57.0673Z" fill="#FF961B"/>
<path d="M23.2724 51.4141C23.3303 51.234 23.3449 51.0427 23.3149 50.8559C23.285 50.669 23.2113 50.4919 23.1 50.3389C22.9887 50.1858 22.8429 50.0612 22.6743 49.9752C22.5058 49.8892 22.3193 49.8441 22.1301 49.8438H22.1012C19.9469 49.8448 17.8422 50.4903 16.0577 51.6971C14.2732 52.9039 12.8904 54.6169 12.0873 56.6158C12.0136 56.7984 11.986 56.9963 12.0067 57.1921C12.0274 57.3878 12.0958 57.5755 12.206 57.7386C12.3162 57.9018 12.4647 58.0353 12.6386 58.1277C12.8124 58.22 13.0063 58.2682 13.2031 58.2681H21.1874C21.5063 58.2681 21.8121 58.1414 22.0376 57.9159C22.2631 57.6904 22.3898 57.3845 22.3898 57.0656C22.3889 55.1474 22.6867 53.2408 23.2724 51.4141Z" fill="#FF961B"/>
<path d="M35.2078 42.1757C35.3014 42.2331 35.3775 42.315 35.4278 42.4125C35.4782 42.5101 35.5009 42.6195 35.4935 42.729C35.486 42.8386 35.4488 42.944 35.3857 43.0338C35.3226 43.1236 35.2361 43.1945 35.1356 43.2387C32.4258 44.3957 30.1153 46.3229 28.4908 48.7811C26.8662 51.2392 25.9991 54.1203 25.9971 57.0668C25.9971 57.3857 26.1238 57.6915 26.3493 57.917C26.5748 58.1426 26.8806 58.2692 27.1995 58.2692H54.8557C55.1746 58.2692 55.4805 58.1426 55.706 57.917C55.9315 57.6915 56.0582 57.3857 56.0582 57.0668C56.0532 54.1159 55.1805 51.2316 53.5488 48.7729C51.9171 46.3142 49.5983 44.3896 46.8811 43.2387C46.7795 43.1946 46.692 43.1234 46.6282 43.0329C46.5643 42.9424 46.5266 42.8361 46.5192 42.7256C46.5117 42.6151 46.5348 42.5046 46.5859 42.4064C46.6371 42.3081 46.7142 42.2258 46.809 42.1685C48.9539 40.8945 50.6209 38.951 51.5534 36.6371C52.486 34.3231 52.6325 31.7669 51.9704 29.3615C51.3083 26.9562 49.8742 24.835 47.8889 23.3243C45.9035 21.8135 43.4768 20.9969 40.982 21C38.4873 21.0031 36.0626 21.8258 34.081 23.3415C32.0994 24.8571 30.6707 26.9819 30.0146 29.3888C29.3584 31.7958 29.5113 34.3517 30.4496 36.6633C31.3879 38.9749 33.0597 40.9142 35.2078 42.1829V42.1757ZM34.4142 32.3854C34.4142 31.9307 34.4651 31.4774 34.5657 31.0339C34.6075 30.8483 34.6927 30.6752 34.8143 30.529C34.936 30.3827 35.0906 30.2674 35.2655 30.1925C35.4404 30.1176 35.6305 30.0853 35.8203 30.0982C36.0101 30.1111 36.1942 30.1689 36.3573 30.2667C38.6624 31.6544 41.3023 32.387 43.9928 32.3854C44.6963 32.3848 45.3989 32.3325 46.0947 32.2291C46.2826 32.201 46.4745 32.2178 46.6546 32.2781C46.8348 32.3385 46.9981 32.4406 47.1311 32.5763C47.2642 32.7119 47.3632 32.8771 47.42 33.0584C47.4769 33.2396 47.49 33.4318 47.4583 33.6191C47.1526 35.2293 46.2571 36.6675 44.9468 37.6521C43.6366 38.6367 42.0061 39.0969 40.3744 38.9426C38.7427 38.7883 37.2274 38.0306 36.125 36.8178C35.0226 35.6049 34.4125 34.0244 34.4142 32.3854Z" fill="#FF961B"/>
<path d="M58.7518 47.4472C60.1326 47.4557 61.4819 47.0343 62.6126 46.2416C63.7433 45.4488 64.5993 44.324 65.0621 43.0229C65.5248 41.7219 65.5714 40.3091 65.1952 38.9805C64.8191 37.6518 64.0389 36.473 62.9629 35.6076C61.8868 34.7422 60.5682 34.233 59.1897 34.1505C57.8113 34.0681 56.4414 34.4165 55.2699 35.1476C54.0983 35.8786 53.1833 36.9559 52.6515 38.2303C52.1196 39.5047 51.9975 40.9129 52.3019 42.2599C52.6395 43.7226 53.459 45.0293 54.6288 45.9701C55.7986 46.911 57.2507 47.4312 58.7518 47.4472Z" fill="#FF961B"/>
<path d="M22.1012 47.4476C25.7537 47.4476 28.7147 44.4866 28.7147 40.8341C28.7147 37.1816 25.7537 34.2207 22.1012 34.2207C18.4487 34.2207 15.4878 37.1816 15.4878 40.8341C15.4878 44.4866 18.4487 47.4476 22.1012 47.4476Z" fill="#FF961B"/>
<path d="M40.427 40.7925C44.5706 40.7925 47.9297 37.4335 47.9297 33.2898C47.9297 29.1462 44.5706 25.7871 40.427 25.7871C36.2833 25.7871 32.9243 29.1462 32.9243 33.2898C32.9243 37.4335 36.2833 40.7925 40.427 40.7925Z" fill="#FF961B"/>
<defs>
<filter id="filter0_d" x="6" y="17" width="68.8535" height="49.2698" filterUnits="userSpaceOnUse" color-interpolation-filters="sRGB">
<feFlood flood-opacity="0" result="BackgroundImageFix"/>
<feColorMatrix in="SourceAlpha" type="matrix" values="0 0 0 0 0 0 0 0 0 0 0 0 0 0 0 0 0 0 127 0"/>
<feOffset dy="2"/>
<feGaussianBlur stdDeviation="3"/>
<feColorMatrix type="matrix" values="0 0 0 0 1 0 0 0 0 0.587917 0 0 0 0 0.104167 0 0 0 0.5 0"/>
<feBlend mode="normal" in2="BackgroundImageFix" result="effect1_dropShadow"/>
<feBlend mode="normal" in="SourceGraphic" in2="effect1_dropShadow" result="shape"/>
</filter>
</defs>
</svg>
