<svg width="25" height="25" viewBox="0 0 25 25" fill="none" xmlns="http://www.w3.org/2000/svg">
<path d="M16.0059 10.0002L12.0249 15.3082C11.9604 15.3941 11.8782 15.4652 11.7838 15.5165C11.6895 15.5679 11.5852 15.5984 11.4781 15.606C11.371 15.6136 11.2634 15.5981 11.1628 15.5605C11.0622 15.5229 10.9708 15.4642 10.8949 15.3882L8.50586 13.0002" stroke="#782CE4" stroke-width="1.5" stroke-linecap="round" stroke-linejoin="round"/>
<path d="M10.9858 1.60824C11.1386 1.41837 11.332 1.26516 11.5518 1.1599C11.7715 1.05464 12.0121 1 12.2558 1C12.4995 1 12.7401 1.05464 12.9599 1.1599C13.1797 1.26516 13.3731 1.41837 13.5258 1.60824L15.0378 3.48924C15.2091 3.70264 15.4313 3.86947 15.684 3.97433C15.9368 4.07919 16.2118 4.11871 16.4838 4.08924L18.8838 3.82824C19.1268 3.80125 19.3727 3.82925 19.6034 3.91016C19.834 3.99108 20.0435 4.12284 20.2164 4.29569C20.3892 4.46854 20.521 4.67805 20.6019 4.90871C20.6828 5.13938 20.7108 5.38529 20.6838 5.62824L20.4228 8.02824C20.3934 8.30026 20.4329 8.57532 20.5377 8.82804C20.6426 9.08076 20.8094 9.30299 21.0228 9.47424L22.9038 10.9862C23.0937 11.139 23.2469 11.3324 23.3522 11.5522C23.4574 11.772 23.5121 12.0125 23.5121 12.2562C23.5121 12.4999 23.4574 12.7405 23.3522 12.9603C23.2469 13.1801 23.0937 13.3735 22.9038 13.5262L21.0168 15.0312C20.8035 15.2028 20.6367 15.4252 20.5319 15.678C20.427 15.9309 20.3875 16.2061 20.4168 16.4782L20.6778 18.8782C20.705 19.1212 20.6771 19.3672 20.5963 19.598C20.5155 19.8287 20.3837 20.0383 20.2108 20.2112C20.0379 20.3841 19.8283 20.5159 19.5976 20.5967C19.3668 20.6776 19.1208 20.7054 18.8778 20.6782L16.4778 20.4172C16.2058 20.3877 15.9307 20.4271 15.678 20.532C15.4252 20.6369 15.203 20.8038 15.0318 21.0172L13.5258 22.8912C13.3732 23.0813 13.1798 23.2346 12.96 23.34C12.7402 23.4454 12.4996 23.5001 12.2558 23.5001C12.0121 23.5001 11.7714 23.4454 11.5516 23.34C11.3318 23.2346 11.1385 23.0813 10.9858 22.8912L9.47483 21.0112C9.30337 20.7978 9.08096 20.631 8.82808 20.5261C8.5752 20.4213 8.3 20.3818 8.02783 20.4112L5.62783 20.6722C5.3848 20.6996 5.13873 20.6719 4.90788 20.5911C4.67704 20.5103 4.46737 20.3786 4.29443 20.2056C4.1215 20.0327 3.98975 19.823 3.90897 19.5922C3.82819 19.3613 3.80046 19.1153 3.82783 18.8722L4.08883 16.4722C4.11829 16.2001 4.07878 15.9249 3.97392 15.672C3.86906 15.4191 3.70224 15.1967 3.48883 15.0252L1.60883 13.5142C1.4188 13.3616 1.26544 13.1682 1.16007 12.9484C1.0547 12.7286 1 12.488 1 12.2442C1 12.0005 1.0547 11.7598 1.16007 11.54C1.26544 11.3202 1.4188 11.1269 1.60883 10.9742L3.48883 9.46224C3.7023 9.29106 3.86919 9.06883 3.97406 8.81609C4.07893 8.56336 4.1184 8.28826 4.08883 8.01624L3.82783 5.61624C3.80065 5.37325 3.82852 5.12725 3.90936 4.8965C3.99021 4.66575 4.12197 4.45615 4.29486 4.28326C4.46775 4.11037 4.67734 3.97862 4.9081 3.89777C5.13885 3.81692 5.38484 3.78905 5.62783 3.81624L8.02783 4.07724C8.29999 4.1066 8.57516 4.06704 8.82803 3.96219C9.08089 3.85735 9.30331 3.69058 9.47483 3.47724L10.9858 1.60824Z" stroke="#782CE4" stroke-width="1.5" stroke-linecap="round" stroke-linejoin="round"/>
</svg>
