<svg width="80" height="80" viewBox="0 0 80 80" fill="none" xmlns="http://www.w3.org/2000/svg">
<path opacity="0.06" d="M54 0H26C11.6406 0 0 11.6406 0 26V54C0 68.3594 11.6406 80 26 80H54C68.3594 80 80 68.3594 80 54V26C80 11.6406 68.3594 0 54 0Z" fill="#F4263E"/>
<g filter="url(#filter0_d)">
<path d="M63.8312 30.2094L60.7062 24.7969C60.2917 24.0791 59.6092 23.5554 58.8087 23.3409C58.0081 23.1264 57.1552 23.2387 56.4374 23.6531L54.2249 24.9313C52.0971 23.0217 49.592 21.5802 46.8718 20.7V18.125C46.8718 17.2962 46.5425 16.5013 45.9565 15.9153C45.3704 15.3292 44.5756 15 43.7468 15H37.4968C36.668 15 35.8731 15.3292 35.2871 15.9153C34.701 16.5013 34.3718 17.2962 34.3718 18.125V20.6906C31.6435 21.5641 29.1326 23.0086 27.0062 24.9281L24.7999 23.6531C24.0833 23.2427 23.2334 23.1326 22.4358 23.3469C21.6383 23.5612 20.958 24.0825 20.5437 24.7969L17.4187 30.2094C17.0043 30.9271 16.892 31.7801 17.1065 32.5806C17.321 33.3812 17.8447 34.0637 18.5624 34.4781L20.7874 35.7656C20.1873 38.5598 20.1873 41.4496 20.7874 44.2437L18.5624 45.5281C17.8447 45.9425 17.321 46.6251 17.1065 47.4256C16.892 48.2262 17.0043 49.0791 17.4187 49.7969L20.5437 55.2094C20.9581 55.9271 21.6406 56.4508 22.4412 56.6653C23.2417 56.8798 24.0947 56.7675 24.8124 56.3531L27.0249 55.075C29.1528 56.9885 31.6606 58.4314 34.3843 59.3094V61.875C34.3843 62.7038 34.7135 63.4987 35.2996 64.0847C35.8856 64.6708 36.6805 65 37.5093 65H43.7593C44.5881 65 45.3829 64.6708 45.969 64.0847C46.555 63.4987 46.8843 62.7038 46.8843 61.875V59.3125C49.6105 58.4382 52.12 56.9949 54.2468 55.0781L56.4499 56.3531C57.1677 56.7675 58.0206 56.8798 58.8212 56.6653C59.6217 56.4508 60.3042 55.9271 60.7187 55.2094L63.8437 49.7969C64.258 49.0791 64.3703 48.2262 64.1558 47.4256C63.9414 46.6251 63.4176 45.9425 62.6999 45.5281L60.478 44.2469C61.0797 41.4507 61.0797 38.5586 60.478 35.7625L62.6999 34.4781C63.4155 34.0616 63.9366 33.3782 64.1487 32.5778C64.3608 31.7774 64.2466 30.9256 63.8312 30.2094ZM40.6218 50.9375C38.4586 50.9375 36.3439 50.296 34.5452 49.0942C32.7466 47.8924 31.3447 46.1842 30.5169 44.1856C29.689 42.187 29.4724 39.9879 29.8944 37.8662C30.3165 35.7445 31.3582 33.7957 32.8878 32.266C34.4174 30.7364 36.3663 29.6947 38.488 29.2727C40.6097 28.8506 42.8088 29.0672 44.8074 29.8951C46.806 30.7229 48.5142 32.1248 49.716 33.9234C50.9178 35.7221 51.5593 37.8368 51.5593 40C51.5593 42.9008 50.4069 45.6828 48.3558 47.734C46.3046 49.7852 43.5226 50.9375 40.6218 50.9375Z" fill="#F4263E" fill-opacity="0.01"/>
</g>
<path d="M63.8312 30.2094L60.7062 24.7969C60.2917 24.0791 59.6092 23.5554 58.8087 23.3409C58.0081 23.1264 57.1552 23.2387 56.4374 23.6531L54.2249 24.9313C52.0971 23.0217 49.592 21.5802 46.8718 20.7V18.125C46.8718 17.2962 46.5425 16.5013 45.9565 15.9153C45.3704 15.3292 44.5756 15 43.7468 15H37.4968C36.668 15 35.8731 15.3292 35.2871 15.9153C34.701 16.5013 34.3718 17.2962 34.3718 18.125V20.6906C31.6435 21.5641 29.1326 23.0086 27.0062 24.9281L24.7999 23.6531C24.0833 23.2427 23.2334 23.1326 22.4358 23.3469C21.6383 23.5612 20.958 24.0825 20.5437 24.7969L17.4187 30.2094C17.0043 30.9271 16.892 31.7801 17.1065 32.5806C17.321 33.3812 17.8447 34.0637 18.5624 34.4781L20.7874 35.7656C20.1873 38.5598 20.1873 41.4496 20.7874 44.2437L18.5624 45.5281C17.8447 45.9425 17.321 46.6251 17.1065 47.4256C16.892 48.2262 17.0043 49.0791 17.4187 49.7969L20.5437 55.2094C20.9581 55.9271 21.6406 56.4508 22.4412 56.6653C23.2417 56.8798 24.0947 56.7675 24.8124 56.3531L27.0249 55.075C29.1528 56.9885 31.6606 58.4314 34.3843 59.3094V61.875C34.3843 62.7038 34.7135 63.4987 35.2996 64.0847C35.8856 64.6708 36.6805 65 37.5093 65H43.7593C44.5881 65 45.3829 64.6708 45.969 64.0847C46.555 63.4987 46.8843 62.7038 46.8843 61.875V59.3125C49.6105 58.4382 52.12 56.9949 54.2468 55.0781L56.4499 56.3531C57.1677 56.7675 58.0206 56.8798 58.8212 56.6653C59.6217 56.4508 60.3042 55.9271 60.7187 55.2094L63.8437 49.7969C64.258 49.0791 64.3703 48.2262 64.1558 47.4256C63.9414 46.6251 63.4176 45.9425 62.6999 45.5281L60.478 44.2469C61.0797 41.4507 61.0797 38.5586 60.478 35.7625L62.6999 34.4781C63.4155 34.0616 63.9366 33.3782 64.1487 32.5778C64.3608 31.7774 64.2466 30.9256 63.8312 30.2094ZM40.6218 50.9375C38.4586 50.9375 36.3439 50.296 34.5452 49.0942C32.7466 47.8924 31.3447 46.1842 30.5169 44.1856C29.689 42.187 29.4724 39.9879 29.8944 37.8662C30.3165 35.7445 31.3582 33.7957 32.8878 32.266C34.4174 30.7364 36.3663 29.6947 38.488 29.2727C40.6097 28.8506 42.8088 29.0672 44.8074 29.8951C46.806 30.7229 48.5142 32.1248 49.716 33.9234C50.9178 35.7221 51.5593 37.8368 51.5593 40C51.5593 42.9008 50.4069 45.6828 48.3558 47.734C46.3046 49.7852 43.5226 50.9375 40.6218 50.9375Z" fill="#F4263E"/>
<defs>
<filter id="filter0_d" x="11" y="13" width="59.2623" height="62" filterUnits="userSpaceOnUse" color-interpolation-filters="sRGB">
<feFlood flood-opacity="0" result="BackgroundImageFix"/>
<feColorMatrix in="SourceAlpha" type="matrix" values="0 0 0 0 0 0 0 0 0 0 0 0 0 0 0 0 0 0 127 0"/>
<feOffset dy="4"/>
<feGaussianBlur stdDeviation="3"/>
<feColorMatrix type="matrix" values="0 0 0 0 0.956863 0 0 0 0 0.14902 0 0 0 0 0.243137 0 0 0 0.31 0"/>
<feBlend mode="normal" in2="BackgroundImageFix" result="effect1_dropShadow"/>
<feBlend mode="normal" in="SourceGraphic" in2="effect1_dropShadow" result="shape"/>
</filter>
</defs>
</svg>
