<svg width="40" height="40" viewBox="0 0 40 40" fill="none" xmlns="http://www.w3.org/2000/svg">
<path d="M14.4774 22.7249H20.1816L17.8382 30.2458C16.5302 34.4422 12.697 37.258 8.30076 37.258H6.37512C4.8673 37.258 3.65015 36.0409 3.65015 34.5331C3.65015 33.0252 4.8673 31.8081 6.37512 31.8081H8.30076C10.2991 31.8081 12.0431 30.5183 12.6425 28.629L14.4774 22.7249Z" fill="white"/>
<path d="M24.7233 8.19165L21.8893 17.2749H16.1851L19.019 8.19165H24.7233Z" fill="white"/>
<path d="M6.37512 15.4583C4.86912 15.4583 3.65015 14.2376 3.65015 12.7334C3.65015 5.40321 9.6251 2.74182 13.6417 2.74182H33.6248C35.1308 2.74182 36.3498 3.96261 36.3498 5.46679C36.3498 6.97097 35.1308 8.19176 33.6248 8.19176H13.6417C12.5935 8.21174 9.10008 8.59505 9.10008 12.7334C9.10008 14.2376 7.88111 15.4583 6.37512 15.4583Z" fill="white"/>
<path d="M24.5415 22.7248H11.825C10.319 22.7248 9.10004 21.5041 9.10004 19.9999C9.10004 18.4957 10.319 17.2749 11.825 17.2749H24.5415C26.0475 17.2749 27.2665 18.4957 27.2665 19.9999C27.2665 21.5041 26.0475 22.7248 24.5415 22.7248Z" fill="white"/>
</svg>
