<svg width="160" height="168" viewBox="0 0 160 168" fill="none" xmlns="http://www.w3.org/2000/svg">
<path opacity="0.07" d="M112 0H48C21.4903 0 0 21.4903 0 48V112C0 138.51 21.4903 160 48 160H112C138.51 160 160 138.51 160 112V48C160 21.4903 138.51 0 112 0Z" fill="#FFCD1D"/>
<g filter="url(#filter0_d)">
<path d="M111.065 23H49.6499C43.2158 23 38 28.2158 38 34.6499V126.35C38 132.784 43.2158 138 49.6499 138H111.065C117.499 138 122.715 132.784 122.715 126.35V34.6499C122.715 28.2158 117.499 23 111.065 23Z" fill="white" fill-opacity="0.01"/>
</g>
<path d="M111.065 23H49.6499C43.2158 23 38 28.2158 38 34.6499V126.35C38 132.784 43.2158 138 49.6499 138H111.065C117.499 138 122.715 132.784 122.715 126.35V34.6499C122.715 28.2158 117.499 23 111.065 23Z" fill="white"/>
<g filter="url(#filter1_d)">
<path d="M48.7174 115.641C51.1028 115.641 53.0366 113.707 53.0366 111.321C53.0366 108.936 51.1028 107.002 48.7174 107.002C46.3319 107.002 44.3979 108.936 44.3979 111.321C44.3979 113.707 46.3319 115.641 48.7174 115.641Z" fill="#F4263E" fill-opacity="0.01"/>
</g>
<path d="M48.7174 115.641C51.1028 115.641 53.0366 113.707 53.0366 111.321C53.0366 108.936 51.1028 107.002 48.7174 107.002C46.3319 107.002 44.3979 108.936 44.3979 111.321C44.3979 113.707 46.3319 115.641 48.7174 115.641Z" fill="#F4263E"/>
<path d="M94.4361 37.8623H63.0902C61.4817 37.8623 60.1777 39.1663 60.1777 40.7748C60.1777 42.3833 61.4817 43.6873 63.0902 43.6873H94.4361C96.0446 43.6873 97.3485 42.3833 97.3485 40.7748C97.3485 39.1663 96.0446 37.8623 94.4361 37.8623Z" fill="#E7E8F1"/>
<path d="M101.951 120.106H47.3104C45.7019 120.106 44.3979 121.41 44.3979 123.018C44.3979 124.627 45.7019 125.931 47.3104 125.931H101.951C103.56 125.931 104.864 124.627 104.864 123.018C104.864 121.41 103.56 120.106 101.951 120.106Z" fill="#E7E8F1"/>
<g filter="url(#filter2_d)">
<path d="M107.579 52.7363H53.1354C48.3098 52.7363 44.3979 56.6482 44.3979 61.4738V93.837C44.3979 98.6625 48.3098 102.574 53.1354 102.574H107.579C112.405 102.574 116.317 98.6625 116.317 93.837V61.4738C116.317 56.6482 112.405 52.7363 107.579 52.7363Z" fill="#FFCD1D" fill-opacity="0.01"/>
</g>
<path d="M107.579 52.7363H53.1354C48.3098 52.7363 44.3979 56.6482 44.3979 61.4738V93.837C44.3979 98.6625 48.3098 102.574 53.1354 102.574H107.579C112.405 102.574 116.317 98.6625 116.317 93.837V61.4738C116.317 56.6482 112.405 52.7363 107.579 52.7363Z" fill="#FFCD1D"/>
<g filter="url(#filter3_d)">
<path d="M90.4589 73.9522C90.2243 73.4339 89.859 72.9856 89.3987 72.6513C88.9384 72.317 88.3991 72.1083 87.8337 72.0455C87.2766 72.0406 86.7285 72.1866 86.2477 72.4681C85.7669 72.7496 85.3712 73.156 85.1028 73.6443L85.0872 73.6691L79.9862 82.3969C79.9259 82.5001 79.8426 82.588 79.7428 82.6539C79.643 82.7197 79.5294 82.7616 79.4108 82.7763C79.2923 82.79 79.1723 82.7767 79.0597 82.7374C78.9471 82.698 78.8449 82.6337 78.7607 82.5493L73.4979 77.215C73.4732 77.1888 73.4461 77.1648 73.4171 77.1434C73.0892 76.8889 72.7093 76.7095 72.3044 76.6181C71.8995 76.5267 71.4795 76.5255 71.074 76.6145C70.6686 76.7036 70.2877 76.8807 69.9584 77.1334C69.629 77.386 69.3593 77.708 69.1683 78.0766L69.1496 78.1077L61.5572 91.078C61.4882 91.1961 61.4516 91.3304 61.4512 91.4672C61.4507 91.6041 61.4864 91.7386 61.5545 91.8572C61.6227 91.9759 61.7209 92.0744 61.8393 92.1429C61.9578 92.2115 62.0922 92.2475 62.229 92.2475H98.4868C98.6197 92.2478 98.7506 92.2139 98.8666 92.149C98.9827 92.0842 99.0801 91.9905 99.1495 91.8771C99.2188 91.7636 99.2578 91.6343 99.2627 91.5014C99.2676 91.3685 99.2382 91.2366 99.1773 91.1184L90.4589 73.9522Z" fill="white" fill-opacity="0.01"/>
</g>
<path d="M90.4589 73.9522C90.2243 73.4339 89.859 72.9856 89.3987 72.6513C88.9384 72.317 88.3991 72.1083 87.8337 72.0455C87.2766 72.0406 86.7285 72.1866 86.2477 72.4681C85.7669 72.7496 85.3712 73.156 85.1028 73.6443L85.0872 73.6691L79.9862 82.3969C79.9259 82.5001 79.8426 82.588 79.7428 82.6539C79.643 82.7197 79.5294 82.7616 79.4108 82.7763C79.2923 82.79 79.1723 82.7767 79.0597 82.7374C78.9471 82.698 78.8449 82.6337 78.7607 82.5493L73.4979 77.215C73.4732 77.1888 73.4461 77.1648 73.4171 77.1434C73.0892 76.8889 72.7093 76.7095 72.3044 76.6181C71.8995 76.5267 71.4795 76.5255 71.074 76.6145C70.6686 76.7036 70.2877 76.8807 69.9584 77.1334C69.629 77.386 69.3593 77.708 69.1683 78.0766L69.1496 78.1077L61.5572 91.078C61.4882 91.1961 61.4516 91.3304 61.4512 91.4672C61.4507 91.6041 61.4864 91.7386 61.5545 91.8572C61.6227 91.9759 61.7209 92.0744 61.8393 92.1429C61.9578 92.2115 62.0922 92.2475 62.229 92.2475H98.4868C98.6197 92.2478 98.7506 92.2139 98.8666 92.149C98.9827 92.0842 99.0801 91.9905 99.1495 91.8771C99.2188 91.7636 99.2578 91.6343 99.2627 91.5014C99.2676 91.3685 99.2382 91.2366 99.1773 91.1184L90.4589 73.9522Z" fill="white"/>
<g filter="url(#filter4_d)">
<path d="M67.1265 72.3941C69.7032 72.3941 71.7921 70.3053 71.7921 67.7286C71.7921 65.1518 69.7032 63.063 67.1265 63.063C64.5498 63.063 62.4609 65.1518 62.4609 67.7286C62.4609 70.3053 64.5498 72.3941 67.1265 72.3941Z" fill="#FF961B" fill-opacity="0.01"/>
</g>
<path d="M67.1265 72.3941C69.7032 72.3941 71.7921 70.3053 71.7921 67.7286C71.7921 65.1518 69.7032 63.063 67.1265 63.063C64.5498 63.063 62.4609 65.1518 62.4609 67.7286C62.4609 70.3053 64.5498 72.3941 67.1265 72.3941Z" fill="#FF961B"/>
<g filter="url(#filter5_d)">
<path d="M50.1038 46.4801C53.2548 46.4801 55.8092 43.9257 55.8092 40.7747C55.8092 37.6237 53.2548 35.0693 50.1038 35.0693C46.9528 35.0693 44.3984 37.6237 44.3984 40.7747C44.3984 43.9257 46.9528 46.4801 50.1038 46.4801Z" fill="#1B76FF" fill-opacity="0.01"/>
</g>
<path d="M50.1038 46.4801C53.2548 46.4801 55.8092 43.9257 55.8092 40.7747C55.8092 37.6237 53.2548 35.0693 50.1038 35.0693C46.9528 35.0693 44.3984 37.6237 44.3984 40.7747C44.3984 43.9257 46.9528 46.4801 50.1038 46.4801Z" fill="#1B76FF"/>
<g filter="url(#filter6_dd)">
<path d="M121.445 55.2748C130.74 55.2748 138.274 47.7401 138.274 38.4455C138.274 29.1509 130.74 21.6162 121.445 21.6162C112.15 21.6162 104.616 29.1509 104.616 38.4455C104.616 47.7401 112.15 55.2748 121.445 55.2748Z" fill="white" fill-opacity="0.01"/>
<path d="M121.445 18C110.154 18 101 27.1544 101 38.4453C101 49.7362 110.154 58.8906 121.445 58.8906C132.736 58.8906 141.891 49.7362 141.891 38.4453C141.891 27.1544 132.736 18 121.445 18ZM128.665 44.2875C128.665 50.2371 123.779 51.0396 122.915 51.1469V54.546H120.354V51.1469C119.557 51.037 114.192 50.4492 114.192 43.0583H119.023C119.023 47.4233 121.274 47.2419 121.617 47.2419C121.992 47.2419 123.835 47.1729 123.835 44.3208C123.835 38.6242 114.995 41.1517 114.995 32.6133C114.995 26.7608 119.845 25.8484 120.712 25.7385V22.0891H123.288V25.8101C124.108 25.966 128.698 27.0138 128.698 33.7275H123.868C123.868 30.2186 122.378 29.6666 121.752 29.6666C121.41 29.6666 119.822 29.756 119.822 32.6363C119.825 37.6633 128.665 36.0966 128.665 44.2875Z" fill="#FFCD1D" fill-opacity="0.01"/>
</g>
<path d="M121.445 55.2748C130.74 55.2748 138.274 47.7401 138.274 38.4455C138.274 29.1509 130.74 21.6162 121.445 21.6162C112.15 21.6162 104.616 29.1509 104.616 38.4455C104.616 47.7401 112.15 55.2748 121.445 55.2748Z" fill="white"/>
<path d="M121.445 18C110.154 18 101 27.1544 101 38.4453C101 49.7362 110.154 58.8906 121.445 58.8906C132.736 58.8906 141.891 49.7362 141.891 38.4453C141.891 27.1544 132.736 18 121.445 18ZM128.665 44.2875C128.665 50.2371 123.779 51.0396 122.915 51.1469V54.546H120.354V51.1469C119.557 51.037 114.192 50.4492 114.192 43.0583H119.023C119.023 47.4233 121.274 47.2419 121.617 47.2419C121.992 47.2419 123.835 47.1729 123.835 44.3208C123.835 38.6242 114.995 41.1517 114.995 32.6133C114.995 26.7608 119.845 25.8484 120.712 25.7385V22.0891H123.288V25.8101C124.108 25.966 128.698 27.0138 128.698 33.7275H123.868C123.868 30.2186 122.378 29.6666 121.752 29.6666C121.41 29.6666 119.822 29.756 119.822 32.6363C119.825 37.6633 128.665 36.0966 128.665 44.2875Z" fill="#FFCD1D"/>
<defs>
<filter id="filter0_d" x="17.6126" y="11.6126" width="125.49" height="155.775" filterUnits="userSpaceOnUse" color-interpolation-filters="sRGB">
<feFlood flood-opacity="0" result="BackgroundImageFix"/>
<feColorMatrix in="SourceAlpha" type="matrix" values="0 0 0 0 0 0 0 0 0 0 0 0 0 0 0 0 0 0 127 0"/>
<feOffset dy="9"/>
<feGaussianBlur stdDeviation="10.1937"/>
<feColorMatrix type="matrix" values="0 0 0 0 1 0 0 0 0 0.80475 0 0 0 0 0.1125 0 0 0 0.17 0"/>
<feBlend mode="normal" in2="BackgroundImageFix" result="effect1_dropShadow"/>
<feBlend mode="normal" in="SourceGraphic" in2="effect1_dropShadow" result="shape"/>
</filter>
<filter id="filter1_d" x="40.0292" y="104.089" width="17.3761" height="17.3764" filterUnits="userSpaceOnUse" color-interpolation-filters="sRGB">
<feFlood flood-opacity="0" result="BackgroundImageFix"/>
<feColorMatrix in="SourceAlpha" type="matrix" values="0 0 0 0 0 0 0 0 0 0 0 0 0 0 0 0 0 0 127 0"/>
<feOffset dy="1.45624"/>
<feGaussianBlur stdDeviation="2.18436"/>
<feColorMatrix type="matrix" values="0 0 0 0 0.956863 0 0 0 0 0.14902 0 0 0 0 0.243137 0 0 0 0.19 0"/>
<feBlend mode="normal" in2="BackgroundImageFix" result="effect1_dropShadow"/>
<feBlend mode="normal" in="SourceGraphic" in2="effect1_dropShadow" result="shape"/>
</filter>
<filter id="filter2_d" x="38.573" y="49.8238" width="83.5685" height="61.488" filterUnits="userSpaceOnUse" color-interpolation-filters="sRGB">
<feFlood flood-opacity="0" result="BackgroundImageFix"/>
<feColorMatrix in="SourceAlpha" type="matrix" values="0 0 0 0 0 0 0 0 0 0 0 0 0 0 0 0 0 0 127 0"/>
<feOffset dy="2.91248"/>
<feGaussianBlur stdDeviation="2.91248"/>
<feColorMatrix type="matrix" values="0 0 0 0 1 0 0 0 0 0.80475 0 0 0 0 0.1125 0 0 0 0.15 0"/>
<feBlend mode="normal" in2="BackgroundImageFix" result="effect1_dropShadow"/>
<feBlend mode="normal" in="SourceGraphic" in2="effect1_dropShadow" result="shape"/>
</filter>
<filter id="filter3_d" x="55.6262" y="69.1329" width="49.462" height="31.852" filterUnits="userSpaceOnUse" color-interpolation-filters="sRGB">
<feFlood flood-opacity="0" result="BackgroundImageFix"/>
<feColorMatrix in="SourceAlpha" type="matrix" values="0 0 0 0 0 0 0 0 0 0 0 0 0 0 0 0 0 0 127 0"/>
<feOffset dy="2.91248"/>
<feGaussianBlur stdDeviation="2.91248"/>
<feColorMatrix type="matrix" values="0 0 0 0 1 0 0 0 0 0.587917 0 0 0 0 0.104167 0 0 0 0.42 0"/>
<feBlend mode="normal" in2="BackgroundImageFix" result="effect1_dropShadow"/>
<feBlend mode="normal" in="SourceGraphic" in2="effect1_dropShadow" result="shape"/>
</filter>
<filter id="filter4_d" x="58.0922" y="60.1505" width="18.0686" height="18.0685" filterUnits="userSpaceOnUse" color-interpolation-filters="sRGB">
<feFlood flood-opacity="0" result="BackgroundImageFix"/>
<feColorMatrix in="SourceAlpha" type="matrix" values="0 0 0 0 0 0 0 0 0 0 0 0 0 0 0 0 0 0 127 0"/>
<feOffset dy="1.45624"/>
<feGaussianBlur stdDeviation="2.18436"/>
<feColorMatrix type="matrix" values="0 0 0 0 0.520833 0 0 0 0 0.212413 0 0 0 0 0.115017 0 0 0 0.18 0"/>
<feBlend mode="normal" in2="BackgroundImageFix" result="effect1_dropShadow"/>
<feBlend mode="normal" in="SourceGraphic" in2="effect1_dropShadow" result="shape"/>
</filter>
<filter id="filter5_d" x="40.0297" y="32.1569" width="20.1482" height="20.1482" filterUnits="userSpaceOnUse" color-interpolation-filters="sRGB">
<feFlood flood-opacity="0" result="BackgroundImageFix"/>
<feColorMatrix in="SourceAlpha" type="matrix" values="0 0 0 0 0 0 0 0 0 0 0 0 0 0 0 0 0 0 127 0"/>
<feOffset dy="1.45624"/>
<feGaussianBlur stdDeviation="2.18436"/>
<feColorMatrix type="matrix" values="0 0 0 0 0.104167 0 0 0 0 0.4625 0 0 0 0 1 0 0 0 0.38 0"/>
<feBlend mode="normal" in2="BackgroundImageFix" result="effect1_dropShadow"/>
<feBlend mode="normal" in="SourceGraphic" in2="effect1_dropShadow" result="shape"/>
</filter>
<filter id="filter6_dd" x="94" y="13" width="54.891" height="57.4306" filterUnits="userSpaceOnUse" color-interpolation-filters="sRGB">
<feFlood flood-opacity="0" result="BackgroundImageFix"/>
<feColorMatrix in="SourceAlpha" type="matrix" values="0 0 0 0 0 0 0 0 0 0 0 0 0 0 0 0 0 0 127 0"/>
<feOffset dy="5.18"/>
<feGaussianBlur stdDeviation="3.18"/>
<feColorMatrix type="matrix" values="0 0 0 0 1 0 0 0 0 0.80475 0 0 0 0 0.1125 0 0 0 0.45 0"/>
<feBlend mode="normal" in2="BackgroundImageFix" result="effect1_dropShadow"/>
<feColorMatrix in="SourceAlpha" type="matrix" values="0 0 0 0 0 0 0 0 0 0 0 0 0 0 0 0 0 0 127 0"/>
<feOffset dy="2"/>
<feGaussianBlur stdDeviation="3.5"/>
<feColorMatrix type="matrix" values="0 0 0 0 0.121042 0 0 0 0 0.143938 0 0 0 0 0.35 0 0 0 0.08 0"/>
<feBlend mode="normal" in2="effect1_dropShadow" result="effect2_dropShadow"/>
<feBlend mode="normal" in="SourceGraphic" in2="effect2_dropShadow" result="shape"/>
</filter>
</defs>
</svg>
