<svg width="94" height="94" viewBox="0 0 94 94" fill="none" xmlns="http://www.w3.org/2000/svg">
<path opacity="0.1" d="M68 0H26C11.6406 0 0 11.6406 0 26V68C0 82.3594 11.6406 94 26 94H68C82.3594 94 94 82.3594 94 68V26C94 11.6406 82.3594 0 68 0Z" fill="#FFCD1D"/>
<g filter="url(#filter0_d)">
<path d="M65.6982 21.0002H28.3012C23.3388 21.0002 19.316 25.023 19.316 29.9854V64.0147C19.316 68.9771 23.3388 72.9999 28.3012 72.9999H65.6982C70.6605 72.9999 74.6833 68.9771 74.6833 64.0147V29.9854C74.6833 25.023 70.6605 21.0002 65.6982 21.0002Z" fill="#FFCD1D"/>
</g>
<path d="M66.6655 19.6553H27.3338C22.1147 19.6553 17.8838 23.8862 17.8838 29.1053V64.8951C17.8838 70.1142 22.1147 74.3451 27.3338 74.3451H66.6655C71.8846 74.3451 76.1155 70.1142 76.1155 64.8951V29.1053C76.1155 23.8862 71.8846 19.6553 66.6655 19.6553Z" fill="#FFCD1D"/>
<g filter="url(#filter1_d)">
<path d="M46.9994 61.8167C55.1824 61.8167 61.8161 55.1831 61.8161 47C61.8161 38.817 55.1824 32.1833 46.9994 32.1833C38.8164 32.1833 32.1827 38.817 32.1827 47C32.1827 55.1831 38.8164 61.8167 46.9994 61.8167Z" fill="#FFCD1D"/>
<path d="M47.0002 29C37.0596 29 29 37.0596 29 47.0003C29 56.9409 37.0596 65.0005 47.0002 65.0005C56.9409 65.0005 65.0004 56.9409 65.0004 47.0003C65.0004 37.0596 56.9409 29 47.0002 29ZM53.3566 52.1438C53.3566 57.3819 49.0545 58.0884 48.294 58.1829V61.1755H46.0395V58.1829C45.3374 58.0861 40.6146 57.5687 40.6146 51.0616H44.8672C44.8672 54.9046 46.8495 54.7448 47.1509 54.7448C47.4818 54.7448 49.104 54.6841 49.104 52.173C49.104 47.1578 41.3212 49.3831 41.3212 41.8657C41.3212 36.7131 45.5917 35.9099 46.3545 35.8132V32.6H48.6225V35.8761C49.3447 36.0134 53.3858 36.9358 53.3858 42.8467H49.1332C49.1332 39.7574 47.8215 39.2714 47.2703 39.2714C46.9687 39.2714 45.5715 39.3501 45.5715 41.8859C45.5737 46.3117 53.3566 44.9325 53.3566 52.1438Z" fill="white"/>
</g>
<path d="M46.9994 62.56C55.5929 62.56 62.5593 55.5936 62.5593 47.0001C62.5593 38.4066 55.5929 31.4402 46.9994 31.4402C38.4059 31.4402 31.4395 38.4066 31.4395 47.0001C31.4395 55.5936 38.4059 62.56 46.9994 62.56Z" fill="#FFCD1D"/>
<path d="M46.9998 28.0969C36.5606 28.0969 28.0967 36.5608 28.0967 47.0001C28.0967 57.4393 36.5606 65.9032 46.9998 65.9032C57.4391 65.9032 65.9029 57.4393 65.9029 47.0001C65.9029 36.5608 57.4391 28.0969 46.9998 28.0969ZM53.675 52.4016C53.675 57.9024 49.1571 58.6444 48.3585 58.7436V61.8863H45.9909V58.7436C45.2536 58.642 40.2939 58.0986 40.2939 51.2651H44.7598C44.7598 55.3009 46.8415 55.1331 47.1581 55.1331C47.5055 55.1331 49.2091 55.0693 49.2091 52.4323C49.2091 47.1655 41.0359 49.5024 41.0359 41.6079C41.0359 36.1969 45.5206 35.3534 46.3217 35.2518V31.8775H48.7035V35.3179C49.4619 35.4621 53.7057 36.4308 53.7057 42.6382H49.2398C49.2398 39.3939 47.8623 38.8835 47.2834 38.8835C46.9667 38.8835 45.4994 38.9662 45.4994 41.6292C45.5017 46.277 53.675 44.8286 53.675 52.4016Z" fill="white"/>
<g filter="url(#filter2_d)">
<path d="M79.8276 73.2235L72.6853 66.0826C72.6455 66.0433 72.6149 65.9955 72.5956 65.9429C72.5764 65.8902 72.569 65.834 72.574 65.7782C72.5789 65.7223 72.5962 65.6683 72.6244 65.6199C72.6526 65.5715 72.6912 65.5299 72.7373 65.4982L77.3275 62.3157C77.5644 62.1516 77.75 61.9239 77.8631 61.6589C77.9764 61.3939 78.0124 61.1024 77.9671 60.8178C77.9219 60.5333 77.7972 60.2672 77.6075 60.0504C77.4177 59.8336 77.1706 59.6748 76.8946 59.5922L57.4659 53.7611C57.2674 53.702 57.0567 53.6977 56.856 53.7486C56.6552 53.7994 56.472 53.9036 56.3256 54.05C56.1792 54.1964 56.075 54.3796 56.0242 54.5803C55.9734 54.781 55.9778 54.9917 56.0368 55.1902L61.8678 74.6219C61.9506 74.8979 62.1095 75.1448 62.3265 75.3345C62.5434 75.524 62.8095 75.6486 63.094 75.6936C63.3785 75.7386 63.67 75.7025 63.9349 75.5893C64.1997 75.476 64.4273 75.2903 64.5913 75.0534L67.7723 70.4633C67.8042 70.4172 67.8457 70.3787 67.8941 70.3505C67.9424 70.3222 67.9963 70.305 68.052 70.2999C68.1078 70.2947 68.1639 70.3019 68.2167 70.3209C68.2693 70.3399 68.3172 70.3701 68.3568 70.4097L75.4991 77.552C75.786 77.8388 76.1752 78 76.5808 78C76.9866 78 77.3757 77.8388 77.6626 77.552L79.8276 75.3869C80.1144 75.1 80.2756 74.7109 80.2756 74.3052C80.2756 73.8994 80.1144 73.5104 79.8276 73.2235Z" fill="#FF961B"/>
</g>
<path d="M80.8178 73.8472L73.0708 66.1018C73.0276 66.0591 72.9944 66.0073 72.9735 65.9502C72.9526 65.8931 72.9446 65.8321 72.95 65.7716C72.9554 65.711 72.9741 65.6524 73.0047 65.5999C73.0353 65.5474 73.0772 65.5023 73.1272 65.4679L78.106 62.0159C78.3629 61.8379 78.5643 61.591 78.687 61.3035C78.8098 61.0161 78.8489 60.6999 78.7998 60.3912C78.7507 60.0826 78.6155 59.794 78.4097 59.5588C78.2038 59.3237 77.9358 59.1514 77.6364 59.0618L56.5628 52.7371C56.3475 52.673 56.119 52.6683 55.9013 52.7235C55.6835 52.7786 55.4848 52.8916 55.326 53.0504C55.1672 53.2092 55.0542 53.4079 54.9991 53.6256C54.944 53.8433 54.9487 54.0719 55.0127 54.2871L61.3374 75.364C61.4272 75.6634 61.5996 75.9312 61.8349 76.1369C62.0702 76.3425 62.3588 76.4776 62.6674 76.5265C62.976 76.5753 63.2922 76.5361 63.5795 76.4133C63.8668 76.2904 64.1136 76.089 64.2915 75.8321L67.7418 70.8533C67.7764 70.8033 67.8214 70.7616 67.8739 70.731C67.9263 70.7003 67.9848 70.6816 68.0452 70.6761C68.1057 70.6705 68.1666 70.6783 68.2238 70.6989C68.2809 70.7195 68.3328 70.7523 68.3758 70.7952L76.1228 78.5422C76.434 78.8533 76.8561 79.0281 77.2961 79.0281C77.7362 79.0281 78.1583 78.8533 78.4695 78.5422L80.8178 76.1938C81.1289 75.8826 81.3037 75.4606 81.3037 75.0205C81.3037 74.5804 81.1289 74.1584 80.8178 73.8472Z" fill="#FF961B"/>
<defs>
<filter id="filter0_d" x="9.31599" y="14.0002" width="75.3673" height="71.9996" filterUnits="userSpaceOnUse" color-interpolation-filters="sRGB">
<feFlood flood-opacity="0" result="BackgroundImageFix"/>
<feColorMatrix in="SourceAlpha" type="matrix" values="0 0 0 0 0 0 0 0 0 0 0 0 0 0 0 0 0 0 127 0"/>
<feOffset dy="3"/>
<feGaussianBlur stdDeviation="5"/>
<feColorMatrix type="matrix" values="0 0 0 0 1 0 0 0 0 0.80475 0 0 0 0 0.1125 0 0 0 0.27 0"/>
<feBlend mode="normal" in2="BackgroundImageFix" result="effect1_dropShadow"/>
<feBlend mode="normal" in="SourceGraphic" in2="effect1_dropShadow" result="shape"/>
</filter>
<filter id="filter1_d" x="24" y="27" width="46.0004" height="46.0005" filterUnits="userSpaceOnUse" color-interpolation-filters="sRGB">
<feFlood flood-opacity="0" result="BackgroundImageFix"/>
<feColorMatrix in="SourceAlpha" type="matrix" values="0 0 0 0 0 0 0 0 0 0 0 0 0 0 0 0 0 0 127 0"/>
<feOffset dy="3"/>
<feGaussianBlur stdDeviation="2.5"/>
<feColorMatrix type="matrix" values="0 0 0 0 1 0 0 0 0 0.587917 0 0 0 0 0.104167 0 0 0 0.37 0"/>
<feBlend mode="normal" in2="BackgroundImageFix" result="effect1_dropShadow"/>
<feBlend mode="normal" in="SourceGraphic" in2="effect1_dropShadow" result="shape"/>
</filter>
<filter id="filter2_d" x="49.9891" y="50.7134" width="36.2865" height="36.2866" filterUnits="userSpaceOnUse" color-interpolation-filters="sRGB">
<feFlood flood-opacity="0" result="BackgroundImageFix"/>
<feColorMatrix in="SourceAlpha" type="matrix" values="0 0 0 0 0 0 0 0 0 0 0 0 0 0 0 0 0 0 127 0"/>
<feOffset dy="3"/>
<feGaussianBlur stdDeviation="3"/>
<feColorMatrix type="matrix" values="0 0 0 0 1 0 0 0 0 0.587917 0 0 0 0 0.104167 0 0 0 0.33 0"/>
<feBlend mode="normal" in2="BackgroundImageFix" result="effect1_dropShadow"/>
<feBlend mode="normal" in="SourceGraphic" in2="effect1_dropShadow" result="shape"/>
</filter>
</defs>
</svg>
