<svg width="160" height="160" viewBox="0 0 160 160" fill="none" xmlns="http://www.w3.org/2000/svg">
<path opacity="0.06" d="M112 0H48C21.4903 0 0 21.4903 0 48V112C0 138.51 21.4903 160 48 160H112C138.51 160 160 138.51 160 112V48C160 21.4903 138.51 0 112 0Z" fill="#F4263E"/>
<g filter="url(#filter0_d)">
<path d="M108.705 33.668H44.8525C40.4342 33.668 36.8525 37.2497 36.8525 41.668V121.415C36.8525 125.833 40.4342 129.415 44.8525 129.415H108.705C113.123 129.415 116.705 125.833 116.705 121.415V41.668C116.705 37.2497 113.123 33.668 108.705 33.668Z" fill="white" fill-opacity="0.01"/>
</g>
<path d="M108.705 33.668H44.8525C40.4342 33.668 36.8525 37.2497 36.8525 41.668V121.415C36.8525 125.833 40.4342 129.415 44.8525 129.415H108.705C113.123 129.415 116.705 125.833 116.705 121.415V41.668C116.705 37.2497 113.123 33.668 108.705 33.668Z" fill="white"/>
<g filter="url(#filter1_d)">
<path d="M64.0782 58.7948C64.0782 56.2384 62.0058 54.166 59.4494 54.166C56.893 54.166 54.8206 56.2384 54.8206 58.7948V110.733C54.8206 113.289 56.893 115.361 59.4494 115.361C62.0058 115.361 64.0782 113.289 64.0782 110.733V58.7948Z" fill="#FF961B" fill-opacity="0.01"/>
</g>
<path d="M64.0782 58.7948C64.0782 56.2384 62.0058 54.166 59.4494 54.166C56.893 54.166 54.8206 56.2384 54.8206 58.7948V110.733C54.8206 113.289 56.893 115.361 59.4494 115.361C62.0058 115.361 64.0782 113.289 64.0782 110.733V58.7948Z" fill="#FF961B"/>
<g filter="url(#filter2_d)">
<path d="M81.4077 84.5604C81.4077 82.004 79.3353 79.9316 76.7789 79.9316C74.2225 79.9316 72.1501 82.004 72.1501 84.5604V110.732C72.1501 113.288 74.2225 115.361 76.7789 115.361C79.3353 115.361 81.4077 113.288 81.4077 110.732V84.5604Z" fill="#FFCD1D" fill-opacity="0.01"/>
</g>
<path d="M81.4077 84.5604C81.4077 82.004 79.3353 79.9316 76.7789 79.9316C74.2225 79.9316 72.1501 82.004 72.1501 84.5604V110.732C72.1501 113.288 74.2225 115.361 76.7789 115.361C79.3353 115.361 81.4077 113.288 81.4077 110.732V84.5604Z" fill="#FFCD1D"/>
<g filter="url(#filter3_d)">
<path d="M98.7381 66.8476C98.7381 64.2911 96.6657 62.2188 94.1093 62.2188C91.5529 62.2188 89.4805 64.2911 89.4805 66.8476V110.733C89.4805 113.29 91.5529 115.362 94.1093 115.362C96.6657 115.362 98.7381 113.29 98.7381 110.733V66.8476Z" fill="#FF961B" fill-opacity="0.01"/>
</g>
<path d="M98.7381 66.8476C98.7381 64.2911 96.6657 62.2188 94.1093 62.2188C91.5529 62.2188 89.4805 64.2911 89.4805 66.8476V110.733C89.4805 113.29 91.5529 115.362 94.1093 115.362C96.6657 115.362 98.7381 113.29 98.7381 110.733V66.8476Z" fill="#FF961B"/>
<g filter="url(#filter4_d)">
<path d="M129.911 97.6465H103.5C99.634 97.6465 96.5 100.78 96.5 104.646V131.002C96.5 134.868 99.634 138.002 103.5 138.002H129.911C133.777 138.002 136.911 134.868 136.911 131.002V104.646C136.911 100.78 133.777 97.6465 129.911 97.6465Z" fill="white" fill-opacity="0.01"/>
</g>
<path d="M129.911 97.6465H103.5C99.634 97.6465 96.5 100.78 96.5 104.646V131.002C96.5 134.868 99.634 138.002 103.5 138.002H129.911C133.777 138.002 136.911 134.868 136.911 131.002V104.646C136.911 100.78 133.777 97.6465 129.911 97.6465Z" fill="white"/>
<g filter="url(#filter5_d)">
<path d="M124.485 114.973C124.305 114.574 124.023 114.228 123.669 113.971C123.314 113.713 122.899 113.552 122.463 113.504C122.034 113.5 121.612 113.613 121.241 113.83C120.871 114.046 120.566 114.359 120.359 114.736L120.347 114.755L116.418 121.478C116.371 121.558 116.307 121.625 116.23 121.676C116.153 121.727 116.066 121.759 115.974 121.771C115.883 121.781 115.791 121.771 115.704 121.741C115.617 121.71 115.539 121.661 115.474 121.596L111.419 117.486C111.4 117.466 111.38 117.448 111.357 117.431C111.105 117.235 110.812 117.097 110.5 117.027C110.188 116.956 109.865 116.955 109.552 117.024C109.24 117.092 108.946 117.229 108.693 117.423C108.439 117.618 108.231 117.866 108.084 118.15L108.07 118.174L102.221 128.166C102.168 128.257 102.14 128.36 102.139 128.466C102.139 128.571 102.166 128.675 102.219 128.766C102.271 128.857 102.347 128.933 102.438 128.986C102.529 129.039 102.633 129.067 102.738 129.067H130.67C130.772 129.067 130.873 129.041 130.962 128.991C131.052 128.941 131.127 128.869 131.18 128.781C131.234 128.694 131.264 128.594 131.267 128.492C131.271 128.39 131.249 128.288 131.202 128.197L124.485 114.973Z" fill="#F4263E" fill-opacity="0.01"/>
</g>
<path d="M124.485 114.973C124.305 114.574 124.023 114.228 123.669 113.971C123.314 113.713 122.899 113.552 122.463 113.504C122.034 113.5 121.612 113.613 121.241 113.83C120.871 114.046 120.566 114.359 120.359 114.736L120.347 114.755L116.418 121.478C116.371 121.558 116.307 121.625 116.23 121.676C116.153 121.727 116.066 121.759 115.974 121.771C115.883 121.781 115.791 121.771 115.704 121.741C115.617 121.71 115.539 121.661 115.474 121.596L111.419 117.486C111.4 117.466 111.38 117.448 111.357 117.431C111.105 117.235 110.812 117.097 110.5 117.027C110.188 116.956 109.865 116.955 109.552 117.024C109.24 117.092 108.946 117.229 108.693 117.423C108.439 117.618 108.231 117.866 108.084 118.15L108.07 118.174L102.221 128.166C102.168 128.257 102.14 128.36 102.139 128.466C102.139 128.571 102.166 128.675 102.219 128.766C102.271 128.857 102.347 128.933 102.438 128.986C102.529 129.039 102.633 129.067 102.738 129.067H130.67C130.772 129.067 130.873 129.041 130.962 128.991C131.052 128.941 131.127 128.869 131.18 128.781C131.234 128.694 131.264 128.594 131.267 128.492C131.271 128.39 131.249 128.288 131.202 128.197L124.485 114.973Z" fill="#F4263E"/>
<g filter="url(#filter6_d)">
<path d="M106.512 113.772C108.497 113.772 110.106 112.163 110.106 110.178C110.106 108.193 108.497 106.584 106.512 106.584C104.527 106.584 102.917 108.193 102.917 110.178C102.917 112.163 104.527 113.772 106.512 113.772Z" fill="#FFCD1D" fill-opacity="0.01"/>
</g>
<path d="M106.512 113.772C108.497 113.772 110.106 112.163 110.106 110.178C110.106 108.193 108.497 106.584 106.512 106.584C104.527 106.584 102.917 108.193 102.917 110.178C102.917 112.163 104.527 113.772 106.512 113.772Z" fill="#FFCD1D"/>
<g filter="url(#filter7_d)">
<path d="M44 62C55.0457 62 64 53.0457 64 42C64 30.9543 55.0457 22 44 22C32.9543 22 24 30.9543 24 42C24 53.0457 32.9543 62 44 62Z" fill="#F4263E" fill-opacity="0.01"/>
<path d="M40.3473 33.7728C39.014 32.9885 37.3333 33.9498 37.3333 35.4967V48.503C37.3333 50.0498 39.014 51.0111 40.3473 50.2269L51.4027 43.7239C52.7173 42.9506 52.7173 41.0495 51.4027 40.2762L40.3473 33.7728Z" fill="white" fill-opacity="0.01"/>
</g>
<path d="M44 62C55.0457 62 64 53.0457 64 42C64 30.9543 55.0457 22 44 22C32.9543 22 24 30.9543 24 42C24 53.0457 32.9543 62 44 62Z" fill="#F4263E"/>
<path d="M40.3473 33.7728C39.014 32.9885 37.3333 33.9498 37.3333 35.4967V48.503C37.3333 50.0498 39.014 51.0111 40.3473 50.2269L51.4027 43.7239C52.7173 42.9506 52.7173 41.0495 51.4027 40.2762L40.3473 33.7728Z" fill="white"/>
<defs>
<filter id="filter0_d" x="22.8525" y="27.668" width="107.853" height="123.747" filterUnits="userSpaceOnUse" color-interpolation-filters="sRGB">
<feFlood flood-opacity="0" result="BackgroundImageFix"/>
<feColorMatrix in="SourceAlpha" type="matrix" values="0 0 0 0 0 0 0 0 0 0 0 0 0 0 0 0 0 0 127 0"/>
<feOffset dy="8"/>
<feGaussianBlur stdDeviation="7"/>
<feColorMatrix type="matrix" values="0 0 0 0 0.956863 0 0 0 0 0.14902 0 0 0 0 0.243137 0 0 0 0.1 0"/>
<feBlend mode="normal" in2="BackgroundImageFix" result="effect1_dropShadow"/>
<feBlend mode="normal" in="SourceGraphic" in2="effect1_dropShadow" result="shape"/>
</filter>
<filter id="filter1_d" x="50.8206" y="54.166" width="17.2576" height="69.1954" filterUnits="userSpaceOnUse" color-interpolation-filters="sRGB">
<feFlood flood-opacity="0" result="BackgroundImageFix"/>
<feColorMatrix in="SourceAlpha" type="matrix" values="0 0 0 0 0 0 0 0 0 0 0 0 0 0 0 0 0 0 127 0"/>
<feOffset dy="4"/>
<feGaussianBlur stdDeviation="2"/>
<feColorMatrix type="matrix" values="0 0 0 0 1 0 0 0 0 0.587917 0 0 0 0 0.104167 0 0 0 0.15 0"/>
<feBlend mode="normal" in2="BackgroundImageFix" result="effect1_dropShadow"/>
<feBlend mode="normal" in="SourceGraphic" in2="effect1_dropShadow" result="shape"/>
</filter>
<filter id="filter2_d" x="68.1501" y="78.9316" width="17.2576" height="43.4289" filterUnits="userSpaceOnUse" color-interpolation-filters="sRGB">
<feFlood flood-opacity="0" result="BackgroundImageFix"/>
<feColorMatrix in="SourceAlpha" type="matrix" values="0 0 0 0 0 0 0 0 0 0 0 0 0 0 0 0 0 0 127 0"/>
<feOffset dy="3"/>
<feGaussianBlur stdDeviation="2"/>
<feColorMatrix type="matrix" values="0 0 0 0 1 0 0 0 0 0.80475 0 0 0 0 0.1125 0 0 0 0.4 0"/>
<feBlend mode="normal" in2="BackgroundImageFix" result="effect1_dropShadow"/>
<feBlend mode="normal" in="SourceGraphic" in2="effect1_dropShadow" result="shape"/>
</filter>
<filter id="filter3_d" x="85.4805" y="62.2188" width="17.2576" height="61.1434" filterUnits="userSpaceOnUse" color-interpolation-filters="sRGB">
<feFlood flood-opacity="0" result="BackgroundImageFix"/>
<feColorMatrix in="SourceAlpha" type="matrix" values="0 0 0 0 0 0 0 0 0 0 0 0 0 0 0 0 0 0 127 0"/>
<feOffset dy="4"/>
<feGaussianBlur stdDeviation="2"/>
<feColorMatrix type="matrix" values="0 0 0 0 1 0 0 0 0 0.587917 0 0 0 0 0.104167 0 0 0 0.2 0"/>
<feBlend mode="normal" in2="BackgroundImageFix" result="effect1_dropShadow"/>
<feBlend mode="normal" in="SourceGraphic" in2="effect1_dropShadow" result="shape"/>
</filter>
<filter id="filter4_d" x="90.5" y="93.6465" width="52.4108" height="52.3559" filterUnits="userSpaceOnUse" color-interpolation-filters="sRGB">
<feFlood flood-opacity="0" result="BackgroundImageFix"/>
<feColorMatrix in="SourceAlpha" type="matrix" values="0 0 0 0 0 0 0 0 0 0 0 0 0 0 0 0 0 0 127 0"/>
<feOffset dy="2"/>
<feGaussianBlur stdDeviation="3"/>
<feColorMatrix type="matrix" values="0 0 0 0 0.956863 0 0 0 0 0.14902 0 0 0 0 0.243137 0 0 0 0.15 0"/>
<feBlend mode="normal" in2="BackgroundImageFix" result="effect1_dropShadow"/>
<feBlend mode="normal" in="SourceGraphic" in2="effect1_dropShadow" result="shape"/>
</filter>
<filter id="filter5_d" x="98.139" y="111.504" width="37.1285" height="23.5631" filterUnits="userSpaceOnUse" color-interpolation-filters="sRGB">
<feFlood flood-opacity="0" result="BackgroundImageFix"/>
<feColorMatrix in="SourceAlpha" type="matrix" values="0 0 0 0 0 0 0 0 0 0 0 0 0 0 0 0 0 0 127 0"/>
<feOffset dy="2"/>
<feGaussianBlur stdDeviation="2"/>
<feColorMatrix type="matrix" values="0 0 0 0 0.956863 0 0 0 0 0.14902 0 0 0 0 0.243137 0 0 0 0.29 0"/>
<feBlend mode="normal" in2="BackgroundImageFix" result="effect1_dropShadow"/>
<feBlend mode="normal" in="SourceGraphic" in2="effect1_dropShadow" result="shape"/>
</filter>
<filter id="filter6_d" x="99.917" y="104.584" width="13.189" height="13.188" filterUnits="userSpaceOnUse" color-interpolation-filters="sRGB">
<feFlood flood-opacity="0" result="BackgroundImageFix"/>
<feColorMatrix in="SourceAlpha" type="matrix" values="0 0 0 0 0 0 0 0 0 0 0 0 0 0 0 0 0 0 127 0"/>
<feOffset dy="1"/>
<feGaussianBlur stdDeviation="1.5"/>
<feColorMatrix type="matrix" values="0 0 0 0 1 0 0 0 0 0.80475 0 0 0 0 0.1125 0 0 0 0.28 0"/>
<feBlend mode="normal" in2="BackgroundImageFix" result="effect1_dropShadow"/>
<feBlend mode="normal" in="SourceGraphic" in2="effect1_dropShadow" result="shape"/>
</filter>
<filter id="filter7_d" x="10" y="13" width="68" height="68" filterUnits="userSpaceOnUse" color-interpolation-filters="sRGB">
<feFlood flood-opacity="0" result="BackgroundImageFix"/>
<feColorMatrix in="SourceAlpha" type="matrix" values="0 0 0 0 0 0 0 0 0 0 0 0 0 0 0 0 0 0 127 0"/>
<feOffset dy="5"/>
<feGaussianBlur stdDeviation="7"/>
<feColorMatrix type="matrix" values="0 0 0 0 0.956863 0 0 0 0 0.14902 0 0 0 0 0.243137 0 0 0 0.2 0"/>
<feBlend mode="normal" in2="BackgroundImageFix" result="effect1_dropShadow"/>
<feBlend mode="normal" in="SourceGraphic" in2="effect1_dropShadow" result="shape"/>
</filter>
</defs>
</svg>
