<svg width="88" height="88" viewBox="0 0 88 88" fill="none" xmlns="http://www.w3.org/2000/svg">
<path opacity="0.06" d="M64 0H24C10.7452 0 0 10.7452 0 24V64C0 77.2548 10.7452 88 24 88H64C77.2548 88 88 77.2548 88 64V24C88 10.7452 77.2548 0 64 0Z" fill="#FFCD1D"/>
<g filter="url(#filter0_d)">
<path d="M35.0353 12.0684H18.9976C15.1316 12.0684 11.9976 15.2024 11.9976 19.0684V35.0653C11.9976 38.9313 15.1316 42.0653 18.9976 42.0653H35.0353C38.9013 42.0653 42.0353 38.9313 42.0353 35.0653V19.0684C42.0353 15.2024 38.9013 12.0684 35.0353 12.0684Z" fill="white" fill-opacity="0.01"/>
</g>
<path d="M35.0353 12.0684H18.9976C15.1316 12.0684 11.9976 15.2024 11.9976 19.0684V35.0653C11.9976 38.9313 15.1316 42.0653 18.9976 42.0653H35.0353C38.9013 42.0653 42.0353 38.9313 42.0353 35.0653V19.0684C42.0353 15.2024 38.9013 12.0684 35.0353 12.0684Z" fill="white"/>
<g filter="url(#filter1_d)">
<path d="M27.016 31.8016C29.4384 31.8016 31.4022 29.8379 31.4022 27.4154C31.4022 24.993 29.4384 23.0293 27.016 23.0293C24.5936 23.0293 22.6299 24.993 22.6299 27.4154C22.6299 29.8379 24.5936 31.8016 27.016 31.8016Z" fill="white" fill-opacity="0.01"/>
<path d="M27.0162 36.1653C28.8157 36.1653 30.5748 35.6317 32.071 34.6319C33.5672 33.6322 34.7333 32.2113 35.4219 30.5488C36.1105 28.8863 36.2907 27.0569 35.9397 25.292C35.5886 23.5271 34.7221 21.906 33.4497 20.6336C32.1773 19.3612 30.5561 18.4946 28.7912 18.1436C27.0263 17.7925 25.197 17.9727 23.5345 18.6613C21.872 19.3499 20.451 20.5161 19.4513 22.0123C18.4516 23.5085 17.918 25.2675 17.918 27.067C17.9206 29.4792 18.88 31.7919 20.5857 33.4976C22.2914 35.2033 24.604 36.1627 27.0162 36.1653ZM30.6646 27.4461C30.6578 27.5819 30.6123 27.7128 30.5334 27.8235C30.4546 27.9343 30.3457 28.0201 30.2196 28.0709L25.606 30.3773C25.4815 30.4418 25.3436 30.4764 25.2034 30.4781C25.0728 30.4791 24.9446 30.4433 24.8334 30.375C24.7205 30.2999 24.6291 30.1967 24.5681 30.0756C24.5071 29.9546 24.4786 29.8197 24.4854 29.6843V25.2064C24.4738 25.0704 24.5001 24.9339 24.5615 24.8119C24.6228 24.69 24.7167 24.5874 24.8328 24.5157C24.9489 24.4439 25.0826 24.4057 25.2191 24.4053C25.3556 24.4049 25.4895 24.4423 25.606 24.5134L30.2196 26.8206C30.3458 26.8714 30.4548 26.9574 30.5336 27.0682C30.6125 27.1791 30.658 27.3102 30.6646 27.4461Z" fill="#FFCD1D" fill-opacity="0.01"/>
</g>
<path d="M27.016 31.8016C29.4384 31.8016 31.4022 29.8379 31.4022 27.4154C31.4022 24.993 29.4384 23.0293 27.016 23.0293C24.5936 23.0293 22.6299 24.993 22.6299 27.4154C22.6299 29.8379 24.5936 31.8016 27.016 31.8016Z" fill="white"/>
<path d="M27.0162 36.1653C28.8157 36.1653 30.5748 35.6317 32.071 34.6319C33.5672 33.6322 34.7333 32.2113 35.4219 30.5488C36.1105 28.8863 36.2907 27.0569 35.9397 25.292C35.5886 23.5271 34.7221 21.906 33.4497 20.6336C32.1773 19.3612 30.5561 18.4946 28.7912 18.1436C27.0263 17.7925 25.197 17.9727 23.5345 18.6613C21.872 19.3499 20.451 20.5161 19.4513 22.0123C18.4516 23.5085 17.918 25.2675 17.918 27.067C17.9206 29.4792 18.88 31.7919 20.5857 33.4976C22.2914 35.2033 24.604 36.1627 27.0162 36.1653ZM30.6646 27.4461C30.6578 27.5819 30.6123 27.7128 30.5334 27.8235C30.4546 27.9343 30.3457 28.0201 30.2196 28.0709L25.606 30.3773C25.4815 30.4418 25.3436 30.4764 25.2034 30.4781C25.0728 30.4791 24.9446 30.4433 24.8334 30.375C24.7205 30.2999 24.6291 30.1967 24.5681 30.0756C24.5071 29.9546 24.4786 29.8197 24.4854 29.6843V25.2064C24.4738 25.0704 24.5001 24.9339 24.5615 24.8119C24.6228 24.69 24.7167 24.5874 24.8328 24.5157C24.9489 24.4439 25.0826 24.4057 25.2191 24.4053C25.3556 24.4049 25.4895 24.4423 25.606 24.5134L30.2196 26.8206C30.3458 26.8714 30.4548 26.9574 30.5336 27.0682C30.6125 27.1791 30.658 27.3102 30.6646 27.4461Z" fill="#FFCD1D"/>
<g filter="url(#filter2_d)">
<path d="M35.0353 46.0645H18.9976C15.1316 46.0645 11.9976 49.1985 11.9976 53.0645V69.0614C11.9976 72.9273 15.1316 76.0614 18.9976 76.0614H35.0353C38.9013 76.0614 42.0353 72.9273 42.0353 69.0614V53.0645C42.0353 49.1985 38.9013 46.0645 35.0353 46.0645Z" fill="white" fill-opacity="0.01"/>
</g>
<path d="M35.0353 46.0645H18.9976C15.1316 46.0645 11.9976 49.1985 11.9976 53.0645V69.0614C11.9976 72.9273 15.1316 76.0614 18.9976 76.0614H35.0353C38.9013 76.0614 42.0353 72.9273 42.0353 69.0614V53.0645C42.0353 49.1985 38.9013 46.0645 35.0353 46.0645Z" fill="white"/>
<g filter="url(#filter3_d)">
<path d="M33.5561 55.1504H20.9854V66.4206H33.5561V55.1504Z" fill="white" fill-opacity="0.01"/>
<path d="M34.9803 51.5078H21.8403C21.4179 51.5078 21.0128 51.6756 20.7141 51.9743C20.4154 52.273 20.2476 52.6781 20.2476 53.1005V66.2405C20.2476 66.6629 20.4154 67.068 20.7141 67.3667C21.0128 67.6654 21.4179 67.8332 21.8403 67.8332H34.9803C35.4027 67.8332 35.8078 67.6654 36.1065 67.3667C36.4052 67.068 36.573 66.6629 36.573 66.2405V53.1005C36.573 52.6781 36.4052 52.273 36.1065 51.9743C35.8078 51.6756 35.4027 51.5078 34.9803 51.5078ZM29.0075 63.4532C29.0075 63.5588 28.9656 63.6601 28.8909 63.7348C28.8162 63.8095 28.715 63.8514 28.6094 63.8514H24.6275C24.5219 63.8514 24.4207 63.8095 24.346 63.7348C24.2713 63.6601 24.2294 63.5588 24.2294 63.4532V62.6569C24.2294 62.5513 24.2713 62.45 24.346 62.3753C24.4207 62.3006 24.5219 62.2587 24.6275 62.2587H28.6094C28.715 62.2587 28.8162 62.3006 28.8909 62.3753C28.9656 62.45 29.0075 62.5513 29.0075 62.6569V63.4532ZM32.9893 59.8696C32.9893 59.9752 32.9474 60.0765 32.8727 60.1512C32.7981 60.2258 32.6968 60.2678 32.5912 60.2678H24.6275C24.5219 60.2678 24.4207 60.2258 24.346 60.1512C24.2713 60.0765 24.2294 59.9752 24.2294 59.8696V59.0733C24.2294 58.9676 24.2713 58.8664 24.346 58.7917C24.4207 58.717 24.5219 58.6751 24.6275 58.6751H32.5912C32.6968 58.6751 32.7981 58.717 32.8727 58.7917C32.9474 58.8664 32.9893 58.9676 32.9893 59.0733V59.8696ZM32.9893 56.286C32.9893 56.3916 32.9474 56.4929 32.8727 56.5675C32.7981 56.6422 32.6968 56.6842 32.5912 56.6842H24.6275C24.5219 56.6842 24.4207 56.6422 24.346 56.5675C24.2713 56.4929 24.2294 56.3916 24.2294 56.286V55.4896C24.2294 55.384 24.2713 55.2827 24.346 55.2081C24.4207 55.1334 24.5219 55.0914 24.6275 55.0914H32.5912C32.6968 55.0914 32.7981 55.1334 32.8727 55.2081C32.9474 55.2827 32.9893 55.384 32.9893 55.4896V56.286Z" fill="#FFCD1D"/>
</g>
<path d="M33.5561 55.1504H20.9854V66.4206H33.5561V55.1504Z" fill="white"/>
<path d="M34.9803 51.5078H21.8403C21.4179 51.5078 21.0128 51.6756 20.7141 51.9743C20.4154 52.273 20.2476 52.6781 20.2476 53.1005V66.2405C20.2476 66.6629 20.4154 67.068 20.7141 67.3667C21.0128 67.6654 21.4179 67.8332 21.8403 67.8332H34.9803C35.4027 67.8332 35.8078 67.6654 36.1065 67.3667C36.4052 67.068 36.573 66.6629 36.573 66.2405V53.1005C36.573 52.6781 36.4052 52.273 36.1065 51.9743C35.8078 51.6756 35.4027 51.5078 34.9803 51.5078ZM29.0075 63.4532C29.0075 63.5588 28.9656 63.6601 28.8909 63.7348C28.8162 63.8095 28.715 63.8514 28.6094 63.8514H24.6275C24.5219 63.8514 24.4207 63.8095 24.346 63.7348C24.2713 63.6601 24.2294 63.5588 24.2294 63.4532V62.6569C24.2294 62.5513 24.2713 62.45 24.346 62.3753C24.4207 62.3006 24.5219 62.2587 24.6275 62.2587H28.6094C28.715 62.2587 28.8162 62.3006 28.8909 62.3753C28.9656 62.45 29.0075 62.5513 29.0075 62.6569V63.4532ZM32.9893 59.8696C32.9893 59.9752 32.9474 60.0765 32.8727 60.1512C32.7981 60.2258 32.6968 60.2678 32.5912 60.2678H24.6275C24.5219 60.2678 24.4207 60.2258 24.346 60.1512C24.2713 60.0765 24.2294 59.9752 24.2294 59.8696V59.0733C24.2294 58.9676 24.2713 58.8664 24.346 58.7917C24.4207 58.717 24.5219 58.6751 24.6275 58.6751H32.5912C32.6968 58.6751 32.7981 58.717 32.8727 58.7917C32.9474 58.8664 32.9893 58.9676 32.9893 59.0733V59.8696ZM32.9893 56.286C32.9893 56.3916 32.9474 56.4929 32.8727 56.5675C32.7981 56.6422 32.6968 56.6842 32.5912 56.6842H24.6275C24.5219 56.6842 24.4207 56.6422 24.346 56.5675C24.2713 56.4929 24.2294 56.3916 24.2294 56.286V55.4896C24.2294 55.384 24.2713 55.2827 24.346 55.2081C24.4207 55.1334 24.5219 55.0914 24.6275 55.0914H32.5912C32.6968 55.0914 32.7981 55.1334 32.8727 55.2081C32.9474 55.2827 32.9893 55.384 32.9893 55.4896V56.286Z" fill="#FFCD1D"/>
<g filter="url(#filter4_d)">
<path d="M32.9895 69.0276H19.4515C19.3458 69.0276 19.2445 68.9857 19.1698 68.911C19.0951 68.8363 19.0532 68.735 19.0532 68.6294V55.0913C19.0532 54.8801 18.9694 54.6775 18.82 54.5282C18.6707 54.3788 18.468 54.2949 18.2568 54.2949C18.0456 54.2949 17.8431 54.3788 17.6938 54.5282C17.5445 54.6775 17.4604 54.8801 17.4604 55.0913V69.0276C17.4604 69.45 17.6284 69.8551 17.927 70.1538C18.2257 70.4525 18.6308 70.6203 19.0532 70.6203H32.9895C33.2007 70.6203 33.4034 70.5364 33.5527 70.3871C33.7021 70.2377 33.7859 70.0352 33.7859 69.824C33.7859 69.6128 33.7021 69.4102 33.5527 69.2609C33.4034 69.1115 33.2007 69.0276 32.9895 69.0276Z" fill="#FF961B" fill-opacity="0.01"/>
</g>
<path d="M32.9895 69.0276H19.4515C19.3458 69.0276 19.2445 68.9857 19.1698 68.911C19.0951 68.8363 19.0532 68.735 19.0532 68.6294V55.0913C19.0532 54.8801 18.9694 54.6775 18.82 54.5282C18.6707 54.3788 18.468 54.2949 18.2568 54.2949C18.0456 54.2949 17.8431 54.3788 17.6938 54.5282C17.5445 54.6775 17.4604 54.8801 17.4604 55.0913V69.0276C17.4604 69.45 17.6284 69.8551 17.927 70.1538C18.2257 70.4525 18.6308 70.6203 19.0532 70.6203H32.9895C33.2007 70.6203 33.4034 70.5364 33.5527 70.3871C33.7021 70.2377 33.7859 70.0352 33.7859 69.824C33.7859 69.6128 33.7021 69.4102 33.5527 69.2609C33.4034 69.1115 33.2007 69.0276 32.9895 69.0276Z" fill="#FF961B"/>
<g filter="url(#filter5_d)">
<path d="M69.0729 12.0684H53.0352C49.1692 12.0684 46.0352 15.2024 46.0352 19.0684V35.0653C46.0352 38.9313 49.1692 42.0653 53.0352 42.0653H69.0729C72.9389 42.0653 76.0729 38.9313 76.0729 35.0653V19.0684C76.0729 15.2024 72.9389 12.0684 69.0729 12.0684Z" fill="white" fill-opacity="0.01"/>
</g>
<path d="M69.0729 12.0684H53.0352C49.1692 12.0684 46.0352 15.2024 46.0352 19.0684V35.0653C46.0352 38.9313 49.1692 42.0653 53.0352 42.0653H69.0729C72.9389 42.0653 76.0729 38.9313 76.0729 35.0653V19.0684C76.0729 15.2024 72.9389 12.0684 69.0729 12.0684Z" fill="white"/>
<g filter="url(#filter6_d)">
<path d="M66.7018 24.9958C66.5707 24.706 66.3664 24.4554 66.1091 24.2685C65.8517 24.0816 65.5502 23.9648 65.2341 23.9298C64.9226 23.927 64.6162 24.0087 64.3473 24.166C64.0785 24.3234 63.8573 24.5507 63.7072 24.8236L63.6985 24.8375L60.8465 29.7173C60.8128 29.775 60.7662 29.8242 60.7104 29.861C60.6546 29.8978 60.5911 29.9212 60.5248 29.9295C60.4585 29.9371 60.3914 29.9296 60.3285 29.9077C60.2655 29.8857 60.2084 29.8497 60.1613 29.8025L57.2188 26.82C57.205 26.8054 57.1899 26.792 57.1736 26.78C56.9903 26.6377 56.7779 26.5374 56.5515 26.4863C56.3252 26.4352 56.0903 26.4346 55.8636 26.4843C55.6369 26.5341 55.424 26.6332 55.2398 26.7744C55.0557 26.9157 54.9049 27.0957 54.7981 27.3018L54.7877 27.3191L50.5427 34.571C50.5041 34.637 50.4837 34.7121 50.4834 34.7886C50.4831 34.8651 50.5031 34.9403 50.5412 35.0066C50.5793 35.073 50.6342 35.1281 50.7004 35.1664C50.7666 35.2047 50.8418 35.2249 50.9183 35.2248H71.1903C71.2646 35.225 71.3378 35.2061 71.4027 35.1698C71.4676 35.1335 71.522 35.0812 71.5608 35.0177C71.5996 34.9543 71.6214 34.882 71.6241 34.8077C71.6269 34.7334 71.6104 34.6597 71.5764 34.5936L66.7018 24.9958Z" fill="#FFCD1D" fill-opacity="0.01"/>
</g>
<path d="M66.7018 24.9958C66.5707 24.706 66.3664 24.4554 66.1091 24.2685C65.8517 24.0816 65.5502 23.9648 65.2341 23.9298C64.9226 23.927 64.6162 24.0087 64.3473 24.166C64.0785 24.3234 63.8573 24.5507 63.7072 24.8236L63.6985 24.8375L60.8465 29.7173C60.8128 29.775 60.7662 29.8242 60.7104 29.861C60.6546 29.8978 60.5911 29.9212 60.5248 29.9295C60.4585 29.9371 60.3914 29.9296 60.3285 29.9077C60.2655 29.8857 60.2084 29.8497 60.1613 29.8025L57.2188 26.82C57.205 26.8054 57.1899 26.792 57.1736 26.78C56.9903 26.6377 56.7779 26.5374 56.5515 26.4863C56.3252 26.4352 56.0903 26.4346 55.8636 26.4843C55.6369 26.5341 55.424 26.6332 55.2398 26.7744C55.0557 26.9157 54.9049 27.0957 54.7981 27.3018L54.7877 27.3191L50.5427 34.571C50.5041 34.637 50.4837 34.7121 50.4834 34.7886C50.4831 34.8651 50.5031 34.9403 50.5412 35.0066C50.5793 35.073 50.6342 35.1281 50.7004 35.1664C50.7666 35.2047 50.8418 35.2249 50.9183 35.2248H71.1903C71.2646 35.225 71.3378 35.2061 71.4027 35.1698C71.4676 35.1335 71.522 35.0812 71.5608 35.0177C71.5996 34.9543 71.6214 34.882 71.6241 34.8077C71.6269 34.7334 71.6104 34.6597 71.5764 34.5936L66.7018 24.9958Z" fill="#FFCD1D"/>
<g filter="url(#filter7_d)">
<path d="M53.6569 24.1253C55.0976 24.1253 56.2655 22.9574 56.2655 21.5168C56.2655 20.0761 55.0976 18.9082 53.6569 18.9082C52.2162 18.9082 51.0483 20.0761 51.0483 21.5168C51.0483 22.9574 52.2162 24.1253 53.6569 24.1253Z" fill="#FF961B" fill-opacity="0.01"/>
</g>
<path d="M53.6569 24.1253C55.0976 24.1253 56.2655 22.9574 56.2655 21.5168C56.2655 20.0761 55.0976 18.9082 53.6569 18.9082C52.2162 18.9082 51.0483 20.0761 51.0483 21.5168C51.0483 22.9574 52.2162 24.1253 53.6569 24.1253Z" fill="#FF961B"/>
<g filter="url(#filter8_d)">
<path d="M69.0729 46.0645H53.0352C49.1692 46.0645 46.0352 49.1985 46.0352 53.0645V69.0614C46.0352 72.9273 49.1692 76.0614 53.0352 76.0614H69.0729C72.9389 76.0614 76.0729 72.9273 76.0729 69.0614V53.0645C76.0729 49.1985 72.9389 46.0645 69.0729 46.0645Z" fill="white" fill-opacity="0.01"/>
</g>
<path d="M69.0729 46.0645H53.0352C49.1692 46.0645 46.0352 49.1985 46.0352 53.0645V69.0614C46.0352 72.9273 49.1692 76.0614 53.0352 76.0614H69.0729C72.9389 76.0614 76.0729 72.9273 76.0729 69.0614V53.0645C76.0729 49.1985 72.9389 46.0645 69.0729 46.0645Z" fill="white"/>
<g filter="url(#filter9_d)">
<path d="M53.3032 53.6641H65.4106L63.9203 57.3777L59.7149 60.0897L53.3032 62.2936V53.6641Z" fill="white" fill-opacity="0.01"/>
<path d="M59.5382 61.8211C59.5382 61.2182 59.7776 60.64 60.2039 60.2137C60.6303 59.7874 61.2084 59.5479 61.8113 59.5479H67.3048C67.355 59.5479 67.4032 59.528 67.4388 59.4924C67.4743 59.4569 67.4942 59.4087 67.4942 59.3585V53.1073C67.4942 52.8058 67.3745 52.5168 67.1613 52.3036C66.9482 52.0904 66.6591 51.9707 66.3577 51.9707H53.0975C52.7961 51.9707 52.507 52.0904 52.2938 52.3036C52.0807 52.5168 51.9609 52.8058 51.9609 53.1073V64.0943C51.9609 64.3957 52.0807 64.6848 52.2938 64.8979C52.507 65.1111 52.7961 65.2308 53.0975 65.2308H55.3707V67.8829C55.3707 67.9578 55.393 68.0311 55.4346 68.0934C55.4763 68.1557 55.5355 68.2043 55.6048 68.2329C55.6741 68.2615 55.7503 68.269 55.8238 68.2543C55.8973 68.2396 55.9648 68.2034 56.0178 68.1503L58.9373 65.2308H59.3487C59.399 65.2308 59.4471 65.2109 59.4827 65.1754C59.5182 65.1398 59.5382 65.0916 59.5382 65.0414V61.8211ZM57.6439 60.1162H55.3707C55.22 60.1162 55.0754 60.0563 54.9688 59.9498C54.8623 59.8432 54.8024 59.6986 54.8024 59.5479C54.8024 59.3972 54.8623 59.2527 54.9688 59.1461C55.0754 59.0395 55.22 58.9796 55.3707 58.9796H57.6439C57.7946 58.9796 57.9391 59.0395 58.0457 59.1461C58.1523 59.2527 58.2121 59.3972 58.2121 59.5479C58.2121 59.6986 58.1523 59.8432 58.0457 59.9498C57.9391 60.0563 57.7946 60.1162 57.6439 60.1162ZM63.3268 56.3276H55.3707C55.22 56.3276 55.0754 56.2677 54.9688 56.1612C54.8623 56.0546 54.8024 55.91 54.8024 55.7593C54.8024 55.6086 54.8623 55.464 54.9688 55.3575C55.0754 55.2509 55.22 55.191 55.3707 55.191H63.3268C63.4775 55.191 63.622 55.2509 63.7286 55.3575C63.8352 55.464 63.8951 55.6086 63.8951 55.7593C63.8951 55.91 63.8352 56.0546 63.7286 56.1612C63.622 56.2677 63.4775 56.3276 63.3268 56.3276Z" fill="#FFCD1D" fill-opacity="0.01"/>
</g>
<path d="M53.3032 53.6641H65.4106L63.9203 57.3777L59.7149 60.0897L53.3032 62.2936V53.6641Z" fill="white"/>
<path d="M59.5382 61.8211C59.5382 61.2182 59.7776 60.64 60.2039 60.2137C60.6303 59.7874 61.2084 59.5479 61.8113 59.5479H67.3048C67.355 59.5479 67.4032 59.528 67.4388 59.4924C67.4743 59.4569 67.4942 59.4087 67.4942 59.3585V53.1073C67.4942 52.8058 67.3745 52.5168 67.1613 52.3036C66.9482 52.0904 66.6591 51.9707 66.3577 51.9707H53.0975C52.7961 51.9707 52.507 52.0904 52.2938 52.3036C52.0807 52.5168 51.9609 52.8058 51.9609 53.1073V64.0943C51.9609 64.3957 52.0807 64.6848 52.2938 64.8979C52.507 65.1111 52.7961 65.2308 53.0975 65.2308H55.3707V67.8829C55.3707 67.9578 55.393 68.0311 55.4346 68.0934C55.4763 68.1557 55.5355 68.2043 55.6048 68.2329C55.6741 68.2615 55.7503 68.269 55.8238 68.2543C55.8973 68.2396 55.9648 68.2034 56.0178 68.1503L58.9373 65.2308H59.3487C59.399 65.2308 59.4471 65.2109 59.4827 65.1754C59.5182 65.1398 59.5382 65.0916 59.5382 65.0414V61.8211ZM57.6439 60.1162H55.3707C55.22 60.1162 55.0754 60.0563 54.9688 59.9498C54.8623 59.8432 54.8024 59.6986 54.8024 59.5479C54.8024 59.3972 54.8623 59.2527 54.9688 59.1461C55.0754 59.0395 55.22 58.9796 55.3707 58.9796H57.6439C57.7946 58.9796 57.9391 59.0395 58.0457 59.1461C58.1523 59.2527 58.2121 59.3972 58.2121 59.5479C58.2121 59.6986 58.1523 59.8432 58.0457 59.9498C57.9391 60.0563 57.7946 60.1162 57.6439 60.1162ZM63.3268 56.3276H55.3707C55.22 56.3276 55.0754 56.2677 54.9688 56.1612C54.8623 56.0546 54.8024 55.91 54.8024 55.7593C54.8024 55.6086 54.8623 55.464 54.9688 55.3575C55.0754 55.2509 55.22 55.191 55.3707 55.191H63.3268C63.4775 55.191 63.622 55.2509 63.7286 55.3575C63.8352 55.464 63.8951 55.6086 63.8951 55.7593C63.8951 55.91 63.8352 56.0546 63.7286 56.1612C63.622 56.2677 63.4775 56.3276 63.3268 56.3276Z" fill="#FFCD1D"/>
<g filter="url(#filter10_d)">
<path d="M69.0097 60.6836H61.8114C61.5099 60.6836 61.2209 60.8033 61.0077 61.0165C60.7946 61.2296 60.6748 61.5187 60.6748 61.8202V66.7454C60.6748 67.0468 60.7946 67.3359 61.0077 67.5491C61.2209 67.7622 61.5099 67.882 61.8114 67.882H64.3369L67.267 70.0793C67.3233 70.1216 67.3902 70.1473 67.4603 70.1536C67.5304 70.1599 67.6008 70.1466 67.6637 70.1151C67.7267 70.0837 67.7796 70.0353 67.8166 69.9754C67.8536 69.9156 67.8732 69.8466 67.8732 69.7763V67.882H69.0097C69.3112 67.882 69.6003 67.7622 69.8134 67.5491C70.0266 67.3359 70.1463 67.0468 70.1463 66.7454V61.8202C70.1463 61.5187 70.0266 61.2296 69.8134 61.0165C69.6003 60.8033 69.3112 60.6836 69.0097 60.6836Z" fill="#FF961B" fill-opacity="0.01"/>
</g>
<path d="M69.0097 60.6836H61.8114C61.5099 60.6836 61.2209 60.8033 61.0077 61.0165C60.7946 61.2296 60.6748 61.5187 60.6748 61.8202V66.7454C60.6748 67.0468 60.7946 67.3359 61.0077 67.5491C61.2209 67.7622 61.5099 67.882 61.8114 67.882H64.3369L67.267 70.0793C67.3233 70.1216 67.3902 70.1473 67.4603 70.1536C67.5304 70.1599 67.6008 70.1466 67.6637 70.1151C67.7267 70.0837 67.7796 70.0353 67.8166 69.9754C67.8536 69.9156 67.8732 69.8466 67.8732 69.7763V67.882H69.0097C69.3112 67.882 69.6003 67.7622 69.8134 67.5491C70.0266 67.3359 70.1463 67.0468 70.1463 66.7454V61.8202C70.1463 61.5187 70.0266 61.2296 69.8134 61.0165C69.6003 60.8033 69.3112 60.6836 69.0097 60.6836Z" fill="#FF961B"/>
<defs>
<filter id="filter0_d" x="5.99756" y="8.06836" width="42.0377" height="41.9969" filterUnits="userSpaceOnUse" color-interpolation-filters="sRGB">
<feFlood flood-opacity="0" result="BackgroundImageFix"/>
<feColorMatrix in="SourceAlpha" type="matrix" values="0 0 0 0 0 0 0 0 0 0 0 0 0 0 0 0 0 0 127 0"/>
<feOffset dy="2"/>
<feGaussianBlur stdDeviation="3"/>
<feColorMatrix type="matrix" values="0 0 0 0 1 0 0 0 0 0.80475 0 0 0 0 0.1125 0 0 0 0.18 0"/>
<feBlend mode="normal" in2="BackgroundImageFix" result="effect1_dropShadow"/>
<feBlend mode="normal" in="SourceGraphic" in2="effect1_dropShadow" result="shape"/>
</filter>
<filter id="filter1_d" x="13.918" y="15.9688" width="26.1965" height="26.1965" filterUnits="userSpaceOnUse" color-interpolation-filters="sRGB">
<feFlood flood-opacity="0" result="BackgroundImageFix"/>
<feColorMatrix in="SourceAlpha" type="matrix" values="0 0 0 0 0 0 0 0 0 0 0 0 0 0 0 0 0 0 127 0"/>
<feOffset dy="2"/>
<feGaussianBlur stdDeviation="2"/>
<feColorMatrix type="matrix" values="0 0 0 0 1 0 0 0 0 0.80475 0 0 0 0 0.1125 0 0 0 0.37 0"/>
<feBlend mode="normal" in2="BackgroundImageFix" result="effect1_dropShadow"/>
<feBlend mode="normal" in="SourceGraphic" in2="effect1_dropShadow" result="shape"/>
</filter>
<filter id="filter2_d" x="5.99756" y="42.0645" width="42.0377" height="41.9969" filterUnits="userSpaceOnUse" color-interpolation-filters="sRGB">
<feFlood flood-opacity="0" result="BackgroundImageFix"/>
<feColorMatrix in="SourceAlpha" type="matrix" values="0 0 0 0 0 0 0 0 0 0 0 0 0 0 0 0 0 0 127 0"/>
<feOffset dy="2"/>
<feGaussianBlur stdDeviation="3"/>
<feColorMatrix type="matrix" values="0 0 0 0 1 0 0 0 0 0.80475 0 0 0 0 0.1125 0 0 0 0.18 0"/>
<feBlend mode="normal" in2="BackgroundImageFix" result="effect1_dropShadow"/>
<feBlend mode="normal" in="SourceGraphic" in2="effect1_dropShadow" result="shape"/>
</filter>
<filter id="filter3_d" x="16.2476" y="49.5078" width="24.3254" height="24.3254" filterUnits="userSpaceOnUse" color-interpolation-filters="sRGB">
<feFlood flood-opacity="0" result="BackgroundImageFix"/>
<feColorMatrix in="SourceAlpha" type="matrix" values="0 0 0 0 0 0 0 0 0 0 0 0 0 0 0 0 0 0 127 0"/>
<feOffset dy="2"/>
<feGaussianBlur stdDeviation="2"/>
<feColorMatrix type="matrix" values="0 0 0 0 1 0 0 0 0 0.80475 0 0 0 0 0.1125 0 0 0 0.28 0"/>
<feBlend mode="normal" in2="BackgroundImageFix" result="effect1_dropShadow"/>
<feBlend mode="normal" in="SourceGraphic" in2="effect1_dropShadow" result="shape"/>
</filter>
<filter id="filter4_d" x="15.4604" y="53.2949" width="20.3255" height="20.3254" filterUnits="userSpaceOnUse" color-interpolation-filters="sRGB">
<feFlood flood-opacity="0" result="BackgroundImageFix"/>
<feColorMatrix in="SourceAlpha" type="matrix" values="0 0 0 0 0 0 0 0 0 0 0 0 0 0 0 0 0 0 127 0"/>
<feOffset dy="1"/>
<feGaussianBlur stdDeviation="1"/>
<feColorMatrix type="matrix" values="0 0 0 0 1 0 0 0 0 0.587917 0 0 0 0 0.104167 0 0 0 0.25 0"/>
<feBlend mode="normal" in2="BackgroundImageFix" result="effect1_dropShadow"/>
<feBlend mode="normal" in="SourceGraphic" in2="effect1_dropShadow" result="shape"/>
</filter>
<filter id="filter5_d" x="40.0352" y="8.06836" width="42.0377" height="41.9969" filterUnits="userSpaceOnUse" color-interpolation-filters="sRGB">
<feFlood flood-opacity="0" result="BackgroundImageFix"/>
<feColorMatrix in="SourceAlpha" type="matrix" values="0 0 0 0 0 0 0 0 0 0 0 0 0 0 0 0 0 0 127 0"/>
<feOffset dy="2"/>
<feGaussianBlur stdDeviation="3"/>
<feColorMatrix type="matrix" values="0 0 0 0 1 0 0 0 0 0.80475 0 0 0 0 0.1125 0 0 0 0.18 0"/>
<feBlend mode="normal" in2="BackgroundImageFix" result="effect1_dropShadow"/>
<feBlend mode="normal" in="SourceGraphic" in2="effect1_dropShadow" result="shape"/>
</filter>
<filter id="filter6_d" x="46.4834" y="21.9297" width="29.141" height="19.2951" filterUnits="userSpaceOnUse" color-interpolation-filters="sRGB">
<feFlood flood-opacity="0" result="BackgroundImageFix"/>
<feColorMatrix in="SourceAlpha" type="matrix" values="0 0 0 0 0 0 0 0 0 0 0 0 0 0 0 0 0 0 127 0"/>
<feOffset dy="2"/>
<feGaussianBlur stdDeviation="2"/>
<feColorMatrix type="matrix" values="0 0 0 0 1 0 0 0 0 0.80475 0 0 0 0 0.1125 0 0 0 0.23 0"/>
<feBlend mode="normal" in2="BackgroundImageFix" result="effect1_dropShadow"/>
<feBlend mode="normal" in="SourceGraphic" in2="effect1_dropShadow" result="shape"/>
</filter>
<filter id="filter7_d" x="48.0483" y="16.9082" width="11.2172" height="11.2171" filterUnits="userSpaceOnUse" color-interpolation-filters="sRGB">
<feFlood flood-opacity="0" result="BackgroundImageFix"/>
<feColorMatrix in="SourceAlpha" type="matrix" values="0 0 0 0 0 0 0 0 0 0 0 0 0 0 0 0 0 0 127 0"/>
<feOffset dy="1"/>
<feGaussianBlur stdDeviation="1.5"/>
<feColorMatrix type="matrix" values="0 0 0 0 1 0 0 0 0 0.587917 0 0 0 0 0.104167 0 0 0 0.26 0"/>
<feBlend mode="normal" in2="BackgroundImageFix" result="effect1_dropShadow"/>
<feBlend mode="normal" in="SourceGraphic" in2="effect1_dropShadow" result="shape"/>
</filter>
<filter id="filter8_d" x="40.0352" y="42.0645" width="42.0377" height="41.9969" filterUnits="userSpaceOnUse" color-interpolation-filters="sRGB">
<feFlood flood-opacity="0" result="BackgroundImageFix"/>
<feColorMatrix in="SourceAlpha" type="matrix" values="0 0 0 0 0 0 0 0 0 0 0 0 0 0 0 0 0 0 127 0"/>
<feOffset dy="2"/>
<feGaussianBlur stdDeviation="3"/>
<feColorMatrix type="matrix" values="0 0 0 0 1 0 0 0 0 0.80475 0 0 0 0 0.1125 0 0 0 0.18 0"/>
<feBlend mode="normal" in2="BackgroundImageFix" result="effect1_dropShadow"/>
<feBlend mode="normal" in="SourceGraphic" in2="effect1_dropShadow" result="shape"/>
</filter>
<filter id="filter9_d" x="48.9609" y="49.9707" width="21.5333" height="22.2909" filterUnits="userSpaceOnUse" color-interpolation-filters="sRGB">
<feFlood flood-opacity="0" result="BackgroundImageFix"/>
<feColorMatrix in="SourceAlpha" type="matrix" values="0 0 0 0 0 0 0 0 0 0 0 0 0 0 0 0 0 0 127 0"/>
<feOffset dy="1"/>
<feGaussianBlur stdDeviation="1.5"/>
<feColorMatrix type="matrix" values="0 0 0 0 1 0 0 0 0 0.80475 0 0 0 0 0.1125 0 0 0 0.27 0"/>
<feBlend mode="normal" in2="BackgroundImageFix" result="effect1_dropShadow"/>
<feBlend mode="normal" in="SourceGraphic" in2="effect1_dropShadow" result="shape"/>
</filter>
<filter id="filter10_d" x="57.6748" y="58.6836" width="15.4715" height="15.4715" filterUnits="userSpaceOnUse" color-interpolation-filters="sRGB">
<feFlood flood-opacity="0" result="BackgroundImageFix"/>
<feColorMatrix in="SourceAlpha" type="matrix" values="0 0 0 0 0 0 0 0 0 0 0 0 0 0 0 0 0 0 127 0"/>
<feOffset dy="1"/>
<feGaussianBlur stdDeviation="1.5"/>
<feColorMatrix type="matrix" values="0 0 0 0 1 0 0 0 0 0.587917 0 0 0 0 0.104167 0 0 0 0.28 0"/>
<feBlend mode="normal" in2="BackgroundImageFix" result="effect1_dropShadow"/>
<feBlend mode="normal" in="SourceGraphic" in2="effect1_dropShadow" result="shape"/>
</filter>
</defs>
</svg>
