<svg width="80" height="82" viewBox="0 0 80 82" fill="none" xmlns="http://www.w3.org/2000/svg">
<path opacity="0.06" d="M54 0H26C11.6406 0 0 11.6406 0 26V54C0 68.3594 11.6406 80 26 80H54C68.3594 80 80 68.3594 80 54V26C80 11.6406 68.3594 0 54 0Z" fill="#782CE4"/>
<g filter="url(#filter0_d)">
<path d="M40 17C35.451 17 31.0042 18.3489 27.2219 20.8762C23.4396 23.4035 20.4916 26.9956 18.7508 31.1983C17.01 35.401 16.5545 40.0255 17.4419 44.4871C18.3294 48.9486 20.5199 53.0468 23.7366 56.2634C26.9532 59.4801 31.0514 61.6706 35.5129 62.5581C39.9745 63.4455 44.599 62.99 48.8017 61.2492C53.0044 59.5084 56.5965 56.5604 59.1238 52.7781C61.6511 48.9958 63 44.549 63 40C62.9929 33.9022 60.5674 28.0562 56.2556 23.7444C51.9438 19.4326 46.0978 17.0071 40 17ZM53.2768 32.7167L40.1572 50.5206C40.0023 50.7261 39.808 50.8987 39.5857 51.0283C39.3634 51.1579 39.1175 51.2419 38.8623 51.2755C38.6072 51.309 38.3479 51.2914 38.0996 51.2237C37.8514 51.1559 37.6191 51.0394 37.4163 50.8809L28.0477 43.3906C27.8511 43.2333 27.6874 43.0388 27.566 42.8182C27.4446 42.5976 27.3678 42.3553 27.3401 42.1051C27.284 41.5997 27.431 41.0928 27.7487 40.6957C28.0664 40.2987 28.5288 40.0442 29.0342 39.9881C29.2844 39.9604 29.5377 39.9822 29.7795 40.0523C30.0213 40.1224 30.2469 40.2394 30.4435 40.3967L38.2558 46.647L50.1909 30.4492C50.3346 30.2336 50.5205 30.0494 50.7374 29.9077C50.9543 29.7659 51.1977 29.6696 51.4528 29.6246C51.708 29.5796 51.9696 29.5868 52.2219 29.6457C52.4743 29.7047 52.712 29.8142 52.9208 29.9676C53.1296 30.121 53.3051 30.3152 53.4367 30.5383C53.5684 30.7615 53.6534 31.009 53.6867 31.266C53.72 31.523 53.7008 31.784 53.6303 32.0333C53.5599 32.2827 53.4396 32.5151 53.2768 32.7167Z" fill="#782CE4" fill-opacity="0.01"/>
</g>
<path d="M40 17C35.451 17 31.0042 18.3489 27.2219 20.8762C23.4396 23.4035 20.4916 26.9956 18.7508 31.1983C17.01 35.401 16.5545 40.0255 17.4419 44.4871C18.3294 48.9486 20.5199 53.0468 23.7366 56.2634C26.9532 59.4801 31.0514 61.6706 35.5129 62.5581C39.9745 63.4455 44.599 62.99 48.8017 61.2492C53.0044 59.5084 56.5965 56.5604 59.1238 52.7781C61.6511 48.9958 63 44.549 63 40C62.9929 33.9022 60.5674 28.0562 56.2556 23.7444C51.9438 19.4326 46.0978 17.0071 40 17ZM53.2768 32.7167L40.1572 50.5206C40.0023 50.7261 39.808 50.8987 39.5857 51.0283C39.3634 51.1579 39.1175 51.2419 38.8623 51.2755C38.6072 51.309 38.3479 51.2914 38.0996 51.2237C37.8514 51.1559 37.6191 51.0394 37.4163 50.8809L28.0477 43.3906C27.8511 43.2333 27.6874 43.0388 27.566 42.8182C27.4446 42.5976 27.3678 42.3553 27.3401 42.1051C27.284 41.5997 27.431 41.0928 27.7487 40.6957C28.0664 40.2987 28.5288 40.0442 29.0342 39.9881C29.2844 39.9604 29.5377 39.9822 29.7795 40.0523C30.0213 40.1224 30.2469 40.2394 30.4435 40.3967L38.2558 46.647L50.1909 30.4492C50.3346 30.2336 50.5205 30.0494 50.7374 29.9077C50.9543 29.7659 51.1977 29.6696 51.4528 29.6246C51.708 29.5796 51.9696 29.5868 52.2219 29.6457C52.4743 29.7047 52.712 29.8142 52.9208 29.9676C53.1296 30.121 53.3051 30.3152 53.4367 30.5383C53.5684 30.7615 53.6534 31.009 53.6867 31.266C53.72 31.523 53.7008 31.784 53.6303 32.0333C53.5599 32.2827 53.4396 32.5151 53.2768 32.7167Z" fill="#782CE4"/>
<defs>
<filter id="filter0_d" x="3" y="8" width="74" height="74" filterUnits="userSpaceOnUse" color-interpolation-filters="sRGB">
<feFlood flood-opacity="0" result="BackgroundImageFix"/>
<feColorMatrix in="SourceAlpha" type="matrix" values="0 0 0 0 0 0 0 0 0 0 0 0 0 0 0 0 0 0 127 0"/>
<feOffset dy="5"/>
<feGaussianBlur stdDeviation="7"/>
<feColorMatrix type="matrix" values="0 0 0 0 0.470588 0 0 0 0 0.172549 0 0 0 0 0.894118 0 0 0 0.29 0"/>
<feBlend mode="normal" in2="BackgroundImageFix" result="effect1_dropShadow"/>
<feBlend mode="normal" in="SourceGraphic" in2="effect1_dropShadow" result="shape"/>
</filter>
</defs>
</svg>
