<svg width="94" height="94" viewBox="0 0 94 94" fill="none" xmlns="http://www.w3.org/2000/svg">
<path opacity="0.1" d="M68 0H26C11.6406 0 0 11.6406 0 26V68C0 82.3594 11.6406 94 26 94H68C82.3594 94 94 82.3594 94 68V26C94 11.6406 82.3594 0 68 0Z" fill="#1B76FF"/>
<g filter="url(#filter0_d)">
<path d="M46.9999 77.9998C64.1207 77.9998 77.9998 64.1207 77.9998 46.9999C77.9998 29.8791 64.1207 16 46.9999 16C29.8791 16 16 29.8791 16 46.9999C16 64.1207 29.8791 77.9998 46.9999 77.9998Z" fill="#1B76FF"/>
</g>
<path d="M47.0001 79.008C64.6776 79.008 79.008 64.6776 79.008 47.0001C79.008 29.3226 64.6776 14.9922 47.0001 14.9922C29.3226 14.9922 14.9922 29.3226 14.9922 47.0001C14.9922 64.6776 29.3226 79.008 47.0001 79.008Z" fill="#1B76FF"/>
<g filter="url(#filter1_d)">
<path d="M61.8533 47.2129C62.007 46.7073 62.0405 46.1725 61.951 45.6514C61.8614 45.1305 61.6514 44.6378 61.3377 44.2129C61.024 43.7881 60.4883 43.8044 60.0176 43.5666C59.5468 43.3288 59.0271 43.205 58.5 43.2051L51.7821 43.3963C51.5232 43.3963 51.2685 43.3306 51.0418 43.2051C50.815 43.0797 49.8715 42.5026 49.7334 42.2828C49.5953 42.0632 49.5151 41.8119 49.5 41.5527C49.485 41.2934 49.3882 40.2343 49.5 40L51.4095 36.0923C51.5701 35.6139 51.7546 35.3499 51.6644 34.8532C51.5744 34.3566 51.3601 33.891 51.0418 33.5C50.7476 33.1365 50.9678 33.4673 50.543 33.273C50.1183 33.0789 49.6545 32.986 49.1879 33.0017C48.7214 33.0175 48.2648 33.1413 47.854 33.3637C47.4432 33.5861 47.0894 33.9009 46.8202 34.2834L40.8216 42.8079C40.6799 43.0088 40.4921 43.1728 40.2742 43.286C40.0564 43.3993 39.8146 43.4585 39.5692 43.4588C39.4182 43.4588 39.2734 43.519 39.1667 43.626C39.06 43.7331 39 43.8783 39 44.0297V57.9498C39 58.0653 39.0324 58.1785 39.0936 58.2765C39.1547 58.3744 39.2422 58.4531 39.3459 58.5035C43.8847 60.7084 45.3923 61 49.0883 61C49.514 61 51.9343 60.9755 52.8187 60.9755C56.1062 60.9755 58.2935 59.0621 59.5116 55.0952L61.8423 47.2585L61.8533 47.2129Z" fill="white"/>
<path d="M35 44.4167H34.9778C34.9272 44.0215 34.7727 43.6627 34.5416 43.4034C34.3104 43.1442 34.0174 43.0014 33.7143 43H32.4285C32.3149 43 32.2059 43.0598 32.1255 43.166C32.0451 43.2723 32 43.4164 32 43.5667V59.4334C32 59.5837 32.0451 59.7277 32.1255 59.8341C32.2059 59.9403 32.3149 60 32.4285 60H33.7143C34.0553 60 34.3823 59.8209 34.6235 59.5021C34.8645 59.1833 35 58.7509 35 58.3V44.4167Z" fill="white"/>
</g>
<path d="M62.674 47.2319C62.8411 46.684 62.8775 46.1045 62.7802 45.5399C62.6828 44.9754 62.4545 44.4415 62.1136 43.9811C61.7726 43.5207 61.3285 43.1467 60.8168 42.889C60.3051 42.6313 59.7402 42.4972 59.1673 42.4973H51.7273C51.4459 42.4973 51.169 42.4261 50.9226 42.2901C50.6761 42.1542 50.4682 41.958 50.3181 41.7199C50.168 41.4819 50.0808 41.2096 50.0644 40.9287C50.0481 40.6477 50.1032 40.3672 50.2247 40.1133L52.1287 36.1226C52.3033 35.6042 52.3435 35.0499 52.2455 34.5117C52.1476 33.9735 51.9147 33.469 51.5687 33.0453C51.2489 32.6514 50.8422 32.3369 50.3805 32.1264C49.9188 31.916 49.4147 31.8154 48.9076 31.8324C48.4005 31.8495 47.9042 31.9837 47.4577 32.2247C47.0112 32.4657 46.6266 32.8068 46.334 33.2213L39.814 42.4586C39.6599 42.6763 39.4558 42.854 39.219 42.9767C38.9822 43.0994 38.7194 43.1636 38.4527 43.1639C38.2886 43.1639 38.1312 43.2291 38.0152 43.3451C37.8992 43.4612 37.834 43.6185 37.834 43.7826V58.8666C37.834 58.9918 37.8692 59.1145 37.9357 59.2207C38.0022 59.3268 38.0973 59.412 38.21 59.4666C43.1433 61.8559 44.782 62.1719 48.7993 62.1719C49.262 62.1719 51.8927 62.1453 52.854 62.1453C56.4273 62.1453 58.8047 60.0719 60.1287 55.7733L62.662 47.2813L62.674 47.2319Z" fill="white"/>
<path d="M35.8346 43.164H35.8C35.7214 42.6991 35.4811 42.2769 35.1215 41.9719C34.7619 41.667 34.3061 41.4989 33.8346 41.4973H31.8346C31.6578 41.4973 31.4883 41.5676 31.3632 41.6926C31.2382 41.8176 31.168 41.9872 31.168 42.164V60.8307C31.168 61.0075 31.2382 61.177 31.3632 61.3021C31.4883 61.4271 31.6578 61.4973 31.8346 61.4973H33.8346C34.3651 61.4973 34.8738 61.2866 35.2489 60.9115C35.6239 60.5365 35.8346 60.0278 35.8346 59.4973V43.164Z" fill="white"/>
<defs>
<filter id="filter0_d" x="6" y="11" width="81.9998" height="81.9998" filterUnits="userSpaceOnUse" color-interpolation-filters="sRGB">
<feFlood flood-opacity="0" result="BackgroundImageFix"/>
<feColorMatrix in="SourceAlpha" type="matrix" values="0 0 0 0 0 0 0 0 0 0 0 0 0 0 0 0 0 0 127 0"/>
<feOffset dy="5"/>
<feGaussianBlur stdDeviation="5"/>
<feColorMatrix type="matrix" values="0 0 0 0 0.104167 0 0 0 0 0.4625 0 0 0 0 1 0 0 0 0.27 0"/>
<feBlend mode="normal" in2="BackgroundImageFix" result="effect1_dropShadow"/>
<feBlend mode="normal" in="SourceGraphic" in2="effect1_dropShadow" result="shape"/>
</filter>
<filter id="filter1_d" x="22" y="26.0785" width="50" height="48" filterUnits="userSpaceOnUse" color-interpolation-filters="sRGB">
<feFlood flood-opacity="0" result="BackgroundImageFix"/>
<feColorMatrix in="SourceAlpha" type="matrix" values="0 0 0 0 0 0 0 0 0 0 0 0 0 0 0 0 0 0 127 0"/>
<feOffset dy="3.07847"/>
<feGaussianBlur stdDeviation="5"/>
<feColorMatrix type="matrix" values="0 0 0 0 0.121042 0 0 0 0 0.143938 0 0 0 0 0.35 0 0 0 0.17 0"/>
<feBlend mode="normal" in2="BackgroundImageFix" result="effect1_dropShadow"/>
<feBlend mode="normal" in="SourceGraphic" in2="effect1_dropShadow" result="shape"/>
</filter>
</defs>
</svg>
