<svg width="27" height="25" viewBox="0 0 27 25" fill="none" xmlns="http://www.w3.org/2000/svg">
<path d="M0.954102 2.86403C0.954102 2.05877 1.2369 1.39444 1.80246 0.871049C2.36803 0.347633 3.10329 0.0859375 4.0082 0.0859375C4.89697 0.0859375 5.61604 0.343599 6.16547 0.858971C6.73103 1.39043 7.01383 2.08292 7.01383 2.9365C7.01383 3.70953 6.73913 4.35371 6.18971 4.86908C5.62414 5.40054 4.8808 5.66627 3.95973 5.66627H3.93549C3.04672 5.66627 2.32765 5.40054 1.77822 4.86908C1.2288 4.33762 0.954102 3.66926 0.954102 2.86403ZM1.26921 24.0017V7.86458H6.65024V24.0017H1.26921ZM9.63163 24.0017H15.0127V14.991C15.0127 14.4273 15.0773 13.9925 15.2066 13.6865C15.4328 13.1389 15.7762 12.6759 16.2367 12.2974C16.6973 11.919 17.275 11.7298 17.9698 11.7298C19.7797 11.7298 20.6846 12.9457 20.6846 15.3775V24.0017H26.0656V14.7494C26.0656 12.3659 25.5 10.5581 24.3689 9.3261C23.2377 8.09408 21.743 7.47807 19.8847 7.47807C17.8001 7.47807 16.1761 8.37189 15.0127 10.1595V10.2078H14.9884L15.0127 10.1595V7.86458H9.63163C9.66394 8.37993 9.68011 9.98236 9.68011 12.6719C9.68011 15.3614 9.66394 19.138 9.63163 24.0017Z" fill="#0A66C2"/>
</svg>
