<svg width="160" height="162" viewBox="0 0 160 162" fill="none" xmlns="http://www.w3.org/2000/svg">
<path opacity="0.08" d="M112 0H48C21.4903 0 0 21.4903 0 48V112C0 138.51 21.4903 160 48 160H112C138.51 160 160 138.51 160 112V48C160 21.4903 138.51 0 112 0Z" fill="#8DFF1B"/>
<g filter="url(#filter0_d)">
<path d="M118.802 29H40.7558C32.6064 29 26 35.6064 26 43.7558V117.244C26 125.394 32.6064 132 40.7558 132H118.802C126.952 132 133.558 125.394 133.558 117.244V43.7558C133.558 35.6064 126.952 29 118.802 29Z" fill="white" fill-opacity="0.01"/>
</g>
<path d="M118.802 29H40.7558C32.6064 29 26 35.6064 26 43.7558V117.244C26 125.394 32.6064 132 40.7558 132H118.802C126.952 132 133.558 125.394 133.558 117.244V43.7558C133.558 35.6064 126.952 29 118.802 29Z" fill="white"/>
<path opacity="0.8" d="M116.458 50.9883H65.2729C63.6431 50.9883 62.3218 52.3096 62.3218 53.9394C62.3218 55.5693 63.6431 56.8906 65.2729 56.8906H116.458C118.088 56.8906 119.409 55.5693 119.409 53.9394C119.409 52.3096 118.088 50.9883 116.458 50.9883Z" fill="#E7E8F1"/>
<path opacity="0.8" d="M102.633 77.5488H65.2729C63.6431 77.5488 62.3218 78.8701 62.3218 80.5C62.3218 82.1299 63.6431 83.4511 65.2729 83.4511H102.633C104.263 83.4511 105.584 82.1299 105.584 80.5C105.584 78.8701 104.263 77.5488 102.633 77.5488Z" fill="#E7E8F1"/>
<path opacity="0.8" d="M116.458 104.109H65.2729C63.6431 104.109 62.3218 105.43 62.3218 107.06C62.3218 108.69 63.6431 110.011 65.2729 110.011H116.458C118.088 110.011 119.409 108.69 119.409 107.06C119.409 105.43 118.088 104.109 116.458 104.109Z" fill="#E7E8F1"/>
<g filter="url(#filter1_d)">
<path d="M46.5789 60.7055C50.3161 60.7055 53.3457 57.6759 53.3457 53.9387C53.3457 50.2015 50.3161 47.1719 46.5789 47.1719C42.8417 47.1719 39.8121 50.2015 39.8121 53.9387C39.8121 57.6759 42.8417 60.7055 46.5789 60.7055Z" fill="white" fill-opacity="0.01"/>
<path d="M46.5782 44.3477C44.6812 44.3477 42.8269 44.9102 41.2496 45.9641C39.6723 47.018 38.443 48.5159 37.717 50.2685C36.9911 52.0211 36.8012 53.9496 37.1712 55.8101C37.5413 57.6706 38.4548 59.3796 39.7962 60.721C41.1375 62.0623 42.8465 62.9758 44.707 63.3459C46.5676 63.716 48.496 63.526 50.2486 62.8001C52.0012 62.0741 53.4991 60.8448 54.553 59.2675C55.6069 57.6903 56.1695 55.8359 56.1695 53.9389C56.1665 51.3961 55.155 48.9582 53.357 47.1601C51.5589 45.3621 49.1211 44.3506 46.5782 44.3477ZM52.1148 50.9017L46.6437 58.3261C46.5791 58.4118 46.4981 58.4838 46.4054 58.5378C46.3127 58.5919 46.2102 58.6269 46.1038 58.6409C45.9974 58.6549 45.8893 58.6476 45.7857 58.6193C45.6822 58.5911 45.5853 58.5425 45.5008 58.4764L41.5939 55.3528C41.512 55.2872 41.4437 55.2061 41.3931 55.1141C41.3425 55.0222 41.3104 54.9211 41.2989 54.8168C41.2755 54.606 41.3368 54.3946 41.4693 54.2291C41.6017 54.0635 41.7946 53.9573 42.0053 53.934C42.1097 53.9224 42.2153 53.9315 42.3161 53.9607C42.417 53.99 42.5111 54.0388 42.593 54.1044L45.8509 56.7108L50.8279 49.9561C50.8878 49.8662 50.9654 49.7894 51.0558 49.7303C51.1463 49.6712 51.2478 49.631 51.3542 49.6123C51.4606 49.5935 51.5697 49.5965 51.6749 49.6211C51.7801 49.6457 51.8792 49.6913 51.9663 49.7553C52.0534 49.8193 52.1266 49.9002 52.1815 49.9933C52.2364 50.0864 52.2718 50.1896 52.2857 50.2967C52.2996 50.4039 52.2916 50.5127 52.2622 50.6167C52.2328 50.7207 52.1827 50.8176 52.1148 50.9017Z" fill="#4DDE4A" fill-opacity="0.01"/>
</g>
<path d="M46.5789 60.7055C50.3161 60.7055 53.3457 57.6759 53.3457 53.9387C53.3457 50.2015 50.3161 47.1719 46.5789 47.1719C42.8417 47.1719 39.8121 50.2015 39.8121 53.9387C39.8121 57.6759 42.8417 60.7055 46.5789 60.7055Z" fill="white"/>
<path d="M46.5782 44.3477C44.6812 44.3477 42.8269 44.9102 41.2496 45.9641C39.6723 47.018 38.443 48.5159 37.717 50.2685C36.9911 52.0211 36.8012 53.9496 37.1712 55.8101C37.5413 57.6706 38.4548 59.3796 39.7962 60.721C41.1375 62.0623 42.8465 62.9758 44.707 63.3459C46.5676 63.716 48.496 63.526 50.2486 62.8001C52.0012 62.0741 53.4991 60.8448 54.553 59.2675C55.6069 57.6903 56.1695 55.8359 56.1695 53.9389C56.1665 51.3961 55.155 48.9582 53.357 47.1601C51.5589 45.3621 49.1211 44.3506 46.5782 44.3477ZM52.1148 50.9017L46.6437 58.3261C46.5791 58.4118 46.4981 58.4838 46.4054 58.5378C46.3127 58.5919 46.2102 58.6269 46.1038 58.6409C45.9974 58.6549 45.8893 58.6476 45.7857 58.6193C45.6822 58.5911 45.5853 58.5425 45.5008 58.4764L41.5939 55.3528C41.512 55.2872 41.4437 55.2061 41.3931 55.1141C41.3425 55.0222 41.3104 54.9211 41.2989 54.8168C41.2755 54.606 41.3368 54.3946 41.4693 54.2291C41.6017 54.0635 41.7946 53.9573 42.0053 53.934C42.1097 53.9224 42.2153 53.9315 42.3161 53.9607C42.417 53.99 42.5111 54.0388 42.593 54.1044L45.8509 56.7108L50.8279 49.9561C50.8878 49.8662 50.9654 49.7894 51.0558 49.7303C51.1463 49.6712 51.2478 49.631 51.3542 49.6123C51.4606 49.5935 51.5697 49.5965 51.6749 49.6211C51.7801 49.6457 51.8792 49.6913 51.9663 49.7553C52.0534 49.8193 52.1266 49.9002 52.1815 49.9933C52.2364 50.0864 52.2718 50.1896 52.2857 50.2967C52.2996 50.4039 52.2916 50.5127 52.2622 50.6167C52.2328 50.7207 52.1827 50.8176 52.1148 50.9017Z" fill="#4DDE4A"/>
<g filter="url(#filter2_d)">
<path d="M46.5789 87.266C50.3161 87.266 53.3457 84.2364 53.3457 80.4992C53.3457 76.762 50.3161 73.7324 46.5789 73.7324C42.8417 73.7324 39.8121 76.762 39.8121 80.4992C39.8121 84.2364 42.8417 87.266 46.5789 87.266Z" fill="white" fill-opacity="0.01"/>
<path d="M46.5783 70.9082C44.6814 70.9082 42.827 71.4707 41.2497 72.5246C39.6724 73.5785 38.4431 75.0765 37.7172 76.829C36.9912 78.5816 36.8013 80.5101 37.1714 82.3706C37.5414 84.2311 38.4549 85.9401 39.7963 87.2815C41.1376 88.6229 42.8466 89.5363 44.7072 89.9064C46.5677 90.2765 48.4962 90.0866 50.2487 89.3606C52.0013 88.6347 53.4993 87.4054 54.5532 85.8281C55.6071 84.2508 56.1696 82.3964 56.1696 80.4995C56.1666 77.9566 55.1552 75.5188 53.3571 73.7207C51.559 71.9226 49.1212 70.9112 46.5783 70.9082ZM52.1149 77.4622L46.6439 84.8867C46.5793 84.9724 46.4983 85.0443 46.4055 85.0984C46.3128 85.1524 46.2103 85.1875 46.1039 85.2015C45.9975 85.2155 45.8894 85.2081 45.7858 85.1799C45.6823 85.1516 45.5855 85.103 45.5009 85.0369L41.5941 81.9134C41.5121 81.8478 41.4438 81.7667 41.3932 81.6747C41.3426 81.5827 41.3106 81.4817 41.299 81.3773C41.2756 81.1666 41.3369 80.9552 41.4694 80.7896C41.6019 80.624 41.7947 80.5179 42.0054 80.4945C42.1098 80.4829 42.2154 80.492 42.3162 80.5213C42.4171 80.5505 42.5112 80.5993 42.5932 80.6649L45.851 83.2713L50.828 76.5167C50.888 76.4268 50.9655 76.3499 51.0559 76.2908C51.1464 76.2317 51.2479 76.1916 51.3543 76.1728C51.4607 76.154 51.5698 76.157 51.675 76.1816C51.7802 76.2062 51.8794 76.2519 51.9664 76.3158C52.0535 76.3798 52.1267 76.4608 52.1816 76.5538C52.2365 76.6469 52.2719 76.7501 52.2858 76.8573C52.2997 76.9644 52.2917 77.0733 52.2623 77.1773C52.2329 77.2812 52.1828 77.3782 52.1149 77.4622Z" fill="#4DDE4A" fill-opacity="0.01"/>
</g>
<path d="M46.5789 87.266C50.3161 87.266 53.3457 84.2364 53.3457 80.4992C53.3457 76.762 50.3161 73.7324 46.5789 73.7324C42.8417 73.7324 39.8121 76.762 39.8121 80.4992C39.8121 84.2364 42.8417 87.266 46.5789 87.266Z" fill="white"/>
<path d="M46.5783 70.9082C44.6814 70.9082 42.827 71.4707 41.2497 72.5246C39.6724 73.5785 38.4431 75.0765 37.7172 76.829C36.9912 78.5816 36.8013 80.5101 37.1714 82.3706C37.5414 84.2311 38.4549 85.9401 39.7963 87.2815C41.1376 88.6229 42.8466 89.5363 44.7072 89.9064C46.5677 90.2765 48.4962 90.0866 50.2487 89.3606C52.0013 88.6347 53.4993 87.4054 54.5532 85.8281C55.6071 84.2508 56.1696 82.3964 56.1696 80.4995C56.1666 77.9566 55.1552 75.5188 53.3571 73.7207C51.559 71.9226 49.1212 70.9112 46.5783 70.9082ZM52.1149 77.4622L46.6439 84.8867C46.5793 84.9724 46.4983 85.0443 46.4055 85.0984C46.3128 85.1524 46.2103 85.1875 46.1039 85.2015C45.9975 85.2155 45.8894 85.2081 45.7858 85.1799C45.6823 85.1516 45.5855 85.103 45.5009 85.0369L41.5941 81.9134C41.5121 81.8478 41.4438 81.7667 41.3932 81.6747C41.3426 81.5827 41.3106 81.4817 41.299 81.3773C41.2756 81.1666 41.3369 80.9552 41.4694 80.7896C41.6019 80.624 41.7947 80.5179 42.0054 80.4945C42.1098 80.4829 42.2154 80.492 42.3162 80.5213C42.4171 80.5505 42.5112 80.5993 42.5932 80.6649L45.851 83.2713L50.828 76.5167C50.888 76.4268 50.9655 76.3499 51.0559 76.2908C51.1464 76.2317 51.2479 76.1916 51.3543 76.1728C51.4607 76.154 51.5698 76.157 51.675 76.1816C51.7802 76.2062 51.8794 76.2519 51.9664 76.3158C52.0535 76.3798 52.1267 76.4608 52.1816 76.5538C52.2365 76.6469 52.2719 76.7501 52.2858 76.8573C52.2997 76.9644 52.2917 77.0733 52.2623 77.1773C52.2329 77.2812 52.1828 77.3782 52.1149 77.4622Z" fill="#4DDE4A"/>
<g filter="url(#filter3_d)">
<path d="M46.5789 113.827C50.3161 113.827 53.3457 110.797 53.3457 107.06C53.3457 103.323 50.3161 100.293 46.5789 100.293C42.8417 100.293 39.8121 103.323 39.8121 107.06C39.8121 110.797 42.8417 113.827 46.5789 113.827Z" fill="white" fill-opacity="0.01"/>
<path d="M46.5783 97.4688C44.6814 97.4688 42.827 98.0312 41.2497 99.0851C39.6724 100.139 38.4431 101.637 37.7172 103.39C36.9912 105.142 36.8013 107.071 37.1714 108.931C37.5414 110.792 38.4549 112.501 39.7963 113.842C41.1376 115.183 42.8466 116.097 44.7072 116.467C46.5677 116.837 48.4962 116.647 50.2487 115.921C52.0013 115.195 53.4993 113.966 54.5532 112.389C55.6071 110.811 56.1696 108.957 56.1696 107.06C56.1666 104.517 55.1552 102.079 53.3571 100.281C51.559 98.4831 49.1212 97.4716 46.5783 97.4688ZM52.1149 104.023L46.6439 111.447C46.5793 111.533 46.4983 111.605 46.4055 111.659C46.3128 111.713 46.2103 111.748 46.1039 111.762C45.9975 111.776 45.8894 111.769 45.7858 111.74C45.6823 111.712 45.5855 111.664 45.5009 111.597L41.5941 108.474C41.5121 108.408 41.4438 108.327 41.3932 108.235C41.3426 108.143 41.3106 108.042 41.299 107.938C41.2756 107.727 41.3369 107.516 41.4694 107.35C41.6019 107.185 41.7947 107.078 42.0054 107.055C42.1098 107.043 42.2154 107.053 42.3162 107.082C42.4171 107.111 42.5112 107.16 42.5932 107.225L45.851 109.832L50.828 103.077C50.888 102.987 50.9655 102.91 51.0559 102.851C51.1464 102.792 51.2479 102.752 51.3543 102.733C51.4607 102.715 51.5698 102.718 51.675 102.742C51.7802 102.767 51.8794 102.812 51.9664 102.876C52.0535 102.94 52.1267 103.021 52.1816 103.114C52.2365 103.207 52.2719 103.311 52.2858 103.418C52.2997 103.525 52.2917 103.634 52.2623 103.738C52.2329 103.842 52.1828 103.939 52.1149 104.023Z" fill="#4DDE4A" fill-opacity="0.01"/>
</g>
<path d="M46.5789 113.827C50.3161 113.827 53.3457 110.797 53.3457 107.06C53.3457 103.323 50.3161 100.293 46.5789 100.293C42.8417 100.293 39.8121 103.323 39.8121 107.06C39.8121 110.797 42.8417 113.827 46.5789 113.827Z" fill="white"/>
<path d="M46.5783 97.4688C44.6814 97.4688 42.827 98.0312 41.2497 99.0851C39.6724 100.139 38.4431 101.637 37.7172 103.39C36.9912 105.142 36.8013 107.071 37.1714 108.931C37.5414 110.792 38.4549 112.501 39.7963 113.842C41.1376 115.183 42.8466 116.097 44.7072 116.467C46.5677 116.837 48.4962 116.647 50.2487 115.921C52.0013 115.195 53.4993 113.966 54.5532 112.389C55.6071 110.811 56.1696 108.957 56.1696 107.06C56.1666 104.517 55.1552 102.079 53.3571 100.281C51.559 98.4831 49.1212 97.4716 46.5783 97.4688ZM52.1149 104.023L46.6439 111.447C46.5793 111.533 46.4983 111.605 46.4055 111.659C46.3128 111.713 46.2103 111.748 46.1039 111.762C45.9975 111.776 45.8894 111.769 45.7858 111.74C45.6823 111.712 45.5855 111.664 45.5009 111.597L41.5941 108.474C41.5121 108.408 41.4438 108.327 41.3932 108.235C41.3426 108.143 41.3106 108.042 41.299 107.938C41.2756 107.727 41.3369 107.516 41.4694 107.35C41.6019 107.185 41.7947 107.078 42.0054 107.055C42.1098 107.043 42.2154 107.053 42.3162 107.082C42.4171 107.111 42.5112 107.16 42.5932 107.225L45.851 109.832L50.828 103.077C50.888 102.987 50.9655 102.91 51.0559 102.851C51.1464 102.792 51.2479 102.752 51.3543 102.733C51.4607 102.715 51.5698 102.718 51.675 102.742C51.7802 102.767 51.8794 102.812 51.9664 102.876C52.0535 102.94 52.1267 103.021 52.1816 103.114C52.2365 103.207 52.2719 103.311 52.2858 103.418C52.2997 103.525 52.2917 103.634 52.2623 103.738C52.2329 103.842 52.1828 103.939 52.1149 104.023Z" fill="#4DDE4A"/>
<defs>
<filter id="filter0_d" x="5.342" y="17.1955" width="148.874" height="144.316" filterUnits="userSpaceOnUse" color-interpolation-filters="sRGB">
<feFlood flood-opacity="0" result="BackgroundImageFix"/>
<feColorMatrix in="SourceAlpha" type="matrix" values="0 0 0 0 0 0 0 0 0 0 0 0 0 0 0 0 0 0 127 0"/>
<feOffset dy="8.85347"/>
<feGaussianBlur stdDeviation="10.329"/>
<feColorMatrix type="matrix" values="0 0 0 0 0.353029 0 0 0 0 0.804167 0 0 0 0 0.140729 0 0 0 0.2 0"/>
<feBlend mode="normal" in2="BackgroundImageFix" result="effect1_dropShadow"/>
<feBlend mode="normal" in="SourceGraphic" in2="effect1_dropShadow" result="shape"/>
</filter>
<filter id="filter1_d" x="31.0846" y="42.8721" width="30.9872" height="30.9871" filterUnits="userSpaceOnUse" color-interpolation-filters="sRGB">
<feFlood flood-opacity="0" result="BackgroundImageFix"/>
<feColorMatrix in="SourceAlpha" type="matrix" values="0 0 0 0 0 0 0 0 0 0 0 0 0 0 0 0 0 0 127 0"/>
<feOffset dy="4.42673"/>
<feGaussianBlur stdDeviation="2.95116"/>
<feColorMatrix type="matrix" values="0 0 0 0 0.104167 0 0 0 0 1 0 0 0 0 0.2475 0 0 0 0.19 0"/>
<feBlend mode="normal" in2="BackgroundImageFix" result="effect1_dropShadow"/>
<feBlend mode="normal" in="SourceGraphic" in2="effect1_dropShadow" result="shape"/>
</filter>
<filter id="filter2_d" x="31.0847" y="69.4326" width="30.9872" height="30.9872" filterUnits="userSpaceOnUse" color-interpolation-filters="sRGB">
<feFlood flood-opacity="0" result="BackgroundImageFix"/>
<feColorMatrix in="SourceAlpha" type="matrix" values="0 0 0 0 0 0 0 0 0 0 0 0 0 0 0 0 0 0 127 0"/>
<feOffset dy="4.42673"/>
<feGaussianBlur stdDeviation="2.95116"/>
<feColorMatrix type="matrix" values="0 0 0 0 0.104167 0 0 0 0 1 0 0 0 0 0.2475 0 0 0 0.19 0"/>
<feBlend mode="normal" in2="BackgroundImageFix" result="effect1_dropShadow"/>
<feBlend mode="normal" in="SourceGraphic" in2="effect1_dropShadow" result="shape"/>
</filter>
<filter id="filter3_d" x="31.0847" y="95.9932" width="30.9872" height="30.9871" filterUnits="userSpaceOnUse" color-interpolation-filters="sRGB">
<feFlood flood-opacity="0" result="BackgroundImageFix"/>
<feColorMatrix in="SourceAlpha" type="matrix" values="0 0 0 0 0 0 0 0 0 0 0 0 0 0 0 0 0 0 127 0"/>
<feOffset dy="4.42673"/>
<feGaussianBlur stdDeviation="2.95116"/>
<feColorMatrix type="matrix" values="0 0 0 0 0.104167 0 0 0 0 1 0 0 0 0 0.2475 0 0 0 0.19 0"/>
<feBlend mode="normal" in2="BackgroundImageFix" result="effect1_dropShadow"/>
<feBlend mode="normal" in="SourceGraphic" in2="effect1_dropShadow" result="shape"/>
</filter>
</defs>
</svg>
