<svg width="24" height="25" viewBox="0 0 24 25" fill="none" xmlns="http://www.w3.org/2000/svg">
<path d="M8.01161 12.0438C8.01161 9.8425 9.79562 8.05752 11.9969 8.05752C14.1982 8.05752 15.9832 9.8425 15.9832 12.0438C15.9832 14.2451 14.1982 16.0301 11.9969 16.0301C9.79562 16.0301 8.01161 14.2451 8.01161 12.0438V12.0438ZM5.8567 12.0438C5.8567 15.435 8.60567 18.184 11.9969 18.184C15.3882 18.184 18.1371 15.435 18.1371 12.0438C18.1371 8.65255 15.3882 5.90358 11.9969 5.90358C8.60567 5.90358 5.8568 8.65236 5.8568 12.0438H5.8567ZM16.9454 5.66012C16.9453 5.94392 17.0293 6.22139 17.1869 6.45743C17.3445 6.69346 17.5685 6.87747 17.8307 6.98619C18.0928 7.0949 18.3813 7.12343 18.6597 7.06817C18.9381 7.01292 19.1938 6.87635 19.3946 6.67575C19.5953 6.47515 19.7321 6.21953 19.7876 5.9412C19.8431 5.66287 19.8147 5.37434 19.7062 5.11209C19.5977 4.84985 19.4139 4.62567 19.178 4.4679C18.9421 4.31013 18.6647 4.22586 18.3809 4.22575H18.3803C17.9999 4.22593 17.6351 4.37708 17.3661 4.64603C17.097 4.91497 16.9457 5.2797 16.9454 5.66012V5.66012ZM7.16595 21.7773C6.0001 21.7242 5.36643 21.53 4.94532 21.366C4.38704 21.1486 3.9887 20.8897 3.56988 20.4715C3.15107 20.0533 2.89183 19.6553 2.67544 19.097C2.51128 18.6761 2.31708 18.0422 2.26409 16.8764C2.20611 15.6159 2.19454 15.2373 2.19454 12.044C2.19454 8.85067 2.20707 8.47308 2.26409 7.21158C2.31718 6.04573 2.51281 5.41312 2.67544 4.99096C2.89278 4.43267 3.15165 4.03433 3.56988 3.61551C3.98812 3.1967 4.38608 2.93746 4.94532 2.72107C5.36624 2.55691 6.0001 2.36271 7.16595 2.30972C8.4264 2.25174 8.80503 2.24017 11.9969 2.24017C15.1888 2.24017 15.5678 2.25251 16.8293 2.30991C17.9952 2.363 18.6278 2.55863 19.05 2.72126C19.6082 2.93765 20.0066 3.19747 20.4254 3.61571C20.8442 4.03394 21.1025 4.43286 21.3198 4.99115C21.484 5.41206 21.6782 6.04593 21.7312 7.21177C21.7892 8.47328 21.8007 8.85086 21.8007 12.0442C21.8007 15.2375 21.7892 15.6151 21.7312 16.8766C21.6781 18.0424 21.4829 18.6761 21.3198 19.0972C21.1025 19.6555 20.8436 20.0538 20.4254 20.4717C20.0072 20.8895 19.6082 21.1488 19.05 21.3661C18.629 21.5303 17.9952 21.7245 16.8293 21.7775C15.5689 21.8355 15.1902 21.847 11.9969 21.847C8.8036 21.847 8.42602 21.8355 7.16595 21.7775V21.7773ZM7.06694 0.158354C5.79395 0.216326 4.92409 0.418175 4.16443 0.713773C3.37818 1.01903 2.71169 1.42857 2.04616 2.09304C1.38064 2.75751 0.972158 3.42409 0.666898 4.2113C0.3713 4.97144 0.169451 5.84082 0.111479 7.11381C0.052551 8.3888 0.0390625 8.79642 0.0390625 12.0438C0.0390625 15.2912 0.052551 15.6988 0.111479 16.9738C0.169451 18.2469 0.3713 19.1162 0.666898 19.8763C0.972158 20.6625 1.38073 21.3304 2.04616 21.9946C2.7116 22.6587 3.37722 23.0677 4.16443 23.3738C4.92552 23.6694 5.79395 23.8713 7.06694 23.9292C8.3426 23.9872 8.74955 24.0017 11.9969 24.0017C15.2443 24.0017 15.6519 23.9882 16.9269 23.9292C18.2 23.8713 19.0693 23.6694 19.8294 23.3738C20.6157 23.0677 21.2822 22.659 21.9477 21.9946C22.6132 21.3301 23.0208 20.6625 23.3269 19.8763C23.6225 19.1162 23.8253 18.2468 23.8824 16.9738C23.9403 15.6978 23.9538 15.2912 23.9538 12.0438C23.9538 8.79642 23.9403 8.3888 23.8824 7.11381C23.8244 5.84073 23.6225 4.97096 23.3269 4.2113C23.0208 3.42505 22.6122 2.75857 21.9477 2.09304C21.2832 1.42751 20.6157 1.01903 19.8304 0.713773C19.0693 0.418175 18.1999 0.215369 16.9279 0.158354C15.6527 0.100096 15.2453 0.0859375 11.9984 0.0859375C8.75146 0.0859375 8.34308 0.099426 7.06741 0.158354" fill="url(#paint0_radial)"/>
<defs>
<radialGradient id="paint0_radial" cx="0" cy="0" r="1" gradientUnits="userSpaceOnUse" gradientTransform="translate(1.5868 23.4777) scale(30.3629 30.3641)">
<stop offset="0.09" stop-color="#FA8F21"/>
<stop offset="0.78" stop-color="#D82D7E"/>
</radialGradient>
</defs>
</svg>
