<svg width="80" height="80" viewBox="0 0 80 80" fill="none" xmlns="http://www.w3.org/2000/svg">
<path opacity="0.06" d="M54 0H26C11.6406 0 0 11.6406 0 26V54C0 68.3594 11.6406 80 26 80H54C68.3594 80 80 68.3594 80 54V26C80 11.6406 68.3594 0 54 0Z" fill="#1B76FF"/>
<g filter="url(#filter0_d)">
<path d="M16.5 55.0046C17.3439 55.0063 18.1564 54.685 18.771 54.1067L33.2261 40.3014C33.4349 40.1039 33.7126 39.9957 34 40C34.2874 40.0043 34.5618 40.1207 34.7646 40.3244L39.5398 45.5C41.0161 46.9094 42.9788 47.6959 45.0199 47.6959C47.061 47.6959 49.0236 46.9094 50.5 45.5L58.8209 37.1199C58.8721 37.0685 58.933 37.0278 59 37C59.0669 36.9721 59.1388 36.9578 59.2113 36.9578C59.2838 36.9578 59.3557 36.9721 59.4226 37C59.4896 37.0278 59.5505 37.0685 59.6017 37.1199L63.4362 41.3548C63.8516 41.7682 64.4139 42.0002 65 42C65.5871 41.9994 65.5846 41.915 66 41.5C66.4154 41.0851 66.6493 40.5224 66.6505 39.9353L66.6498 28.0653C66.6492 27.478 66.4155 26.915 66 26.4999C65.5845 26.0849 65.0212 25.8517 64.4339 25.8517L53 25.5C52.5603 25.4983 52.13 25.6276 51.764 25.8715C51.398 26.1153 51.113 26.4626 50.9452 26.8691C50.7775 27.2756 50.7346 27.7228 50.822 28.1538C50.9095 28.5848 51.1233 28.98 51.4362 29.2889L55.3369 32.6073C55.441 32.7115 55.4996 32.8527 55.5 33C55.5002 33.0726 55.4859 33.1446 55.4579 33.2116C55.4299 33.2787 55.3888 33.3394 55.3369 33.3903L45.7831 42.6782C45.5746 42.8843 45.2932 43 45 43C44.7068 43 44.4255 42.8843 44.217 42.6782L38.5 37.5C37.0842 36.07 36.0121 35.5351 34 35.5C31.988 35.4648 30.4649 36.1203 29 37.5L14.9642 50.3044C14.4804 50.7604 14.1445 51.3511 14 52C13.8554 52.649 13.9089 53.3264 14.1535 53.9447C14.3981 54.5629 14.0872 54.0485 14.6366 54.4229C15.186 54.7974 15.8351 54.9984 16.5 55V55.0046Z" fill="#1B76FF" fill-opacity="0.01"/>
</g>
<path d="M16.3148 56C17.1587 56.0017 17.9712 55.6804 18.5858 55.1021L33.1742 41.4185C33.383 41.221 33.6607 41.1128 33.9481 41.1171C34.2355 41.1214 34.5099 41.2378 34.7127 41.4415L39.6199 46.351C41.0962 47.7604 43.0589 48.5469 45.1 48.5469C47.1411 48.5469 49.1037 47.7604 50.5801 46.351L58.7939 38.1371C58.8451 38.0857 58.906 38.045 58.973 38.0172C59.0399 37.9893 59.1118 37.975 59.1843 37.975C59.2568 37.975 59.3287 37.9893 59.3956 38.0172C59.4626 38.045 59.5235 38.0857 59.5747 38.1371L63.4646 42.0133C63.88 42.4267 64.4423 42.6587 65.0284 42.6585C65.6155 42.6579 66.1784 42.4246 66.5938 42.0096C67.0092 41.5947 67.2431 41.032 67.2443 40.4449V27.2136C67.2437 26.6263 67.01 26.0633 66.5945 25.6482C66.179 25.2332 65.6157 25 65.0284 25H51.7443C51.3046 24.9983 50.8743 25.1276 50.5083 25.3715C50.1423 25.6153 49.8573 25.9626 49.6895 26.3691C49.5218 26.7756 49.4789 27.2228 49.5663 27.6538C49.6538 28.0848 49.8676 28.48 50.1805 28.7889L54.0842 32.6926C54.1883 32.7968 54.2469 32.938 54.2473 33.0853C54.2475 33.1579 54.2332 33.2299 54.2052 33.2969C54.1772 33.364 54.1361 33.4247 54.0842 33.4756L45.8819 41.6803C45.6734 41.8864 45.392 42.0021 45.0988 42.0021C44.8056 42.0021 44.5243 41.8864 44.3158 41.6803L39.4063 36.7708C37.9905 35.3408 36.0719 34.5206 34.0598 34.4855C32.0478 34.4503 30.1016 35.2028 28.6367 36.5825L14.0437 50.2547C13.5599 50.7107 13.224 51.3014 13.0795 51.9503C12.9349 52.5993 12.9884 53.2767 13.233 53.895C13.4776 54.5132 13.902 55.0439 14.4514 55.4183C15.0008 55.7928 15.6499 55.9938 16.3148 55.9954V56Z" fill="#1B76FF"/>
<defs>
<filter id="filter0_d" x="7.92047" y="25.5" width="64.73" height="41.5046" filterUnits="userSpaceOnUse" color-interpolation-filters="sRGB">
<feFlood flood-opacity="0" result="BackgroundImageFix"/>
<feColorMatrix in="SourceAlpha" type="matrix" values="0 0 0 0 0 0 0 0 0 0 0 0 0 0 0 0 0 0 127 0"/>
<feOffset dy="6"/>
<feGaussianBlur stdDeviation="3"/>
<feColorMatrix type="matrix" values="0 0 0 0 0.104167 0 0 0 0 0.4625 0 0 0 0 1 0 0 0 0.17 0"/>
<feBlend mode="normal" in2="BackgroundImageFix" result="effect1_dropShadow"/>
<feBlend mode="normal" in="SourceGraphic" in2="effect1_dropShadow" result="shape"/>
</filter>
</defs>
</svg>
