<svg width="54" height="54" viewBox="0 0 54 54" fill="none" xmlns="http://www.w3.org/2000/svg">
<rect width="54" height="54" fill="#1DA1F2"/>
<path d="M30.5515 17.0042V17H31.6523L32.0546 17.0807C32.3227 17.1331 32.5662 17.2017 32.785 17.2866C33.0037 17.3716 33.2154 17.4707 33.4201 17.5839C33.6247 17.6971 33.8103 17.8125 33.9769 17.93C34.142 18.046 34.2902 18.1692 34.4215 18.2994C34.5513 18.431 34.7538 18.465 35.029 18.4013C35.3042 18.3376 35.6006 18.2492 35.9182 18.1359C36.2357 18.0227 36.5498 17.8953 36.8603 17.7537C37.1708 17.6122 37.3599 17.5223 37.4276 17.4841C37.494 17.4445 37.5293 17.4232 37.5335 17.4204L37.5377 17.414L37.5589 17.4034L37.58 17.3928L37.6012 17.3822L37.6224 17.3716L37.6266 17.3652L37.633 17.3609L37.6393 17.3567L37.6436 17.3503L37.6647 17.344L37.6859 17.3397L37.6817 17.3716L37.6753 17.4034L37.6647 17.4353L37.6541 17.4671L37.6436 17.4883L37.633 17.5096L37.6224 17.5414C37.6153 17.5627 37.6083 17.591 37.6012 17.6263C37.5942 17.6617 37.5271 17.8033 37.4001 18.051C37.2731 18.2987 37.1143 18.5499 36.9238 18.8047C36.7332 19.0595 36.5625 19.252 36.4115 19.3822C36.259 19.5139 36.1581 19.6059 36.1087 19.6583C36.0593 19.712 35.9993 19.7616 35.9288 19.8069L35.8229 19.877L35.8017 19.8876L35.7806 19.8982L35.7764 19.9046L35.77 19.9088L35.7636 19.913L35.7594 19.9194L35.7382 19.93L35.7171 19.9407L35.7128 19.947L35.7065 19.9513L35.7001 19.9555L35.6959 19.9619L35.6917 19.9683L35.6853 19.9725L35.6789 19.9767L35.6747 19.9831H35.7806L36.3733 19.8557C36.7685 19.7708 37.1461 19.6682 37.506 19.5479L38.0776 19.3568L38.1411 19.3355L38.1728 19.3249L38.194 19.3143L38.2152 19.3037L38.2363 19.2931L38.2575 19.2825L38.2998 19.2761L38.3422 19.2718V19.3143L38.3316 19.3185L38.321 19.3249L38.3168 19.3313L38.3104 19.3355L38.3041 19.3398L38.2998 19.3462L38.2956 19.3525L38.2893 19.3568L38.2829 19.361L38.2787 19.3674L38.2745 19.3738L38.2681 19.378L38.2575 19.3992L38.2469 19.4205L38.2406 19.4247C38.2377 19.429 38.1481 19.5493 37.9717 19.7857C37.7953 20.0235 37.7 20.1438 37.6859 20.1466C37.6718 20.1508 37.652 20.1721 37.6266 20.2103C37.6026 20.2499 37.453 20.4078 37.1778 20.6838C36.9026 20.9598 36.6331 21.2054 36.3691 21.4205C36.1038 21.6371 35.9697 21.9032 35.9669 22.2189C35.9627 22.5331 35.9464 22.8884 35.9182 23.2847C35.89 23.6811 35.837 24.1092 35.7594 24.5693C35.6818 25.0293 35.5618 25.5495 35.3995 26.1298C35.2372 26.7102 35.0396 27.2764 34.8067 27.8284C34.5739 28.3804 34.3304 28.8758 34.0764 29.3146C33.8223 29.7534 33.5894 30.125 33.3777 30.4293C33.166 30.7336 32.9508 31.0203 32.732 31.2892C32.5133 31.5582 32.2367 31.8611 31.9022 32.198C31.5663 32.5334 31.3828 32.7175 31.3518 32.75C31.3193 32.7811 31.181 32.8972 30.9368 33.0982C30.6941 33.3006 30.4329 33.503 30.1535 33.7054C29.8755 33.9065 29.62 34.0742 29.3871 34.2086C29.1542 34.3431 28.8734 34.4967 28.5445 34.6694C28.2171 34.8435 27.8629 35.0049 27.4818 35.1535C27.1007 35.3021 26.6985 35.4401 26.2751 35.5675C25.8517 35.6949 25.4424 35.794 25.0472 35.8648C24.652 35.9355 24.2039 35.9957 23.7029 36.0452L22.9513 36.1195V36.1302H21.5753V36.1195L21.3953 36.1089C21.2754 36.1019 21.1766 36.0948 21.0989 36.0877C21.0213 36.0806 20.7284 36.0417 20.2204 35.9709C19.7123 35.9001 19.3136 35.8294 19.0242 35.7586C18.7349 35.6878 18.3044 35.5533 17.7328 35.3552C17.1612 35.157 16.6722 34.9567 16.2657 34.7543C15.8607 34.5533 15.6066 34.4259 15.5036 34.3721C15.402 34.3198 15.2877 34.2547 15.1606 34.1768L14.9701 34.06L14.9659 34.0537L14.9595 34.0494L14.9532 34.0452L14.9489 34.0388L14.9278 34.0282L14.9066 34.0176L14.9024 34.0112L14.896 34.0069L14.8897 34.0027L14.8854 33.9963L14.8812 33.99L14.8748 33.9857H14.8643V33.9432L14.8854 33.9475L14.9066 33.9539L15.0019 33.9645C15.0654 33.9715 15.2383 33.9822 15.5205 33.9963C15.8028 34.0105 16.1027 34.0105 16.4203 33.9963C16.7378 33.9822 17.0625 33.9503 17.3941 33.9008C17.7258 33.8512 18.1174 33.7663 18.5691 33.646C19.0207 33.5257 19.4357 33.3827 19.8139 33.2171C20.1907 33.0501 20.4589 32.9255 20.6184 32.8434C20.7764 32.7627 21.0178 32.6127 21.3424 32.3933L21.8293 32.0642L21.8335 32.0578L21.8399 32.0536L21.8463 32.0493L21.8505 32.043L21.8547 32.0366L21.8611 32.0324L21.8674 32.0281L21.8716 32.0217L21.8928 32.0154L21.914 32.0111L21.9182 31.9899L21.9246 31.9687L21.9309 31.9644L21.9352 31.958L21.7658 31.9474C21.6529 31.9404 21.5435 31.9333 21.4377 31.9262C21.3318 31.9191 21.166 31.8873 20.9401 31.8306C20.7143 31.774 20.4709 31.6891 20.2098 31.5759C19.9487 31.4626 19.6946 31.3281 19.4476 31.1725C19.2007 31.0168 19.0221 30.8872 18.912 30.7839C18.8034 30.682 18.6622 30.5376 18.4886 30.3508C18.3164 30.1625 18.1668 29.9693 18.0398 29.7711C17.9128 29.573 17.7914 29.3443 17.6757 29.0853L17.5 28.6989L17.4894 28.6671L17.4788 28.6352L17.4724 28.614L17.4682 28.5927L17.5 28.597L17.5317 28.6034L17.7646 28.6352C17.9199 28.6564 18.1633 28.6635 18.495 28.6564C18.8266 28.6494 19.056 28.6352 19.183 28.614C19.31 28.5927 19.3877 28.5786 19.4159 28.5715L19.4582 28.5609L19.5112 28.5503L19.5641 28.5397L19.5683 28.5333L19.5747 28.5291L19.581 28.5248L19.5852 28.5184L19.5429 28.5078L19.5006 28.4972L19.4582 28.4866L19.4159 28.476L19.3735 28.4654C19.3453 28.4583 19.2959 28.4441 19.2254 28.4229C19.1548 28.4017 18.9643 28.3238 18.6538 28.1893C18.3433 28.0549 18.0963 27.9239 17.9128 27.7965C17.7289 27.6688 17.5535 27.5291 17.3878 27.3783C17.2226 27.2254 17.0413 27.0286 16.8437 26.788C16.6461 26.5474 16.4697 26.2678 16.3144 25.9493C16.1592 25.6309 16.0427 25.3265 15.9651 25.0364C15.8878 24.7479 15.8368 24.453 15.8127 24.1552L15.7746 23.7094L15.7958 23.7136L15.8169 23.72L15.8381 23.7306L15.8593 23.7412L15.8804 23.7518L15.9016 23.7624L16.2297 23.9111C16.4485 24.0102 16.7202 24.0951 17.0448 24.1658C17.3694 24.2366 17.5635 24.2756 17.627 24.2826L17.7223 24.2932H17.9128L17.9086 24.2869L17.9022 24.2826L17.8959 24.2784L17.8916 24.272L17.8874 24.2656L17.881 24.2614L17.8747 24.2571L17.8704 24.2508L17.8493 24.2402L17.8281 24.2295L17.8239 24.2232L17.8175 24.2189L17.8112 24.2147L17.8069 24.2083L17.7858 24.1977L17.7646 24.1871L17.7604 24.1807C17.7561 24.1779 17.6955 24.1326 17.5783 24.0448C17.4626 23.9556 17.3412 23.8403 17.2142 23.6987C17.0871 23.5572 16.9601 23.4086 16.8331 23.2529C16.7058 23.0968 16.5925 22.9299 16.4944 22.7539C16.3956 22.577 16.2911 22.3519 16.1811 22.0787C16.0724 21.807 15.9898 21.5331 15.9334 21.257C15.8769 20.981 15.8452 20.7086 15.8381 20.4396C15.831 20.1707 15.8381 19.9407 15.8593 19.7496C15.8804 19.5585 15.9228 19.3426 15.9863 19.102C16.0498 18.8614 16.1415 18.6066 16.2615 18.3376L16.4414 17.9342L16.452 17.9024L16.4626 17.8705L16.469 17.8663L16.4732 17.8599L16.4774 17.8535L16.4838 17.8493L16.4902 17.8535L16.4944 17.8599L16.4986 17.8663L16.505 17.8705L16.5113 17.8748L16.5155 17.8811L16.5198 17.8875L16.5261 17.8917L16.5367 17.913L16.5473 17.9342L16.5537 17.9385L16.5579 17.9448L16.8437 18.2633C17.0342 18.4756 17.26 18.7127 17.5211 18.9746C17.7823 19.2364 17.9269 19.3723 17.9551 19.3822C17.9834 19.3936 18.0186 19.4261 18.061 19.4799C18.1033 19.5323 18.2445 19.6576 18.4844 19.8557C18.7243 20.0539 19.0384 20.2839 19.4265 20.5458C19.8146 20.8076 20.2451 21.066 20.7179 21.3207C21.1907 21.5755 21.6988 21.8055 22.2421 22.0108C22.7855 22.216 23.1666 22.3505 23.3853 22.4142C23.6041 22.4779 23.9781 22.5593 24.5074 22.6584C25.0366 22.7575 25.4353 22.8212 25.7035 22.8495C25.9716 22.8778 26.1551 22.894 26.2539 22.8983L26.4021 22.9025L26.3979 22.8707L26.3915 22.8388L26.3492 22.5734C26.321 22.3965 26.3068 22.1488 26.3068 21.8303C26.3068 21.5118 26.3315 21.2181 26.3809 20.9492C26.4303 20.6802 26.5044 20.4078 26.6032 20.1317C26.702 19.8557 26.7987 19.6342 26.8933 19.4672C26.9892 19.3016 27.1148 19.1126 27.2701 18.9003C27.4253 18.688 27.6265 18.4686 27.8734 18.2421C28.1204 18.0156 28.4027 17.8139 28.7203 17.637C29.0378 17.46 29.3307 17.3256 29.5988 17.2336C29.867 17.1416 30.0928 17.0814 30.2763 17.0531C30.4598 17.0248 30.5515 17.0085 30.5515 17.0042V17.0042Z" fill="white"/>
</svg>
