<svg width="100" height="97" viewBox="0 0 100 97" fill="none" xmlns="http://www.w3.org/2000/svg">
<path opacity="0.06" d="M70 0H30C16.7452 0 6 10.7452 6 24V64C6 77.2548 16.7452 88 30 88H70C83.2548 88 94 77.2548 94 64V24C94 10.7452 83.2548 0 70 0Z" fill="#1B76FF"/>
<g filter="url(#filter0_d)">
<path d="M76.3239 11.9082H23.6768C18.7062 11.9082 14.6768 15.9376 14.6768 20.9082V67.0927C14.6768 72.0633 18.7062 76.0927 23.6768 76.0927H76.3239C81.2944 76.0927 85.3239 72.0633 85.3239 67.0927V20.9082C85.3239 15.9376 81.2944 11.9082 76.3239 11.9082Z" fill="white" fill-opacity="0.01"/>
</g>
<path d="M76.3239 11.9082H23.6768C18.7062 11.9082 14.6768 15.9376 14.6768 20.9082V67.0927C14.6768 72.0633 18.7062 76.0927 23.6768 76.0927H76.3239C81.2944 76.0927 85.3239 72.0633 85.3239 67.0927V20.9082C85.3239 15.9376 81.2944 11.9082 76.3239 11.9082Z" fill="white"/>
<g filter="url(#filter1_d)">
<path d="M22.0913 66.0947C34.1328 66.0947 34.7538 54.146 43.7849 53.2925C52.816 52.439 55.8264 60.4418 65.4049 60.4418C74.9833 60.4418 71.8266 50.9648 77.72 50.9648" stroke="#782CE4" stroke-opacity="0.01" stroke-width="2.29693" stroke-linecap="round"/>
</g>
<path d="M22.0913 66.0947C34.1328 66.0947 34.7538 54.146 43.7849 53.2925C52.816 52.439 55.8264 60.4418 65.4049 60.4418C74.9833 60.4418 71.8266 50.9648 77.72 50.9648" stroke="#782CE4" stroke-width="2.29693" stroke-linecap="round"/>
<g filter="url(#filter2_d)">
<path d="M22.0908 66.0943C34.1209 66.0943 32.3422 58.498 44.5157 62.2961C56.6892 66.0943 55.0265 54.8469 62.1352 53.709C69.2439 52.5711 71.3776 60.3997 77.9394 59.5869" stroke="#1B76FF" stroke-opacity="0.01" stroke-width="2.29693" stroke-linecap="round"/>
</g>
<path d="M22.0908 66.0943C34.1209 66.0943 32.3422 58.498 44.5157 62.2961C56.6892 66.0943 55.0265 54.8469 62.1352 53.709C69.2439 52.5711 71.3776 60.3997 77.9394 59.5869" stroke="#1B76FF" stroke-width="2.29693" stroke-linecap="round"/>
<g filter="url(#filter3_d)">
<path d="M24.1783 34.7086C23.7981 33.419 23.6996 32.0627 23.8893 30.7317C24.0791 29.4007 24.5527 28.126 25.278 26.994C26.0034 25.8619 26.9637 24.8991 28.0937 24.1705C29.2237 23.442 30.497 22.9649 31.8275 22.7714C33.1581 22.578 34.5146 22.6728 35.8053 23.0494C37.0959 23.426 38.2906 24.0756 39.3083 24.9542C40.326 25.8328 41.1429 26.9199 41.7038 28.1418C42.2647 29.3637 42.5565 30.6919 42.5592 32.0364" stroke="#1B76FF" stroke-opacity="0.01" stroke-width="3.84653" stroke-linecap="round"/>
</g>
<path d="M24.1783 34.7086C23.7981 33.419 23.6996 32.0627 23.8893 30.7317C24.0791 29.4007 24.5527 28.126 25.278 26.994C26.0034 25.8619 26.9637 24.8991 28.0937 24.1705C29.2237 23.442 30.497 22.9649 31.8275 22.7714C33.1581 22.578 34.5146 22.6728 35.8053 23.0494C37.0959 23.426 38.2906 24.0756 39.3083 24.9542C40.326 25.8328 41.1429 26.9199 41.7038 28.1418C42.2647 29.3637 42.5565 30.6919 42.5592 32.0364" stroke="#1B76FF" stroke-width="3.84653" stroke-linecap="round"/>
<g filter="url(#filter4_d)">
<path d="M42.5592 32.0557C42.5592 34.3119 41.7462 36.4924 40.2692 38.1979C38.7922 39.9033 36.75 41.0194 34.517 41.3415C32.284 41.6637 30.0097 41.1704 28.1109 39.952C26.212 38.7337 24.8158 36.8718 24.178 34.7077" stroke="#782CE4" stroke-opacity="0.01" stroke-width="3.84653" stroke-linecap="round"/>
</g>
<path d="M42.5592 32.0557C42.5592 34.3119 41.7462 36.4924 40.2692 38.1979C38.7922 39.9033 36.75 41.0194 34.517 41.3415C32.284 41.6637 30.0097 41.1704 28.1109 39.952C26.212 38.7337 24.8158 36.8718 24.178 34.7077" stroke="#782CE4" stroke-width="3.84653" stroke-linecap="round"/>
<g filter="url(#filter5_d)">
<path d="M53.64 25.2793H51.8622C50.9138 25.2793 50.145 26.0481 50.145 26.9965V28.7743C50.145 29.7227 50.9138 30.4915 51.8622 30.4915H53.64C54.5884 30.4915 55.3572 29.7227 55.3572 28.7743V26.9965C55.3572 26.0481 54.5884 25.2793 53.64 25.2793Z" fill="#782CE4" fill-opacity="0.01"/>
</g>
<path d="M53.64 25.2793H51.8622C50.9138 25.2793 50.145 26.0481 50.145 26.9965V28.7743C50.145 29.7227 50.9138 30.4915 51.8622 30.4915H53.64C54.5884 30.4915 55.3572 29.7227 55.3572 28.7743V26.9965C55.3572 26.0481 54.5884 25.2793 53.64 25.2793Z" fill="#782CE4"/>
<g filter="url(#filter6_d)">
<path d="M53.64 33.6191H51.8622C50.9138 33.6191 50.145 34.388 50.145 35.3364V37.1141C50.145 38.0625 50.9138 38.8314 51.8622 38.8314H53.64C54.5884 38.8314 55.3572 38.0625 55.3572 37.1141V35.3364C55.3572 34.388 54.5884 33.6191 53.64 33.6191Z" fill="#1B76FF" fill-opacity="0.01"/>
</g>
<path d="M53.64 33.6191H51.8622C50.9138 33.6191 50.145 34.388 50.145 35.3364V37.1141C50.145 38.0625 50.9138 38.8314 51.8622 38.8314H53.64C54.5884 38.8314 55.3572 38.0625 55.3572 37.1141V35.3364C55.3572 34.388 54.5884 33.6191 53.64 33.6191Z" fill="#1B76FF"/>
<path opacity="0.5" d="M75.2284 26.9082H58.6145C58.0748 26.9082 57.6372 27.3458 57.6372 27.8855C57.6372 28.4252 58.0748 28.8628 58.6145 28.8628H75.2284C75.7682 28.8628 76.2057 28.4252 76.2057 27.8855C76.2057 27.3458 75.7682 26.9082 75.2284 26.9082Z" fill="#BEBFCC"/>
<path opacity="0.5" d="M70.869 35.248H58.6145C58.0748 35.248 57.6372 35.6856 57.6372 36.2253C57.6372 36.7651 58.0748 37.2026 58.6145 37.2026H70.869C71.4088 37.2026 71.8463 36.7651 71.8463 36.2253C71.8463 35.6856 71.4088 35.248 70.869 35.248Z" fill="#BEBFCC"/>
<defs>
<filter id="filter0_d" x="0.676758" y="3.9082" width="98.6471" height="92.1845" filterUnits="userSpaceOnUse" color-interpolation-filters="sRGB">
<feFlood flood-opacity="0" result="BackgroundImageFix"/>
<feColorMatrix in="SourceAlpha" type="matrix" values="0 0 0 0 0 0 0 0 0 0 0 0 0 0 0 0 0 0 127 0"/>
<feOffset dy="6"/>
<feGaussianBlur stdDeviation="7"/>
<feColorMatrix type="matrix" values="0 0 0 0 0.104167 0 0 0 0 0.4625 0 0 0 0 1 0 0 0 0.23 0"/>
<feBlend mode="normal" in2="BackgroundImageFix" result="effect1_dropShadow"/>
<feBlend mode="normal" in="SourceGraphic" in2="effect1_dropShadow" result="shape"/>
</filter>
<filter id="filter1_d" x="19.4449" y="49.2172" width="60.9215" height="20.4227" filterUnits="userSpaceOnUse" color-interpolation-filters="sRGB">
<feFlood flood-opacity="0" result="BackgroundImageFix"/>
<feColorMatrix in="SourceAlpha" type="matrix" values="0 0 0 0 0 0 0 0 0 0 0 0 0 0 0 0 0 0 127 0"/>
<feOffset dy="0.898773"/>
<feGaussianBlur stdDeviation="0.748978"/>
<feColorMatrix type="matrix" values="0 0 0 0 0.470588 0 0 0 0 0.172549 0 0 0 0 0.894118 0 0 0 0.24 0"/>
<feBlend mode="normal" in2="BackgroundImageFix" result="effect1_dropShadow"/>
<feBlend mode="normal" in="SourceGraphic" in2="effect1_dropShadow" result="shape"/>
</filter>
<filter id="filter2_d" x="19.4444" y="51.5485" width="61.1416" height="17.7914" filterUnits="userSpaceOnUse" color-interpolation-filters="sRGB">
<feFlood flood-opacity="0" result="BackgroundImageFix"/>
<feColorMatrix in="SourceAlpha" type="matrix" values="0 0 0 0 0 0 0 0 0 0 0 0 0 0 0 0 0 0 127 0"/>
<feOffset dy="0.599182"/>
<feGaussianBlur stdDeviation="0.748978"/>
<feColorMatrix type="matrix" values="0 0 0 0 0.104167 0 0 0 0 0.4625 0 0 0 0 1 0 0 0 0.15 0"/>
<feBlend mode="normal" in2="BackgroundImageFix" result="effect1_dropShadow"/>
<feBlend mode="normal" in="SourceGraphic" in2="effect1_dropShadow" result="shape"/>
</filter>
<filter id="filter3_d" x="20.7731" y="20.7505" width="24.8083" height="18.0798" filterUnits="userSpaceOnUse" color-interpolation-filters="sRGB">
<feFlood flood-opacity="0" result="BackgroundImageFix"/>
<feColorMatrix in="SourceAlpha" type="matrix" values="0 0 0 0 0 0 0 0 0 0 0 0 0 0 0 0 0 0 127 0"/>
<feOffset dy="1.09901"/>
<feGaussianBlur stdDeviation="0.549505"/>
<feColorMatrix type="matrix" values="0 0 0 0 0.104167 0 0 0 0 0.4625 0 0 0 0 1 0 0 0 0.15 0"/>
<feBlend mode="normal" in2="BackgroundImageFix" result="effect1_dropShadow"/>
<feBlend mode="normal" in="SourceGraphic" in2="effect1_dropShadow" result="shape"/>
</filter>
<filter id="filter4_d" x="21.1551" y="29.8576" width="24.4263" height="15.4265" filterUnits="userSpaceOnUse" color-interpolation-filters="sRGB">
<feFlood flood-opacity="0" result="BackgroundImageFix"/>
<feColorMatrix in="SourceAlpha" type="matrix" values="0 0 0 0 0 0 0 0 0 0 0 0 0 0 0 0 0 0 127 0"/>
<feOffset dy="0.824257"/>
<feGaussianBlur stdDeviation="0.549505"/>
<feColorMatrix type="matrix" values="0 0 0 0 0.470588 0 0 0 0 0.172549 0 0 0 0 0.894118 0 0 0 0.24 0"/>
<feBlend mode="normal" in2="BackgroundImageFix" result="effect1_dropShadow"/>
<feBlend mode="normal" in="SourceGraphic" in2="effect1_dropShadow" result="shape"/>
</filter>
<filter id="filter5_d" x="48.7712" y="24.9359" width="7.95977" height="7.95977" filterUnits="userSpaceOnUse" color-interpolation-filters="sRGB">
<feFlood flood-opacity="0" result="BackgroundImageFix"/>
<feColorMatrix in="SourceAlpha" type="matrix" values="0 0 0 0 0 0 0 0 0 0 0 0 0 0 0 0 0 0 127 0"/>
<feOffset dy="1.03033"/>
<feGaussianBlur stdDeviation="0.686887"/>
<feColorMatrix type="matrix" values="0 0 0 0 0.470588 0 0 0 0 0.172549 0 0 0 0 0.894118 0 0 0 0.29 0"/>
<feBlend mode="normal" in2="BackgroundImageFix" result="effect1_dropShadow"/>
<feBlend mode="normal" in="SourceGraphic" in2="effect1_dropShadow" result="shape"/>
</filter>
<filter id="filter6_d" x="48.7712" y="33.2757" width="7.95977" height="7.95977" filterUnits="userSpaceOnUse" color-interpolation-filters="sRGB">
<feFlood flood-opacity="0" result="BackgroundImageFix"/>
<feColorMatrix in="SourceAlpha" type="matrix" values="0 0 0 0 0 0 0 0 0 0 0 0 0 0 0 0 0 0 127 0"/>
<feOffset dy="1.03033"/>
<feGaussianBlur stdDeviation="0.686887"/>
<feColorMatrix type="matrix" values="0 0 0 0 0.104167 0 0 0 0 0.4625 0 0 0 0 1 0 0 0 0.18 0"/>
<feBlend mode="normal" in2="BackgroundImageFix" result="effect1_dropShadow"/>
<feBlend mode="normal" in="SourceGraphic" in2="effect1_dropShadow" result="shape"/>
</filter>
</defs>
</svg>
