<svg width="40" height="37" viewBox="0 0 40 37" fill="none" xmlns="http://www.w3.org/2000/svg">
<g filter="url(#filter0_d)">
<path d="M30.0759 11.9531H9.93262V24.2185H30.0759V11.9531Z" fill="white" fill-opacity="0.01"/>
<path d="M9.43 28.01H30.01C30.9197 28.01 31.7921 27.6486 32.4354 27.0054C33.0786 26.3621 33.44 25.4897 33.44 24.58V12.0033C33.44 11.0936 33.0786 10.2212 32.4354 9.57796C31.7921 8.93471 30.9197 8.57334 30.01 8.57334H25.551C25.4814 8.57332 25.4141 8.54786 25.3619 8.50175C25.3097 8.45565 25.2761 8.39206 25.2675 8.32295L25.1028 7.00468C24.9992 6.17566 24.5966 5.41295 23.9705 4.85972C23.3445 4.30649 22.538 4.00079 21.7025 4H17.7375C16.9014 3.99996 16.0941 4.30528 15.4673 4.85859C14.8405 5.41189 14.4374 6.17507 14.3338 7.00468L14.1691 8.32295C14.1606 8.39148 14.1275 8.4546 14.076 8.50063C14.0245 8.54666 13.9581 8.57249 13.889 8.57334H9.43C8.52031 8.57334 7.64787 8.93471 7.00462 9.57796C6.36137 10.2212 6 11.0936 6 12.0033V24.58C6 25.4897 6.36137 26.3621 7.00462 27.0054C7.64787 27.6486 8.52031 28.01 9.43 28.01ZM16.6021 7.28823C16.6367 7.01156 16.7712 6.75706 16.9803 6.57261C17.1894 6.38816 17.4586 6.28647 17.7375 6.28667H21.7025C21.9814 6.28647 22.2506 6.38816 22.4597 6.57261C22.6688 6.75706 22.8033 7.01156 22.8379 7.28823L22.9579 8.2532C22.9628 8.29332 22.9591 8.33402 22.947 8.3726C22.935 8.41118 22.9149 8.44677 22.8881 8.47702C22.8613 8.50727 22.8284 8.5315 22.7916 8.5481C22.7547 8.5647 22.7148 8.5733 22.6744 8.57334H16.7656C16.7252 8.5733 16.6853 8.5647 16.6484 8.5481C16.6116 8.5315 16.5787 8.50727 16.5519 8.47702C16.5251 8.44677 16.505 8.41118 16.493 8.3726C16.4809 8.33402 16.4772 8.29332 16.4821 8.2532L16.6021 7.28823ZM12.0025 14.8617C12.0025 14.6342 12.0928 14.4161 12.2537 14.2553C12.4145 14.0945 12.6326 14.0042 12.86 14.0042H26.58C26.8074 14.0042 27.0255 14.0945 27.1864 14.2553C27.3472 14.4161 27.4375 14.6342 27.4375 14.8617V15.4333C27.4375 15.6608 27.3472 15.8789 27.1864 16.0397C27.0255 16.2005 26.8074 16.2908 26.58 16.2908H12.86C12.6326 16.2908 12.4145 16.2005 12.2537 16.0397C12.0928 15.8789 12.0025 15.6608 12.0025 15.4333V14.8617ZM12.0025 21.15C12.0025 20.9226 12.0928 20.7045 12.2537 20.5437C12.4145 20.3829 12.6326 20.2925 12.86 20.2925H26.58C26.8074 20.2925 27.0255 20.3829 27.1864 20.5437C27.3472 20.7045 27.4375 20.9226 27.4375 21.15V21.7217C27.4375 21.9491 27.3472 22.1672 27.1864 22.328C27.0255 22.4888 26.8074 22.5792 26.58 22.5792H12.86C12.6326 22.5792 12.4145 22.4888 12.2537 22.328C12.0928 22.1672 12.0025 21.9491 12.0025 21.7217V21.15Z" fill="#0a76fa" fill-opacity="0.01"/>
</g>
<path d="M30.0759 11.9531H9.93262V24.2185H30.0759V11.9531Z" fill="white"/>
<path d="M9.43 28.01H30.01C30.9197 28.01 31.7921 27.6486 32.4354 27.0054C33.0786 26.3621 33.44 25.4897 33.44 24.58V12.0033C33.44 11.0936 33.0786 10.2212 32.4354 9.57796C31.7921 8.93471 30.9197 8.57334 30.01 8.57334H25.551C25.4814 8.57332 25.4141 8.54786 25.3619 8.50175C25.3097 8.45565 25.2761 8.39206 25.2675 8.32295L25.1028 7.00468C24.9992 6.17566 24.5966 5.41295 23.9705 4.85972C23.3445 4.30649 22.538 4.00079 21.7025 4H17.7375C16.9014 3.99996 16.0941 4.30528 15.4673 4.85859C14.8405 5.41189 14.4374 6.17507 14.3338 7.00468L14.1691 8.32295C14.1606 8.39148 14.1275 8.4546 14.076 8.50063C14.0245 8.54666 13.9581 8.57249 13.889 8.57334H9.43C8.52031 8.57334 7.64787 8.93471 7.00462 9.57796C6.36137 10.2212 6 11.0936 6 12.0033V24.58C6 25.4897 6.36137 26.3621 7.00462 27.0054C7.64787 27.6486 8.52031 28.01 9.43 28.01ZM16.6021 7.28823C16.6367 7.01156 16.7712 6.75706 16.9803 6.57261C17.1894 6.38816 17.4586 6.28647 17.7375 6.28667H21.7025C21.9814 6.28647 22.2506 6.38816 22.4597 6.57261C22.6688 6.75706 22.8033 7.01156 22.8379 7.28823L22.9579 8.2532C22.9628 8.29332 22.9591 8.33402 22.947 8.3726C22.935 8.41118 22.9149 8.44677 22.8881 8.47702C22.8613 8.50727 22.8284 8.5315 22.7916 8.5481C22.7547 8.5647 22.7148 8.5733 22.6744 8.57334H16.7656C16.7252 8.5733 16.6853 8.5647 16.6484 8.5481C16.6116 8.5315 16.5787 8.50727 16.5519 8.47702C16.5251 8.44677 16.505 8.41118 16.493 8.3726C16.4809 8.33402 16.4772 8.29332 16.4821 8.2532L16.6021 7.28823ZM12.0025 14.8617C12.0025 14.6342 12.0928 14.4161 12.2537 14.2553C12.4145 14.0945 12.6326 14.0042 12.86 14.0042H26.58C26.8074 14.0042 27.0255 14.0945 27.1864 14.2553C27.3472 14.4161 27.4375 14.6342 27.4375 14.8617V15.4333C27.4375 15.6608 27.3472 15.8789 27.1864 16.0397C27.0255 16.2005 26.8074 16.2908 26.58 16.2908H12.86C12.6326 16.2908 12.4145 16.2005 12.2537 16.0397C12.0928 15.8789 12.0025 15.6608 12.0025 15.4333V14.8617ZM12.0025 21.15C12.0025 20.9226 12.0928 20.7045 12.2537 20.5437C12.4145 20.3829 12.6326 20.2925 12.86 20.2925H26.58C26.8074 20.2925 27.0255 20.3829 27.1864 20.5437C27.3472 20.7045 27.4375 20.9226 27.4375 21.15V21.7217C27.4375 21.9491 27.3472 22.1672 27.1864 22.328C27.0255 22.4888 26.8074 22.5792 26.58 22.5792H12.86C12.6326 22.5792 12.4145 22.4888 12.2537 22.328C12.0928 22.1672 12.0025 21.9491 12.0025 21.7217V21.15Z" fill="#0a76fa"/>
<defs>
<filter id="filter0_d" x="0" y="0" width="39.44" height="36.01" filterUnits="userSpaceOnUse" color-interpolation-filters="sRGB">
<feFlood flood-opacity="0" result="BackgroundImageFix"/>
<feColorMatrix in="SourceAlpha" type="matrix" values="0 0 0 0 0 0 0 0 0 0 0 0 0 0 0 0 0 0 127 0"/>
<feOffset dy="2"/>
<feGaussianBlur stdDeviation="3"/>
<feColorMatrix type="matrix" values="0 0 0 0 0.956863 0 0 0 0 0.14902 0 0 0 0 0.243137 0 0 0 0.2 0"/>
<feBlend mode="normal" in2="BackgroundImageFix" result="effect1_dropShadow"/>
<feBlend mode="normal" in="SourceGraphic" in2="effect1_dropShadow" result="shape"/>
</filter>
</defs>
</svg>
