<svg width="41" height="40" viewBox="0 0 41 40" fill="none" xmlns="http://www.w3.org/2000/svg">
<path d="M25.4722 27.3945V36.4152V39.2823C27.6789 38.676 29.7422 37.7012 31.5851 36.4152C32.8895 35.5051 34.0834 34.439 35.1397 33.2375L25.4722 27.3945Z" fill="#0233AD"/>
<path d="M8.6794 3.58521C7.29753 4.54861 6.04065 5.68469 4.94092 6.96724L14.5986 12.7728V3.58521V0.771484C12.4621 1.38236 10.4661 2.33941 8.6794 3.58521Z" fill="#0233AD"/>
<path d="M1.43351 12.8652C1.37514 13.0185 1.31839 13.1725 1.26353 13.3276C1.13017 13.7045 1.00842 14.0845 0.898438 14.4676H4.08482L1.43351 12.8652Z" fill="#0233AD"/>
<path d="M35.2295 6.89285C34.1387 5.63935 32.8986 4.52934 31.542 3.58635C29.7049 2.3092 27.6545 1.33796 25.4722 0.730469V3.58635V12.8158L35.2295 6.89285Z" fill="#0233AD"/>
<path d="M38.7524 27.2936C38.8354 27.0816 38.9148 26.8677 38.9909 26.6518C39.1328 26.2493 39.2616 25.8431 39.3768 25.4336H35.6582L38.7524 27.2936Z" fill="#0233AD"/>
<path d="M4.78174 32.846C5.91863 34.2051 7.22956 35.4048 8.6779 36.4147C10.4647 37.6605 12.461 38.6175 14.598 39.2284V36.4147V27.0078L4.78174 32.846Z" fill="#0233AD"/>
<path d="M0.870117 25.4337C0.985509 25.8433 1.11414 26.2494 1.25602 26.652C1.33952 26.8887 1.42721 27.1234 1.51882 27.3555L4.68494 25.4336H0.870117V25.4337Z" fill="#0233AD"/>
<path d="M39.3485 14.4673C39.2385 14.0841 39.1168 13.7042 38.9834 13.3273C38.9033 13.1009 38.8194 12.8766 38.7315 12.6543L35.6831 14.4673H39.3485Z" fill="#0233AD"/>
<path d="M25.4722 25.4337V27.3942L35.1397 33.2371C35.9389 32.328 36.6592 31.3415 37.2889 30.2861L28.9915 25.4336H25.4722V25.4337Z" fill="white"/>
<path d="M6.12277 14.4669L1.8503 11.8555C1.70275 12.1868 1.56385 12.5231 1.43359 12.8644L4.0849 14.4668H6.12277V14.4669Z" fill="white"/>
<path d="M33.1274 25.4336L38.2825 28.3991C38.4492 28.0371 38.6061 27.6686 38.7525 27.2936L35.6582 25.4336H33.1274V25.4336Z" fill="white"/>
<path d="M14.5985 14.4684V12.7743L4.94083 6.96875C4.2097 7.82108 3.54802 8.73814 2.96484 9.71194L10.9374 14.4684H14.5985V14.4684Z" fill="white"/>
<path d="M23.2603 14.1579L25.4719 12.8153V3.58603V0.730152C24.7483 0.528824 24.01 0.367357 23.2603 0.248047V14.1579Z" fill="white"/>
<path d="M16.9019 25.6367L14.5981 27.0068V36.4137V39.2274C15.3497 39.4424 16.1185 39.6144 16.9018 39.7411V25.6367H16.9019Z" fill="white"/>
<path d="M25.4719 25.4336H23.2603V39.757C24.0111 39.6396 24.7491 39.4804 25.4719 39.2818V36.4147V27.394V25.4336Z" fill="white"/>
<path d="M14.5981 14.4669H16.9019V0.257812C16.1186 0.384554 15.3497 0.556561 14.5983 0.771535V3.58526V12.7728V14.4669H14.5981Z" fill="white"/>
<path d="M10.9371 14.4674L2.96443 9.71094C2.55258 10.3986 2.18006 11.1144 1.8501 11.856L6.1227 14.4674H10.9371Z" fill="#FF0000"/>
<path d="M4.68516 25.4336L1.51904 27.3555C1.92643 28.3868 2.41421 29.3725 2.97414 30.3059L11.3448 25.4336H4.68516V25.4336Z" fill="white"/>
<path d="M35.6829 14.4683L38.7313 12.6553C38.339 11.6609 37.8712 10.7102 37.3362 9.80859L29.5796 14.4683H35.6829V14.4683Z" fill="white"/>
<path d="M16.9023 25.6378V25.4336H14.5985L4.08447 31.9627C4.30877 32.2641 4.54145 32.5586 4.78196 32.8461L14.5984 27.0079L16.9023 25.6378Z" fill="white"/>
<path d="M23.2603 14.1579V14.4678H25.4717L36.0651 7.92029V7.92016C35.7974 7.56777 35.5185 7.22511 35.2292 6.89258L25.4719 12.8155L23.2603 14.1579Z" fill="white"/>
<path d="M25.4717 14.4674H29.5794L37.3361 9.80767C36.9471 9.15167 36.5224 8.52174 36.065 7.91992L25.4717 14.4674Z" fill="#FF0000"/>
<path d="M16.9021 16.7188V14.4668H14.5984H10.9373H6.12287H4.085H0.898621C0.685808 15.2072 0.516504 15.9588 0.391113 16.7188H16.9021Z" fill="white"/>
<path d="M23.2603 23.2617V25.4327H25.4719H28.9912H33.1273H35.6581H39.3767C39.5779 24.7184 39.7388 23.9941 39.8591 23.2617H23.2603Z" fill="white"/>
<path d="M11.3449 25.4327H14.5984H16.9022V23.2617H0.388184C0.508305 23.9941 0.669231 24.7184 0.870424 25.4327H4.68524H11.3449Z" fill="white"/>
<path d="M29.5796 14.4668H25.4719H23.2603V16.7188H39.8561C39.7307 15.9586 39.5613 15.2072 39.3485 14.4668H35.683H29.5796Z" fill="white"/>
<path d="M14.5983 25.4336H11.3448L2.97412 30.3059C3.31759 30.8784 3.68823 31.4311 4.08426 31.9627L14.5983 25.4336Z" fill="#FF0000"/>
<path d="M16.9023 14.4675V16.7195H23.2606V14.4675V14.1577V0.247809C22.234 0.0843144 21.1859 0 20.1239 0C19.0622 0 17.9967 0.083909 16.9567 0.24943C16.9386 0.252267 16.9204 0.25524 16.9023 0.258213V14.4675Z" fill="#FF0000"/>
<path d="M23.2606 25.4327V23.2617H16.9023V25.4327V25.6368V39.7414C16.9204 39.7445 16.9386 39.7473 16.9567 39.7502C17.6636 39.8627 18.3868 39.9381 19.1059 39.9742C19.4441 39.9911 19.7866 39.9996 20.1239 39.9996C20.4611 39.9996 20.8035 39.9911 21.1418 39.9742C21.8574 39.9383 22.5645 39.865 23.2606 39.7561V25.4327V25.4327Z" fill="#FF0000"/>
<path d="M16.9021 23.2614H23.2604H39.8592C40.0352 22.1889 40.1238 21.099 40.1238 19.9993C40.1238 18.8931 40.0342 17.7973 39.8563 16.7188H23.2604H16.9021H0.391071C0.213119 17.7973 0.123535 18.8931 0.123535 19.9993C0.123535 21.0992 0.212038 22.1889 0.388098 23.2614H16.9021V23.2614Z" fill="#FF0000"/>
<path d="M28.9912 25.4336L37.2886 30.2861C37.6506 29.6793 37.9826 29.0497 38.2824 28.3991L33.1273 25.4336H28.9912V25.4336Z" fill="#FF0000"/>
</svg>
