<svg width="88" height="100" viewBox="0 0 88 100" fill="none" xmlns="http://www.w3.org/2000/svg">
<path opacity="0.06" d="M64 1H24C10.7452 1 0 11.7452 0 25V65C0 78.2548 10.7452 89 24 89H64C77.2548 89 88 78.2548 88 65V25C88 11.7452 77.2548 1 64 1Z" fill="#F4263E"/>
<g filter="url(#filter0_d)">
<path d="M63.2854 10.416H24.7139C20.2956 10.416 16.7139 13.9977 16.7139 18.416V73.5858C16.7139 78.0041 20.2956 81.5858 24.7139 81.5858H63.2854C67.7036 81.5858 71.2854 78.0041 71.2854 73.5858V18.416C71.2854 13.9977 67.7036 10.416 63.2854 10.416Z" fill="white" fill-opacity="0.01"/>
</g>
<path d="M63.2854 10.416H24.7139C20.2956 10.416 16.7139 13.9977 16.7139 18.416V73.5858C16.7139 78.0041 20.2956 81.5858 24.7139 81.5858H63.2854C67.7036 81.5858 71.2854 78.0041 71.2854 73.5858V18.416C71.2854 13.9977 67.7036 10.416 63.2854 10.416Z" fill="white"/>
<path opacity="0.8" d="M55.3178 19.25H32.6816C31.583 19.25 30.6924 20.1406 30.6924 21.2393V21.2393C30.6924 22.3379 31.583 23.2285 32.6816 23.2285H55.3178C56.4165 23.2285 57.3071 22.3379 57.3071 21.2393C57.3071 20.1406 56.4165 19.25 55.3178 19.25Z" fill="#62668A"/>
<g filter="url(#filter1_d)">
<path d="M27.4939 29.7031H24.5718C23.4672 29.7031 22.5718 30.5986 22.5718 31.7031V34.6252C22.5718 35.7298 23.4672 36.6252 24.5718 36.6252H27.4939C28.5984 36.6252 29.4939 35.7298 29.4939 34.6252V31.7031C29.4939 30.5986 28.5984 29.7031 27.4939 29.7031Z" fill="#F4263E" fill-opacity="0.01"/>
</g>
<path d="M27.4939 29.7031H24.5718C23.4672 29.7031 22.5718 30.5986 22.5718 31.7031V34.6252C22.5718 35.7298 23.4672 36.6252 24.5718 36.6252H27.4939C28.5984 36.6252 29.4939 35.7298 29.4939 34.6252V31.7031C29.4939 30.5986 28.5984 29.7031 27.4939 29.7031Z" fill="#F4263E"/>
<g filter="url(#filter2_d)">
<path d="M27.4939 41.0781H24.5718C23.4672 41.0781 22.5718 41.9736 22.5718 43.0781V46.0002C22.5718 47.1048 23.4672 48.0002 24.5718 48.0002H27.4939C28.5984 48.0002 29.4939 47.1048 29.4939 46.0002V43.0781C29.4939 41.9736 28.5984 41.0781 27.4939 41.0781Z" fill="#F4263E" fill-opacity="0.01"/>
</g>
<path d="M27.4939 41.0781H24.5718C23.4672 41.0781 22.5718 41.9736 22.5718 43.0781V46.0002C22.5718 47.1048 23.4672 48.0002 24.5718 48.0002H27.4939C28.5984 48.0002 29.4939 47.1048 29.4939 46.0002V43.0781C29.4939 41.9736 28.5984 41.0781 27.4939 41.0781Z" fill="#F4263E"/>
<g filter="url(#filter3_d)">
<path d="M27.4939 52.4531H24.5718C23.4672 52.4531 22.5718 53.3486 22.5718 54.4531V57.3752C22.5718 58.4798 23.4672 59.3752 24.5718 59.3752H27.4939C28.5984 59.3752 29.4939 58.4798 29.4939 57.3752V54.4531C29.4939 53.3486 28.5984 52.4531 27.4939 52.4531Z" fill="#F4263E" fill-opacity="0.01"/>
</g>
<path d="M27.4939 52.4531H24.5718C23.4672 52.4531 22.5718 53.3486 22.5718 54.4531V57.3752C22.5718 58.4798 23.4672 59.3752 24.5718 59.3752H27.4939C28.5984 59.3752 29.4939 58.4798 29.4939 57.3752V54.4531C29.4939 53.3486 28.5984 52.4531 27.4939 52.4531Z" fill="#F4263E"/>
<g filter="url(#filter4_d)">
<path d="M27.4939 63.8281H24.5718C23.4672 63.8281 22.5718 64.7236 22.5718 65.8281V68.7502C22.5718 69.8548 23.4672 70.7502 24.5718 70.7502H27.4939C28.5984 70.7502 29.4939 69.8548 29.4939 68.7502V65.8281C29.4939 64.7236 28.5984 63.8281 27.4939 63.8281Z" fill="#F4263E" fill-opacity="0.01"/>
</g>
<path d="M27.4939 63.8281H24.5718C23.4672 63.8281 22.5718 64.7236 22.5718 65.8281V68.7502C22.5718 69.8548 23.4672 70.7502 24.5718 70.7502H27.4939C28.5984 70.7502 29.4939 69.8548 29.4939 68.7502V65.8281C29.4939 64.7236 28.5984 63.8281 27.4939 63.8281Z" fill="#F4263E"/>
<path opacity="0.5" d="M51.447 31.6641H34.9937C34.1652 31.6641 33.4937 32.3356 33.4937 33.1641C33.4937 33.9925 34.1652 34.6641 34.9937 34.6641H51.447C52.2754 34.6641 52.947 33.9925 52.947 33.1641C52.947 32.3356 52.2754 31.6641 51.447 31.6641Z" fill="#BEBFCC"/>
<path opacity="0.5" d="M64.961 43.0391H34.9937C34.1652 43.0391 33.4937 43.7106 33.4937 44.5391C33.4937 45.3675 34.1652 46.0391 34.9937 46.0391H64.961C65.7894 46.0391 66.461 45.3675 66.461 44.5391C66.461 43.7106 65.7894 43.0391 64.961 43.0391Z" fill="#BEBFCC"/>
<path opacity="0.5" d="M56.7408 54.4141H34.9937C34.1652 54.4141 33.4937 55.0856 33.4937 55.9141C33.4937 56.7425 34.1652 57.4141 34.9937 57.4141H56.7408C57.5692 57.4141 58.2408 56.7425 58.2408 55.9141C58.2408 55.0856 57.5692 54.4141 56.7408 54.4141Z" fill="#BEBFCC"/>
<path opacity="0.5" d="M63.3784 65.7891H34.9937C34.1652 65.7891 33.4937 66.4606 33.4937 67.2891C33.4937 68.1175 34.1652 68.7891 34.9937 68.7891H63.3784C64.2068 68.7891 64.8784 68.1175 64.8784 67.2891C64.8784 66.4606 64.2068 65.7891 63.3784 65.7891Z" fill="#BEBFCC"/>
<defs>
<filter id="filter0_d" x="2.71387" y="0.416016" width="82.5715" height="99.1698" filterUnits="userSpaceOnUse" color-interpolation-filters="sRGB">
<feFlood flood-opacity="0" result="BackgroundImageFix"/>
<feColorMatrix in="SourceAlpha" type="matrix" values="0 0 0 0 0 0 0 0 0 0 0 0 0 0 0 0 0 0 127 0"/>
<feOffset dy="4"/>
<feGaussianBlur stdDeviation="7"/>
<feColorMatrix type="matrix" values="0 0 0 0 0.956863 0 0 0 0 0.14902 0 0 0 0 0.243137 0 0 0 0.19 0"/>
<feBlend mode="normal" in2="BackgroundImageFix" result="effect1_dropShadow"/>
<feBlend mode="normal" in="SourceGraphic" in2="effect1_dropShadow" result="shape"/>
</filter>
<filter id="filter1_d" x="16.5718" y="27.7031" width="18.9221" height="18.9221" filterUnits="userSpaceOnUse" color-interpolation-filters="sRGB">
<feFlood flood-opacity="0" result="BackgroundImageFix"/>
<feColorMatrix in="SourceAlpha" type="matrix" values="0 0 0 0 0 0 0 0 0 0 0 0 0 0 0 0 0 0 127 0"/>
<feOffset dy="4"/>
<feGaussianBlur stdDeviation="3"/>
<feColorMatrix type="matrix" values="0 0 0 0 0.956863 0 0 0 0 0.14902 0 0 0 0 0.243137 0 0 0 0.12 0"/>
<feBlend mode="normal" in2="BackgroundImageFix" result="effect1_dropShadow"/>
<feBlend mode="normal" in="SourceGraphic" in2="effect1_dropShadow" result="shape"/>
</filter>
<filter id="filter2_d" x="19.5718" y="40.0781" width="12.9221" height="12.9221" filterUnits="userSpaceOnUse" color-interpolation-filters="sRGB">
<feFlood flood-opacity="0" result="BackgroundImageFix"/>
<feColorMatrix in="SourceAlpha" type="matrix" values="0 0 0 0 0 0 0 0 0 0 0 0 0 0 0 0 0 0 127 0"/>
<feOffset dy="2"/>
<feGaussianBlur stdDeviation="1.5"/>
<feColorMatrix type="matrix" values="0 0 0 0 0.956863 0 0 0 0 0.14902 0 0 0 0 0.243137 0 0 0 0.17 0"/>
<feBlend mode="normal" in2="BackgroundImageFix" result="effect1_dropShadow"/>
<feBlend mode="normal" in="SourceGraphic" in2="effect1_dropShadow" result="shape"/>
</filter>
<filter id="filter3_d" x="16.5718" y="50.4531" width="18.9221" height="18.9221" filterUnits="userSpaceOnUse" color-interpolation-filters="sRGB">
<feFlood flood-opacity="0" result="BackgroundImageFix"/>
<feColorMatrix in="SourceAlpha" type="matrix" values="0 0 0 0 0 0 0 0 0 0 0 0 0 0 0 0 0 0 127 0"/>
<feOffset dy="4"/>
<feGaussianBlur stdDeviation="3"/>
<feColorMatrix type="matrix" values="0 0 0 0 0.956863 0 0 0 0 0.14902 0 0 0 0 0.243137 0 0 0 0.12 0"/>
<feBlend mode="normal" in2="BackgroundImageFix" result="effect1_dropShadow"/>
<feBlend mode="normal" in="SourceGraphic" in2="effect1_dropShadow" result="shape"/>
</filter>
<filter id="filter4_d" x="16.5718" y="61.8281" width="18.9221" height="18.9221" filterUnits="userSpaceOnUse" color-interpolation-filters="sRGB">
<feFlood flood-opacity="0" result="BackgroundImageFix"/>
<feColorMatrix in="SourceAlpha" type="matrix" values="0 0 0 0 0 0 0 0 0 0 0 0 0 0 0 0 0 0 127 0"/>
<feOffset dy="4"/>
<feGaussianBlur stdDeviation="3"/>
<feColorMatrix type="matrix" values="0 0 0 0 0.956863 0 0 0 0 0.14902 0 0 0 0 0.243137 0 0 0 0.12 0"/>
<feBlend mode="normal" in2="BackgroundImageFix" result="effect1_dropShadow"/>
<feBlend mode="normal" in="SourceGraphic" in2="effect1_dropShadow" result="shape"/>
</filter>
</defs>
</svg>
