<svg width="41" height="40" viewBox="0 0 41 40" fill="none" xmlns="http://www.w3.org/2000/svg">
<mask id="mask0" mask-type="alpha" maskUnits="userSpaceOnUse" x="0" y="0" width="41" height="40">
<circle cx="20.124" cy="20" r="20" fill="#C4C4C4"/>
</mask>
<g mask="url(#mask0)">
<path d="M40.1728 0H0.0302734V39.9644H40.1728V0Z" fill="white"/>
<path d="M25.2949 24.8935L30.3316 20.6428L29.392 20.1971C29.392 20.1971 29.0221 20.0836 29.1227 19.5661C29.2232 19.0475 29.9521 16.4723 29.9521 16.4723L27.2746 17.0411C27.2746 17.0411 26.7049 17.1714 26.566 16.7615L26.1854 15.4852L23.7772 18.1489C23.7772 18.1489 23.1273 18.5384 23.1273 17.739L24.1267 12.3424L22.6461 13.1C22.6461 13.1 22.2176 13.4191 21.8477 12.7606L20.1242 9.58789L18.4006 12.7606C18.0307 13.4191 17.601 13.1 17.601 13.1L16.1216 12.3424L17.1211 17.739C17.1211 18.5373 16.4723 18.1489 16.4723 18.1489L14.0641 15.4852L13.6847 16.7615C13.5447 17.1702 12.9749 17.0411 12.9749 17.0411L10.2974 16.4723C10.2974 16.4723 11.0263 19.0475 11.1269 19.5661C11.2274 20.0848 10.8576 20.1971 10.8576 20.1971L9.91797 20.6428L14.9546 24.8935C15.194 25.1827 14.6554 26.7099 14.6554 26.7099C14.6554 26.7099 19.4323 26.0012 19.6717 26.0909C19.9111 26.1805 19.9291 26.4601 19.9291 26.4601L19.7316 31.6285H20.1254H20.5192L20.3229 26.4601C20.3229 26.4601 20.3396 26.1817 20.579 26.0909C20.8184 26.0012 25.5953 26.7099 25.5953 26.7099C25.5953 26.7099 25.0543 25.1827 25.2949 24.8935Z" fill="#FF0000"/>
<path d="M7.0332 0H-12.9028V39.9644H7.0332V0Z" fill="#FF0000"/>
<path d="M53.1507 0H33.1704V39.9644H53.1507V0Z" fill="#FF0000"/>
</g>
</svg>
