<svg width="26" height="21" viewBox="0 0 26 21" fill="none" xmlns="http://www.w3.org/2000/svg">
<path d="M16.7606 0.481075V0.476562H17.9304L18.3578 0.562298C18.6428 0.617959 18.9015 0.690901 19.134 0.781149C19.3664 0.871397 19.5914 0.976694 19.8089 1.09702C20.0263 1.21734 20.2236 1.33994 20.4005 1.46478C20.576 1.58812 20.7335 1.71898 20.873 1.85736C21.0109 1.99724 21.2261 2.03334 21.5186 1.96565C21.811 1.89797 22.126 1.80395 22.4634 1.68363C22.8009 1.56331 23.1346 1.42793 23.4645 1.27751C23.7945 1.12709 23.9955 1.03159 24.0674 0.990976C24.1379 0.948875 24.1754 0.926313 24.1799 0.92329L24.1844 0.916521L24.2069 0.90524L24.2294 0.893959L24.2519 0.882678L24.2744 0.871397L24.2789 0.864629L24.2856 0.860116L24.2924 0.855604L24.2969 0.848835L24.3194 0.842067L24.3419 0.837554L24.3374 0.871397L24.3306 0.90524L24.3194 0.939083L24.3081 0.972926L24.2969 0.995488L24.2856 1.01805L24.2744 1.05189C24.2669 1.07446 24.2594 1.10453 24.2519 1.14214C24.2444 1.17975 24.1732 1.33015 24.0382 1.59338C23.9032 1.85661 23.7345 2.12359 23.532 2.39433C23.3295 2.66508 23.1481 2.86962 22.9876 3.00802C22.8256 3.1479 22.7184 3.24566 22.6659 3.30132C22.6134 3.35847 22.5497 3.41111 22.4747 3.45926L22.3622 3.53371L22.3397 3.54499L22.3172 3.55628L22.3127 3.56304L22.306 3.56756L22.2992 3.57207L22.2947 3.57884L22.2722 3.59012L22.2497 3.6014L22.2452 3.60817L22.2385 3.61268L22.2317 3.61719L22.2272 3.62396L22.2227 3.63073L22.216 3.63524L22.2092 3.63975L22.2047 3.64652H22.3172L22.9471 3.51115C23.367 3.4209 23.7682 3.31186 24.1507 3.184L24.7581 2.98094L24.8255 2.95838L24.8593 2.9471L24.8818 2.93582L24.9043 2.92454L24.9268 2.91326L24.9493 2.90198L24.9943 2.89521L25.0393 2.8907V2.93582L25.028 2.94033L25.0168 2.9471L25.0123 2.95387L25.0055 2.95838L24.9988 2.96289L24.9943 2.96966L24.9898 2.97643L24.983 2.98094L24.9763 2.98546L24.9718 2.99223L24.9673 2.99899L24.9605 3.00351L24.9493 3.02607L24.938 3.04863L24.9313 3.05314C24.9283 3.05766 24.8331 3.18549 24.6456 3.4367C24.4581 3.68939 24.3569 3.81723 24.3419 3.82025C24.3269 3.82476 24.3059 3.84733 24.2789 3.88794C24.2534 3.93004 24.0944 4.09776 23.802 4.39107C23.5095 4.68438 23.2231 4.94533 22.9426 5.17397C22.6607 5.4041 22.5182 5.68687 22.5152 6.0223C22.5107 6.35622 22.4934 6.73377 22.4634 7.15491C22.4334 7.57608 22.3772 8.03106 22.2947 8.51992C22.2122 9.00877 22.0848 9.56153 21.9123 10.1782C21.7398 10.7949 21.5298 11.3966 21.2824 11.9832C21.0349 12.5698 20.7762 13.0962 20.5062 13.5625C20.2363 14.0288 19.9888 14.4236 19.7639 14.747C19.5389 15.0704 19.3102 15.375 19.0777 15.6608C18.8453 15.9466 18.5513 16.2685 18.1959 16.6264C17.8389 16.9829 17.644 17.1785 17.611 17.2131C17.5765 17.2462 17.4295 17.3695 17.17 17.5831C16.9121 17.7982 16.6346 18.0132 16.3377 18.2283C16.0422 18.4419 15.7708 18.6202 15.5233 18.7631C15.2759 18.9059 14.9774 19.0691 14.628 19.2527C14.28 19.4377 13.9036 19.6091 13.4986 19.7671C13.0937 19.925 12.6663 20.0717 12.2163 20.207C11.7664 20.3424 11.3315 20.4477 10.9116 20.5229C10.4916 20.5981 10.0155 20.662 9.48304 20.7147L8.68442 20.7936V20.8049H7.22216V20.7936L7.03094 20.7824C6.90348 20.7748 6.79849 20.7673 6.71599 20.7598C6.63352 20.7523 6.32231 20.7109 5.78239 20.6357C5.24248 20.5605 4.81881 20.4853 4.51135 20.4101C4.20392 20.3349 3.74648 20.192 3.13907 19.9814C2.53167 19.7708 2.01201 19.558 1.58008 19.3429C1.14966 19.1293 0.8797 18.9939 0.77021 18.9368C0.662227 18.8811 0.540747 18.812 0.405769 18.7292L0.203302 18.6051L0.198825 18.5984L0.192054 18.5938L0.185305 18.5893L0.180806 18.5826L0.158309 18.5713L0.135813 18.56L0.131336 18.5532L0.124565 18.5487L0.117816 18.5442L0.113317 18.5374L0.10884 18.5307L0.102068 18.5262H0.0908203V18.481L0.113317 18.4856L0.135813 18.4923L0.237047 18.5036C0.304536 18.5111 0.488263 18.5224 0.788207 18.5374C1.08817 18.5525 1.40686 18.5525 1.7443 18.5374C2.08175 18.5224 2.42671 18.4886 2.77913 18.4359C3.13158 18.3833 3.54777 18.293 4.02768 18.1652C4.50762 18.0373 4.94855 17.8854 5.35049 17.7094C5.75092 17.5319 6.03586 17.3996 6.20535 17.3123C6.37331 17.2266 6.62976 17.0671 6.9747 16.834L7.49212 16.4843L7.49662 16.4775L7.50336 16.473L7.51014 16.4685L7.51461 16.4617L7.51911 16.455L7.52586 16.4505L7.53263 16.4459L7.53711 16.4392L7.55961 16.4324L7.5821 16.4279L7.5866 16.4053L7.59335 16.3828L7.60012 16.3783L7.6046 16.3715L7.42463 16.3602C7.30465 16.3527 7.18842 16.3452 7.07593 16.3376C6.96345 16.3301 6.78724 16.2963 6.54727 16.2361C6.30732 16.1759 6.04862 16.0857 5.77115 15.9654C5.4937 15.8451 5.22374 15.7021 4.96128 15.5367C4.69884 15.3712 4.5091 15.2336 4.39212 15.1238C4.27665 15.0155 4.12666 14.8621 3.94219 14.6635C3.75923 14.4635 3.60025 14.2582 3.46527 14.0476C3.33029 13.837 3.20132 13.5941 3.07836 13.3189L2.89161 12.9082L2.88037 12.8744L2.86912 12.8405L2.86237 12.818L2.85787 12.7954L2.89161 12.7999L2.92536 12.8067L3.17282 12.8405C3.33781 12.8631 3.59652 12.8706 3.94894 12.8631C4.30139 12.8556 4.5451 12.8405 4.68007 12.818C4.81505 12.7954 4.89755 12.7804 4.92753 12.7729L4.97253 12.7616L5.02877 12.7503L5.08501 12.739L5.08951 12.7322L5.09626 12.7277L5.10303 12.7232L5.1075 12.7164L5.06251 12.7052L5.01752 12.6939L4.97253 12.6826L4.92753 12.6713L4.88254 12.66C4.85255 12.6525 4.80007 12.6375 4.72507 12.6149C4.65009 12.5924 4.44762 12.5096 4.11767 12.3667C3.78773 12.2239 3.52527 12.0847 3.33029 11.9493C3.13483 11.8136 2.94846 11.6651 2.77238 11.5049C2.59691 11.3424 2.40421 11.1333 2.19423 10.8776C1.98427 10.6219 1.79681 10.3249 1.63182 9.98645C1.46685 9.64802 1.34312 9.32463 1.26063 9.01628C1.17847 8.70974 1.12426 8.39634 1.09868 8.07996L1.05816 7.60615L1.08066 7.61067L1.10316 7.61744L1.12565 7.62872L1.14815 7.64L1.17064 7.65128L1.19314 7.66256L1.54183 7.82049C1.77431 7.92579 2.06301 8.01604 2.40794 8.09124C2.7529 8.16644 2.9591 8.20782 3.02659 8.21533L3.12783 8.22661H3.33029L3.32582 8.21984L3.31905 8.21533L3.3123 8.21082L3.3078 8.20405L3.30332 8.19728L3.29655 8.19277L3.2898 8.18825L3.2853 8.18149L3.2628 8.1702L3.24031 8.15892L3.23583 8.15215L3.22906 8.14764L3.22231 8.14313L3.21781 8.13636L3.19532 8.12508L3.17282 8.1138L3.16834 8.10703C3.16384 8.10401 3.09935 8.05588 2.97485 7.96263C2.85186 7.86787 2.72289 7.74529 2.58791 7.59487C2.45294 7.44445 2.31796 7.28652 2.18298 7.12107C2.04775 6.95524 1.92731 6.77783 1.82304 6.59086C1.71807 6.40286 1.60707 6.16368 1.49009 5.87339C1.37462 5.5846 1.28688 5.29355 1.22689 5.00024C1.16691 4.70694 1.13317 4.4174 1.12565 4.13161C1.11816 3.84581 1.12565 3.6014 1.14815 3.39834C1.17064 3.19528 1.21564 2.9659 1.28313 2.7102C1.35062 2.45451 1.44811 2.18376 1.57558 1.89797L1.7668 1.46929L1.77805 1.43545L1.78929 1.4016L1.79607 1.39709L1.80054 1.39032L1.80504 1.38355L1.81179 1.37904L1.81856 1.38355L1.82304 1.39032L1.82754 1.39709L1.83429 1.4016L1.84106 1.40612L1.84553 1.41289L1.85003 1.41965L1.85678 1.42417L1.86803 1.44673L1.87928 1.46929L1.88605 1.4738L1.89053 1.48057L2.19423 1.819C2.3967 2.04462 2.63666 2.29657 2.91411 2.57483C3.19158 2.85309 3.3453 2.99748 3.37529 3.00802C3.4053 3.02004 3.44278 3.05463 3.48777 3.1118C3.53276 3.16746 3.68274 3.30058 3.93769 3.51115C4.19267 3.72172 4.52636 3.96616 4.93878 4.24442C5.35123 4.52267 5.80865 4.79719 6.31106 5.06793C6.81349 5.33867 7.3534 5.58309 7.9308 5.80119C8.50821 6.0193 8.91314 6.16219 9.1456 6.22987C9.37807 6.29756 9.7755 6.38404 10.3379 6.48934C10.9003 6.59463 11.324 6.66232 11.6089 6.69239C11.8939 6.72247 12.0889 6.73977 12.1939 6.74429L12.3513 6.7488L12.3468 6.71496L12.3401 6.68111L12.2951 6.39909C12.2651 6.21108 12.2501 5.94785 12.2501 5.60942C12.2501 5.27099 12.2763 4.95889 12.3288 4.67309C12.3813 4.3873 12.4601 4.09776 12.565 3.80446C12.67 3.51115 12.7728 3.27574 12.8732 3.09827C12.9752 2.92228 13.1087 2.72148 13.2737 2.49586C13.4387 2.27024 13.6524 2.03711 13.9148 1.79644C14.1773 1.55577 14.4772 1.34143 14.8147 1.15342C15.1521 0.965413 15.4633 0.822506 15.7483 0.724744C16.0332 0.626983 16.2732 0.563043 16.4682 0.532967C16.6631 0.502892 16.7606 0.485587 16.7606 0.481075V0.481075Z" fill="#1DA1F2"/>
</svg>
