<svg width="160" height="164" viewBox="0 0 160 164" fill="none" xmlns="http://www.w3.org/2000/svg">
<path opacity="0.06" d="M112 0H48C21.4903 0 0 21.4903 0 48V112C0 138.51 21.4903 160 48 160H112C138.51 160 160 138.51 160 112V48C160 21.4903 138.51 0 112 0Z" fill="#FFCD1D"/>
<g filter="url(#filter0_d)">
<path d="M112 27H48C35.8497 27 26 36.8497 26 49V112C26 124.15 35.8497 134 48 134H112C124.15 134 134 124.15 134 112V49C134 36.8497 124.15 27 112 27Z" fill="white" fill-opacity="0.01"/>
</g>
<path d="M112 27H48C35.8497 27 26 36.8497 26 49V112C26 124.15 35.8497 134 48 134H112C124.15 134 134 124.15 134 112V49C134 36.8497 124.15 27 112 27Z" fill="white"/>
<path d="M66.3636 63.4545C66.3636 55.9341 72.4818 49.8182 80 49.8182C87.5181 49.8182 93.6363 55.9341 93.6363 63.4545V83.9091H100.455V63.4545C100.455 52.1568 91.2977 43 80 43C68.7022 43 59.5454 52.1568 59.5454 63.4545V83.9091H66.3636V63.4545Z" fill="#E4E5EC"/>
<g filter="url(#filter1_d)">
<path d="M101.568 118H58.4321C55.2821 118 52.7275 115.445 52.7275 112.295V75.9771C52.7275 72.8271 55.2821 70.2725 58.4321 70.2725H101.568C104.718 70.2725 107.273 72.8271 107.273 75.9771V112.295C107.273 115.445 104.718 118 101.568 118Z" fill="#FFCD1D" fill-opacity="0.01"/>
</g>
<path d="M101.568 118H58.4321C55.2821 118 52.7275 115.445 52.7275 112.295V75.9771C52.7275 72.8271 55.2821 70.2725 58.4321 70.2725H101.568C104.718 70.2725 107.273 72.8271 107.273 75.9771V112.295C107.273 115.445 104.718 118 101.568 118Z" fill="#FFCD1D"/>
<path d="M79.9998 97.5455C83.7654 97.5455 86.818 94.4929 86.818 90.7273C86.818 86.9618 83.7654 83.9092 79.9998 83.9092C76.2342 83.9092 73.1816 86.9618 73.1816 90.7273C73.1816 94.4929 76.2342 97.5455 79.9998 97.5455Z" fill="#ECAE0F"/>
<path d="M83.4095 90.7275H76.5913V104.364H83.4095V90.7275Z" fill="#ECAE0F"/>
<defs>
<filter id="filter0_d" x="5.342" y="15.1955" width="149.316" height="148.316" filterUnits="userSpaceOnUse" color-interpolation-filters="sRGB">
<feFlood flood-opacity="0" result="BackgroundImageFix"/>
<feColorMatrix in="SourceAlpha" type="matrix" values="0 0 0 0 0 0 0 0 0 0 0 0 0 0 0 0 0 0 127 0"/>
<feOffset dy="8.85347"/>
<feGaussianBlur stdDeviation="10.329"/>
<feColorMatrix type="matrix" values="0 0 0 0 1 0 0 0 0 0.587917 0 0 0 0 0.104167 0 0 0 0.22 0"/>
<feBlend mode="normal" in2="BackgroundImageFix" result="effect1_dropShadow"/>
<feBlend mode="normal" in="SourceGraphic" in2="effect1_dropShadow" result="shape"/>
</filter>
<filter id="filter1_d" x="41.7275" y="64.2725" width="76.5455" height="69.7273" filterUnits="userSpaceOnUse" color-interpolation-filters="sRGB">
<feFlood flood-opacity="0" result="BackgroundImageFix"/>
<feColorMatrix in="SourceAlpha" type="matrix" values="0 0 0 0 0 0 0 0 0 0 0 0 0 0 0 0 0 0 127 0"/>
<feOffset dy="5"/>
<feGaussianBlur stdDeviation="5.5"/>
<feColorMatrix type="matrix" values="0 0 0 0 1 0 0 0 0 0.80475 0 0 0 0 0.1125 0 0 0 0.44 0"/>
<feBlend mode="normal" in2="BackgroundImageFix" result="effect1_dropShadow"/>
<feBlend mode="normal" in="SourceGraphic" in2="effect1_dropShadow" result="shape"/>
</filter>
</defs>
</svg>
