<svg width="160" height="164" viewBox="0 0 160 164" fill="none" xmlns="http://www.w3.org/2000/svg">
<path opacity="0.06" d="M112 0H48C21.4903 0 0 21.4903 0 48V112C0 138.51 21.4903 160 48 160H112C138.51 160 160 138.51 160 112V48C160 21.4903 138.51 0 112 0Z" fill="#782CE4"/>
<g filter="url(#filter0_d)">
<path d="M112 27H48C35.8497 27 26 36.8497 26 49V112C26 124.15 35.8497 134 48 134H112C124.15 134 134 124.15 134 112V49C134 36.8497 124.15 27 112 27Z" fill="white" fill-opacity="0.01"/>
</g>
<path d="M112 27H48C35.8497 27 26 36.8497 26 49V112C26 124.15 35.8497 134 48 134H112C124.15 134 134 124.15 134 112V49C134 36.8497 124.15 27 112 27Z" fill="white"/>
<g filter="url(#filter1_d)">
<path d="M98 55.4167C98 54.7757 97.7454 54.161 97.2922 53.7078C96.839 53.2546 96.2243 53 95.5833 53C94.9424 53 94.3277 53.2546 93.8745 53.7078C93.4213 54.161 93.1667 54.7757 93.1667 55.4167V57.2872L49.2947 71.4512C49.0516 71.5299 48.8397 71.6836 48.6894 71.8903C48.5392 72.097 48.4583 72.346 48.4585 72.6015V86.9975C48.4585 87.2547 48.5405 87.5051 48.6926 87.7124C48.8447 87.9198 49.059 88.0732 49.3043 88.1503L52.446 89.1363C52.6913 89.2134 52.9056 89.3668 53.0577 89.5741C53.2098 89.7815 53.2918 90.0319 53.2918 90.289V96.5506C53.3078 99.4254 54.4602 102.177 56.4976 104.206C58.5349 106.234 61.2919 107.374 64.1668 107.377H64.2175C67.0991 107.361 69.8565 106.202 71.8855 104.156C73.9145 102.11 75.0495 99.3428 75.0417 96.4612V96.2195L93.1667 101.899V103.75C93.1667 104.391 93.4213 105.005 93.8745 105.459C94.3277 105.912 94.9424 106.166 95.5833 106.166C96.2243 106.166 96.839 105.912 97.2922 105.459C97.7454 105.005 98 104.391 98 103.75V55.4167ZM70.2084 96.4733C70.2122 97.2667 70.0597 98.0531 69.7596 98.7875C69.4595 99.522 69.0177 100.19 68.4594 100.754C67.9011 101.318 67.2372 101.766 66.5056 102.073C65.7741 102.38 64.9892 102.54 64.1958 102.544H64.1668C62.5711 102.544 61.0402 101.913 59.9083 100.788C58.7764 99.6634 58.1353 98.1366 58.1251 96.5409V92.5607C58.1251 92.371 58.1698 92.1839 58.2555 92.0146C58.3412 91.8454 58.4656 91.6987 58.6186 91.5865C58.7715 91.4742 58.9488 91.3996 59.1359 91.3685C59.3231 91.3375 59.515 91.351 59.696 91.4079L69.3626 94.4384C69.6079 94.5156 69.8222 94.669 69.9743 94.8763C70.1264 95.0836 70.2084 95.334 70.2084 95.5912V96.4733Z" fill="#782CE4" fill-opacity="0.01"/>
<path d="M44.8333 71.1256C44.8333 70.4847 44.5787 69.87 44.1255 69.4168C43.6723 68.9636 43.0576 68.709 42.4167 68.709C41.7757 68.709 41.161 68.9636 40.7078 69.4168C40.2546 69.87 40 70.4847 40 71.1256L40.0121 88.0422C40.0121 88.3596 40.0746 88.6739 40.196 88.9671C40.3175 89.2603 40.4955 89.5267 40.7199 89.7511C40.9443 89.9755 41.2107 90.1535 41.5039 90.2749C41.7971 90.3964 42.1114 90.4589 42.4287 90.4589H42.4167C43.0477 90.4591 43.6537 90.2125 44.1053 89.7717C44.5569 89.331 44.8182 88.7311 44.8333 88.1002V71.1256Z" fill="#782CE4" fill-opacity="0.01"/>
</g>
<path d="M98 55.4167C98 54.7757 97.7454 54.161 97.2922 53.7078C96.839 53.2546 96.2243 53 95.5833 53C94.9424 53 94.3277 53.2546 93.8745 53.7078C93.4213 54.161 93.1667 54.7757 93.1667 55.4167V57.2872L49.2947 71.4512C49.0516 71.5299 48.8397 71.6836 48.6894 71.8903C48.5392 72.097 48.4583 72.346 48.4585 72.6015V86.9975C48.4585 87.2547 48.5405 87.5051 48.6926 87.7124C48.8447 87.9198 49.059 88.0732 49.3043 88.1503L52.446 89.1363C52.6913 89.2134 52.9056 89.3668 53.0577 89.5741C53.2098 89.7815 53.2918 90.0319 53.2918 90.289V96.5506C53.3078 99.4254 54.4602 102.177 56.4976 104.206C58.5349 106.234 61.2919 107.374 64.1668 107.377H64.2175C67.0991 107.361 69.8565 106.202 71.8855 104.156C73.9145 102.11 75.0495 99.3428 75.0417 96.4612V96.2195L93.1667 101.899V103.75C93.1667 104.391 93.4213 105.005 93.8745 105.459C94.3277 105.912 94.9424 106.166 95.5833 106.166C96.2243 106.166 96.839 105.912 97.2922 105.459C97.7454 105.005 98 104.391 98 103.75V55.4167ZM70.2084 96.4733C70.2122 97.2667 70.0597 98.0531 69.7596 98.7875C69.4595 99.522 69.0177 100.19 68.4594 100.754C67.9011 101.318 67.2372 101.766 66.5056 102.073C65.7741 102.38 64.9892 102.54 64.1958 102.544H64.1668C62.5711 102.544 61.0402 101.913 59.9083 100.788C58.7764 99.6634 58.1353 98.1366 58.1251 96.5409V92.5607C58.1251 92.371 58.1698 92.1839 58.2555 92.0146C58.3412 91.8454 58.4656 91.6987 58.6186 91.5865C58.7715 91.4742 58.9488 91.3996 59.1359 91.3685C59.3231 91.3375 59.515 91.351 59.696 91.4079L69.3626 94.4384C69.6079 94.5156 69.8222 94.669 69.9743 94.8763C70.1264 95.0836 70.2084 95.334 70.2084 95.5912V96.4733Z" fill="#782CE4"/>
<path d="M44.8333 71.1256C44.8333 70.4847 44.5787 69.87 44.1255 69.4168C43.6723 68.9636 43.0576 68.709 42.4167 68.709C41.7757 68.709 41.161 68.9636 40.7078 69.4168C40.2546 69.87 40 70.4847 40 71.1256L40.0121 88.0422C40.0121 88.3596 40.0746 88.6739 40.196 88.9671C40.3175 89.2603 40.4955 89.5267 40.7199 89.7511C40.9443 89.9755 41.2107 90.1535 41.5039 90.2749C41.7971 90.3964 42.1114 90.4589 42.4287 90.4589H42.4167C43.0477 90.4591 43.6537 90.2125 44.1053 89.7717C44.5569 89.331 44.8182 88.7311 44.8333 88.1002V71.1256Z" fill="#782CE4"/>
<g filter="url(#filter2_d)">
<path d="M115.46 65.7696C116.656 65.0792 117.065 63.5502 116.375 62.3545C115.685 61.1588 114.156 60.7491 112.96 61.4395L105.166 65.9395C103.97 66.6298 103.56 68.1588 104.251 69.3545C104.941 70.5502 106.47 70.9599 107.666 70.2696L115.46 65.7696Z" fill="#FFCD1D" fill-opacity="0.01"/>
<path d="M113.46 96.5997C114.656 97.29 116.185 96.8803 116.875 95.6846C117.565 94.4889 117.156 92.9599 115.96 92.2695L108.166 87.7695C106.97 87.0792 105.441 87.4889 104.751 88.6846C104.06 89.8803 104.47 91.4093 105.666 92.0997L113.46 96.5997Z" fill="#FFCD1D" fill-opacity="0.01"/>
<path d="M118.5 81.1895C119.881 81.1895 121 80.0702 121 78.6895C121 77.3087 119.881 76.1895 118.5 76.1895H106.5C105.119 76.1895 104 77.3087 104 78.6895C104 80.0702 105.119 81.1895 106.5 81.1895H118.5Z" fill="#FFCD1D" fill-opacity="0.01"/>
</g>
<path d="M115.46 65.7696C116.656 65.0792 117.065 63.5502 116.375 62.3545C115.685 61.1588 114.156 60.7491 112.96 61.4395L105.166 65.9395C103.97 66.6298 103.56 68.1588 104.251 69.3545C104.941 70.5502 106.47 70.9599 107.666 70.2696L115.46 65.7696Z" fill="#FFCD1D"/>
<path d="M113.46 96.5997C114.656 97.29 116.185 96.8803 116.875 95.6846C117.565 94.4889 117.156 92.9599 115.96 92.2695L108.166 87.7695C106.97 87.0792 105.441 87.4889 104.751 88.6846C104.06 89.8803 104.47 91.4093 105.666 92.0997L113.46 96.5997Z" fill="#FFCD1D"/>
<path d="M118.5 81.1895C119.881 81.1895 121 80.0702 121 78.6895C121 77.3087 119.881 76.1895 118.5 76.1895H106.5C105.119 76.1895 104 77.3087 104 78.6895C104 80.0702 105.119 81.1895 106.5 81.1895H118.5Z" fill="#FFCD1D"/>
<defs>
<filter id="filter0_d" x="5.342" y="15.1955" width="149.316" height="148.316" filterUnits="userSpaceOnUse" color-interpolation-filters="sRGB">
<feFlood flood-opacity="0" result="BackgroundImageFix"/>
<feColorMatrix in="SourceAlpha" type="matrix" values="0 0 0 0 0 0 0 0 0 0 0 0 0 0 0 0 0 0 127 0"/>
<feOffset dy="8.85347"/>
<feGaussianBlur stdDeviation="10.329"/>
<feColorMatrix type="matrix" values="0 0 0 0 0.350054 0 0 0 0 0.095 0 0 0 0 0.7125 0 0 0 0.09 0"/>
<feBlend mode="normal" in2="BackgroundImageFix" result="effect1_dropShadow"/>
<feBlend mode="normal" in="SourceGraphic" in2="effect1_dropShadow" result="shape"/>
</filter>
<filter id="filter1_d" x="32" y="49" width="74" height="70.377" filterUnits="userSpaceOnUse" color-interpolation-filters="sRGB">
<feFlood flood-opacity="0" result="BackgroundImageFix"/>
<feColorMatrix in="SourceAlpha" type="matrix" values="0 0 0 0 0 0 0 0 0 0 0 0 0 0 0 0 0 0 127 0"/>
<feOffset dy="4"/>
<feGaussianBlur stdDeviation="4"/>
<feColorMatrix type="matrix" values="0 0 0 0 0.470588 0 0 0 0 0.172549 0 0 0 0 0.894118 0 0 0 0.18 0"/>
<feBlend mode="normal" in2="BackgroundImageFix" result="effect1_dropShadow"/>
<feBlend mode="normal" in="SourceGraphic" in2="effect1_dropShadow" result="shape"/>
</filter>
<filter id="filter2_d" x="98.0006" y="57.1895" width="27.9993" height="47.6602" filterUnits="userSpaceOnUse" color-interpolation-filters="sRGB">
<feFlood flood-opacity="0" result="BackgroundImageFix"/>
<feColorMatrix in="SourceAlpha" type="matrix" values="0 0 0 0 0 0 0 0 0 0 0 0 0 0 0 0 0 0 127 0"/>
<feOffset dy="2"/>
<feGaussianBlur stdDeviation="2.5"/>
<feColorMatrix type="matrix" values="0 0 0 0 1 0 0 0 0 0.80475 0 0 0 0 0.1125 0 0 0 0.3 0"/>
<feBlend mode="normal" in2="BackgroundImageFix" result="effect1_dropShadow"/>
<feBlend mode="normal" in="SourceGraphic" in2="effect1_dropShadow" result="shape"/>
</filter>
</defs>
</svg>
