<svg width="317" height="229" viewBox="0 0 317 229" fill="none" xmlns="http://www.w3.org/2000/svg">
<g filter="url(#filter0_d)">
<path d="M254.83 33H61.6801C46.9451 33 35 44.9451 35 59.6801V165.374C35 180.109 46.9451 192.054 61.6801 192.054H254.83C269.565 192.054 281.51 180.109 281.51 165.374V59.6801C281.51 44.9451 269.565 33 254.83 33Z" fill="white" fill-opacity="0.01"/>
</g>
<path d="M254.83 33H61.6801C46.9451 33 35 44.9451 35 59.6801V165.374C35 180.109 46.9451 192.054 61.6801 192.054H254.83C269.565 192.054 281.51 180.109 281.51 165.374V59.6801C281.51 44.9451 269.565 33 254.83 33Z" fill="white"/>
<g filter="url(#filter1_d)">
<path d="M57.1475 137.933C54.6639 129.509 54.9863 120.505 58.0661 112.279C61.1459 104.054 66.8162 97.0521 74.2221 92.3302C81.6281 87.6082 90.3684 85.4217 99.1253 86.1003C107.882 86.7789 116.181 90.2857 122.771 96.0922" stroke="#1B76FF" stroke-opacity="0.01" stroke-width="10.2616" stroke-linecap="round"/>
</g>
<path d="M57.1475 137.933C54.6639 129.509 54.9863 120.505 58.0661 112.279C61.1459 104.054 66.8162 97.0521 74.2221 92.3302C81.6281 87.6082 90.3684 85.4217 99.1253 86.1003C107.882 86.7789 116.181 90.2857 122.771 96.0922" stroke="#1B76FF" stroke-width="10.2616" stroke-linecap="round"/>
<g filter="url(#filter2_d)">
<path d="M122.752 96.0747C127.084 99.8867 130.551 104.58 132.922 109.841C135.293 115.102 136.512 120.809 136.498 126.58" stroke="#FFCD1D" stroke-opacity="0.01" stroke-width="10.2616" stroke-linecap="round"/>
</g>
<path d="M122.752 96.0747C127.084 99.8867 130.551 104.58 132.922 109.841C135.293 115.102 136.512 120.809 136.498 126.58" stroke="#FFCD1D" stroke-width="10.2616" stroke-linecap="round"/>
<g filter="url(#filter3_d)">
<path d="M136.498 126.481C136.498 136.221 132.988 145.634 126.612 152.996C120.236 160.359 111.42 165.177 101.78 166.567C92.14 167.958 82.3218 165.829 74.1245 160.569C65.9271 155.309 59.8996 147.272 57.1465 137.929" stroke="#782CE4" stroke-opacity="0.01" stroke-width="10.2616" stroke-linecap="round"/>
</g>
<path d="M136.498 126.481C136.498 136.221 132.988 145.634 126.612 152.996C120.236 160.359 111.42 165.177 101.78 166.567C92.14 167.958 82.3218 165.829 74.1245 160.569C65.9271 155.309 59.8996 147.272 57.1465 137.929" stroke="#782CE4" stroke-width="10.2616" stroke-linecap="round"/>
<g filter="url(#filter4_d)">
<path d="M169.576 88.5132H163.419C160.019 88.5132 157.262 91.2697 157.262 94.6701V100.827C157.262 104.227 160.019 106.984 163.419 106.984H169.576C172.976 106.984 175.733 104.227 175.733 100.827V94.6701C175.733 91.2697 172.976 88.5132 169.576 88.5132Z" fill="#782CE4" fill-opacity="0.01"/>
</g>
<path d="M169.576 88.5132H163.419C160.019 88.5132 157.262 91.2697 157.262 94.6701V100.827C157.262 104.227 160.019 106.984 163.419 106.984H169.576C172.976 106.984 175.733 104.227 175.733 100.827V94.6701C175.733 91.2697 172.976 88.5132 169.576 88.5132Z" fill="#782CE4"/>
<g filter="url(#filter5_d)">
<path d="M169.576 117.246H163.419C160.019 117.246 157.262 120.003 157.262 123.403V129.56C157.262 132.96 160.019 135.717 163.419 135.717H169.576C172.976 135.717 175.733 132.96 175.733 129.56V123.403C175.733 120.003 172.976 117.246 169.576 117.246Z" fill="#1B76FF" fill-opacity="0.01"/>
</g>
<path d="M169.576 117.246H163.419C160.019 117.246 157.262 120.003 157.262 123.403V129.56C157.262 132.96 160.019 135.717 163.419 135.717H169.576C172.976 135.717 175.733 132.96 175.733 129.56V123.403C175.733 120.003 172.976 117.246 169.576 117.246Z" fill="#1B76FF"/>
<g filter="url(#filter6_d)">
<path d="M169.576 145.978H163.419C160.019 145.978 157.262 148.735 157.262 152.135V158.292C157.262 161.692 160.019 164.449 163.419 164.449H169.576C172.976 164.449 175.733 161.692 175.733 158.292V152.135C175.733 148.735 172.976 145.978 169.576 145.978Z" fill="#FFCD1D" fill-opacity="0.01"/>
</g>
<path d="M169.576 145.978H163.419C160.019 145.978 157.262 148.735 157.262 152.135V158.292C157.262 161.692 160.019 164.449 163.419 164.449H169.576C172.976 164.449 175.733 161.692 175.733 158.292V152.135C175.733 148.735 172.976 145.978 169.576 145.978Z" fill="#FFCD1D"/>
<path d="M256.911 93.644H185.995C183.728 93.644 181.89 95.4818 181.89 97.7487C181.89 100.016 183.728 101.853 185.995 101.853H256.911C259.178 101.853 261.016 100.016 261.016 97.7487C261.016 95.4818 259.178 93.644 256.911 93.644Z" fill="#E7E8F1"/>
<path d="M236.948 122.376H185.995C183.728 122.376 181.89 124.214 181.89 126.481C181.89 128.748 183.728 130.585 185.995 130.585H236.948C239.215 130.585 241.053 128.748 241.053 126.481C241.053 124.214 239.215 122.376 236.948 122.376Z" fill="#E7E8F1"/>
<path d="M256.911 151.109H185.995C183.728 151.109 181.89 152.947 181.89 155.214C181.89 157.48 183.728 159.318 185.995 159.318H256.911C259.178 159.318 261.016 157.48 261.016 155.214C261.016 152.947 259.178 151.109 256.911 151.109Z" fill="#E7E8F1"/>
<path opacity="0.3" d="M120.571 58.0718H57.9755C55.1419 58.0718 52.8447 60.3689 52.8447 63.2026V63.2026C52.8447 66.0363 55.1419 68.3334 57.9755 68.3334H120.571C123.405 68.3334 125.702 66.0363 125.702 63.2026C125.702 60.3689 123.405 58.0718 120.571 58.0718Z" fill="#62668A"/>
<defs>
<filter id="filter0_d" x="0.1106" y="0.16291" width="316.289" height="228.833" filterUnits="userSpaceOnUse" color-interpolation-filters="sRGB">
<feFlood flood-opacity="0" result="BackgroundImageFix"/>
<feColorMatrix in="SourceAlpha" type="matrix" values="0 0 0 0 0 0 0 0 0 0 0 0 0 0 0 0 0 0 127 0"/>
<feOffset dy="2.05231"/>
<feGaussianBlur stdDeviation="17.4447"/>
<feColorMatrix type="matrix" values="0 0 0 0 0.121042 0 0 0 0 0.143938 0 0 0 0 0.35 0 0 0 0.09 0"/>
<feBlend mode="normal" in2="BackgroundImageFix" result="effect1_dropShadow"/>
<feBlend mode="normal" in="SourceGraphic" in2="effect1_dropShadow" result="shape"/>
</filter>
<filter id="filter1_d" x="46.2591" y="80.8484" width="85.7473" height="70.426" filterUnits="userSpaceOnUse" color-interpolation-filters="sRGB">
<feFlood flood-opacity="0" result="BackgroundImageFix"/>
<feColorMatrix in="SourceAlpha" type="matrix" values="0 0 0 0 0 0 0 0 0 0 0 0 0 0 0 0 0 0 127 0"/>
<feOffset dy="4.10463"/>
<feGaussianBlur stdDeviation="2.05231"/>
<feColorMatrix type="matrix" values="0 0 0 0 0.104167 0 0 0 0 0.4625 0 0 0 0 1 0 0 0 0.15 0"/>
<feBlend mode="normal" in2="BackgroundImageFix" result="effect1_dropShadow"/>
<feBlend mode="normal" in="SourceGraphic" in2="effect1_dropShadow" result="shape"/>
</filter>
<filter id="filter2_d" x="110.438" y="85.8131" width="38.374" height="55.1332" filterUnits="userSpaceOnUse" color-interpolation-filters="sRGB">
<feFlood flood-opacity="0" result="BackgroundImageFix"/>
<feColorMatrix in="SourceAlpha" type="matrix" values="0 0 0 0 0 0 0 0 0 0 0 0 0 0 0 0 0 0 127 0"/>
<feOffset dy="2.05231"/>
<feGaussianBlur stdDeviation="3.59155"/>
<feColorMatrix type="matrix" values="0 0 0 0 1 0 0 0 0 0.80475 0 0 0 0 0.1125 0 0 0 0.12 0"/>
<feBlend mode="normal" in2="BackgroundImageFix" result="effect1_dropShadow"/>
<feBlend mode="normal" in="SourceGraphic" in2="effect1_dropShadow" result="shape"/>
</filter>
<filter id="filter3_d" x="47.9095" y="120.324" width="97.8238" height="58.9722" filterUnits="userSpaceOnUse" color-interpolation-filters="sRGB">
<feFlood flood-opacity="0" result="BackgroundImageFix"/>
<feColorMatrix in="SourceAlpha" type="matrix" values="0 0 0 0 0 0 0 0 0 0 0 0 0 0 0 0 0 0 127 0"/>
<feOffset dy="3.07847"/>
<feGaussianBlur stdDeviation="2.05231"/>
<feColorMatrix type="matrix" values="0 0 0 0 0.470588 0 0 0 0 0.172549 0 0 0 0 0.894118 0 0 0 0.15 0"/>
<feBlend mode="normal" in2="BackgroundImageFix" result="effect1_dropShadow"/>
<feBlend mode="normal" in="SourceGraphic" in2="effect1_dropShadow" result="shape"/>
</filter>
<filter id="filter4_d" x="153.158" y="87.487" width="26.68" height="26.68" filterUnits="userSpaceOnUse" color-interpolation-filters="sRGB">
<feFlood flood-opacity="0" result="BackgroundImageFix"/>
<feColorMatrix in="SourceAlpha" type="matrix" values="0 0 0 0 0 0 0 0 0 0 0 0 0 0 0 0 0 0 127 0"/>
<feOffset dy="3.07847"/>
<feGaussianBlur stdDeviation="2.05231"/>
<feColorMatrix type="matrix" values="0 0 0 0 0.470588 0 0 0 0 0.172549 0 0 0 0 0.894118 0 0 0 0.17 0"/>
<feBlend mode="normal" in2="BackgroundImageFix" result="effect1_dropShadow"/>
<feBlend mode="normal" in="SourceGraphic" in2="effect1_dropShadow" result="shape"/>
</filter>
<filter id="filter5_d" x="153.158" y="117.246" width="26.68" height="26.68" filterUnits="userSpaceOnUse" color-interpolation-filters="sRGB">
<feFlood flood-opacity="0" result="BackgroundImageFix"/>
<feColorMatrix in="SourceAlpha" type="matrix" values="0 0 0 0 0 0 0 0 0 0 0 0 0 0 0 0 0 0 127 0"/>
<feOffset dy="4.10463"/>
<feGaussianBlur stdDeviation="2.05231"/>
<feColorMatrix type="matrix" values="0 0 0 0 0.104167 0 0 0 0 0.4625 0 0 0 0 1 0 0 0 0.18 0"/>
<feBlend mode="normal" in2="BackgroundImageFix" result="effect1_dropShadow"/>
<feBlend mode="normal" in="SourceGraphic" in2="effect1_dropShadow" result="shape"/>
</filter>
<filter id="filter6_d" x="153.158" y="145.978" width="26.68" height="26.6801" filterUnits="userSpaceOnUse" color-interpolation-filters="sRGB">
<feFlood flood-opacity="0" result="BackgroundImageFix"/>
<feColorMatrix in="SourceAlpha" type="matrix" values="0 0 0 0 0 0 0 0 0 0 0 0 0 0 0 0 0 0 127 0"/>
<feOffset dy="4.10463"/>
<feGaussianBlur stdDeviation="2.05231"/>
<feColorMatrix type="matrix" values="0 0 0 0 1 0 0 0 0 0.80475 0 0 0 0 0.1125 0 0 0 0.26 0"/>
<feBlend mode="normal" in2="BackgroundImageFix" result="effect1_dropShadow"/>
<feBlend mode="normal" in="SourceGraphic" in2="effect1_dropShadow" result="shape"/>
</filter>
</defs>
</svg>
