<svg width="1209" height="652" viewBox="0 0 1209 652" fill="none" xmlns="http://www.w3.org/2000/svg">
<rect width="1209" height="652" fill="white"/>
<path d="M0 0H1209V652H0V0Z" fill="#F4263E"/>
<g filter="url(#filter0_d)">
<path d="M996.578 88H212.421C202.8 88 195 95.6763 195 105.145V546.855C195 556.324 202.8 564 212.421 564H996.578C1006.2 564 1014 556.324 1014 546.855V105.145C1014 95.6763 1006.2 88 996.578 88Z" fill="white"/>
</g>
<path d="M1002.4 80.5793H206.6C196.836 80.5793 188.92 88.495 188.92 98.2593V553.74C188.92 563.505 196.836 571.42 206.6 571.42H1002.4C1012.16 571.42 1020.08 563.505 1020.08 553.74V98.2593C1020.08 88.495 1012.16 80.5793 1002.4 80.5793Z" fill="white"/>
<path opacity="0.38" d="M754.975 136.281H240.298C235.327 136.281 231.298 140.31 231.298 145.281V339.422C231.298 344.393 235.327 348.422 240.298 348.422H754.975C759.946 348.422 763.975 344.393 763.975 339.422V145.281C763.975 140.31 759.946 136.281 754.975 136.281Z" fill="#E7E8F1"/>
<path opacity="0.38" d="M462.131 372.893H240.298C235.327 372.893 231.298 376.923 231.298 381.893V521.159C231.298 526.13 235.327 530.159 240.298 530.159H462.131C467.102 530.159 471.131 526.13 471.131 521.159V381.893C471.131 376.923 467.102 372.893 462.131 372.893Z" fill="#E7E8F1"/>
<g filter="url(#filter1_d)">
<path d="M266.358 432.36H266.358C264.347 432.36 262.717 434.592 262.717 437.345V501.016C262.717 503.768 264.347 506 266.358 506C268.37 506 270 503.768 270 501.016V437.345C270 434.592 268.37 432.36 266.358 432.36Z" fill="#F4263E"/>
</g>
<path d="M266.358 430.802H266.358C263.489 430.802 261.163 433.128 261.163 435.997V502.363C261.163 505.232 263.489 507.558 266.358 507.558C269.228 507.558 271.554 505.232 271.554 502.363V435.997C271.554 433.128 269.228 430.802 266.358 430.802Z" fill="#F4263E"/>
<g filter="url(#filter2_d)">
<path d="M411.828 432.36H411.828C410.077 432.36 408.657 434.592 408.657 437.345V501.016C408.657 503.768 410.077 506 411.828 506C413.58 506 415 503.768 415 501.016V437.345C415 434.592 413.58 432.36 411.828 432.36Z" fill="#F4263E"/>
</g>
<path d="M411.828 430.802H411.828C408.959 430.802 406.633 433.128 406.633 435.997V502.363C406.633 505.232 408.959 507.558 411.828 507.558C414.698 507.558 417.024 505.232 417.024 502.363V435.997C417.024 433.128 414.698 430.802 411.828 430.802Z" fill="#F4263E"/>
<g filter="url(#filter3_d)">
<path d="M290.603 400.122H290.603C288.727 400.122 287.207 402.382 287.207 405.169V500.953C287.207 503.741 288.727 506 290.603 506C292.479 506 294 503.741 294 500.953V405.169C294 402.382 292.479 400.122 290.603 400.122Z" fill="#F4263E"/>
</g>
<path d="M290.603 398.564H290.603C287.734 398.564 285.408 400.89 285.408 403.759V502.363C285.408 505.232 287.734 507.558 290.603 507.558C293.473 507.558 295.799 505.232 295.799 502.363V403.759C295.799 400.89 293.473 398.564 290.603 398.564Z" fill="#F4263E"/>
<g filter="url(#filter4_d)">
<path d="M436.072 400.122H436.072C434.455 400.122 433.145 402.382 433.145 405.169V500.953C433.145 503.741 434.455 506 436.072 506C437.689 506 439 503.741 439 500.953V405.169C439 402.382 437.689 400.122 436.072 400.122Z" fill="#F4263E"/>
</g>
<path d="M436.072 398.564H436.072C433.203 398.564 430.877 400.89 430.877 403.759V502.363C430.877 505.232 433.203 507.558 436.072 507.558C438.942 507.558 441.268 505.232 441.268 502.363V403.759C441.268 400.89 438.942 398.564 436.072 398.564Z" fill="#F4263E"/>
<g filter="url(#filter5_d)">
<path d="M314.849 449.781H314.849C313.109 449.781 311.699 452.062 311.699 454.877V501.904C311.699 504.718 313.109 507 314.849 507C316.589 507 318 504.718 318 501.904V454.877C318 452.062 316.589 449.781 314.849 449.781Z" fill="#F4263E"/>
</g>
<path d="M314.849 449.223H314.849C311.98 449.223 309.654 451.549 309.654 454.418V502.362C309.654 505.232 311.98 507.558 314.849 507.558H314.849C317.719 507.558 320.045 505.232 320.045 502.362V454.418C320.045 451.549 317.719 449.223 314.849 449.223Z" fill="#F4263E"/>
<g filter="url(#filter6_d)">
<path d="M339.094 396.052H339.094C336.937 396.052 335.189 398.355 335.189 401.195V501.856C335.189 504.697 336.937 507 339.094 507C341.251 507 343 504.697 343 501.856V401.195C343 398.355 341.251 396.052 339.094 396.052Z" fill="#F4263E"/>
</g>
<path d="M339.094 395.494H339.094C336.225 395.494 333.899 397.82 333.899 400.689V502.363C333.899 505.232 336.225 507.558 339.094 507.558C341.964 507.558 344.29 505.232 344.29 502.363V400.689C344.29 397.82 341.964 395.494 339.094 395.494Z" fill="#F4263E"/>
<g filter="url(#filter7_d)">
<path d="M363.339 459H363.339C361.318 459 359.679 461.133 359.679 463.764V500.692C359.679 503.324 361.318 505.457 363.339 505.457C365.361 505.457 367 503.324 367 500.692V463.764C367 461.133 365.361 459 363.339 459Z" fill="#F4263E"/>
</g>
<path d="M363.339 456.899H363.339C360.47 456.899 358.144 459.225 358.144 462.094V502.363C358.144 505.232 360.47 507.558 363.339 507.558H363.339C366.209 507.558 368.535 505.232 368.535 502.363V462.094C368.535 459.225 366.209 456.899 363.339 456.899Z" fill="#F4263E"/>
<g filter="url(#filter8_d)">
<path d="M387.583 413.938H387.583C385.696 413.938 384.167 416.187 384.167 418.963V500.975C384.167 503.75 385.696 506 387.583 506C389.47 506 391 503.75 391 500.975V418.963C391 416.187 389.47 413.938 387.583 413.938Z" fill="#F4263E"/>
</g>
<path d="M387.583 412.38H387.583C384.714 412.38 382.388 414.706 382.388 417.575V502.362C382.388 505.232 384.714 507.558 387.583 507.558C390.453 507.558 392.779 505.232 392.779 502.362V417.575C392.779 414.706 390.453 412.38 387.583 412.38Z" fill="#F4263E"/>
<path opacity="0.38" d="M754.974 372.893H493.584C488.613 372.893 484.584 376.923 484.584 381.893V521.159C484.584 526.13 488.613 530.159 493.584 530.159H754.974C759.945 530.159 763.974 526.13 763.974 521.159V381.893C763.974 376.923 759.945 372.893 754.974 372.893Z" fill="#E7E8F1"/>
<path opacity="0.6" d="M578.989 504.484H520.425C517.646 504.484 515.393 506.737 515.393 509.516C515.393 512.295 517.646 514.547 520.425 514.547H578.989C581.768 514.547 584.021 512.295 584.021 509.516C584.021 506.737 581.768 504.484 578.989 504.484Z" fill="#BEBFCC"/>
<path opacity="0.6" d="M674.692 504.484H600.247C597.468 504.484 595.215 506.737 595.215 509.516C595.215 512.295 597.468 514.547 600.247 514.547H674.692C677.471 514.547 679.724 512.295 679.724 509.516C679.724 506.737 677.471 504.484 674.692 504.484Z" fill="#BEBFCC"/>
<g filter="url(#filter9_d)">
<path d="M724.931 480C729.387 480 733 477.3 733 473.97C733 470.64 729.387 467.94 724.931 467.94H523.444C518.988 467.94 515.375 470.64 515.375 473.97C515.375 477.3 518.988 480 523.444 480H724.931Z" fill="#F4263E"/>
</g>
<path d="M727.279 482.227C731.839 482.227 735.536 478.531 735.536 473.97C735.536 469.41 731.839 465.713 727.279 465.713H521.096C516.536 465.713 512.839 469.41 512.839 473.97C512.839 478.531 516.536 482.227 521.096 482.227H727.279Z" fill="#F4263E"/>
<g filter="url(#filter10_d)">
<path d="M644.998 447C649.417 447 653 444.361 653 441.105C653 437.85 649.417 435.21 644.998 435.21H523.043C518.623 435.21 515.041 437.85 515.041 441.105C515.041 444.361 518.623 447 523.043 447H644.998Z" fill="#F4263E"/>
</g>
<path d="M646.944 449.362C651.504 449.362 655.201 445.666 655.201 441.105C655.201 436.545 651.504 432.848 646.944 432.848H521.097C516.537 432.848 512.84 436.545 512.84 441.105C512.84 445.666 516.537 449.362 521.097 449.362H646.944Z" fill="#F4263E"/>
<g filter="url(#filter11_d)">
<path d="M693.051 414C697.441 414 701 411.421 701 408.239C701 405.058 697.441 402.479 693.051 402.479H524.362C519.972 402.479 516.413 405.058 516.413 408.239C516.413 411.421 519.972 414 524.362 414H693.051Z" fill="#F4263E"/>
</g>
<path d="M696.319 416.497C700.879 416.497 704.576 412.8 704.576 408.239C704.576 403.679 700.879 399.982 696.319 399.982H521.094C516.534 399.982 512.837 403.679 512.837 408.239C512.837 412.8 516.534 416.497 521.094 416.497H696.319Z" fill="#F4263E"/>
<path opacity="0.38" d="M968.705 372.893H796.929C791.958 372.893 787.929 376.923 787.929 381.893V521.159C787.929 526.13 791.958 530.159 796.929 530.159H968.705C973.676 530.159 977.705 526.13 977.705 521.159V381.893C977.705 376.923 973.676 372.893 968.705 372.893Z" fill="#E7E8F1"/>
<path opacity="0.38" d="M968.705 136.281H796.929C791.958 136.281 787.929 140.31 787.929 145.281V339.422C787.929 344.393 791.958 348.422 796.929 348.422H968.705C973.676 348.422 977.705 344.393 977.705 339.422V145.281C977.705 140.31 973.676 136.281 968.705 136.281Z" fill="#E7E8F1"/>
<path opacity="0.1" d="M601.791 226.841C525.686 200.076 563.436 292.688 451.295 249.494C354.466 212.199 340.275 286.735 287.167 310.342C278.794 314.064 267.258 325.595 256.591 325.665L731.805 324.109C735.662 324.096 738.782 320.966 738.782 317.109V159.037C696.061 168.427 677.897 253.606 601.791 226.841Z" fill="#F4263E"/>
<g filter="url(#filter12_d)">
<path d="M259.545 319.978C337.335 319.978 341.114 207.36 452.495 247.987C563.876 288.614 523.886 197.638 599.476 222.813C675.065 247.987 693.107 167.869 735.537 159.037" stroke="#F4263E" stroke-width="4" stroke-linecap="round"/>
</g>
<path d="M259.545 319.978C337.335 319.978 341.114 207.36 452.495 247.987C563.876 288.614 523.886 197.638 599.476 222.813C675.065 247.987 693.107 167.869 735.537 159.037" stroke="#F4263E" stroke-width="5" stroke-linecap="round"/>
<g filter="url(#filter13_d)">
<path d="M835.357 170H813.685C810.569 170 808.043 172.526 808.043 175.643V197.286C808.043 200.402 810.569 202.928 813.685 202.928H835.357C838.474 202.928 841 200.402 841 197.286V175.643C841 172.526 838.474 170 835.357 170Z" fill="#F4263E"/>
</g>
<path d="M836.345 168.497H812.698C809.298 168.497 806.541 171.254 806.541 174.654V198.269C806.541 201.67 809.298 204.426 812.698 204.426H836.345C839.745 204.426 842.502 201.67 842.502 198.269V174.654C842.502 171.254 839.745 168.497 836.345 168.497Z" fill="#F4263E"/>
<g filter="url(#filter14_d)">
<path d="M835.357 226H813.685C810.569 226 808.043 228.526 808.043 231.643V253.286C808.043 256.402 810.569 258.928 813.685 258.928H835.357C838.474 258.928 841 256.402 841 253.286V231.643C841 228.526 838.474 226 835.357 226Z" fill="#F4263E"/>
</g>
<path d="M836.345 224.386H812.698C809.298 224.386 806.541 227.143 806.541 230.543V254.158C806.541 257.558 809.298 260.315 812.698 260.315H836.345C839.745 260.315 842.502 257.558 842.502 254.158V230.543C842.502 227.143 839.745 224.386 836.345 224.386Z" fill="#F4263E"/>
<g filter="url(#filter15_d)">
<path d="M835.357 281.776H813.685C810.569 281.776 808.043 284.302 808.043 287.419V309.062C808.043 312.178 810.569 314.705 813.685 314.705H835.357C838.474 314.705 841 312.178 841 309.062V287.419C841 284.302 838.474 281.776 835.357 281.776Z" fill="#F4263E"/>
</g>
<path d="M836.345 280.276H812.698C809.298 280.276 806.541 283.032 806.541 286.433V310.048C806.541 313.448 809.298 316.205 812.698 316.205H836.345C839.745 316.205 842.502 313.448 842.502 310.048V286.433C842.502 283.032 839.745 280.276 836.345 280.276Z" fill="#F4263E"/>
<path opacity="0.7" d="M915.133 178.477H862.473C858.064 178.477 854.489 182.052 854.489 186.461C854.489 190.871 858.064 194.445 862.473 194.445H915.133C919.542 194.445 923.117 190.871 923.117 186.461C923.117 182.052 919.542 178.477 915.133 178.477Z" fill="#BEBFCC"/>
<path opacity="0.7" d="M953.548 234.367H862.473C858.064 234.367 854.489 237.942 854.489 242.351C854.489 246.761 858.064 250.335 862.473 250.335H953.548C957.957 250.335 961.532 246.761 961.532 242.351C961.532 237.942 957.957 234.367 953.548 234.367Z" fill="#BEBFCC"/>
<path opacity="0.7" d="M920.631 290.256H862.473C858.064 290.256 854.489 293.831 854.489 298.24C854.489 302.65 858.064 306.224 862.473 306.224H920.631C925.041 306.224 928.615 302.65 928.615 298.24C928.615 293.831 925.041 290.256 920.631 290.256Z" fill="#BEBFCC"/>
<g filter="url(#filter16_d)">
<path d="M939.791 434.423C943.132 446.029 942.698 458.434 938.556 469.766C934.414 481.099 926.786 490.744 916.825 497.25C906.864 503.756 895.108 506.768 883.329 505.833C871.551 504.898 860.388 500.067 851.524 492.068L871.5 470.5C875.046 473.699 881.789 474.626 886.5 475C891.211 475.375 898.015 473.102 902 470.5C905.985 467.897 909.343 463.033 911 458.5C912.657 453.967 914.336 447.642 913 443L939.791 434.423Z" fill="#1B76FF"/>
</g>
<path d="M942.355 432.29C945.895 444.588 945.435 457.732 941.046 469.74C936.657 481.748 928.575 491.968 918.02 498.861C907.465 505.755 895.009 508.946 882.528 507.956C870.048 506.965 858.22 501.846 848.828 493.37L871.724 466.753C875.481 470.143 880.212 472.191 885.204 472.587C890.196 472.984 895.179 471.707 899.401 468.95C903.623 466.192 906.855 462.104 908.611 457.301C910.367 452.498 910.551 447.24 909.135 442.321L942.355 432.29Z" fill="#1B76FF"/>
<g filter="url(#filter17_d)">
<path d="M849 489.5C842.826 483.935 840.379 480.68 837 473C833.621 465.32 830.98 459.424 831 451L862 450C861.992 453.369 862.649 455.928 864 459C865.352 462.072 867.03 464.274 869.5 466.5L849 489.5Z" fill="#FFCD1D"/>
</g>
<path d="M848.856 493.395C842.682 487.83 837.74 480.979 834.361 473.299C830.982 465.619 829.245 457.288 829.265 448.864L863.899 448.951C863.891 452.32 864.586 455.652 865.937 458.724C867.289 461.796 869.265 464.537 871.735 466.763L848.856 493.395Z" fill="#FFCD1D"/>
<g filter="url(#filter18_d)">
<path d="M831.5 446.5C831.5 432.282 835.913 422.248 845 411.5C854.088 400.753 864.761 394.53 878.5 392.5C892.239 390.47 905.317 393.322 917 401C928.683 408.679 936.076 417.362 940 431L911 440C909.431 434.545 906.673 429.571 902 426.5C897.326 423.428 888.495 420.688 883 421.5C877.504 422.312 871.635 424.805 868 429.104C864.365 433.403 861.5 439.813 861.5 445.5L831.5 446.5Z" fill="#F4263E"/>
</g>
<path d="M829.265 449.008C829.265 434.79 834.267 421.049 843.354 410.301C852.442 399.554 865.006 392.52 878.745 390.49C892.484 388.46 906.477 391.568 918.16 399.246C929.843 406.925 938.433 418.658 942.357 432.296L909.135 442.323C907.566 436.868 904.13 432.175 899.457 429.104C894.783 426.032 889.186 424.789 883.691 425.601C878.195 426.413 873.169 429.226 869.534 433.525C865.899 437.824 863.899 443.321 863.899 449.008H829.265Z" fill="#F4263E"/>
<defs>
<filter id="filter0_d" x="160" y="55" width="889" height="546" filterUnits="userSpaceOnUse" color-interpolation-filters="sRGB">
<feFlood flood-opacity="0" result="BackgroundImageFix"/>
<feColorMatrix in="SourceAlpha" type="matrix" values="0 0 0 0 0 0 0 0 0 0 0 0 0 0 0 0 0 0 127 0"/>
<feOffset dy="2"/>
<feGaussianBlur stdDeviation="17.5"/>
<feColorMatrix type="matrix" values="0 0 0 0 0.4 0 0 0 0 0 0 0 0 0 0.0466019 0 0 0 0.4 0"/>
<feBlend mode="normal" in2="BackgroundImageFix" result="effect1_dropShadow"/>
<feBlend mode="normal" in="SourceGraphic" in2="effect1_dropShadow" result="shape"/>
</filter>
<filter id="filter1_d" x="257.717" y="431.36" width="17.2833" height="83.6398" filterUnits="userSpaceOnUse" color-interpolation-filters="sRGB">
<feFlood flood-opacity="0" result="BackgroundImageFix"/>
<feColorMatrix in="SourceAlpha" type="matrix" values="0 0 0 0 0 0 0 0 0 0 0 0 0 0 0 0 0 0 127 0"/>
<feOffset dy="4"/>
<feGaussianBlur stdDeviation="2.5"/>
<feColorMatrix type="matrix" values="0 0 0 0 0.956863 0 0 0 0 0.14902 0 0 0 0 0.243137 0 0 0 0.4 0"/>
<feBlend mode="normal" in2="BackgroundImageFix" result="effect1_dropShadow"/>
<feBlend mode="normal" in="SourceGraphic" in2="effect1_dropShadow" result="shape"/>
</filter>
<filter id="filter2_d" x="403.657" y="430.36" width="16.3431" height="83.6398" filterUnits="userSpaceOnUse" color-interpolation-filters="sRGB">
<feFlood flood-opacity="0" result="BackgroundImageFix"/>
<feColorMatrix in="SourceAlpha" type="matrix" values="0 0 0 0 0 0 0 0 0 0 0 0 0 0 0 0 0 0 127 0"/>
<feOffset dy="3"/>
<feGaussianBlur stdDeviation="2.5"/>
<feColorMatrix type="matrix" values="0 0 0 0 0.956863 0 0 0 0 0.14902 0 0 0 0 0.243137 0 0 0 0.3 0"/>
<feBlend mode="normal" in2="BackgroundImageFix" result="effect1_dropShadow"/>
<feBlend mode="normal" in="SourceGraphic" in2="effect1_dropShadow" result="shape"/>
</filter>
<filter id="filter3_d" x="282.207" y="398.122" width="16.7934" height="115.878" filterUnits="userSpaceOnUse" color-interpolation-filters="sRGB">
<feFlood flood-opacity="0" result="BackgroundImageFix"/>
<feColorMatrix in="SourceAlpha" type="matrix" values="0 0 0 0 0 0 0 0 0 0 0 0 0 0 0 0 0 0 127 0"/>
<feOffset dy="3"/>
<feGaussianBlur stdDeviation="2.5"/>
<feColorMatrix type="matrix" values="0 0 0 0 0.956863 0 0 0 0 0.14902 0 0 0 0 0.243137 0 0 0 0.3 0"/>
<feBlend mode="normal" in2="BackgroundImageFix" result="effect1_dropShadow"/>
<feBlend mode="normal" in="SourceGraphic" in2="effect1_dropShadow" result="shape"/>
</filter>
<filter id="filter4_d" x="428.145" y="398.122" width="15.8555" height="115.878" filterUnits="userSpaceOnUse" color-interpolation-filters="sRGB">
<feFlood flood-opacity="0" result="BackgroundImageFix"/>
<feColorMatrix in="SourceAlpha" type="matrix" values="0 0 0 0 0 0 0 0 0 0 0 0 0 0 0 0 0 0 127 0"/>
<feOffset dy="3"/>
<feGaussianBlur stdDeviation="2.5"/>
<feColorMatrix type="matrix" values="0 0 0 0 0.956863 0 0 0 0 0.14902 0 0 0 0 0.243137 0 0 0 0.3 0"/>
<feBlend mode="normal" in2="BackgroundImageFix" result="effect1_dropShadow"/>
<feBlend mode="normal" in="SourceGraphic" in2="effect1_dropShadow" result="shape"/>
</filter>
<filter id="filter5_d" x="306.699" y="447.781" width="16.3011" height="67.2195" filterUnits="userSpaceOnUse" color-interpolation-filters="sRGB">
<feFlood flood-opacity="0" result="BackgroundImageFix"/>
<feColorMatrix in="SourceAlpha" type="matrix" values="0 0 0 0 0 0 0 0 0 0 0 0 0 0 0 0 0 0 127 0"/>
<feOffset dy="3"/>
<feGaussianBlur stdDeviation="2.5"/>
<feColorMatrix type="matrix" values="0 0 0 0 0.956863 0 0 0 0 0.14902 0 0 0 0 0.243137 0 0 0 0.3 0"/>
<feBlend mode="normal" in2="BackgroundImageFix" result="effect1_dropShadow"/>
<feBlend mode="normal" in="SourceGraphic" in2="effect1_dropShadow" result="shape"/>
</filter>
<filter id="filter6_d" x="330.189" y="394.052" width="17.8114" height="120.948" filterUnits="userSpaceOnUse" color-interpolation-filters="sRGB">
<feFlood flood-opacity="0" result="BackgroundImageFix"/>
<feColorMatrix in="SourceAlpha" type="matrix" values="0 0 0 0 0 0 0 0 0 0 0 0 0 0 0 0 0 0 127 0"/>
<feOffset dy="3"/>
<feGaussianBlur stdDeviation="2.5"/>
<feColorMatrix type="matrix" values="0 0 0 0 0.956863 0 0 0 0 0.14902 0 0 0 0 0.243137 0 0 0 0.3 0"/>
<feBlend mode="normal" in2="BackgroundImageFix" result="effect1_dropShadow"/>
<feBlend mode="normal" in="SourceGraphic" in2="effect1_dropShadow" result="shape"/>
</filter>
<filter id="filter7_d" x="354.679" y="457" width="17.3214" height="56.4568" filterUnits="userSpaceOnUse" color-interpolation-filters="sRGB">
<feFlood flood-opacity="0" result="BackgroundImageFix"/>
<feColorMatrix in="SourceAlpha" type="matrix" values="0 0 0 0 0 0 0 0 0 0 0 0 0 0 0 0 0 0 127 0"/>
<feOffset dy="3"/>
<feGaussianBlur stdDeviation="2.5"/>
<feColorMatrix type="matrix" values="0 0 0 0 0.956863 0 0 0 0 0.14902 0 0 0 0 0.243137 0 0 0 0.3 0"/>
<feBlend mode="normal" in2="BackgroundImageFix" result="effect1_dropShadow"/>
<feBlend mode="normal" in="SourceGraphic" in2="effect1_dropShadow" result="shape"/>
</filter>
<filter id="filter8_d" x="379.167" y="411.938" width="16.8336" height="102.063" filterUnits="userSpaceOnUse" color-interpolation-filters="sRGB">
<feFlood flood-opacity="0" result="BackgroundImageFix"/>
<feColorMatrix in="SourceAlpha" type="matrix" values="0 0 0 0 0 0 0 0 0 0 0 0 0 0 0 0 0 0 127 0"/>
<feOffset dy="3"/>
<feGaussianBlur stdDeviation="2.5"/>
<feColorMatrix type="matrix" values="0 0 0 0 0.956863 0 0 0 0 0.14902 0 0 0 0 0.243137 0 0 0 0.3 0"/>
<feBlend mode="normal" in2="BackgroundImageFix" result="effect1_dropShadow"/>
<feBlend mode="normal" in="SourceGraphic" in2="effect1_dropShadow" result="shape"/>
</filter>
<filter id="filter9_d" x="508.375" y="463.94" width="231.625" height="26.0596" filterUnits="userSpaceOnUse" color-interpolation-filters="sRGB">
<feFlood flood-opacity="0" result="BackgroundImageFix"/>
<feColorMatrix in="SourceAlpha" type="matrix" values="0 0 0 0 0 0 0 0 0 0 0 0 0 0 0 0 0 0 127 0"/>
<feOffset dy="3"/>
<feGaussianBlur stdDeviation="3.5"/>
<feColorMatrix type="matrix" values="0 0 0 0 0.956863 0 0 0 0 0.14902 0 0 0 0 0.243137 0 0 0 0.2 0"/>
<feBlend mode="normal" in2="BackgroundImageFix" result="effect1_dropShadow"/>
<feBlend mode="normal" in="SourceGraphic" in2="effect1_dropShadow" result="shape"/>
</filter>
<filter id="filter10_d" x="508.041" y="431.21" width="151.959" height="25.7896" filterUnits="userSpaceOnUse" color-interpolation-filters="sRGB">
<feFlood flood-opacity="0" result="BackgroundImageFix"/>
<feColorMatrix in="SourceAlpha" type="matrix" values="0 0 0 0 0 0 0 0 0 0 0 0 0 0 0 0 0 0 127 0"/>
<feOffset dy="3"/>
<feGaussianBlur stdDeviation="3.5"/>
<feColorMatrix type="matrix" values="0 0 0 0 0.956863 0 0 0 0 0.14902 0 0 0 0 0.243137 0 0 0 0.2 0"/>
<feBlend mode="normal" in2="BackgroundImageFix" result="effect1_dropShadow"/>
<feBlend mode="normal" in="SourceGraphic" in2="effect1_dropShadow" result="shape"/>
</filter>
<filter id="filter11_d" x="509.413" y="398.479" width="198.587" height="25.5215" filterUnits="userSpaceOnUse" color-interpolation-filters="sRGB">
<feFlood flood-opacity="0" result="BackgroundImageFix"/>
<feColorMatrix in="SourceAlpha" type="matrix" values="0 0 0 0 0 0 0 0 0 0 0 0 0 0 0 0 0 0 127 0"/>
<feOffset dy="3"/>
<feGaussianBlur stdDeviation="3.5"/>
<feColorMatrix type="matrix" values="0 0 0 0 0.956863 0 0 0 0 0.14902 0 0 0 0 0.243137 0 0 0 0.2 0"/>
<feBlend mode="normal" in2="BackgroundImageFix" result="effect1_dropShadow"/>
<feBlend mode="normal" in="SourceGraphic" in2="effect1_dropShadow" result="shape"/>
</filter>
<filter id="filter12_d" x="251.545" y="154.037" width="491.992" height="176.941" filterUnits="userSpaceOnUse" color-interpolation-filters="sRGB">
<feFlood flood-opacity="0" result="BackgroundImageFix"/>
<feColorMatrix in="SourceAlpha" type="matrix" values="0 0 0 0 0 0 0 0 0 0 0 0 0 0 0 0 0 0 127 0"/>
<feOffset dy="3"/>
<feGaussianBlur stdDeviation="3"/>
<feColorMatrix type="matrix" values="0 0 0 0 0.956863 0 0 0 0 0.14902 0 0 0 0 0.243137 0 0 0 0.33 0"/>
<feBlend mode="normal" in2="BackgroundImageFix" result="effect1_dropShadow"/>
<feBlend mode="normal" in="SourceGraphic" in2="effect1_dropShadow" result="shape"/>
</filter>
<filter id="filter13_d" x="802.043" y="168" width="44.9574" height="44.9284" filterUnits="userSpaceOnUse" color-interpolation-filters="sRGB">
<feFlood flood-opacity="0" result="BackgroundImageFix"/>
<feColorMatrix in="SourceAlpha" type="matrix" values="0 0 0 0 0 0 0 0 0 0 0 0 0 0 0 0 0 0 127 0"/>
<feOffset dy="4"/>
<feGaussianBlur stdDeviation="3"/>
<feColorMatrix type="matrix" values="0 0 0 0 0.956863 0 0 0 0 0.14902 0 0 0 0 0.243137 0 0 0 0.2 0"/>
<feBlend mode="normal" in2="BackgroundImageFix" result="effect1_dropShadow"/>
<feBlend mode="normal" in="SourceGraphic" in2="effect1_dropShadow" result="shape"/>
</filter>
<filter id="filter14_d" x="802.043" y="224" width="44.9574" height="44.9284" filterUnits="userSpaceOnUse" color-interpolation-filters="sRGB">
<feFlood flood-opacity="0" result="BackgroundImageFix"/>
<feColorMatrix in="SourceAlpha" type="matrix" values="0 0 0 0 0 0 0 0 0 0 0 0 0 0 0 0 0 0 127 0"/>
<feOffset dy="4"/>
<feGaussianBlur stdDeviation="3"/>
<feColorMatrix type="matrix" values="0 0 0 0 0.956863 0 0 0 0 0.14902 0 0 0 0 0.243137 0 0 0 0.2 0"/>
<feBlend mode="normal" in2="BackgroundImageFix" result="effect1_dropShadow"/>
<feBlend mode="normal" in="SourceGraphic" in2="effect1_dropShadow" result="shape"/>
</filter>
<filter id="filter15_d" x="802.043" y="279.776" width="44.9574" height="44.9284" filterUnits="userSpaceOnUse" color-interpolation-filters="sRGB">
<feFlood flood-opacity="0" result="BackgroundImageFix"/>
<feColorMatrix in="SourceAlpha" type="matrix" values="0 0 0 0 0 0 0 0 0 0 0 0 0 0 0 0 0 0 127 0"/>
<feOffset dy="4"/>
<feGaussianBlur stdDeviation="3"/>
<feColorMatrix type="matrix" values="0 0 0 0 0.956863 0 0 0 0 0.14902 0 0 0 0 0.243137 0 0 0 0.2 0"/>
<feBlend mode="normal" in2="BackgroundImageFix" result="effect1_dropShadow"/>
<feBlend mode="normal" in="SourceGraphic" in2="effect1_dropShadow" result="shape"/>
</filter>
<filter id="filter16_d" x="841.524" y="431.423" width="110.491" height="91.5773" filterUnits="userSpaceOnUse" color-interpolation-filters="sRGB">
<feFlood flood-opacity="0" result="BackgroundImageFix"/>
<feColorMatrix in="SourceAlpha" type="matrix" values="0 0 0 0 0 0 0 0 0 0 0 0 0 0 0 0 0 0 127 0"/>
<feOffset dy="7"/>
<feGaussianBlur stdDeviation="5"/>
<feColorMatrix type="matrix" values="0 0 0 0 0.104167 0 0 0 0 0.4625 0 0 0 0 1 0 0 0 0.17 0"/>
<feBlend mode="normal" in2="BackgroundImageFix" result="effect1_dropShadow"/>
<feBlend mode="normal" in="SourceGraphic" in2="effect1_dropShadow" result="shape"/>
</filter>
<filter id="filter17_d" x="816" y="438" width="68.5001" height="69.5" filterUnits="userSpaceOnUse" color-interpolation-filters="sRGB">
<feFlood flood-opacity="0" result="BackgroundImageFix"/>
<feColorMatrix in="SourceAlpha" type="matrix" values="0 0 0 0 0 0 0 0 0 0 0 0 0 0 0 0 0 0 127 0"/>
<feOffset dy="3"/>
<feGaussianBlur stdDeviation="7.5"/>
<feColorMatrix type="matrix" values="0 0 0 0 1 0 0 0 0 0.80475 0 0 0 0 0.1125 0 0 0 0.3 0"/>
<feBlend mode="normal" in2="BackgroundImageFix" result="effect1_dropShadow"/>
<feBlend mode="normal" in="SourceGraphic" in2="effect1_dropShadow" result="shape"/>
</filter>
<filter id="filter18_d" x="825.5" y="390.866" width="120.5" height="66.6335" filterUnits="userSpaceOnUse" color-interpolation-filters="sRGB">
<feFlood flood-opacity="0" result="BackgroundImageFix"/>
<feColorMatrix in="SourceAlpha" type="matrix" values="0 0 0 0 0 0 0 0 0 0 0 0 0 0 0 0 0 0 127 0"/>
<feOffset dy="5"/>
<feGaussianBlur stdDeviation="3"/>
<feColorMatrix type="matrix" values="0 0 0 0 0.956863 0 0 0 0 0.14902 0 0 0 0 0.243137 0 0 0 0.28 0"/>
<feBlend mode="normal" in2="BackgroundImageFix" result="effect1_dropShadow"/>
<feBlend mode="normal" in="SourceGraphic" in2="effect1_dropShadow" result="shape"/>
</filter>
</defs>
</svg>
