<svg width="239" height="221" viewBox="0 0 239 221" fill="none" xmlns="http://www.w3.org/2000/svg">
<g filter="url(#filter0_d)">
<path d="M176.52 33.0002H62.4047C47.6697 33.0002 35.7246 44.9453 35.7246 59.6803V157.346C35.7246 172.081 47.6697 184.026 62.4047 184.026H176.52C191.255 184.026 203.2 172.081 203.2 157.346V59.6803C203.2 44.9453 191.255 33.0002 176.52 33.0002Z" fill="white" fill-opacity="0.01"/>
</g>
<path d="M176.52 33.0002H62.4047C47.6697 33.0002 35.7246 44.9453 35.7246 59.6803V157.346C35.7246 172.081 47.6697 184.026 62.4047 184.026H176.52C191.255 184.026 203.2 172.081 203.2 157.346V59.6803C203.2 44.9453 191.255 33.0002 176.52 33.0002Z" fill="white"/>
<path opacity="0.3" d="M175.682 108.513C175.682 139.563 150.512 164.734 119.462 164.734C88.412 164.734 63.2412 139.563 63.2412 108.513C63.2412 77.4635 88.412 52.2927 119.462 52.2927C150.512 52.2927 175.682 77.4635 175.682 108.513ZM82.0102 108.513C82.0102 129.197 98.7779 145.965 119.462 145.965C140.146 145.965 156.913 129.197 156.913 108.513C156.913 87.8294 140.146 71.0617 119.462 71.0617C98.7779 71.0617 82.0102 87.8294 82.0102 108.513Z" fill="#E7E8F1"/>
<g filter="url(#filter1_d)">
<path d="M111.329 154.638C110.429 159.742 105.519 163.224 100.636 161.488C94.1972 159.2 88.2043 155.748 82.9668 151.279C75.3392 144.769 69.5914 136.339 66.3191 126.86C63.0468 117.382 62.3691 107.2 64.3562 97.3718C66.3434 87.5433 70.9231 78.4251 77.6207 70.9623C84.3182 63.4996 92.8899 57.964 102.447 54.9292C112.004 51.8945 122.199 51.4711 131.975 53.703C141.751 55.9349 150.752 60.7407 158.045 67.6225C163.053 72.3478 167.131 77.9338 170.099 84.0883C172.351 88.7565 169.419 94.0125 164.441 95.4573C159.464 96.9021 154.351 93.9445 151.717 89.4808C149.937 86.4641 147.734 83.6988 145.164 81.2737C140.306 76.6894 134.31 73.488 127.798 72.0012C121.285 70.5144 114.494 70.7965 108.127 72.8181C101.761 74.8397 96.0508 78.5272 91.5892 83.4986C87.1276 88.4699 84.0768 94.544 82.753 101.091C81.4292 107.639 81.8807 114.421 84.0606 120.735C86.2404 127.049 90.0694 132.665 95.1505 137.002C97.8384 139.295 100.825 141.187 104.016 142.631C108.737 144.769 112.229 149.534 111.329 154.638Z" fill="#782CE4" fill-opacity="0.01"/>
</g>
<path d="M111.329 154.638C110.429 159.742 105.519 163.224 100.636 161.488C94.1972 159.2 88.2043 155.748 82.9668 151.279C75.3392 144.769 69.5914 136.339 66.3191 126.86C63.0468 117.382 62.3691 107.2 64.3562 97.3718C66.3434 87.5433 70.9231 78.4251 77.6207 70.9623C84.3182 63.4996 92.8899 57.964 102.447 54.9292C112.004 51.8945 122.199 51.4711 131.975 53.703C141.751 55.9349 150.752 60.7407 158.045 67.6225C163.053 72.3478 167.131 77.9338 170.099 84.0883C172.351 88.7565 169.419 94.0125 164.441 95.4573C159.464 96.9021 154.351 93.9445 151.717 89.4808C149.937 86.4641 147.734 83.6988 145.164 81.2737C140.306 76.6894 134.31 73.488 127.798 72.0012C121.285 70.5144 114.494 70.7965 108.127 72.8181C101.761 74.8397 96.0508 78.5272 91.5892 83.4986C87.1276 88.4699 84.0768 94.544 82.753 101.091C81.4292 107.639 81.8807 114.421 84.0606 120.735C86.2404 127.049 90.0694 132.665 95.1505 137.002C97.8384 139.295 100.825 141.187 104.016 142.631C108.737 144.769 112.229 149.534 111.329 154.638Z" fill="#782CE4"/>
<g filter="url(#filter2_d)">
<path d="M46.8106 67.6166C61.4319 65.0385 71.1949 51.0956 68.6167 36.4742C66.0386 21.8529 52.0956 12.0899 37.4743 14.6681C22.8529 17.2462 13.09 31.1891 15.6681 45.8105C18.2463 60.4318 32.1892 70.1948 46.8106 67.6166Z" fill="#FFCD1D" fill-opacity="0.01"/>
</g>
<path d="M46.8106 67.6166C61.4319 65.0385 71.1949 51.0956 68.6167 36.4742C66.0386 21.8529 52.0956 12.0899 37.4743 14.6681C22.8529 17.2462 13.09 31.1891 15.6681 45.8105C18.2463 60.4318 32.1892 70.1948 46.8106 67.6166Z" fill="#FFCD1D"/>
<g filter="url(#filter3_d)">
<path d="M39.3248 25.1623C36.1643 25.7196 33.24 27.2016 30.9217 29.4208C28.6034 31.6401 26.9953 34.497 26.3007 37.6302C25.606 40.7635 25.8561 44.0323 27.0193 47.0234C28.1825 50.0145 30.2065 52.5935 32.8354 54.4343C35.4643 56.2751 38.58 57.2949 41.7886 57.365C44.9971 57.435 48.1543 56.552 50.861 54.8276C53.5677 53.1032 55.7023 50.615 56.9949 47.6775C58.2874 44.74 58.6798 41.4851 58.1225 38.3246C57.3709 34.0886 54.9696 30.3239 51.4455 27.8563C47.9214 25.3887 43.5624 24.4198 39.3248 25.1623ZM34.976 35.5406C35.8445 35.409 36.7325 35.5459 37.521 35.933C38.3095 36.3201 38.9609 36.9389 39.3879 37.7065C39.479 37.8591 39.5391 38.028 39.5649 38.2038C39.5907 38.3796 39.5816 38.5587 39.5381 38.731C39.4947 38.9033 39.4177 39.0653 39.3117 39.2078C39.2056 39.3503 39.0725 39.4706 38.92 39.5617C38.7674 39.6528 38.5985 39.7129 38.4227 39.7387C38.2469 39.7645 38.0678 39.7554 37.8955 39.7119C37.7232 39.6685 37.5612 39.5915 37.4187 39.4855C37.2762 39.3794 37.1559 39.2463 37.0648 39.0938C36.9165 38.7992 36.6823 38.5565 36.3933 38.3977C36.1042 38.2388 35.7738 38.1713 35.4456 38.2039C35.126 38.2855 34.8387 38.462 34.6214 38.7101C34.4041 38.9582 34.2671 39.2664 34.2284 39.5939C34.1609 39.9463 33.9562 40.2575 33.6592 40.4589C33.3623 40.6603 32.9976 40.7356 32.6452 40.6681C32.2928 40.6006 31.9816 40.3959 31.7802 40.0989C31.5787 39.802 31.5035 39.4373 31.571 39.0849C31.7097 38.2175 32.1101 37.4132 32.7187 36.7797C33.3273 36.1463 34.1149 35.7139 34.976 35.5406ZM36.4337 47.2416C36.4691 47.1436 36.5297 47.0566 36.6095 46.9895C36.6893 46.9224 36.7854 46.8775 36.8881 46.8594L49.0355 44.7175C49.138 44.6996 49.2435 44.7089 49.3413 44.7445C49.4391 44.7802 49.5258 44.8409 49.5927 44.9206C49.6596 45.0003 49.7044 45.0962 49.7225 45.1987C49.7406 45.3012 49.7315 45.4067 49.6961 45.5045C49.2327 46.7769 48.4426 47.9049 47.4052 48.7753C46.3678 49.6456 45.1196 50.2276 43.786 50.4627C42.4524 50.6979 41.0804 50.5779 39.8079 50.1149C38.5354 49.6519 37.4072 48.8621 36.5365 47.8249C36.4698 47.7452 36.4252 47.6494 36.4072 47.547C36.3891 47.4447 36.3983 47.3394 36.4337 47.2416ZM50.4462 37.6185C50.1762 37.6663 49.8981 37.6308 49.6487 37.5169C49.3993 37.4029 49.1905 37.2159 49.0498 36.9805C48.9015 36.6859 48.6673 36.4432 48.3783 36.2844C48.0892 36.1255 47.7588 36.058 47.4306 36.0907C47.111 36.1722 46.8237 36.3487 46.6064 36.5968C46.3891 36.845 46.2521 37.1531 46.2134 37.4806C46.18 37.6551 46.1125 37.8213 46.0148 37.9697C45.9172 38.1181 45.7913 38.2459 45.6442 38.3456C45.4972 38.4454 45.332 38.5152 45.158 38.5511C44.984 38.587 44.8046 38.5882 44.6302 38.5548C44.4557 38.5214 44.2895 38.4539 44.1411 38.3563C43.9926 38.2586 43.8649 38.1327 43.7652 37.9857C43.6654 37.8386 43.5956 37.6734 43.5597 37.4994C43.5238 37.3254 43.5226 37.1461 43.556 36.9716C43.6745 36.0961 44.0682 35.281 44.6803 34.644C45.2923 34.007 46.091 33.581 46.961 33.4276C47.831 33.2742 48.7273 33.4013 49.5203 33.7906C50.3133 34.1799 50.9621 34.8111 51.3729 35.5933C51.4853 35.7814 51.5502 35.994 51.5622 36.2128C51.5742 36.4317 51.5328 36.6501 51.4416 36.8494C51.3505 37.0487 51.2122 37.2228 51.0388 37.3568C50.8654 37.4908 50.662 37.5806 50.4462 37.6185Z" fill="white" fill-opacity="0.01"/>
</g>
<path d="M39.3248 25.1623C36.1643 25.7196 33.24 27.2016 30.9217 29.4208C28.6034 31.6401 26.9953 34.497 26.3007 37.6302C25.606 40.7635 25.8561 44.0323 27.0193 47.0234C28.1825 50.0145 30.2065 52.5935 32.8354 54.4343C35.4643 56.2751 38.58 57.2949 41.7886 57.365C44.9971 57.435 48.1543 56.552 50.861 54.8276C53.5677 53.1032 55.7023 50.615 56.9949 47.6775C58.2874 44.74 58.6798 41.4851 58.1225 38.3246C57.3709 34.0886 54.9696 30.3239 51.4455 27.8563C47.9214 25.3887 43.5624 24.4198 39.3248 25.1623ZM34.976 35.5406C35.8445 35.409 36.7325 35.5459 37.521 35.933C38.3095 36.3201 38.9609 36.9389 39.3879 37.7065C39.479 37.8591 39.5391 38.028 39.5649 38.2038C39.5907 38.3796 39.5816 38.5587 39.5381 38.731C39.4947 38.9033 39.4177 39.0653 39.3117 39.2078C39.2056 39.3503 39.0725 39.4706 38.92 39.5617C38.7674 39.6528 38.5985 39.7129 38.4227 39.7387C38.2469 39.7645 38.0678 39.7554 37.8955 39.7119C37.7232 39.6685 37.5612 39.5915 37.4187 39.4855C37.2762 39.3794 37.1559 39.2463 37.0648 39.0938C36.9165 38.7992 36.6823 38.5565 36.3933 38.3977C36.1042 38.2388 35.7738 38.1713 35.4456 38.2039C35.126 38.2855 34.8387 38.462 34.6214 38.7101C34.4041 38.9582 34.2671 39.2664 34.2284 39.5939C34.1609 39.9463 33.9562 40.2575 33.6592 40.4589C33.3623 40.6603 32.9976 40.7356 32.6452 40.6681C32.2928 40.6006 31.9816 40.3959 31.7802 40.0989C31.5787 39.802 31.5035 39.4373 31.571 39.0849C31.7097 38.2175 32.1101 37.4132 32.7187 36.7797C33.3273 36.1463 34.1149 35.7139 34.976 35.5406ZM36.4337 47.2416C36.4691 47.1436 36.5297 47.0566 36.6095 46.9895C36.6893 46.9224 36.7854 46.8775 36.8881 46.8594L49.0355 44.7175C49.138 44.6996 49.2435 44.7089 49.3413 44.7445C49.4391 44.7802 49.5258 44.8409 49.5927 44.9206C49.6596 45.0003 49.7044 45.0962 49.7225 45.1987C49.7406 45.3012 49.7315 45.4067 49.6961 45.5045C49.2327 46.7769 48.4426 47.9049 47.4052 48.7753C46.3678 49.6456 45.1196 50.2276 43.786 50.4627C42.4524 50.6979 41.0804 50.5779 39.8079 50.1149C38.5354 49.6519 37.4072 48.8621 36.5365 47.8249C36.4698 47.7452 36.4252 47.6494 36.4072 47.547C36.3891 47.4447 36.3983 47.3394 36.4337 47.2416ZM50.4462 37.6185C50.1762 37.6663 49.8981 37.6308 49.6487 37.5169C49.3993 37.4029 49.1905 37.2159 49.0498 36.9805C48.9015 36.6859 48.6673 36.4432 48.3783 36.2844C48.0892 36.1255 47.7588 36.058 47.4306 36.0907C47.111 36.1722 46.8237 36.3487 46.6064 36.5968C46.3891 36.845 46.2521 37.1531 46.2134 37.4806C46.18 37.6551 46.1125 37.8213 46.0148 37.9697C45.9172 38.1181 45.7913 38.2459 45.6442 38.3456C45.4972 38.4454 45.332 38.5152 45.158 38.5511C44.984 38.587 44.8046 38.5882 44.6302 38.5548C44.4557 38.5214 44.2895 38.4539 44.1411 38.3563C43.9926 38.2586 43.8649 38.1327 43.7652 37.9857C43.6654 37.8386 43.5956 37.6734 43.5597 37.4994C43.5238 37.3254 43.5226 37.1461 43.556 36.9716C43.6745 36.0961 44.0682 35.281 44.6803 34.644C45.2923 34.007 46.091 33.581 46.961 33.4276C47.831 33.2742 48.7273 33.4013 49.5203 33.7906C50.3133 34.1799 50.9621 34.8111 51.3729 35.5933C51.4853 35.7814 51.5502 35.994 51.5622 36.2128C51.5742 36.4317 51.5328 36.6501 51.4416 36.8494C51.3505 37.0487 51.2122 37.2228 51.0388 37.3568C50.8654 37.4908 50.662 37.5806 50.4462 37.6185Z" fill="white"/>
<defs>
<filter id="filter0_d" x="0.835209" y="0.163154" width="237.254" height="220.805" filterUnits="userSpaceOnUse" color-interpolation-filters="sRGB">
<feFlood flood-opacity="0" result="BackgroundImageFix"/>
<feColorMatrix in="SourceAlpha" type="matrix" values="0 0 0 0 0 0 0 0 0 0 0 0 0 0 0 0 0 0 127 0"/>
<feOffset dy="2.05231"/>
<feGaussianBlur stdDeviation="17.4447"/>
<feColorMatrix type="matrix" values="0 0 0 0 0.121042 0 0 0 0 0.143938 0 0 0 0 0.35 0 0 0 0.09 0"/>
<feBlend mode="normal" in2="BackgroundImageFix" result="effect1_dropShadow"/>
<feBlend mode="normal" in="SourceGraphic" in2="effect1_dropShadow" result="shape"/>
</filter>
<filter id="filter1_d" x="59.1366" y="52.2927" width="115.837" height="117.856" filterUnits="userSpaceOnUse" color-interpolation-filters="sRGB">
<feFlood flood-opacity="0" result="BackgroundImageFix"/>
<feColorMatrix in="SourceAlpha" type="matrix" values="0 0 0 0 0 0 0 0 0 0 0 0 0 0 0 0 0 0 127 0"/>
<feOffset dy="4.10463"/>
<feGaussianBlur stdDeviation="2.05231"/>
<feColorMatrix type="matrix" values="0 0 0 0 0.470588 0 0 0 0 0.172549 0 0 0 0 0.894118 0 0 0 0.14 0"/>
<feBlend mode="normal" in2="BackgroundImageFix" result="effect1_dropShadow"/>
<feBlend mode="normal" in="SourceGraphic" in2="effect1_dropShadow" result="shape"/>
</filter>
<filter id="filter2_d" x="9.09843" y="13.229" width="66.0883" height="66.0883" filterUnits="userSpaceOnUse" color-interpolation-filters="sRGB">
<feFlood flood-opacity="0" result="BackgroundImageFix"/>
<feColorMatrix in="SourceAlpha" type="matrix" values="0 0 0 0 0 0 0 0 0 0 0 0 0 0 0 0 0 0 127 0"/>
<feOffset dy="5.13078"/>
<feGaussianBlur stdDeviation="3.07847"/>
<feColorMatrix type="matrix" values="0 0 0 0 1 0 0 0 0 0.80475 0 0 0 0 0.1125 0 0 0 0.23 0"/>
<feBlend mode="normal" in2="BackgroundImageFix" result="effect1_dropShadow"/>
<feBlend mode="normal" in="SourceGraphic" in2="effect1_dropShadow" result="shape"/>
</filter>
<filter id="filter3_d" x="19.7591" y="20.8138" width="44.7669" height="44.7643" filterUnits="userSpaceOnUse" color-interpolation-filters="sRGB">
<feFlood flood-opacity="0" result="BackgroundImageFix"/>
<feColorMatrix in="SourceAlpha" type="matrix" values="0 0 0 0 0 0 0 0 0 0 0 0 0 0 0 0 0 0 127 0"/>
<feOffset dy="2.05231"/>
<feGaussianBlur stdDeviation="3.07847"/>
<feColorMatrix type="matrix" values="0 0 0 0 1 0 0 0 0 0.587917 0 0 0 0 0.104167 0 0 0 0.44 0"/>
<feBlend mode="normal" in2="BackgroundImageFix" result="effect1_dropShadow"/>
<feBlend mode="normal" in="SourceGraphic" in2="effect1_dropShadow" result="shape"/>
</filter>
</defs>
</svg>
