<svg width="172" height="172" viewBox="0 0 172 172" fill="none" xmlns="http://www.w3.org/2000/svg">
<path opacity="0.03" d="M96.9388 0H75.4668C34.0454 0 0.466797 33.5786 0.466797 75V96.472C0.466797 137.893 34.0454 171.472 75.4668 171.472H96.9388C138.36 171.472 171.939 137.893 171.939 96.472V75C171.939 33.5786 138.36 0 96.9388 0Z" fill="#F4263E"/>
<path d="M123.859 78.6751C132.957 78.6751 140.333 71.2991 140.333 62.2004C140.333 53.1016 132.957 45.7256 123.859 45.7256C114.76 45.7256 107.384 53.1016 107.384 62.2004C107.384 71.2991 114.76 78.6751 123.859 78.6751Z" fill="#782CE4"/>
<path d="M42.8285 149.281C52.113 149.281 59.6395 141.755 59.6395 132.47C59.6395 123.186 52.113 115.659 42.8285 115.659C33.5441 115.659 26.0176 123.186 26.0176 132.47C26.0176 141.755 33.5441 149.281 42.8285 149.281Z" fill="#FF961B"/>
<g filter="url(#filter0_d)">
<path d="M41.2754 72.7754H130.564V129.134C130.564 132.282 128.012 134.833 124.864 134.833H46.9746C43.827 134.833 41.2754 132.282 41.2754 129.134V72.7754Z" fill="#F4263E" fill-opacity="0.01"/>
</g>
<path d="M41.2754 72.7754H130.564V129.134C130.564 132.282 128.012 134.833 124.864 134.833H46.9746C43.827 134.833 41.2754 132.282 41.2754 129.134V72.7754Z" fill="#F4263E"/>
<path d="M130.564 72.7753L87.7267 43.0019C86.6399 42.2468 85.199 42.2468 84.1123 43.0019L41.2754 72.7753H130.564Z" fill="#F4263E"/>
<path d="M41.2754 72.7754L85.1964 103.302C85.6314 103.604 86.2075 103.604 86.6424 103.302L130.564 72.7754H41.2754Z" fill="#C6182C"/>
<g filter="url(#filter1_d)">
<path d="M55.1094 41.7944C55.1094 38.9966 57.3776 36.7285 60.1755 36.7285H111.269C114.067 36.7285 116.335 38.9966 116.335 41.7944V82.6662L85.4695 104.131L55.1094 82.3947V41.7944Z" fill="white" fill-opacity="0.01"/>
</g>
<path d="M55.1094 41.7944C55.1094 38.9966 57.3776 36.7285 60.1755 36.7285H111.269C114.067 36.7285 116.335 38.9966 116.335 41.7944V82.6662L85.4695 104.131L55.1094 82.3947V41.7944Z" fill="white"/>
<path d="M121.225 126.601L86.7871 99.6622C86.0946 99.1204 85.1211 99.1248 84.4331 99.6723L50.6182 126.601" stroke="#C6182C" stroke-width="4" stroke-linecap="round"/>
<path d="M90.5952 105.187L85.6284 101.268L80.8447 105.074L90.5952 105.187Z" fill="#F4263E"/>
<path d="M108.718 72.7988H62.4913C61.617 72.7988 60.9082 73.5076 60.9082 74.3819C60.9082 75.2563 61.617 75.965 62.4913 75.965H108.718C109.593 75.965 110.302 75.2563 110.302 74.3819C110.302 73.5076 109.593 72.7988 108.718 72.7988Z" fill="#E7E8F1"/>
<g filter="url(#filter2_d)">
<path d="M72.3067 43.0361H63.4412C62.0423 43.0361 60.9082 44.1701 60.9082 45.5691V54.4345C60.9082 55.8335 62.0423 56.9675 63.4412 56.9675H72.3067C73.7056 56.9675 74.8397 55.8335 74.8397 54.4345V45.5691C74.8397 44.1701 73.7056 43.0361 72.3067 43.0361Z" fill="#1B76FF" fill-opacity="0.01"/>
</g>
<path d="M72.3067 43.0361H63.4412C62.0423 43.0361 60.9082 44.1701 60.9082 45.5691V54.4345C60.9082 55.8335 62.0423 56.9675 63.4412 56.9675H72.3067C73.7056 56.9675 74.8397 55.8335 74.8397 54.4345V45.5691C74.8397 44.1701 73.7056 43.0361 72.3067 43.0361Z" fill="#1B76FF"/>
<path d="M101.119 60.1338H62.4913C61.617 60.1338 60.9082 60.8426 60.9082 61.7169C60.9082 62.5913 61.617 63.3001 62.4913 63.3001H101.119C101.994 63.3001 102.703 62.5913 102.703 61.7169C102.703 60.8426 101.994 60.1338 101.119 60.1338Z" fill="#E7E8F1"/>
<path d="M88.4545 66.4663H62.4913C61.617 66.4663 60.9082 67.1751 60.9082 68.0494C60.9082 68.9237 61.617 69.6325 62.4913 69.6325H88.4545C89.3289 69.6325 90.0376 68.9237 90.0376 68.0494C90.0376 67.1751 89.3289 66.4663 88.4545 66.4663Z" fill="#E7E8F1"/>
<g filter="url(#filter3_d)">
<path d="M74.5231 79.1318H62.4913C61.617 79.1318 60.9082 79.8406 60.9082 80.7149C60.9082 81.5893 61.617 82.2981 62.4913 82.2981H74.5231C75.3974 82.2981 76.1062 81.5893 76.1062 80.7149C76.1062 79.8406 75.3974 79.1318 74.5231 79.1318Z" fill="#F4263E" fill-opacity="0.01"/>
</g>
<path d="M74.5231 79.1318H62.4913C61.617 79.1318 60.9082 79.8406 60.9082 80.7149C60.9082 81.5893 61.617 82.2981 62.4913 82.2981H74.5231C75.3974 82.2981 76.1062 81.5893 76.1062 80.7149C76.1062 79.8406 75.3974 79.1318 74.5231 79.1318Z" fill="#F4263E"/>
<defs>
<filter id="filter0_d" x="26.2754" y="71.7754" width="119.289" height="92.0576" filterUnits="userSpaceOnUse" color-interpolation-filters="sRGB">
<feFlood flood-opacity="0" result="BackgroundImageFix"/>
<feColorMatrix in="SourceAlpha" type="matrix" values="0 0 0 0 0 0 0 0 0 0 0 0 0 0 0 0 0 0 127 0"/>
<feOffset dy="14"/>
<feGaussianBlur stdDeviation="7.5"/>
<feColorMatrix type="matrix" values="0 0 0 0 0.956863 0 0 0 0 0.14902 0 0 0 0 0.243137 0 0 0 0.21 0"/>
<feBlend mode="normal" in2="BackgroundImageFix" result="effect1_dropShadow"/>
<feBlend mode="normal" in="SourceGraphic" in2="effect1_dropShadow" result="shape"/>
</filter>
<filter id="filter1_d" x="36.1094" y="11.7285" width="99.2256" height="105.403" filterUnits="userSpaceOnUse" color-interpolation-filters="sRGB">
<feFlood flood-opacity="0" result="BackgroundImageFix"/>
<feColorMatrix in="SourceAlpha" type="matrix" values="0 0 0 0 0 0 0 0 0 0 0 0 0 0 0 0 0 0 127 0"/>
<feOffset dy="-6"/>
<feGaussianBlur stdDeviation="9.5"/>
<feColorMatrix type="matrix" values="0 0 0 0 0.121042 0 0 0 0 0.143938 0 0 0 0 0.35 0 0 0 0.1 0"/>
<feBlend mode="normal" in2="BackgroundImageFix" result="effect1_dropShadow"/>
<feBlend mode="normal" in="SourceGraphic" in2="effect1_dropShadow" result="shape"/>
</filter>
<filter id="filter2_d" x="56.9082" y="42.0361" width="21.9315" height="21.9314" filterUnits="userSpaceOnUse" color-interpolation-filters="sRGB">
<feFlood flood-opacity="0" result="BackgroundImageFix"/>
<feColorMatrix in="SourceAlpha" type="matrix" values="0 0 0 0 0 0 0 0 0 0 0 0 0 0 0 0 0 0 127 0"/>
<feOffset dy="3"/>
<feGaussianBlur stdDeviation="2"/>
<feColorMatrix type="matrix" values="0 0 0 0 0.104167 0 0 0 0 0.4625 0 0 0 0 1 0 0 0 0.24 0"/>
<feBlend mode="normal" in2="BackgroundImageFix" result="effect1_dropShadow"/>
<feBlend mode="normal" in="SourceGraphic" in2="effect1_dropShadow" result="shape"/>
</filter>
<filter id="filter3_d" x="56.9082" y="78.1318" width="23.198" height="11.1663" filterUnits="userSpaceOnUse" color-interpolation-filters="sRGB">
<feFlood flood-opacity="0" result="BackgroundImageFix"/>
<feColorMatrix in="SourceAlpha" type="matrix" values="0 0 0 0 0 0 0 0 0 0 0 0 0 0 0 0 0 0 127 0"/>
<feOffset dy="3"/>
<feGaussianBlur stdDeviation="2"/>
<feColorMatrix type="matrix" values="0 0 0 0 0.956863 0 0 0 0 0.14902 0 0 0 0 0.243137 0 0 0 0.22 0"/>
<feBlend mode="normal" in2="BackgroundImageFix" result="effect1_dropShadow"/>
<feBlend mode="normal" in="SourceGraphic" in2="effect1_dropShadow" result="shape"/>
</filter>
</defs>
</svg>
