<svg width="332" height="489" viewBox="0 0 332 489" fill="none" xmlns="http://www.w3.org/2000/svg">
<g filter="url(#filter0_d)">
<path d="M248.057 14.1621H44.1381C25.436 14.1621 10.2749 29.3232 10.2749 48.0253V419.42C10.2749 438.122 25.436 453.283 44.1381 453.283H248.057C266.759 453.283 281.92 438.122 281.92 419.42V48.0253C281.92 29.3232 266.759 14.1621 248.057 14.1621Z" fill="white" fill-opacity="0.01"/>
</g>
<path d="M248.057 14.1621H44.1381C25.436 14.1621 10.2749 29.3232 10.2749 48.0253V419.42C10.2749 438.122 25.436 453.283 44.1381 453.283H248.057C266.759 453.283 281.92 438.122 281.92 419.42V48.0253C281.92 29.3232 266.759 14.1621 248.057 14.1621Z" fill="white"/>
<path d="M189.888 62.3372H84.0418C80.9474 62.3372 78.439 64.8456 78.439 67.94C78.439 71.0343 80.9474 73.5428 84.0418 73.5428H189.888C192.982 73.5428 195.491 71.0343 195.491 67.94C195.491 64.8456 192.982 62.3372 189.888 62.3372Z" fill="#E7E8F1"/>
<g filter="url(#filter1_d)">
<path d="M232.484 98.8564H59.71C42.7081 98.8564 28.9253 112.639 28.9253 129.641V251.197C28.9253 268.199 42.7081 281.981 59.71 281.981H232.484C249.486 281.981 263.268 268.199 263.268 251.197V129.641C263.268 112.639 249.486 98.8564 232.484 98.8564Z" fill="#1B76FF" fill-opacity="0.01"/>
</g>
<path d="M232.484 98.8564H59.71C42.7081 98.8564 28.9253 112.639 28.9253 129.641V251.197C28.9253 268.199 42.7081 281.981 59.71 281.981H232.484C249.486 281.981 263.268 268.199 263.268 251.197V129.641C263.268 112.639 249.486 98.8564 232.484 98.8564Z" fill="#1B76FF"/>
<g filter="url(#filter2_d)">
<path d="M48.4223 333.289C59.1902 333.289 67.9193 324.56 67.9193 313.792C67.9193 303.024 59.1902 294.295 48.4223 294.295C37.6544 294.295 28.9253 303.024 28.9253 313.792C28.9253 324.56 37.6544 333.289 48.4223 333.289Z" fill="#F4263E" fill-opacity="0.01"/>
</g>
<path d="M48.4223 333.289C59.1902 333.289 67.9193 324.56 67.9193 313.792C67.9193 303.024 59.1902 294.295 48.4223 294.295C37.6544 294.295 28.9253 303.024 28.9253 313.792C28.9253 324.56 37.6544 333.289 48.4223 333.289Z" fill="#F4263E"/>
<g filter="url(#filter3_d)">
<path d="M58.0583 308.049C57.6952 307.321 57.1641 306.69 56.509 306.208C55.8538 305.725 55.0933 305.406 54.2903 305.276C53.4874 305.145 52.6649 305.208 51.8909 305.458C51.1169 305.709 50.4136 306.139 49.8389 306.715L48.8258 307.728C48.7189 307.835 48.574 307.895 48.4229 307.895C48.2718 307.895 48.1269 307.835 48.02 307.728L47.0057 306.715C46.0433 305.753 44.738 305.212 43.3769 305.212C42.0159 305.212 40.7106 305.753 39.7482 306.715C38.7858 307.678 38.2451 308.983 38.2451 310.344C38.2451 311.705 38.7858 313.01 39.7482 313.973L47.3727 321.927C47.5084 322.068 47.6714 322.181 47.8517 322.258C48.0321 322.335 48.2262 322.374 48.4223 322.374C48.6184 322.374 48.8125 322.335 48.9929 322.258C49.1733 322.181 49.3362 322.068 49.472 321.927L57.0964 313.973C57.8586 313.211 58.3618 312.229 58.5344 311.166C58.7071 310.103 58.5405 309.012 58.0583 308.049Z" fill="white" fill-opacity="0.01"/>
</g>
<path d="M58.0583 308.049C57.6952 307.321 57.1641 306.69 56.509 306.208C55.8538 305.725 55.0933 305.406 54.2903 305.276C53.4874 305.145 52.6649 305.208 51.8909 305.458C51.1169 305.709 50.4136 306.139 49.8389 306.715L48.8258 307.728C48.7189 307.835 48.574 307.895 48.4229 307.895C48.2718 307.895 48.1269 307.835 48.02 307.728L47.0057 306.715C46.0433 305.753 44.738 305.212 43.3769 305.212C42.0159 305.212 40.7106 305.753 39.7482 306.715C38.7858 307.678 38.2451 308.983 38.2451 310.344C38.2451 311.705 38.7858 313.01 39.7482 313.973L47.3727 321.927C47.5084 322.068 47.6714 322.181 47.8517 322.258C48.0321 322.335 48.2262 322.374 48.4223 322.374C48.6184 322.374 48.8125 322.335 48.9929 322.258C49.1733 322.181 49.3362 322.068 49.472 321.927L57.0964 313.973C57.8586 313.211 58.3618 312.229 58.5344 311.166C58.7071 310.103 58.5405 309.012 58.0583 308.049Z" fill="white"/>
<path d="M251.282 301.556H86.7994C84.8375 301.556 83.2471 303.146 83.2471 305.108C83.2471 307.07 84.8375 308.661 86.7994 308.661H251.282C253.244 308.661 254.834 307.07 254.834 305.108C254.834 303.146 253.244 301.556 251.282 301.556Z" fill="#E7E8F1"/>
<path d="M212.725 318.923H86.7989C84.837 318.923 83.2466 320.514 83.2466 322.475C83.2466 324.437 84.837 326.028 86.7989 326.028H212.725C214.687 326.028 216.278 324.437 216.278 322.475C216.278 320.514 214.687 318.923 212.725 318.923Z" fill="#E7E8F1"/>
<g filter="url(#filter4_d)">
<path d="M49.0985 88.1132C60.2398 88.1132 69.2717 79.0814 69.2717 67.94C69.2717 56.7987 60.2398 47.7668 49.0985 47.7668C37.9571 47.7668 28.9253 56.7987 28.9253 67.94C28.9253 79.0814 37.9571 88.1132 49.0985 88.1132Z" fill="#782CE4" fill-opacity="0.01"/>
</g>
<path d="M49.0985 88.1132C60.2398 88.1132 69.2717 79.0814 69.2717 67.94C69.2717 56.7987 60.2398 47.7668 49.0985 47.7668C37.9571 47.7668 28.9253 56.7987 28.9253 67.94C28.9253 79.0814 37.9571 88.1132 49.0985 88.1132Z" fill="#782CE4"/>
<mask id="mask0" mask-type="alpha" maskUnits="userSpaceOnUse" x="28" y="47" width="42" height="42">
<path d="M49.0985 88.1132C60.2398 88.1132 69.2717 79.0814 69.2717 67.94C69.2717 56.7987 60.2398 47.7668 49.0985 47.7668C37.9571 47.7668 28.9253 56.7987 28.9253 67.94C28.9253 79.0814 37.9571 88.1132 49.0985 88.1132Z" fill="#782CE4"/>
</mask>
<g mask="url(#mask0)">
<g filter="url(#filter5_d)">
<path d="M53.4794 77.2292C53.4794 77.2292 52.6033 80.7339 49.0986 80.7339C45.594 80.7339 44.7178 77.2292 44.7178 77.2292C44.7178 77.2292 35.0801 78.9693 35.0801 88.6193H63.1172C63.1172 79.0035 53.4794 77.2292 53.4794 77.2292Z" fill="#323765" fill-opacity="0.01"/>
<path d="M49.0986 82.4863C44.7178 82.4863 44.7178 77.2294 44.7178 77.2294V71.9724H53.4794V77.2294C53.4794 77.2294 53.4794 82.4863 49.0986 82.4863Z" fill="#323765" fill-opacity="0.01"/>
<path d="M58.7366 66.7155C58.7366 67.6836 57.9524 68.4678 56.9843 68.4678C56.0161 68.4678 55.2319 67.6836 55.2319 66.7155C55.2319 65.7473 56.0161 64.9631 56.9843 64.9631C57.9524 64.9631 58.7366 65.7473 58.7366 66.7155Z" fill="#323765" fill-opacity="0.01"/>
<path d="M42.9656 66.7155C42.9656 67.6836 42.1814 68.4678 41.2133 68.4678C40.2451 68.4678 39.4609 67.6836 39.4609 66.7155C39.4609 65.7473 40.2451 64.9631 41.2133 64.9631C42.1814 64.9631 42.9656 65.7473 42.9656 66.7155Z" fill="#323765" fill-opacity="0.01"/>
<path d="M56.9838 61.4583C56.9838 54.7688 41.2129 57.1029 41.2129 61.4583V67.5914C41.2129 71.9468 44.7429 75.4769 49.0983 75.4769C53.4537 75.4769 56.9838 71.9468 56.9838 67.5914V61.4583Z" fill="#323765" fill-opacity="0.01"/>
<path d="M49.0985 53.573C43.7758 53.573 40.3369 57.8881 40.3369 63.2108V65.2119L42.0892 66.7154V62.3346L52.6031 58.83L56.1078 62.3346V66.7154L57.8601 65.19V63.2108C57.8601 59.6842 56.9506 56.1883 52.6031 55.3253L51.727 53.573H49.0985Z" fill="#323765" fill-opacity="0.01"/>
<path d="M49.0984 82.4862C53.4792 82.4862 55.0081 79.0429 55.1886 77.7304C54.1749 77.3589 53.4792 77.2292 53.4792 77.2292C53.4792 77.2292 52.603 80.7339 49.0984 80.7339C45.5937 80.7339 44.7176 77.2292 44.7176 77.2292C44.7176 77.2292 44.0219 77.3572 43.0073 77.7252C43.1861 79.035 44.7176 82.4862 49.0984 82.4862Z" fill="#323765" fill-opacity="0.01"/>
</g>
<path d="M53.4794 76.7231C53.4794 76.7231 52.6033 80.2278 49.0986 80.2278C45.594 80.2278 44.7178 76.7231 44.7178 76.7231C44.7178 76.7231 35.0801 78.4632 35.0801 88.1132H63.1172C63.1172 78.4974 53.4794 76.7231 53.4794 76.7231Z" fill="#F4263E"/>
<path d="M49.0986 81.9802C44.7178 81.9802 44.7178 76.7233 44.7178 76.7233V71.4663H53.4794V76.7233C53.4794 76.7233 53.4794 81.9802 49.0986 81.9802Z" fill="#FFC673"/>
<path d="M58.7366 66.2094C58.7366 67.1775 57.9524 67.9617 56.9843 67.9617C56.0161 67.9617 55.2319 67.1775 55.2319 66.2094C55.2319 65.2412 56.0161 64.457 56.9843 64.457C57.9524 64.457 58.7366 65.2412 58.7366 66.2094Z" fill="#FFC673"/>
<path d="M42.9656 66.2094C42.9656 67.1775 42.1814 67.9617 41.2133 67.9617C40.2451 67.9617 39.4609 67.1775 39.4609 66.2094C39.4609 65.2412 40.2451 64.457 41.2133 64.457C42.1814 64.457 42.9656 65.2412 42.9656 66.2094Z" fill="#FFC673"/>
<path d="M56.9838 60.9522C56.9838 54.2627 41.2129 56.5968 41.2129 60.9522V67.0853C41.2129 71.4407 44.7429 74.9708 49.0983 74.9708C53.4537 74.9708 56.9838 71.4407 56.9838 67.0853V60.9522Z" fill="#FFDEAD"/>
<path d="M49.0985 53.0669C43.7758 53.0669 40.3369 57.382 40.3369 62.7047V64.7058L42.0892 66.2093V61.8285L52.6031 58.3239L56.1078 61.8285V66.2093L57.8601 64.6839V62.7047C57.8601 59.1781 56.9506 55.6822 52.6031 54.8192L51.727 53.0669H49.0985Z" fill="#323765"/>
<path d="M49.0984 81.9801C53.4792 81.9801 55.0081 78.5368 55.1886 77.2243C54.1749 76.8528 53.4792 76.7231 53.4792 76.7231C53.4792 76.7231 52.603 80.2278 49.0984 80.2278C45.5937 80.2278 44.7176 76.7231 44.7176 76.7231C44.7176 76.7231 44.0219 76.8511 43.0073 77.2191C43.1861 78.5289 44.7176 81.9801 49.0984 81.9801Z" fill="#F4263E"/>
</g>
<path opacity="0.5" d="M253.007 353.192H39.1869C33.5196 353.192 28.9253 357.786 28.9253 363.454V408.618C28.9253 414.285 33.5196 418.88 39.1869 418.88H253.007C258.674 418.88 263.268 414.285 263.268 408.618V363.454C263.268 357.786 258.674 353.192 253.007 353.192Z" fill="#E7E8F1"/>
<g filter="url(#filter6_d)">
<path d="M271.486 81.8418C290.929 87.0515 310.914 75.5133 316.124 56.0704C321.333 36.6275 309.795 16.6427 290.352 11.433C270.91 6.2233 250.925 17.7616 245.715 37.2044C240.505 56.6473 252.044 76.6321 271.486 81.8418Z" fill="#F4263E" fill-opacity="0.01"/>
</g>
<path d="M271.486 81.8418C290.929 87.0515 310.914 75.5133 316.124 56.0704C321.333 36.6275 309.795 16.6427 290.352 11.433C270.91 6.2233 250.925 17.7616 245.715 37.2044C240.505 56.6473 252.044 76.6321 271.486 81.8418Z" fill="#F4263E"/>
<g filter="url(#filter7_d)">
<path d="M301.096 40.9292C300.793 39.4391 300.139 38.0426 299.189 36.855C298.24 35.6674 297.021 34.7227 295.634 34.099C294.247 33.4753 292.732 33.1905 291.213 33.268C289.695 33.3455 288.216 33.7831 286.9 34.5448L284.58 35.884C284.336 36.0252 284.045 36.0635 283.772 35.9904C283.499 35.9173 283.267 35.7388 283.125 35.4942L281.784 33.174C280.512 30.9707 278.417 29.3629 275.959 28.7044C273.502 28.0459 270.883 28.3906 268.68 29.6627C266.476 30.9348 264.869 33.0301 264.21 35.4877C263.552 37.9452 263.896 40.5637 265.168 42.7671L275.087 60.8176C275.264 61.1389 275.504 61.4211 275.792 61.6474C276.081 61.8736 276.412 62.0391 276.766 62.1339C277.12 62.2287 277.49 62.2511 277.853 62.1995C278.216 62.1478 278.564 62.0233 278.878 61.8334L296.493 51.1605C298.238 50.1546 299.621 48.6249 300.447 46.7885C301.274 44.952 301.501 42.9019 301.096 40.9292Z" fill="white" fill-opacity="0.01"/>
</g>
<path d="M301.096 40.9292C300.793 39.4391 300.139 38.0426 299.189 36.855C298.24 35.6674 297.021 34.7227 295.634 34.099C294.247 33.4753 292.732 33.1905 291.213 33.268C289.695 33.3455 288.216 33.7831 286.9 34.5448L284.58 35.884C284.336 36.0252 284.045 36.0635 283.772 35.9904C283.499 35.9173 283.267 35.7388 283.125 35.4942L281.784 33.174C280.512 30.9707 278.417 29.3629 275.959 28.7044C273.502 28.0459 270.883 28.3906 268.68 29.6627C266.476 30.9348 264.869 33.0301 264.21 35.4877C263.552 37.9452 263.896 40.5637 265.168 42.7671L275.087 60.8176C275.264 61.1389 275.504 61.4211 275.792 61.6474C276.081 61.8736 276.412 62.0391 276.766 62.1339C277.12 62.2287 277.49 62.2511 277.853 62.1995C278.216 62.1478 278.564 62.0233 278.878 61.8334L296.493 51.1605C298.238 50.1546 299.621 48.6249 300.447 46.7885C301.274 44.952 301.501 42.9019 301.096 40.9292Z" fill="white"/>
<g filter="url(#filter8_d)">
<path d="M275.011 471.17C293.761 467.864 306.281 449.983 302.975 431.232C299.669 412.482 281.788 399.961 263.038 403.268C244.287 406.574 231.767 424.455 235.073 443.205C238.379 461.956 256.26 474.476 275.011 471.17Z" fill="#1B76FF" fill-opacity="0.01"/>
</g>
<path d="M275.011 471.17C293.761 467.864 306.281 449.983 302.975 431.232C299.669 412.482 281.788 399.961 263.038 403.268C244.287 406.574 231.767 424.455 235.073 443.205C238.379 461.956 256.26 474.476 275.011 471.17Z" fill="#1B76FF"/>
<g filter="url(#filter9_d)">
<path d="M284.537 434.72C284.607 434.15 284.542 433.571 284.348 433.031C284.153 432.491 283.835 432.003 283.418 431.608C283.002 431.213 282.498 430.921 281.948 430.756C281.398 430.59 280.817 430.556 280.252 430.656L272.907 431.951C272.629 432 272.343 431.978 272.076 431.887C271.81 431.796 271.57 431.638 271.38 431.429C271.191 431.22 271.057 430.967 270.992 430.692C270.927 430.418 270.933 430.131 271.009 429.859L272.194 425.588C272.276 425.046 272.219 424.492 272.028 423.978C271.838 423.464 271.52 423.006 271.105 422.648C270.721 422.315 270.265 422.075 269.772 421.948C269.28 421.82 268.765 421.809 268.267 421.914C267.769 422.019 267.303 422.238 266.904 422.554C266.505 422.869 266.185 423.273 265.968 423.733L261.14 433.987C261.025 434.229 260.855 434.439 260.642 434.602C260.43 434.764 260.182 434.873 259.918 434.92C259.756 434.949 259.612 435.04 259.518 435.175C259.424 435.31 259.387 435.476 259.415 435.638L262.041 450.529C262.063 450.653 262.119 450.768 262.203 450.861C262.287 450.954 262.396 451.022 262.517 451.056C267.803 452.556 269.475 452.583 273.441 451.883C273.898 451.803 276.49 451.319 277.439 451.151C280.967 450.529 282.953 448.069 283.512 443.595L284.534 434.771L284.537 434.72Z" fill="white" fill-opacity="0.01"/>
<path d="M257.333 435.376L257.299 435.382C257.14 434.937 256.83 434.562 256.422 434.323C256.013 434.085 255.534 433.998 255.069 434.079L253.094 434.427C252.92 434.458 252.764 434.556 252.663 434.702C252.561 434.847 252.521 435.026 252.552 435.201L255.801 453.628C255.832 453.803 255.931 453.958 256.076 454.06C256.221 454.161 256.401 454.201 256.575 454.17L258.55 453.822C259.074 453.73 259.539 453.433 259.844 452.998C260.149 452.562 260.268 452.023 260.176 451.5L257.333 435.376Z" fill="white" fill-opacity="0.01"/>
</g>
<path d="M284.537 434.72C284.607 434.15 284.542 433.571 284.348 433.031C284.153 432.491 283.835 432.003 283.418 431.608C283.002 431.213 282.498 430.921 281.948 430.756C281.398 430.59 280.817 430.556 280.252 430.656L272.907 431.951C272.629 432 272.343 431.978 272.076 431.887C271.81 431.796 271.57 431.638 271.38 431.429C271.191 431.22 271.057 430.967 270.992 430.692C270.927 430.418 270.933 430.131 271.009 429.859L272.194 425.588C272.276 425.046 272.219 424.492 272.028 423.978C271.838 423.464 271.52 423.006 271.105 422.648C270.721 422.315 270.265 422.075 269.772 421.948C269.28 421.82 268.765 421.809 268.267 421.914C267.769 422.019 267.303 422.238 266.904 422.554C266.505 422.869 266.185 423.273 265.968 423.733L261.14 433.987C261.025 434.229 260.855 434.439 260.642 434.602C260.43 434.764 260.182 434.873 259.918 434.92C259.756 434.949 259.612 435.04 259.518 435.175C259.424 435.31 259.387 435.476 259.415 435.638L262.041 450.529C262.063 450.653 262.119 450.768 262.203 450.861C262.287 450.954 262.396 451.022 262.517 451.056C267.803 452.556 269.475 452.583 273.441 451.883C273.898 451.803 276.49 451.319 277.439 451.151C280.967 450.529 282.953 448.069 283.512 443.595L284.534 434.771L284.537 434.72Z" fill="white"/>
<path d="M257.333 435.376L257.299 435.382C257.14 434.937 256.83 434.562 256.422 434.323C256.013 434.085 255.534 433.998 255.069 434.079L253.094 434.427C252.92 434.458 252.764 434.556 252.663 434.702C252.561 434.847 252.521 435.026 252.552 435.201L255.801 453.628C255.832 453.803 255.931 453.958 256.076 454.06C256.221 454.161 256.401 454.201 256.575 454.17L258.55 453.822C259.074 453.73 259.539 453.433 259.844 452.998C260.149 452.562 260.268 452.023 260.176 451.5L257.333 435.376Z" fill="white"/>
<defs>
<filter id="filter0_d" x="0.0133419" y="5.95286" width="292.168" height="459.644" filterUnits="userSpaceOnUse" color-interpolation-filters="sRGB">
<feFlood flood-opacity="0" result="BackgroundImageFix"/>
<feColorMatrix in="SourceAlpha" type="matrix" values="0 0 0 0 0 0 0 0 0 0 0 0 0 0 0 0 0 0 127 0"/>
<feOffset dy="2.05231"/>
<feGaussianBlur stdDeviation="5.13078"/>
<feColorMatrix type="matrix" values="0 0 0 0 0.121042 0 0 0 0 0.143938 0 0 0 0 0.35 0 0 0 0.08 0"/>
<feBlend mode="normal" in2="BackgroundImageFix" result="effect1_dropShadow"/>
<feBlend mode="normal" in="SourceGraphic" in2="effect1_dropShadow" result="shape"/>
</filter>
<filter id="filter1_d" x="14.5591" y="97.8303" width="263.075" height="211.857" filterUnits="userSpaceOnUse" color-interpolation-filters="sRGB">
<feFlood flood-opacity="0" result="BackgroundImageFix"/>
<feColorMatrix in="SourceAlpha" type="matrix" values="0 0 0 0 0 0 0 0 0 0 0 0 0 0 0 0 0 0 127 0"/>
<feOffset dy="13.34"/>
<feGaussianBlur stdDeviation="7.18309"/>
<feColorMatrix type="matrix" values="0 0 0 0 0.104167 0 0 0 0 0.4625 0 0 0 0 1 0 0 0 0.1 0"/>
<feBlend mode="normal" in2="BackgroundImageFix" result="effect1_dropShadow"/>
<feBlend mode="normal" in="SourceGraphic" in2="effect1_dropShadow" result="shape"/>
</filter>
<filter id="filter2_d" x="22.7684" y="293.269" width="51.3079" height="51.3079" filterUnits="userSpaceOnUse" color-interpolation-filters="sRGB">
<feFlood flood-opacity="0" result="BackgroundImageFix"/>
<feColorMatrix in="SourceAlpha" type="matrix" values="0 0 0 0 0 0 0 0 0 0 0 0 0 0 0 0 0 0 127 0"/>
<feOffset dy="5.13078"/>
<feGaussianBlur stdDeviation="3.07847"/>
<feColorMatrix type="matrix" values="0 0 0 0 0.956863 0 0 0 0 0.14902 0 0 0 0 0.243137 0 0 0 0.16 0"/>
<feBlend mode="normal" in2="BackgroundImageFix" result="effect1_dropShadow"/>
<feBlend mode="normal" in="SourceGraphic" in2="effect1_dropShadow" result="shape"/>
</filter>
<filter id="filter3_d" x="34.1405" y="303.157" width="28.5649" height="25.3738" filterUnits="userSpaceOnUse" color-interpolation-filters="sRGB">
<feFlood flood-opacity="0" result="BackgroundImageFix"/>
<feColorMatrix in="SourceAlpha" type="matrix" values="0 0 0 0 0 0 0 0 0 0 0 0 0 0 0 0 0 0 127 0"/>
<feOffset dy="2.05231"/>
<feGaussianBlur stdDeviation="2.05231"/>
<feColorMatrix type="matrix" values="0 0 0 0 0.121042 0 0 0 0 0.143938 0 0 0 0 0.35 0 0 0 0.15 0"/>
<feBlend mode="normal" in2="BackgroundImageFix" result="effect1_dropShadow"/>
<feBlend mode="normal" in="SourceGraphic" in2="effect1_dropShadow" result="shape"/>
</filter>
<filter id="filter4_d" x="20.716" y="45.7145" width="56.7649" height="56.7649" filterUnits="userSpaceOnUse" color-interpolation-filters="sRGB">
<feFlood flood-opacity="0" result="BackgroundImageFix"/>
<feColorMatrix in="SourceAlpha" type="matrix" values="0 0 0 0 0 0 0 0 0 0 0 0 0 0 0 0 0 0 127 0"/>
<feOffset dy="6.15694"/>
<feGaussianBlur stdDeviation="4.10463"/>
<feColorMatrix type="matrix" values="0 0 0 0 0.470588 0 0 0 0 0.172549 0 0 0 0 0.894118 0 0 0 0.14 0"/>
<feBlend mode="normal" in2="BackgroundImageFix" result="effect1_dropShadow"/>
<feBlend mode="normal" in="SourceGraphic" in2="effect1_dropShadow" result="shape"/>
</filter>
<filter id="filter5_d" x="28.9231" y="51.5207" width="40.351" height="47.3602" filterUnits="userSpaceOnUse" color-interpolation-filters="sRGB">
<feFlood flood-opacity="0" result="BackgroundImageFix"/>
<feColorMatrix in="SourceAlpha" type="matrix" values="0 0 0 0 0 0 0 0 0 0 0 0 0 0 0 0 0 0 127 0"/>
<feOffset dy="4.10463"/>
<feGaussianBlur stdDeviation="3.07847"/>
<feColorMatrix type="matrix" values="0 0 0 0 0 0 0 0 0 0 0 0 0 0 0 0 0 0 0.33 0"/>
<feBlend mode="normal" in2="BackgroundImageFix" result="effect1_dropShadow"/>
<feBlend mode="normal" in="SourceGraphic" in2="effect1_dropShadow" result="shape"/>
</filter>
<filter id="filter6_d" x="238.307" y="9.15597" width="85.2246" height="85.2246" filterUnits="userSpaceOnUse" color-interpolation-filters="sRGB">
<feFlood flood-opacity="0" result="BackgroundImageFix"/>
<feColorMatrix in="SourceAlpha" type="matrix" values="0 0 0 0 0 0 0 0 0 0 0 0 0 0 0 0 0 0 127 0"/>
<feOffset dy="5.13078"/>
<feGaussianBlur stdDeviation="3.07847"/>
<feColorMatrix type="matrix" values="0 0 0 0 0.956863 0 0 0 0 0.14902 0 0 0 0 0.243137 0 0 0 0.16 0"/>
<feBlend mode="normal" in2="BackgroundImageFix" result="effect1_dropShadow"/>
<feBlend mode="normal" in="SourceGraphic" in2="effect1_dropShadow" result="shape"/>
</filter>
<filter id="filter7_d" x="259.779" y="26.3251" width="45.6177" height="42.0583" filterUnits="userSpaceOnUse" color-interpolation-filters="sRGB">
<feFlood flood-opacity="0" result="BackgroundImageFix"/>
<feColorMatrix in="SourceAlpha" type="matrix" values="0 0 0 0 0 0 0 0 0 0 0 0 0 0 0 0 0 0 127 0"/>
<feOffset dy="2.05231"/>
<feGaussianBlur stdDeviation="2.05231"/>
<feColorMatrix type="matrix" values="0 0 0 0 0.121042 0 0 0 0 0.143938 0 0 0 0 0.35 0 0 0 0.15 0"/>
<feBlend mode="normal" in2="BackgroundImageFix" result="effect1_dropShadow"/>
<feBlend mode="normal" in="SourceGraphic" in2="effect1_dropShadow" result="shape"/>
</filter>
<filter id="filter8_d" x="228.387" y="401.712" width="81.2752" height="81.2752" filterUnits="userSpaceOnUse" color-interpolation-filters="sRGB">
<feFlood flood-opacity="0" result="BackgroundImageFix"/>
<feColorMatrix in="SourceAlpha" type="matrix" values="0 0 0 0 0 0 0 0 0 0 0 0 0 0 0 0 0 0 127 0"/>
<feOffset dy="5.13078"/>
<feGaussianBlur stdDeviation="3.07847"/>
<feColorMatrix type="matrix" values="0 0 0 0 0.104167 0 0 0 0 0.4625 0 0 0 0 1 0 0 0 0.22 0"/>
<feBlend mode="normal" in2="BackgroundImageFix" result="effect1_dropShadow"/>
<feBlend mode="normal" in="SourceGraphic" in2="effect1_dropShadow" result="shape"/>
</filter>
<filter id="filter9_d" x="246.385" y="418.764" width="44.3366" height="44.6512" filterUnits="userSpaceOnUse" color-interpolation-filters="sRGB">
<feFlood flood-opacity="0" result="BackgroundImageFix"/>
<feColorMatrix in="SourceAlpha" type="matrix" values="0 0 0 0 0 0 0 0 0 0 0 0 0 0 0 0 0 0 127 0"/>
<feOffset dy="3.07847"/>
<feGaussianBlur stdDeviation="3.07847"/>
<feColorMatrix type="matrix" values="0 0 0 0 0 0 0 0 0 0 0 0 0 0 0 0 0 0 0.23 0"/>
<feBlend mode="normal" in2="BackgroundImageFix" result="effect1_dropShadow"/>
<feBlend mode="normal" in="SourceGraphic" in2="effect1_dropShadow" result="shape"/>
</filter>
</defs>
</svg>
