<svg width="309" height="198" viewBox="0 0 309 198" fill="none" xmlns="http://www.w3.org/2000/svg">
<path d="M309 0H0V198H309V0Z" fill="#1B76FF"/>
<g filter="url(#filter0_d)">
<path d="M204.147 38.1619H97.6472C87.5923 38.1619 79.4412 46.313 79.4412 56.3679V149.794C79.4412 159.849 87.5923 168 97.6472 168H204.147C214.202 168 222.353 159.849 222.353 149.794V56.3679C222.353 46.313 214.202 38.1619 204.147 38.1619Z" fill="white"/>
</g>
<path d="M205.921 35.9989H95.8731C85.4832 35.9989 77.0605 44.4216 77.0605 54.8115V151.35C77.0605 161.74 85.4832 170.163 95.8731 170.163H205.921C216.311 170.163 224.734 161.74 224.734 151.35V54.8115C224.734 44.4216 216.311 35.9989 205.921 35.9989Z" fill="white"/>
<g filter="url(#filter1_d)">
<path d="M92.5586 149.267C117.729 149.267 119.027 124.291 137.904 122.507C156.782 120.723 163.075 137.451 183.096 137.451C203.118 137.451 201.374 109.894 213.693 109.894" stroke="#1B76FF" stroke-width="4" stroke-linecap="round"/>
</g>
<path d="M92.5586 149.267C117.729 149.267 119.027 124.291 137.904 122.507C156.782 120.723 163.075 137.451 183.096 137.451C203.118 137.451 201.374 109.894 213.693 109.894" stroke="#1B76FF" stroke-width="4.80124" stroke-linecap="round"/>
<g filter="url(#filter2_d)">
<path d="M92.5576 149.267C117.704 149.267 113.986 133.389 139.432 141.328C164.878 149.267 161.403 125.757 176.262 123.379C191.121 121 202.806 125.077 216.522 123.379" stroke="#1B76FF" stroke-width="4" stroke-linecap="round"/>
</g>
<path d="M92.5576 149.267C117.704 149.267 113.986 133.389 139.432 141.328C164.878 149.267 161.403 125.757 176.262 123.379C191.121 121 202.806 125.077 216.522 123.379" stroke="#1B76FF" stroke-width="4.80124" stroke-linecap="round"/>
<g filter="url(#filter3_d)">
<path d="M96.9214 87.3615C95.7189 83.2822 95.875 78.9226 97.3662 74.9398C98.8575 70.9569 101.603 67.5668 105.189 65.2804C108.775 62.9941 113.007 61.9354 117.247 62.2639C121.487 62.5925 125.506 64.2905 128.697 67.102" stroke="#782CE4" stroke-width="7" stroke-linecap="round"/>
</g>
<path d="M96.9214 87.3615C95.7189 83.2822 95.875 78.9226 97.3662 74.9398C98.8575 70.9569 101.603 67.5668 105.189 65.2804C108.775 62.9941 113.007 61.9354 117.247 62.2639C121.487 62.5925 125.506 64.2905 128.697 67.102" stroke="#782CE4" stroke-width="8.04036" stroke-linecap="round"/>
<g filter="url(#filter4_d)">
<path d="M128.687 67.0936C130.785 68.9393 132.464 71.212 133.611 73.7593C134.759 76.3067 135.35 79.07 135.343 81.864" stroke="#FFCD1D" stroke-width="7" stroke-linecap="round"/>
</g>
<path d="M128.687 67.0936C130.785 68.9393 132.464 71.212 133.611 73.7593C134.759 76.3067 135.35 79.07 135.343 81.864" stroke="#FFCD1D" stroke-width="8.04036" stroke-linecap="round"/>
<g filter="url(#filter5_d)">
<path d="M135.343 81.8162C135.343 86.5322 133.643 91.0902 130.556 94.655C127.469 98.2199 123.2 100.553 118.532 101.226C113.865 101.9 109.111 100.868 105.142 98.3217C101.172 95.775 98.2539 91.8832 96.9209 87.3596" stroke="#1B76FF" stroke-width="7" stroke-linecap="round"/>
</g>
<path d="M135.343 81.8162C135.343 86.5322 133.643 91.0902 130.556 94.655C127.469 98.2199 123.2 100.553 118.532 101.226C113.865 101.9 109.111 100.868 105.142 98.3217C101.172 95.775 98.2539 91.8832 96.9209 87.3596" stroke="#1B76FF" stroke-width="8.04036" stroke-linecap="round"/>
<g filter="url(#filter6_d)">
<path d="M158.247 58H155.069C153.374 58 152 59.3742 152 61.0693V64.2469C152 65.942 153.374 67.3162 155.069 67.3162H158.247C159.942 67.3162 161.316 65.942 161.316 64.2469V61.0693C161.316 59.3742 159.942 58 158.247 58Z" fill="#FFCD1D"/>
</g>
<path d="M158.506 56.8944H154.789C152.807 56.8944 151.2 58.5015 151.2 60.4839V64.1999C151.2 66.1823 152.807 67.7894 154.789 67.7894H158.506C160.488 67.7894 162.095 66.1823 162.095 64.1999V60.4839C162.095 58.5015 160.488 56.8944 158.506 56.8944Z" fill="#FFCD1D"/>
<g filter="url(#filter7_d)">
<path d="M157.837 76H154.868C153.284 76 152 77.284 152 78.868V81.837C152 83.421 153.284 84.705 154.868 84.705H157.837C159.421 84.705 160.705 83.421 160.705 81.837V78.868C160.705 77.284 159.421 76 157.837 76Z" fill="#782CE4"/>
</g>
<path d="M158.506 74.3267H154.789C152.807 74.3267 151.2 75.9337 151.2 77.9161V81.6322C151.2 83.6146 152.807 85.2217 154.789 85.2217H158.506C160.488 85.2217 162.095 83.6146 162.095 81.6322V77.9161C162.095 75.9337 160.488 74.3267 158.506 74.3267Z" fill="#782CE4"/>
<g filter="url(#filter8_d)">
<path d="M158.283 93H155.012C153.268 93 151.853 94.4143 151.853 96.159V99.4294C151.853 101.174 153.268 102.588 155.012 102.588H158.283C160.027 102.588 161.442 101.174 161.442 99.4294V96.159C161.442 94.4143 160.027 93 158.283 93Z" fill="#1B76FF"/>
</g>
<path d="M158.506 91.7583H154.789C152.807 91.7583 151.2 93.3654 151.2 95.3478V99.0638C151.2 101.046 152.807 102.653 154.789 102.653H158.506C160.488 102.653 162.095 101.046 162.095 99.0638V95.3478C162.095 93.3654 160.488 91.7583 158.506 91.7583Z" fill="#1B76FF"/>
<path opacity="0.5" d="M203.631 60.2996H168.903C167.775 60.2996 166.86 61.2142 166.86 62.3424C166.86 63.4706 167.775 64.3852 168.903 64.3852H203.631C204.759 64.3852 205.674 63.4706 205.674 62.3424C205.674 61.2142 204.759 60.2996 203.631 60.2996Z" fill="#BEBFCC"/>
<path opacity="0.5" d="M194.518 77.731H168.903C167.775 77.731 166.86 78.6456 166.86 79.7738C166.86 80.902 167.775 81.8166 168.903 81.8166H194.518C195.646 81.8166 196.561 80.902 196.561 79.7738C196.561 78.6456 195.646 77.731 194.518 77.731Z" fill="#BEBFCC"/>
<path opacity="0.5" d="M200.335 95.1631H168.903C167.775 95.1631 166.86 96.0777 166.86 97.2059C166.86 98.3341 167.775 99.2487 168.903 99.2487H200.335C201.464 99.2487 202.378 98.3341 202.378 97.2059C202.378 96.0777 201.464 95.1631 200.335 95.1631Z" fill="#BEBFCC"/>
<g filter="url(#filter9_d)">
<path d="M239.236 24.6667H202.23C195.733 24.6667 190.466 29.9339 190.466 36.4312V71.1646C190.466 77.6619 195.733 82.929 202.23 82.929H239.236C245.733 82.929 251 77.6619 251 71.1646V36.4312C251 29.9339 245.733 24.6667 239.236 24.6667Z" fill="white"/>
</g>
<path d="M241.033 21.8374H200.433C193.305 21.8374 187.526 27.6161 187.526 34.7445V72.8513C187.526 79.9797 193.305 85.7584 200.433 85.7584H241.033C248.161 85.7584 253.94 79.9797 253.94 72.8513V34.7445C253.94 27.6161 248.161 21.8374 241.033 21.8374Z" fill="white"/>
<g filter="url(#filter10_d)">
<path d="M203 64.5657C203 63.3646 202.134 62.3909 201.066 62.3909C199.997 62.3909 199.131 63.3646 199.131 64.5657V71.8252C199.131 73.0263 199.997 74 201.066 74C202.134 74 203 73.0263 203 71.8252V64.5657Z" fill="#1B76FF"/>
</g>
<path d="M203.524 64.0923C203.524 62.7345 202.423 61.6338 201.066 61.6338C199.708 61.6338 198.607 62.7345 198.607 64.0923V72.2986C198.607 73.6564 199.708 74.7571 201.066 74.7571C202.423 74.7571 203.524 73.6564 203.524 72.2986V64.0923Z" fill="#1B76FF"/>
<g filter="url(#filter11_d)">
<path d="M213 57.5424C213 56.2861 212.06 55.2677 210.9 55.2677C209.739 55.2677 208.799 56.2861 208.799 57.5424V71.7254C208.799 72.9816 209.739 74 210.9 74C212.06 74 213 72.9816 213 71.7254V57.5424Z" fill="#1B76FF"/>
</g>
<path d="M213.358 56.9692C213.358 55.6115 212.257 54.5107 210.9 54.5107C209.542 54.5107 208.441 55.6115 208.441 56.9692V72.2984C208.441 73.6562 209.542 74.7569 210.9 74.7569C212.257 74.7569 213.358 73.6562 213.358 72.2984V56.9692Z" fill="#1B76FF"/>
<g filter="url(#filter12_d)">
<path d="M222 50.2817C222 48.9985 221.433 47.9583 220.734 47.9583C220.034 47.9583 219.467 48.9985 219.467 50.2817V71.6766C219.467 72.9598 220.034 74 220.734 74C221.433 74 222 72.9598 222 71.6766V50.2817Z" fill="#1B76FF"/>
</g>
<path d="M223.192 49.6597C223.192 48.3019 222.091 47.2012 220.734 47.2012C219.376 47.2012 218.275 48.3019 218.275 49.6597V72.2986C218.275 73.6564 219.376 74.7571 220.734 74.7571C222.091 74.7571 223.192 73.6564 223.192 72.2986V49.6597Z" fill="#1B76FF"/>
<g filter="url(#filter13_d)">
<path d="M232 43.1664C232 41.8679 231.359 40.8152 230.568 40.8152C229.776 40.8152 229.135 41.8679 229.135 43.1664V71.6488C229.135 72.9473 229.776 74 230.568 74C231.359 74 232 72.9473 232 71.6488V43.1664Z" fill="#1B76FF"/>
</g>
<path d="M233.026 42.5165C233.026 41.1587 231.925 40.058 230.568 40.058C229.21 40.058 228.109 41.1587 228.109 42.5165V72.2987C228.109 73.6565 229.21 74.7572 230.568 74.7572C231.925 74.7572 233.026 73.6565 233.026 72.2987V42.5165Z" fill="#1B76FF"/>
<g filter="url(#filter14_d)">
<path d="M242 35.8C242 34.491 241.284 33.4299 240.402 33.4299C239.519 33.4299 238.803 34.491 238.803 35.8V71.6299C238.803 72.9388 239.519 73.9999 240.402 73.9999C241.284 73.9999 242 72.9388 242 71.6299V35.8Z" fill="#1B76FF"/>
</g>
<path d="M242.86 35.1316C242.86 33.7738 241.759 32.6731 240.402 32.6731C239.044 32.6731 237.943 33.7738 237.943 35.1316V72.2984C237.943 73.6562 239.044 74.7569 240.402 74.7569C241.759 74.7569 242.86 73.6562 242.86 72.2984V35.1316Z" fill="#1B76FF"/>
<defs>
<filter id="filter0_d" x="54.4412" y="15.1619" width="192.912" height="179.838" filterUnits="userSpaceOnUse" color-interpolation-filters="sRGB">
<feFlood flood-opacity="0" result="BackgroundImageFix"/>
<feColorMatrix in="SourceAlpha" type="matrix" values="0 0 0 0 0 0 0 0 0 0 0 0 0 0 0 0 0 0 127 0"/>
<feOffset dy="2"/>
<feGaussianBlur stdDeviation="12.5"/>
<feColorMatrix type="matrix" values="0 0 0 0 0.121569 0 0 0 0 0.184314 0 0 0 0 0.34902 0 0 0 0.23 0"/>
<feBlend mode="normal" in2="BackgroundImageFix" result="effect1_dropShadow"/>
<feBlend mode="normal" in="SourceGraphic" in2="effect1_dropShadow" result="shape"/>
</filter>
<filter id="filter1_d" x="87.4274" y="106.642" width="131.397" height="49.6353" filterUnits="userSpaceOnUse" color-interpolation-filters="sRGB">
<feFlood flood-opacity="0" result="BackgroundImageFix"/>
<feColorMatrix in="SourceAlpha" type="matrix" values="0 0 0 0 0 0 0 0 0 0 0 0 0 0 0 0 0 0 127 0"/>
<feOffset dy="1.87869"/>
<feGaussianBlur stdDeviation="1.56558"/>
<feColorMatrix type="matrix" values="0 0 0 0 0.104167 0 0 0 0 0.4625 0 0 0 0 1 0 0 0 0.21 0"/>
<feBlend mode="normal" in2="BackgroundImageFix" result="effect1_dropShadow"/>
<feBlend mode="normal" in="SourceGraphic" in2="effect1_dropShadow" result="shape"/>
</filter>
<filter id="filter2_d" x="87.4264" y="118.734" width="134.227" height="36.9167" filterUnits="userSpaceOnUse" color-interpolation-filters="sRGB">
<feFlood flood-opacity="0" result="BackgroundImageFix"/>
<feColorMatrix in="SourceAlpha" type="matrix" values="0 0 0 0 0 0 0 0 0 0 0 0 0 0 0 0 0 0 127 0"/>
<feOffset dy="1.25246"/>
<feGaussianBlur stdDeviation="1.56558"/>
<feColorMatrix type="matrix" values="0 0 0 0 0.104167 0 0 0 0 0.4625 0 0 0 0 1 0 0 0 0.24 0"/>
<feBlend mode="normal" in2="BackgroundImageFix" result="effect1_dropShadow"/>
<feBlend mode="normal" in="SourceGraphic" in2="effect1_dropShadow" result="shape"/>
</filter>
<filter id="filter3_d" x="90.3239" y="58.7053" width="44.1704" height="36.7516" filterUnits="userSpaceOnUse" color-interpolation-filters="sRGB">
<feFlood flood-opacity="0" result="BackgroundImageFix"/>
<feColorMatrix in="SourceAlpha" type="matrix" values="0 0 0 0 0 0 0 0 0 0 0 0 0 0 0 0 0 0 127 0"/>
<feOffset dy="2.29724"/>
<feGaussianBlur stdDeviation="1.14862"/>
<feColorMatrix type="matrix" values="0 0 0 0 0.470588 0 0 0 0 0.172549 0 0 0 0 0.894118 0 0 0 0.24 0"/>
<feBlend mode="normal" in2="BackgroundImageFix" result="effect1_dropShadow"/>
<feBlend mode="normal" in="SourceGraphic" in2="effect1_dropShadow" result="shape"/>
</filter>
<filter id="filter4_d" x="121.167" y="60.7221" width="21.6965" height="29.8108" filterUnits="userSpaceOnUse" color-interpolation-filters="sRGB">
<feFlood flood-opacity="0" result="BackgroundImageFix"/>
<feColorMatrix in="SourceAlpha" type="matrix" values="0 0 0 0 0 0 0 0 0 0 0 0 0 0 0 0 0 0 127 0"/>
<feOffset dy="1.14862"/>
<feGaussianBlur stdDeviation="2.01009"/>
<feColorMatrix type="matrix" values="0 0 0 0 1 0 0 0 0 0.80475 0 0 0 0 0.1125 0 0 0 0.15 0"/>
<feBlend mode="normal" in2="BackgroundImageFix" result="effect1_dropShadow"/>
<feBlend mode="normal" in="SourceGraphic" in2="effect1_dropShadow" result="shape"/>
</filter>
<filter id="filter5_d" x="91.1227" y="77.7419" width="50.0175" height="31.2055" filterUnits="userSpaceOnUse" color-interpolation-filters="sRGB">
<feFlood flood-opacity="0" result="BackgroundImageFix"/>
<feColorMatrix in="SourceAlpha" type="matrix" values="0 0 0 0 0 0 0 0 0 0 0 0 0 0 0 0 0 0 127 0"/>
<feOffset dy="1.72293"/>
<feGaussianBlur stdDeviation="1.14862"/>
<feColorMatrix type="matrix" values="0 0 0 0 0.104167 0 0 0 0 0.4625 0 0 0 0 1 0 0 0 0.22 0"/>
<feBlend mode="normal" in2="BackgroundImageFix" result="effect1_dropShadow"/>
<feBlend mode="normal" in="SourceGraphic" in2="effect1_dropShadow" result="shape"/>
</filter>
<filter id="filter6_d" x="149.128" y="57.1284" width="15.0594" height="15.0593" filterUnits="userSpaceOnUse" color-interpolation-filters="sRGB">
<feFlood flood-opacity="0" result="BackgroundImageFix"/>
<feColorMatrix in="SourceAlpha" type="matrix" values="0 0 0 0 0 0 0 0 0 0 0 0 0 0 0 0 0 0 127 0"/>
<feOffset dy="2"/>
<feGaussianBlur stdDeviation="1.43579"/>
<feColorMatrix type="matrix" values="0 0 0 0 1 0 0 0 0 0.80475 0 0 0 0 0.1125 0 0 0 0.24 0"/>
<feBlend mode="normal" in2="BackgroundImageFix" result="effect1_dropShadow"/>
<feBlend mode="normal" in="SourceGraphic" in2="effect1_dropShadow" result="shape"/>
</filter>
<filter id="filter7_d" x="149.128" y="75.2821" width="14.4482" height="14.4482" filterUnits="userSpaceOnUse" color-interpolation-filters="sRGB">
<feFlood flood-opacity="0" result="BackgroundImageFix"/>
<feColorMatrix in="SourceAlpha" type="matrix" values="0 0 0 0 0 0 0 0 0 0 0 0 0 0 0 0 0 0 127 0"/>
<feOffset dy="2.15369"/>
<feGaussianBlur stdDeviation="1.43579"/>
<feColorMatrix type="matrix" values="0 0 0 0 0.470588 0 0 0 0 0.172549 0 0 0 0 0.894118 0 0 0 0.26 0"/>
<feBlend mode="normal" in2="BackgroundImageFix" result="effect1_dropShadow"/>
<feBlend mode="normal" in="SourceGraphic" in2="effect1_dropShadow" result="shape"/>
</filter>
<filter id="filter8_d" x="148.982" y="92.2821" width="15.3316" height="15.3316" filterUnits="userSpaceOnUse" color-interpolation-filters="sRGB">
<feFlood flood-opacity="0" result="BackgroundImageFix"/>
<feColorMatrix in="SourceAlpha" type="matrix" values="0 0 0 0 0 0 0 0 0 0 0 0 0 0 0 0 0 0 127 0"/>
<feOffset dy="2.15369"/>
<feGaussianBlur stdDeviation="1.43579"/>
<feColorMatrix type="matrix" values="0 0 0 0 0.104167 0 0 0 0 0.4625 0 0 0 0 1 0 0 0 0.18 0"/>
<feBlend mode="normal" in2="BackgroundImageFix" result="effect1_dropShadow"/>
<feBlend mode="normal" in="SourceGraphic" in2="effect1_dropShadow" result="shape"/>
</filter>
<filter id="filter9_d" x="170.466" y="7.66675" width="100.534" height="98.2623" filterUnits="userSpaceOnUse" color-interpolation-filters="sRGB">
<feFlood flood-opacity="0" result="BackgroundImageFix"/>
<feColorMatrix in="SourceAlpha" type="matrix" values="0 0 0 0 0 0 0 0 0 0 0 0 0 0 0 0 0 0 127 0"/>
<feOffset dy="3"/>
<feGaussianBlur stdDeviation="10"/>
<feColorMatrix type="matrix" values="0 0 0 0 0.121042 0 0 0 0 0.143938 0 0 0 0 0.35 0 0 0 0.18 0"/>
<feBlend mode="normal" in2="BackgroundImageFix" result="effect1_dropShadow"/>
<feBlend mode="normal" in="SourceGraphic" in2="effect1_dropShadow" result="shape"/>
</filter>
<filter id="filter10_d" x="196.672" y="62.3909" width="8.786" height="17.0676" filterUnits="userSpaceOnUse" color-interpolation-filters="sRGB">
<feFlood flood-opacity="0" result="BackgroundImageFix"/>
<feColorMatrix in="SourceAlpha" type="matrix" values="0 0 0 0 0 0 0 0 0 0 0 0 0 0 0 0 0 0 127 0"/>
<feOffset dy="3"/>
<feGaussianBlur stdDeviation="1.22925"/>
<feColorMatrix type="matrix" values="0 0 0 0 0.104167 0 0 0 0 0.4625 0 0 0 0 1 0 0 0 0.15 0"/>
<feBlend mode="normal" in2="BackgroundImageFix" result="effect1_dropShadow"/>
<feBlend mode="normal" in="SourceGraphic" in2="effect1_dropShadow" result="shape"/>
</filter>
<filter id="filter11_d" x="206.34" y="55.2677" width="9.118" height="24.1908" filterUnits="userSpaceOnUse" color-interpolation-filters="sRGB">
<feFlood flood-opacity="0" result="BackgroundImageFix"/>
<feColorMatrix in="SourceAlpha" type="matrix" values="0 0 0 0 0 0 0 0 0 0 0 0 0 0 0 0 0 0 127 0"/>
<feOffset dy="3"/>
<feGaussianBlur stdDeviation="1.22925"/>
<feColorMatrix type="matrix" values="0 0 0 0 0.104167 0 0 0 0 0.4625 0 0 0 0 1 0 0 0 0.24 0"/>
<feBlend mode="normal" in2="BackgroundImageFix" result="effect1_dropShadow"/>
<feBlend mode="normal" in="SourceGraphic" in2="effect1_dropShadow" result="shape"/>
</filter>
<filter id="filter12_d" x="217.008" y="47.9583" width="7.45" height="31.5003" filterUnits="userSpaceOnUse" color-interpolation-filters="sRGB">
<feFlood flood-opacity="0" result="BackgroundImageFix"/>
<feColorMatrix in="SourceAlpha" type="matrix" values="0 0 0 0 0 0 0 0 0 0 0 0 0 0 0 0 0 0 127 0"/>
<feOffset dy="3"/>
<feGaussianBlur stdDeviation="1.22925"/>
<feColorMatrix type="matrix" values="0 0 0 0 0.104167 0 0 0 0 0.4625 0 0 0 0 1 0 0 0 0.15 0"/>
<feBlend mode="normal" in2="BackgroundImageFix" result="effect1_dropShadow"/>
<feBlend mode="normal" in="SourceGraphic" in2="effect1_dropShadow" result="shape"/>
</filter>
<filter id="filter13_d" x="226.676" y="40.8152" width="7.78201" height="38.6433" filterUnits="userSpaceOnUse" color-interpolation-filters="sRGB">
<feFlood flood-opacity="0" result="BackgroundImageFix"/>
<feColorMatrix in="SourceAlpha" type="matrix" values="0 0 0 0 0 0 0 0 0 0 0 0 0 0 0 0 0 0 127 0"/>
<feOffset dy="3"/>
<feGaussianBlur stdDeviation="1.22925"/>
<feColorMatrix type="matrix" values="0 0 0 0 0.104167 0 0 0 0 0.4625 0 0 0 0 1 0 0 0 0.24 0"/>
<feBlend mode="normal" in2="BackgroundImageFix" result="effect1_dropShadow"/>
<feBlend mode="normal" in="SourceGraphic" in2="effect1_dropShadow" result="shape"/>
</filter>
<filter id="filter14_d" x="236.344" y="32.9714" width="8.11401" height="45.487" filterUnits="userSpaceOnUse" color-interpolation-filters="sRGB">
<feFlood flood-opacity="0" result="BackgroundImageFix"/>
<feColorMatrix in="SourceAlpha" type="matrix" values="0 0 0 0 0 0 0 0 0 0 0 0 0 0 0 0 0 0 127 0"/>
<feOffset dy="2"/>
<feGaussianBlur stdDeviation="1.22925"/>
<feColorMatrix type="matrix" values="0 0 0 0 0.104167 0 0 0 0 0.4625 0 0 0 0 1 0 0 0 0.15 0"/>
<feBlend mode="normal" in2="BackgroundImageFix" result="effect1_dropShadow"/>
<feBlend mode="normal" in="SourceGraphic" in2="effect1_dropShadow" result="shape"/>
</filter>
</defs>
</svg>
