<svg width="309" height="198" viewBox="0 0 309 198" fill="none" xmlns="http://www.w3.org/2000/svg">
<path d="M309 0H0V198H309V0Z" fill="#F4263E"/>
<g filter="url(#filter0_d)">
<path d="M190.429 32.906H110.285C102.238 32.906 95.7138 39.4299 95.7138 47.4775V154.641C95.7138 162.688 102.238 169.212 110.285 169.212H190.429C198.476 169.212 205 162.688 205 154.641V47.4775C205 39.4299 198.476 32.906 190.429 32.906Z" fill="white"/>
</g>
<path d="M191.33 31.3727H109.384C101.155 31.3727 94.4844 38.0433 94.4844 46.272V155.846C94.4844 164.075 101.155 170.746 109.384 170.746H191.33C199.559 170.746 206.229 164.075 206.229 155.846V46.272C206.229 38.0433 199.559 31.3727 191.33 31.3727Z" fill="white"/>
<path opacity="0.6" d="M160.302 110.996H108.054C105.74 110.996 103.864 112.872 103.864 115.186C103.864 117.501 105.74 119.377 108.054 119.377H160.302C162.616 119.377 164.492 117.501 164.492 115.186C164.492 112.872 162.616 110.996 160.302 110.996Z" fill="#62668A"/>
<path opacity="0.3" d="M192.66 126.826H108.054C105.74 126.826 103.864 128.702 103.864 131.016C103.864 133.331 105.74 135.207 108.054 135.207H192.66C194.974 135.207 196.85 133.331 196.85 131.016C196.85 128.702 194.974 126.826 192.66 126.826Z" fill="#BEBFCC"/>
<path opacity="0.3" d="M178.6 142.815H108.054C105.74 142.815 103.864 144.691 103.864 147.005C103.864 149.32 105.74 151.196 108.054 151.196H178.6C180.914 151.196 182.79 149.32 182.79 147.005C182.79 144.691 180.914 142.815 178.6 142.815Z" fill="#BEBFCC"/>
<g filter="url(#filter1_d)">
<path d="M186.059 43.9269H114.656C109.718 43.9269 105.714 47.9301 105.714 52.8683V88.6808C105.714 93.619 109.718 97.6222 114.656 97.6222H186.059C190.997 97.6222 195 93.619 195 88.6808V52.8683C195 47.9301 190.997 43.9269 186.059 43.9269Z" fill="#F4263E"/>
</g>
<path d="M187.538 42.8141H113.176C108.033 42.8141 103.864 46.9832 103.864 52.1261V89.423C103.864 94.5659 108.033 98.7351 113.176 98.7351H187.538C192.681 98.7351 196.85 94.5659 196.85 89.423V52.1261C196.85 46.9832 192.681 42.8141 187.538 42.8141Z" fill="#F4263E"/>
<g filter="url(#filter2_d)">
<path d="M99.4911 80C113.831 80 125.456 68.3753 125.456 54.0356C125.456 39.6958 113.831 28.0712 99.4911 28.0712C85.1514 28.0712 73.5267 39.6958 73.5267 54.0356C73.5267 68.3753 85.1514 80 99.4911 80Z" fill="#F4263E"/>
</g>
<path d="M99.4911 82.8168C115.387 82.8168 128.272 69.931 128.272 54.0356C128.272 38.1402 115.387 25.2544 99.4911 25.2544C83.5957 25.2544 70.7099 38.1402 70.7099 54.0356C70.7099 69.931 83.5957 82.8168 99.4911 82.8168Z" fill="#F4263E"/>
<g filter="url(#filter3_d)">
<path d="M114.174 45.2841C113.62 44.1749 112.811 43.2131 111.812 42.4784C110.814 41.7437 109.656 41.257 108.432 41.0585C107.208 40.86 105.955 40.9554 104.775 41.3368C103.596 41.7183 102.524 42.3748 101.649 43.2522L100.105 44.796C99.9419 44.9588 99.7214 45.0503 99.4912 45.0503C99.2609 45.0503 99.0402 44.9588 98.8773 44.796L97.3317 43.2522C95.8652 41.7857 93.8762 40.9618 91.8022 40.9618C89.7283 40.9618 87.7393 41.7857 86.2728 43.2522C84.8063 44.7187 83.9824 46.7077 83.9824 48.7816C83.9824 50.8556 84.8063 52.8446 86.2728 54.3111L97.8909 66.4311C98.0977 66.6468 98.346 66.8184 98.6209 66.9356C98.8958 67.0529 99.1915 67.1133 99.4903 67.1133C99.7892 67.1133 100.085 67.0529 100.36 66.9356C100.634 66.8184 100.883 66.6468 101.09 66.4311L112.708 54.3111C113.87 53.151 114.636 51.6547 114.899 50.0344C115.162 48.414 114.908 46.752 114.174 45.2841Z" fill="white"/>
</g>
<path d="M116.39 43.9632C115.753 42.6866 114.821 41.5797 113.672 40.7341C112.523 39.8885 111.19 39.3283 109.781 39.0998C108.373 38.8714 106.931 38.9812 105.573 39.4202C104.216 39.8592 102.982 40.6148 101.975 41.6246L100.198 43.4015C100.01 43.5889 99.7562 43.6941 99.4912 43.6941C99.2262 43.6941 98.9721 43.5889 98.7847 43.4015L97.0058 41.6246C95.3179 39.9368 93.0287 38.9886 90.6417 38.9886C88.2547 38.9886 85.9655 39.9368 84.2777 41.6246C82.5898 43.3125 81.6416 45.6017 81.6416 47.9887C81.6416 50.3757 82.5898 52.6649 84.2777 54.3527L97.6494 68.3021C97.8874 68.5503 98.1732 68.7478 98.4896 68.8828C98.8059 69.0177 99.1463 69.0873 99.4902 69.0873C99.8342 69.0873 100.175 69.0177 100.491 68.8828C100.807 68.7478 101.093 68.5503 101.331 68.3021L114.703 54.3527C116.04 53.0176 116.922 51.2954 117.225 49.4305C117.527 47.5656 117.235 45.6527 116.39 43.9632Z" fill="white"/>
<g filter="url(#filter4_d)">
<path d="M143.893 58.4028C141.888 57.2235 139.361 58.6691 139.361 60.9951V80.5537C139.361 82.8798 141.888 84.3254 143.893 83.146L160.517 73.367C162.494 72.2041 162.494 69.3452 160.517 68.1823L143.893 58.4028Z" fill="white"/>
</g>
<path d="M143.535 57.7506C141.424 56.5091 138.764 58.0309 138.764 60.4796V81.0693C138.764 83.518 141.424 85.0398 143.535 83.7983L161.036 73.5037C163.117 72.2795 163.117 69.2699 161.036 68.0457L143.535 57.7506Z" fill="white"/>
<g filter="url(#filter5_d)">
<path d="M240.743 70.4348H195.581C190.85 70.4348 187.015 74.2703 187.015 79.0016V146.433C187.015 151.165 190.85 155 195.581 155H240.743C245.474 155 249.31 151.165 249.31 146.433V79.0016C249.31 74.2703 245.474 70.4348 240.743 70.4348Z" fill="white"/>
</g>
<path d="M241.479 69.0575H194.846C189.96 69.0575 186 73.0179 186 77.9033V147.531C186 152.417 189.96 156.377 194.846 156.377H241.479C246.364 156.377 250.324 152.417 250.324 147.531V77.9033C250.324 73.0179 246.364 69.0575 241.479 69.0575Z" fill="white"/>
<g filter="url(#filter6_d)">
<path d="M194.138 138.983C195.718 138.983 197 137.701 197 136.121C197 134.541 195.718 133.259 194.138 133.259C192.558 133.259 191.276 134.541 191.276 136.121C191.276 137.701 192.558 138.983 194.138 138.983Z" fill="#F4263E"/>
</g>
<path d="M194.138 139.401C195.949 139.401 197.418 137.932 197.418 136.121C197.418 134.31 195.949 132.841 194.138 132.841C192.327 132.841 190.858 134.31 190.858 136.121C190.858 137.932 192.327 139.401 194.138 139.401Z" fill="#F4263E"/>
<path d="M228.852 80.3431H205.051C203.83 80.3431 202.84 81.3332 202.84 82.5546C202.84 83.7759 203.83 84.766 205.051 84.766H228.852C230.074 84.766 231.064 83.7759 231.064 82.5546C231.064 81.3332 230.074 80.3431 228.852 80.3431Z" fill="#E7E8F1"/>
<path d="M234.558 142.791H193.069C191.848 142.791 190.858 143.781 190.858 145.002C190.858 146.224 191.848 147.214 193.069 147.214H234.558C235.78 147.214 236.77 146.224 236.77 145.002C236.77 143.781 235.78 142.791 234.558 142.791Z" fill="#E7E8F1"/>
<g filter="url(#filter7_d)">
<path d="M237.722 92.6531H198.602C195.135 92.6531 192.324 95.4639 192.324 98.9312V122.185C192.324 125.653 195.135 128.463 198.602 128.463H237.722C241.189 128.463 244 125.653 244 122.185V98.9312C244 95.4639 241.189 92.6531 237.722 92.6531Z" fill="#F4263E"/>
</g>
<path d="M238.832 91.6371H197.492C193.828 91.6371 190.858 94.6074 190.858 98.2714V122.845C190.858 126.509 193.828 129.479 197.492 129.479H238.832C242.496 129.479 245.466 126.509 245.466 122.845V98.2714C245.466 94.6074 242.496 91.6371 238.832 91.6371Z" fill="#F4263E"/>
<g filter="url(#filter8_d)">
<path d="M225.556 108.265C225.384 107.903 225.117 107.592 224.78 107.359C224.443 107.126 224.048 106.98 223.634 106.937C223.227 106.933 222.826 107.035 222.474 107.231C222.122 107.427 221.832 107.71 221.635 108.05L221.625 108.068L217.89 114.143C217.847 114.215 217.785 114.276 217.713 114.322C217.64 114.368 217.556 114.397 217.469 114.407C217.382 114.416 217.294 114.407 217.213 114.38C217.13 114.352 217.055 114.307 216.994 114.249L213.142 110.536C213.123 110.517 213.103 110.501 213.082 110.486C212.842 110.308 212.564 110.184 212.268 110.12C211.972 110.056 211.664 110.055 211.367 110.118C211.07 110.18 210.792 110.303 210.551 110.479C210.31 110.655 210.112 110.878 209.972 111.135L209.959 111.157L204.402 120.186C204.351 120.268 204.324 120.362 204.324 120.457C204.324 120.553 204.35 120.646 204.4 120.729C204.45 120.811 204.521 120.88 204.608 120.928C204.695 120.975 204.793 121 204.893 121H231.432C231.529 121 231.625 120.977 231.709 120.931C231.794 120.886 231.866 120.821 231.917 120.742C231.968 120.664 231.996 120.574 232 120.481C232.003 120.388 231.981 120.297 231.937 120.214L225.556 108.265Z" fill="white"/>
</g>
<path d="M225.832 107.747C225.654 107.353 225.377 107.013 225.027 106.759C224.678 106.505 224.268 106.346 223.839 106.299C223.416 106.295 223 106.406 222.635 106.62C222.27 106.833 221.969 107.142 221.765 107.513L221.754 107.532L217.88 114.159C217.835 114.237 217.771 114.304 217.696 114.354C217.62 114.404 217.533 114.436 217.443 114.447C217.353 114.457 217.262 114.447 217.177 114.417C217.091 114.387 217.014 114.338 216.95 114.274L212.954 110.224C212.935 110.204 212.914 110.186 212.892 110.17C212.643 109.976 212.355 109.84 212.048 109.771C211.74 109.701 211.421 109.7 211.113 109.768C210.805 109.836 210.516 109.97 210.266 110.162C210.016 110.354 209.811 110.598 209.666 110.878L209.652 110.902L203.887 120.75C203.835 120.84 203.807 120.942 203.807 121.046C203.806 121.15 203.833 121.252 203.885 121.342C203.937 121.432 204.011 121.507 204.101 121.559C204.191 121.611 204.293 121.638 204.397 121.638H231.928C232.029 121.638 232.128 121.613 232.216 121.563C232.304 121.514 232.378 121.443 232.431 121.357C232.484 121.271 232.513 121.173 232.517 121.072C232.521 120.971 232.498 120.871 232.452 120.781L225.832 107.747Z" fill="white"/>
<g filter="url(#filter9_d)">
<path d="M208.116 106C209.761 106 211.094 104.666 211.094 103.021C211.094 101.376 209.761 100.042 208.116 100.042C206.47 100.042 205.137 101.376 205.137 103.021C205.137 104.666 206.47 106 208.116 106Z" fill="#FFCD1D"/>
</g>
<path d="M208.116 106.564C210.072 106.564 211.658 104.977 211.658 103.021C211.658 101.064 210.072 99.4783 208.116 99.4783C206.159 99.4783 204.573 101.064 204.573 103.021C204.573 104.977 206.159 106.564 208.116 106.564Z" fill="#FFCD1D"/>
<g filter="url(#filter10_d)">
<path d="M195.191 86.3635C197.295 86.3635 199 84.6581 199 82.5545C199 80.4508 197.295 78.7455 195.191 78.7455C193.087 78.7455 191.382 80.4508 191.382 82.5545C191.382 84.6581 193.087 86.3635 195.191 86.3635Z" fill="#F4263E"/>
</g>
<path d="M195.191 86.8867C197.584 86.8867 199.523 84.9471 199.523 82.5545C199.523 80.162 197.584 78.2224 195.191 78.2224C192.798 78.2224 190.859 80.162 190.859 82.5545C190.859 84.9471 192.798 86.8867 195.191 86.8867Z" fill="#F4263E"/>
<defs>
<filter id="filter0_d" x="75.7138" y="17.906" width="149.286" height="176.306" filterUnits="userSpaceOnUse" color-interpolation-filters="sRGB">
<feFlood flood-opacity="0" result="BackgroundImageFix"/>
<feColorMatrix in="SourceAlpha" type="matrix" values="0 0 0 0 0 0 0 0 0 0 0 0 0 0 0 0 0 0 127 0"/>
<feOffset dy="5"/>
<feGaussianBlur stdDeviation="10"/>
<feColorMatrix type="matrix" values="0 0 0 0 0.01625 0 0 0 0 0.0397 0 0 0 0 0.1 0 0 0 0.25 0"/>
<feBlend mode="normal" in2="BackgroundImageFix" result="effect1_dropShadow"/>
<feBlend mode="normal" in="SourceGraphic" in2="effect1_dropShadow" result="shape"/>
</filter>
<filter id="filter1_d" x="100.714" y="41.9269" width="99.2856" height="63.6954" filterUnits="userSpaceOnUse" color-interpolation-filters="sRGB">
<feFlood flood-opacity="0" result="BackgroundImageFix"/>
<feColorMatrix in="SourceAlpha" type="matrix" values="0 0 0 0 0 0 0 0 0 0 0 0 0 0 0 0 0 0 127 0"/>
<feOffset dy="3"/>
<feGaussianBlur stdDeviation="2.5"/>
<feColorMatrix type="matrix" values="0 0 0 0 0.956863 0 0 0 0 0.14902 0 0 0 0 0.243137 0 0 0 0.4 0"/>
<feBlend mode="normal" in2="BackgroundImageFix" result="effect1_dropShadow"/>
<feBlend mode="normal" in="SourceGraphic" in2="effect1_dropShadow" result="shape"/>
</filter>
<filter id="filter2_d" x="61.5267" y="21.0712" width="75.9288" height="75.9288" filterUnits="userSpaceOnUse" color-interpolation-filters="sRGB">
<feFlood flood-opacity="0" result="BackgroundImageFix"/>
<feColorMatrix in="SourceAlpha" type="matrix" values="0 0 0 0 0 0 0 0 0 0 0 0 0 0 0 0 0 0 127 0"/>
<feOffset dy="5"/>
<feGaussianBlur stdDeviation="6"/>
<feColorMatrix type="matrix" values="0 0 0 0 0.00638889 0 0 0 0 0.0305 0 0 0 0 0.0666667 0 0 0 0.15 0"/>
<feBlend mode="normal" in2="BackgroundImageFix" result="effect1_dropShadow"/>
<feBlend mode="normal" in="SourceGraphic" in2="effect1_dropShadow" result="shape"/>
</filter>
<filter id="filter3_d" x="73.9824" y="34.1576" width="51.0176" height="46.1557" filterUnits="userSpaceOnUse" color-interpolation-filters="sRGB">
<feFlood flood-opacity="0" result="BackgroundImageFix"/>
<feColorMatrix in="SourceAlpha" type="matrix" values="0 0 0 0 0 0 0 0 0 0 0 0 0 0 0 0 0 0 127 0"/>
<feOffset dy="3.2"/>
<feGaussianBlur stdDeviation="5"/>
<feColorMatrix type="matrix" values="0 0 0 0 0.121042 0 0 0 0 0.143938 0 0 0 0 0.35 0 0 0 0.2 0"/>
<feBlend mode="normal" in2="BackgroundImageFix" result="effect1_dropShadow"/>
<feBlend mode="normal" in="SourceGraphic" in2="effect1_dropShadow" result="shape"/>
</filter>
<filter id="filter4_d" x="124.361" y="46.983" width="52.6392" height="55.5828" filterUnits="userSpaceOnUse" color-interpolation-filters="sRGB">
<feFlood flood-opacity="0" result="BackgroundImageFix"/>
<feColorMatrix in="SourceAlpha" type="matrix" values="0 0 0 0 0 0 0 0 0 0 0 0 0 0 0 0 0 0 127 0"/>
<feOffset dy="4"/>
<feGaussianBlur stdDeviation="7.5"/>
<feColorMatrix type="matrix" values="0 0 0 0 0.391667 0 0 0 0 0.0195833 0 0 0 0 0.0643893 0 0 0 0.2 0"/>
<feBlend mode="normal" in2="BackgroundImageFix" result="effect1_dropShadow"/>
<feBlend mode="normal" in="SourceGraphic" in2="effect1_dropShadow" result="shape"/>
</filter>
<filter id="filter5_d" x="159.015" y="50.4348" width="118.295" height="140.565" filterUnits="userSpaceOnUse" color-interpolation-filters="sRGB">
<feFlood flood-opacity="0" result="BackgroundImageFix"/>
<feColorMatrix in="SourceAlpha" type="matrix" values="0 0 0 0 0 0 0 0 0 0 0 0 0 0 0 0 0 0 127 0"/>
<feOffset dy="8"/>
<feGaussianBlur stdDeviation="14"/>
<feColorMatrix type="matrix" values="0 0 0 0 0.0602083 0 0 0 0 0.206125 0 0 0 0 0.425 0 0 0 0.25 0"/>
<feBlend mode="normal" in2="BackgroundImageFix" result="effect1_dropShadow"/>
<feBlend mode="normal" in="SourceGraphic" in2="effect1_dropShadow" result="shape"/>
</filter>
<filter id="filter6_d" x="187.276" y="131.259" width="13.7239" height="13.7239" filterUnits="userSpaceOnUse" color-interpolation-filters="sRGB">
<feFlood flood-opacity="0" result="BackgroundImageFix"/>
<feColorMatrix in="SourceAlpha" type="matrix" values="0 0 0 0 0 0 0 0 0 0 0 0 0 0 0 0 0 0 127 0"/>
<feOffset dy="2"/>
<feGaussianBlur stdDeviation="2"/>
<feColorMatrix type="matrix" values="0 0 0 0 0.956863 0 0 0 0 0.14902 0 0 0 0 0.243137 0 0 0 0.19 0"/>
<feBlend mode="normal" in2="BackgroundImageFix" result="effect1_dropShadow"/>
<feBlend mode="normal" in="SourceGraphic" in2="effect1_dropShadow" result="shape"/>
</filter>
<filter id="filter7_d" x="187.324" y="90.6531" width="61.6759" height="45.8103" filterUnits="userSpaceOnUse" color-interpolation-filters="sRGB">
<feFlood flood-opacity="0" result="BackgroundImageFix"/>
<feColorMatrix in="SourceAlpha" type="matrix" values="0 0 0 0 0 0 0 0 0 0 0 0 0 0 0 0 0 0 127 0"/>
<feOffset dy="3"/>
<feGaussianBlur stdDeviation="2.5"/>
<feColorMatrix type="matrix" values="0 0 0 0 0.956863 0 0 0 0 0.14902 0 0 0 0 0.243137 0 0 0 0.22 0"/>
<feBlend mode="normal" in2="BackgroundImageFix" result="effect1_dropShadow"/>
<feBlend mode="normal" in="SourceGraphic" in2="effect1_dropShadow" result="shape"/>
</filter>
<filter id="filter8_d" x="199.324" y="104.937" width="37.6755" height="24.063" filterUnits="userSpaceOnUse" color-interpolation-filters="sRGB">
<feFlood flood-opacity="0" result="BackgroundImageFix"/>
<feColorMatrix in="SourceAlpha" type="matrix" values="0 0 0 0 0 0 0 0 0 0 0 0 0 0 0 0 0 0 127 0"/>
<feOffset dy="3"/>
<feGaussianBlur stdDeviation="2.5"/>
<feColorMatrix type="matrix" values="0 0 0 0 0.0238889 0 0 0 0 0.0348334 0 0 0 0 0.133333 0 0 0 0.1 0"/>
<feBlend mode="normal" in2="BackgroundImageFix" result="effect1_dropShadow"/>
<feBlend mode="normal" in="SourceGraphic" in2="effect1_dropShadow" result="shape"/>
</filter>
<filter id="filter9_d" x="201.137" y="98.0422" width="13.9572" height="13.9578" filterUnits="userSpaceOnUse" color-interpolation-filters="sRGB">
<feFlood flood-opacity="0" result="BackgroundImageFix"/>
<feColorMatrix in="SourceAlpha" type="matrix" values="0 0 0 0 0 0 0 0 0 0 0 0 0 0 0 0 0 0 127 0"/>
<feOffset dy="2"/>
<feGaussianBlur stdDeviation="2"/>
<feColorMatrix type="matrix" values="0 0 0 0 0.0324653 0 0 0 0 0.0433854 0 0 0 0 0.141667 0 0 0 0.32 0"/>
<feBlend mode="normal" in2="BackgroundImageFix" result="effect1_dropShadow"/>
<feBlend mode="normal" in="SourceGraphic" in2="effect1_dropShadow" result="shape"/>
</filter>
<filter id="filter10_d" x="187.382" y="76.7455" width="15.618" height="15.618" filterUnits="userSpaceOnUse" color-interpolation-filters="sRGB">
<feFlood flood-opacity="0" result="BackgroundImageFix"/>
<feColorMatrix in="SourceAlpha" type="matrix" values="0 0 0 0 0 0 0 0 0 0 0 0 0 0 0 0 0 0 127 0"/>
<feOffset dy="2"/>
<feGaussianBlur stdDeviation="2"/>
<feColorMatrix type="matrix" values="0 0 0 0 0.956863 0 0 0 0 0.14902 0 0 0 0 0.243137 0 0 0 0.17 0"/>
<feBlend mode="normal" in2="BackgroundImageFix" result="effect1_dropShadow"/>
<feBlend mode="normal" in="SourceGraphic" in2="effect1_dropShadow" result="shape"/>
</filter>
</defs>
</svg>
