<svg width="358" height="245" viewBox="0 0 358 245" fill="none" xmlns="http://www.w3.org/2000/svg">
<path opacity="0.03" d="M227 0H132C90.5786 0 57 33.5786 57 75V170C57 211.421 90.5786 245 132 245H227C268.421 245 302 211.421 302 170V75C302 33.5786 268.421 0 227 0Z" fill="#F4263E"/>
<g filter="url(#filter0_d)">
<path d="M129.211 45.7199L35.1355 58.9414C23.6504 60.5555 15.6484 71.1745 17.2625 82.6596L34.5199 205.453C36.1341 216.938 46.7531 224.94 58.2382 223.326L152.314 210.104C163.799 208.49 171.801 197.871 170.187 186.386L152.929 63.5929C151.315 52.1078 140.696 44.1058 129.211 45.7199Z" fill="white" fill-opacity="0.01"/>
</g>
<path d="M129.211 45.7199L35.1355 58.9414C23.6504 60.5555 15.6484 71.1745 17.2625 82.6596L34.5199 205.453C36.1341 216.938 46.7531 224.94 58.2382 223.326L152.314 210.104C163.799 208.49 171.801 197.871 170.187 186.386L152.929 63.5929C151.315 52.1078 140.696 44.1058 129.211 45.7199Z" fill="white"/>
<g filter="url(#filter1_d)">
<path d="M88.2353 91.8719C105.736 89.4122 117.93 73.2309 115.47 55.7297C113.011 38.2286 96.8293 26.0351 79.3282 28.4947C61.8271 30.9543 49.6336 47.1357 52.0932 64.6368C54.5528 82.1379 70.7342 94.3315 88.2353 91.8719Z" fill="#1B76FF" fill-opacity="0.01"/>
</g>
<path d="M88.2353 91.8719C105.736 89.4122 117.93 73.2309 115.47 55.7297C113.011 38.2286 96.8293 26.0351 79.3282 28.4947C61.8271 30.9543 49.6336 47.1357 52.0932 64.6368C54.5528 82.1379 70.7342 94.3315 88.2353 91.8719Z" fill="#1B76FF"/>
<path d="M91.5289 50.3086C90.8495 45.4741 86.3804 42.1064 81.5459 42.7859C76.7114 43.4653 73.3438 47.9344 74.0232 52.7689C74.0579 53.0154 74.1936 53.9811 74.2282 54.2277C74.9077 59.0622 79.3767 62.4298 84.2112 61.7504C89.0457 61.071 92.4134 56.6019 91.7339 51.7674C91.6993 51.5209 91.5636 50.5551 91.5289 50.3086Z" fill="white"/>
<path d="M103.048 70.339C100.172 67.541 91.2095 65.1886 84.6144 66.1155C78.0194 67.0423 70.0551 71.772 68.0618 75.2561C66.8301 77.4101 68.6592 80.0204 71.127 79.6736L101.32 75.4302C103.787 75.0834 104.826 72.0701 103.048 70.339Z" fill="white"/>
<path opacity="0.5" d="M44.9506 127.24C48.779 126.702 51.4463 123.162 50.9083 119.334C50.3702 115.505 46.8306 112.838 43.0022 113.376C39.1738 113.914 36.5065 117.454 37.0445 121.282C37.5826 125.111 41.1222 127.778 44.9506 127.24Z" fill="#62668A"/>
<path opacity="0.5" d="M48.2905 151.007C52.1188 150.469 54.7862 146.929 54.2481 143.101C53.7101 139.273 50.1704 136.605 46.342 137.143C42.5137 137.681 39.8463 141.221 40.3844 145.049C40.9224 148.878 44.4621 151.545 48.2905 151.007Z" fill="#62668A"/>
<path opacity="0.5" d="M54.9711 198.54C58.7995 198.002 61.4668 194.462 60.9288 190.634C60.3907 186.805 56.8511 184.138 53.0227 184.676C49.1943 185.214 46.527 188.754 47.065 192.582C47.6031 196.411 51.1428 199.078 54.9711 198.54Z" fill="#62668A"/>
<path opacity="0.5" d="M51.6313 174.773C55.4596 174.235 58.127 170.695 57.5889 166.867C57.0509 163.038 53.5112 160.371 49.6829 160.909C45.8545 161.447 43.1871 164.987 43.7252 168.815C44.2632 172.644 47.8029 175.311 51.6313 174.773Z" fill="#62668A"/>
<path d="M124.878 105.119L58.0782 114.507C56.4375 114.737 55.2944 116.254 55.5249 117.895C55.7555 119.536 57.2725 120.679 58.9133 120.448L125.713 111.06C127.353 110.83 128.497 109.313 128.266 107.672C128.035 106.031 126.518 104.888 124.878 105.119Z" fill="#E7E8F1"/>
<path d="M142.484 127.671L61.5274 139.049C59.8867 139.279 58.7436 140.796 58.9742 142.437C59.2047 144.078 60.7218 145.221 62.3625 144.99L143.319 133.612C144.96 133.382 146.103 131.865 145.873 130.224C145.642 128.583 144.125 127.44 142.484 127.671Z" fill="#E7E8F1"/>
<path d="M143.679 175.974L68.2081 186.581C66.5674 186.811 65.4242 188.328 65.6548 189.969C65.8854 191.61 67.4024 192.753 69.0431 192.522L144.514 181.915C146.155 181.685 147.298 180.168 147.067 178.527C146.837 176.886 145.32 175.743 143.679 175.974Z" fill="#E7E8F1"/>
<path d="M126.461 154.158L64.8683 162.814C63.2275 163.045 62.0844 164.562 62.315 166.203C62.5456 167.843 64.0626 168.987 65.7033 168.756L127.296 160.1C128.936 159.869 130.079 158.352 129.849 156.711C129.618 155.071 128.101 153.928 126.461 154.158Z" fill="#E7E8F1"/>
<g filter="url(#filter2_d)">
<path d="M323.084 58.9104L229.009 45.689C217.523 44.0749 206.904 52.0769 205.29 63.562L188.033 186.355C186.419 197.84 194.421 208.459 205.906 210.073L299.981 223.295C311.466 224.909 322.085 216.907 323.7 205.422L340.957 82.6287C342.571 71.1436 334.569 60.5246 323.084 58.9104Z" fill="white" fill-opacity="0.01"/>
</g>
<path d="M323.084 58.9104L229.009 45.689C217.523 44.0749 206.904 52.0769 205.29 63.562L188.033 186.355C186.419 197.84 194.421 208.459 205.906 210.073L299.981 223.295C311.466 224.909 322.085 216.907 323.7 205.422L340.957 82.6287C342.571 71.1436 334.569 60.5246 323.084 58.9104Z" fill="white"/>
<g filter="url(#filter3_d)">
<path d="M270.973 91.9801C288.475 94.4397 304.656 82.2462 307.116 64.7451C309.575 47.244 297.382 31.0626 279.88 28.603C262.379 26.1433 246.198 38.3369 243.738 55.838C241.279 73.3391 253.472 89.5205 270.973 91.9801Z" fill="#782CE4" fill-opacity="0.01"/>
</g>
<path d="M270.973 91.9801C288.475 94.4397 304.656 82.2462 307.116 64.7451C309.575 47.244 297.382 31.0626 279.88 28.603C262.379 26.1433 246.198 38.3369 243.738 55.838C241.279 73.3391 253.472 89.5205 270.973 91.9801Z" fill="#782CE4"/>
<path d="M285.596 52.9349C286.275 48.1004 282.908 43.6314 278.073 42.9519C273.239 42.2725 268.77 45.6401 268.09 50.4746C268.056 50.7212 267.92 51.6869 267.885 51.9334C267.206 56.7679 270.573 61.237 275.408 61.9164C280.242 62.5959 284.711 59.2282 285.391 54.3937C285.426 54.1472 285.561 53.1814 285.596 52.9349Z" fill="white"/>
<path d="M291.149 75.3646C289.155 71.8822 281.188 67.1504 274.593 66.2235C267.998 65.2966 259.038 67.6479 256.162 70.4475C254.384 72.1786 255.423 75.1919 257.891 75.5387L288.084 79.7821C290.551 80.1289 292.38 77.5186 291.149 75.3646Z" fill="white"/>
<g filter="url(#filter4_d)">
<path d="M219.617 114.048C223.445 114.586 226.985 111.919 227.523 108.09C228.061 104.262 225.394 100.722 221.565 100.184C217.737 99.6461 214.197 102.313 213.659 106.142C213.121 109.97 215.788 113.51 219.617 114.048Z" fill="#FFCD1D" fill-opacity="0.01"/>
</g>
<path d="M219.617 114.048C223.445 114.586 226.985 111.919 227.523 108.09C228.061 104.262 225.394 100.722 221.565 100.184C217.737 99.6461 214.197 102.313 213.659 106.142C213.121 109.97 215.788 113.51 219.617 114.048Z" fill="#FFCD1D"/>
<g filter="url(#filter5_d)">
<path d="M216.276 137.814C220.105 138.352 223.644 135.684 224.183 131.856C224.721 128.028 222.053 124.488 218.225 123.95C214.396 123.412 210.857 126.079 210.319 129.908C209.781 133.736 212.448 137.276 216.276 137.814Z" fill="#1B76FF" fill-opacity="0.01"/>
</g>
<path d="M216.276 137.814C220.105 138.352 223.644 135.684 224.183 131.856C224.721 128.028 222.053 124.488 218.225 123.95C214.396 123.412 210.857 126.079 210.319 129.908C209.781 133.736 212.448 137.276 216.276 137.814Z" fill="#1B76FF"/>
<path d="M216.276 137.814C220.105 138.352 223.644 135.684 224.183 131.856C224.721 128.028 222.053 124.488 218.225 123.95C214.396 123.412 210.857 126.079 210.319 129.908C209.781 133.736 212.448 137.276 216.276 137.814Z" fill="#1B76FF" fill-opacity="0.01"/>
<g filter="url(#filter6_d)">
<path d="M209.597 185.347C213.425 185.885 216.965 183.217 217.503 179.389C218.041 175.561 215.374 172.021 211.545 171.483C207.717 170.945 204.177 173.612 203.639 177.441C203.101 181.269 205.768 184.809 209.597 185.347Z" fill="#F4263E" fill-opacity="0.01"/>
</g>
<path d="M209.597 185.347C213.425 185.885 216.965 183.217 217.503 179.389C218.041 175.561 215.374 172.021 211.545 171.483C207.717 170.945 204.177 173.612 203.639 177.441C203.101 181.269 205.768 184.809 209.597 185.347Z" fill="#F4263E"/>
<g filter="url(#filter7_d)">
<path d="M212.937 161.58C216.765 162.118 220.305 159.451 220.843 155.622C221.381 151.794 218.713 148.254 214.885 147.716C211.057 147.178 207.517 149.845 206.979 153.674C206.441 157.502 209.108 161.042 212.937 161.58Z" fill="#782CE4" fill-opacity="0.01"/>
</g>
<path d="M212.937 161.58C216.765 162.118 220.305 159.451 220.843 155.622C221.381 151.794 218.713 148.254 214.885 147.716C211.057 147.178 207.517 149.845 206.979 153.674C206.441 157.502 209.108 161.042 212.937 161.58Z" fill="#782CE4"/>
<path d="M302.545 114.814L235.746 105.426C234.105 105.195 232.588 106.338 232.357 107.979C232.127 109.62 233.27 111.137 234.911 111.367L301.71 120.755C303.351 120.986 304.868 119.843 305.098 118.202C305.329 116.561 304.186 115.044 302.545 114.814Z" fill="#E7E8F1"/>
<path d="M313.254 141.345L232.297 129.968C230.656 129.737 229.139 130.88 228.909 132.521C228.678 134.162 229.821 135.679 231.462 135.909L312.419 147.287C314.059 147.518 315.576 146.374 315.807 144.734C316.038 143.093 314.894 141.576 313.254 141.345Z" fill="#E7E8F1"/>
<path d="M301.088 188.106L225.617 177.5C223.976 177.269 222.459 178.412 222.228 180.053C221.998 181.694 223.141 183.211 224.782 183.441L300.252 194.048C301.893 194.278 303.41 193.135 303.641 191.495C303.871 189.854 302.728 188.337 301.088 188.106Z" fill="#E7E8F1"/>
<path d="M290.549 162.39L228.957 153.733C227.316 153.503 225.799 154.646 225.568 156.287C225.338 157.927 226.481 159.444 228.122 159.675L289.714 168.331C291.355 168.562 292.872 167.419 293.102 165.778C293.333 164.137 292.19 162.62 290.549 162.39Z" fill="#E7E8F1"/>
<g filter="url(#filter8_dd)">
<path d="M227 30H132C120.402 30 111 39.402 111 51V175C111 186.598 120.402 196 132 196H227C238.598 196 248 186.598 248 175V51C248 39.402 238.598 30 227 30Z" fill="white" fill-opacity="0.01"/>
</g>
<path d="M227 30H132C120.402 30 111 39.402 111 51V175C111 186.598 120.402 196 132 196H227C238.598 196 248 186.598 248 175V51C248 39.402 238.598 30 227 30Z" fill="white"/>
<g filter="url(#filter9_d)">
<path d="M180 70C197.673 70 212 55.6731 212 38C212 20.3269 197.673 6 180 6C162.327 6 148 20.3269 148 38C148 55.6731 162.327 70 180 70Z" fill="#F4263E" fill-opacity="0.01"/>
</g>
<path d="M180 70C197.673 70 212 55.6731 212 38C212 20.3269 197.673 6 180 6C162.327 6 148 20.3269 148 38C148 55.6731 162.327 70 180 70Z" fill="#F4263E"/>
<path d="M189.046 29.2996C189.046 24.4176 185.089 20.4607 180.207 20.4607C175.325 20.4607 171.368 24.4176 171.368 29.2996C171.368 29.5485 171.368 30.5238 171.368 30.7727C171.368 35.6547 175.325 39.6116 180.207 39.6116C185.089 39.6116 189.046 35.6547 189.046 30.7727C189.046 30.5238 189.046 29.5485 189.046 29.2996Z" fill="white"/>
<path d="M197.666 50.7379C195.207 47.5669 186.659 43.99 179.999 43.99C173.339 43.99 164.794 47.5653 162.336 50.7379C160.816 52.6996 162.264 55.5391 164.756 55.5391H195.246C197.738 55.5391 199.186 52.6996 197.666 50.7379Z" fill="white"/>
<g filter="url(#filter10_d)">
<path d="M132.214 99C136.08 99 139.214 95.866 139.214 92C139.214 88.134 136.08 85 132.214 85C128.348 85 125.214 88.134 125.214 92C125.214 95.866 128.348 99 132.214 99Z" fill="#FFCD1D" fill-opacity="0.01"/>
</g>
<path d="M132.214 99C136.08 99 139.214 95.866 139.214 92C139.214 88.134 136.08 85 132.214 85C128.348 85 125.214 88.134 125.214 92C125.214 95.866 128.348 99 132.214 99Z" fill="#FFCD1D"/>
<g filter="url(#filter11_d)">
<path d="M132.214 123C136.08 123 139.214 119.866 139.214 116C139.214 112.134 136.08 109 132.214 109C128.348 109 125.214 112.134 125.214 116C125.214 119.866 128.348 123 132.214 123Z" fill="#1B76FF" fill-opacity="0.01"/>
</g>
<path d="M132.214 123C136.08 123 139.214 119.866 139.214 116C139.214 112.134 136.08 109 132.214 109C128.348 109 125.214 112.134 125.214 116C125.214 119.866 128.348 123 132.214 123Z" fill="#1B76FF"/>
<g filter="url(#filter12_d)">
<path d="M132.214 171C136.08 171 139.214 167.866 139.214 164C139.214 160.134 136.08 157 132.214 157C128.348 157 125.214 160.134 125.214 164C125.214 167.866 128.348 171 132.214 171Z" fill="#FF961B" fill-opacity="0.01"/>
</g>
<path d="M132.214 171C136.08 171 139.214 167.866 139.214 164C139.214 160.134 136.08 157 132.214 157C128.348 157 125.214 160.134 125.214 164C125.214 167.866 128.348 171 132.214 171Z" fill="#FF961B"/>
<g filter="url(#filter13_d)">
<path d="M132.214 147C136.08 147 139.214 143.866 139.214 140C139.214 136.134 136.08 133 132.214 133C128.348 133 125.214 136.134 125.214 140C125.214 143.866 128.348 147 132.214 147Z" fill="#782CE4" fill-opacity="0.01"/>
</g>
<path d="M132.214 147C136.08 147 139.214 143.866 139.214 140C139.214 136.134 136.08 133 132.214 133C128.348 133 125.214 136.134 125.214 140C125.214 143.866 128.348 147 132.214 147Z" fill="#782CE4"/>
<path d="M214.442 88.2173H146.986C145.329 88.2173 143.986 89.5604 143.986 91.2173C143.986 92.8741 145.329 94.2173 146.986 94.2173H214.442C216.099 94.2173 217.442 92.8741 217.442 91.2173C217.442 89.5604 216.099 88.2173 214.442 88.2173Z" fill="#E7E8F1"/>
<path d="M228.738 113H146.986C145.329 113 143.986 114.343 143.986 116C143.986 117.657 145.329 119 146.986 119H228.738C230.395 119 231.738 117.657 231.738 116C231.738 114.343 230.395 113 228.738 113Z" fill="#E7E8F1"/>
<path d="M223.198 161H146.986C145.329 161 143.986 162.343 143.986 164C143.986 165.657 145.329 167 146.986 167H223.198C224.855 167 226.198 165.657 226.198 164C226.198 162.343 224.855 161 223.198 161Z" fill="#E7E8F1"/>
<path d="M209.183 137H146.986C145.329 137 143.986 138.343 143.986 140C143.986 141.657 145.329 143 146.986 143H209.183C210.84 143 212.183 141.657 212.183 140C212.183 138.343 210.84 137 209.183 137Z" fill="#E7E8F1"/>
<defs>
<filter id="filter0_d" x="0.339844" y="32.7974" width="186.769" height="211.451" filterUnits="userSpaceOnUse" color-interpolation-filters="sRGB">
<feFlood flood-opacity="0" result="BackgroundImageFix"/>
<feColorMatrix in="SourceAlpha" type="matrix" values="0 0 0 0 0 0 0 0 0 0 0 0 0 0 0 0 0 0 127 0"/>
<feOffset dy="4"/>
<feGaussianBlur stdDeviation="7"/>
<feColorMatrix type="matrix" values="0 0 0 0 0.121042 0 0 0 0 0.143938 0 0 0 0 0.35 0 0 0 0.08 0"/>
<feBlend mode="normal" in2="BackgroundImageFix" result="effect1_dropShadow"/>
<feBlend mode="normal" in="SourceGraphic" in2="effect1_dropShadow" result="shape"/>
</filter>
<filter id="filter1_d" x="38.6396" y="17.0413" width="90.2842" height="90.2842" filterUnits="userSpaceOnUse" color-interpolation-filters="sRGB">
<feFlood flood-opacity="0" result="BackgroundImageFix"/>
<feColorMatrix in="SourceAlpha" type="matrix" values="0 0 0 0 0 0 0 0 0 0 0 0 0 0 0 0 0 0 127 0"/>
<feOffset dy="2"/>
<feGaussianBlur stdDeviation="4.5"/>
<feColorMatrix type="matrix" values="0 0 0 0 0.104167 0 0 0 0 0.4625 0 0 0 0 1 0 0 0 0.22 0"/>
<feBlend mode="normal" in2="BackgroundImageFix" result="effect1_dropShadow"/>
<feBlend mode="normal" in="SourceGraphic" in2="effect1_dropShadow" result="shape"/>
</filter>
<filter id="filter2_d" x="171.11" y="32.7664" width="186.769" height="211.451" filterUnits="userSpaceOnUse" color-interpolation-filters="sRGB">
<feFlood flood-opacity="0" result="BackgroundImageFix"/>
<feColorMatrix in="SourceAlpha" type="matrix" values="0 0 0 0 0 0 0 0 0 0 0 0 0 0 0 0 0 0 127 0"/>
<feOffset dy="4"/>
<feGaussianBlur stdDeviation="7"/>
<feColorMatrix type="matrix" values="0 0 0 0 0.121042 0 0 0 0 0.143938 0 0 0 0 0.35 0 0 0 0.08 0"/>
<feBlend mode="normal" in2="BackgroundImageFix" result="effect1_dropShadow"/>
<feBlend mode="normal" in="SourceGraphic" in2="effect1_dropShadow" result="shape"/>
</filter>
<filter id="filter3_d" x="230.285" y="17.1494" width="90.2842" height="90.2842" filterUnits="userSpaceOnUse" color-interpolation-filters="sRGB">
<feFlood flood-opacity="0" result="BackgroundImageFix"/>
<feColorMatrix in="SourceAlpha" type="matrix" values="0 0 0 0 0 0 0 0 0 0 0 0 0 0 0 0 0 0 127 0"/>
<feOffset dy="2"/>
<feGaussianBlur stdDeviation="4.5"/>
<feColorMatrix type="matrix" values="0 0 0 0 0.470588 0 0 0 0 0.172549 0 0 0 0 0.894118 0 0 0 0.18 0"/>
<feBlend mode="normal" in2="BackgroundImageFix" result="effect1_dropShadow"/>
<feBlend mode="normal" in="SourceGraphic" in2="effect1_dropShadow" result="shape"/>
</filter>
<filter id="filter4_d" x="208.685" y="99.21" width="23.8122" height="23.8122" filterUnits="userSpaceOnUse" color-interpolation-filters="sRGB">
<feFlood flood-opacity="0" result="BackgroundImageFix"/>
<feColorMatrix in="SourceAlpha" type="matrix" values="0 0 0 0 0 0 0 0 0 0 0 0 0 0 0 0 0 0 127 0"/>
<feOffset dy="4"/>
<feGaussianBlur stdDeviation="2"/>
<feColorMatrix type="matrix" values="0 0 0 0 1 0 0 0 0 0.80475 0 0 0 0 0.1125 0 0 0 0.2 0"/>
<feBlend mode="normal" in2="BackgroundImageFix" result="effect1_dropShadow"/>
<feBlend mode="normal" in="SourceGraphic" in2="effect1_dropShadow" result="shape"/>
</filter>
<filter id="filter5_d" x="205.345" y="122.976" width="23.8122" height="23.8122" filterUnits="userSpaceOnUse" color-interpolation-filters="sRGB">
<feFlood flood-opacity="0" result="BackgroundImageFix"/>
<feColorMatrix in="SourceAlpha" type="matrix" values="0 0 0 0 0 0 0 0 0 0 0 0 0 0 0 0 0 0 127 0"/>
<feOffset dy="4"/>
<feGaussianBlur stdDeviation="2"/>
<feColorMatrix type="matrix" values="0 0 0 0 0.104167 0 0 0 0 0.4625 0 0 0 0 1 0 0 0 0.15 0"/>
<feBlend mode="normal" in2="BackgroundImageFix" result="effect1_dropShadow"/>
<feBlend mode="normal" in="SourceGraphic" in2="effect1_dropShadow" result="shape"/>
</filter>
<filter id="filter6_d" x="198.665" y="170.509" width="23.8122" height="23.8122" filterUnits="userSpaceOnUse" color-interpolation-filters="sRGB">
<feFlood flood-opacity="0" result="BackgroundImageFix"/>
<feColorMatrix in="SourceAlpha" type="matrix" values="0 0 0 0 0 0 0 0 0 0 0 0 0 0 0 0 0 0 127 0"/>
<feOffset dy="4"/>
<feGaussianBlur stdDeviation="2"/>
<feColorMatrix type="matrix" values="0 0 0 0 0.956863 0 0 0 0 0.14902 0 0 0 0 0.243137 0 0 0 0.15 0"/>
<feBlend mode="normal" in2="BackgroundImageFix" result="effect1_dropShadow"/>
<feBlend mode="normal" in="SourceGraphic" in2="effect1_dropShadow" result="shape"/>
</filter>
<filter id="filter7_d" x="202.005" y="146.742" width="23.8122" height="23.8122" filterUnits="userSpaceOnUse" color-interpolation-filters="sRGB">
<feFlood flood-opacity="0" result="BackgroundImageFix"/>
<feColorMatrix in="SourceAlpha" type="matrix" values="0 0 0 0 0 0 0 0 0 0 0 0 0 0 0 0 0 0 127 0"/>
<feOffset dy="4"/>
<feGaussianBlur stdDeviation="2"/>
<feColorMatrix type="matrix" values="0 0 0 0 0.470588 0 0 0 0 0.172549 0 0 0 0 0.894118 0 0 0 0.19 0"/>
<feBlend mode="normal" in2="BackgroundImageFix" result="effect1_dropShadow"/>
<feBlend mode="normal" in="SourceGraphic" in2="effect1_dropShadow" result="shape"/>
</filter>
<filter id="filter8_dd" x="87" y="20" width="185" height="214" filterUnits="userSpaceOnUse" color-interpolation-filters="sRGB">
<feFlood flood-opacity="0" result="BackgroundImageFix"/>
<feColorMatrix in="SourceAlpha" type="matrix" values="0 0 0 0 0 0 0 0 0 0 0 0 0 0 0 0 0 0 127 0"/>
<feOffset dy="14"/>
<feGaussianBlur stdDeviation="12"/>
<feColorMatrix type="matrix" values="0 0 0 0 0.956863 0 0 0 0 0.14902 0 0 0 0 0.243137 0 0 0 0.09 0"/>
<feBlend mode="normal" in2="BackgroundImageFix" result="effect1_dropShadow"/>
<feColorMatrix in="SourceAlpha" type="matrix" values="0 0 0 0 0 0 0 0 0 0 0 0 0 0 0 0 0 0 127 0"/>
<feOffset dy="3"/>
<feGaussianBlur stdDeviation="5"/>
<feColorMatrix type="matrix" values="0 0 0 0 0.121042 0 0 0 0 0.143938 0 0 0 0 0.35 0 0 0 0.15 0"/>
<feBlend mode="normal" in2="effect1_dropShadow" result="effect2_dropShadow"/>
<feBlend mode="normal" in="SourceGraphic" in2="effect2_dropShadow" result="shape"/>
</filter>
<filter id="filter9_d" x="134" y="4" width="92" height="92" filterUnits="userSpaceOnUse" color-interpolation-filters="sRGB">
<feFlood flood-opacity="0" result="BackgroundImageFix"/>
<feColorMatrix in="SourceAlpha" type="matrix" values="0 0 0 0 0 0 0 0 0 0 0 0 0 0 0 0 0 0 127 0"/>
<feOffset dy="12"/>
<feGaussianBlur stdDeviation="7"/>
<feColorMatrix type="matrix" values="0 0 0 0 0.956863 0 0 0 0 0.14902 0 0 0 0 0.243137 0 0 0 0.17 0"/>
<feBlend mode="normal" in2="BackgroundImageFix" result="effect1_dropShadow"/>
<feBlend mode="normal" in="SourceGraphic" in2="effect1_dropShadow" result="shape"/>
</filter>
<filter id="filter10_d" x="121.214" y="85" width="22" height="22" filterUnits="userSpaceOnUse" color-interpolation-filters="sRGB">
<feFlood flood-opacity="0" result="BackgroundImageFix"/>
<feColorMatrix in="SourceAlpha" type="matrix" values="0 0 0 0 0 0 0 0 0 0 0 0 0 0 0 0 0 0 127 0"/>
<feOffset dy="4"/>
<feGaussianBlur stdDeviation="2"/>
<feColorMatrix type="matrix" values="0 0 0 0 1 0 0 0 0 0.80475 0 0 0 0 0.1125 0 0 0 0.2 0"/>
<feBlend mode="normal" in2="BackgroundImageFix" result="effect1_dropShadow"/>
<feBlend mode="normal" in="SourceGraphic" in2="effect1_dropShadow" result="shape"/>
</filter>
<filter id="filter11_d" x="121.214" y="109" width="22" height="22" filterUnits="userSpaceOnUse" color-interpolation-filters="sRGB">
<feFlood flood-opacity="0" result="BackgroundImageFix"/>
<feColorMatrix in="SourceAlpha" type="matrix" values="0 0 0 0 0 0 0 0 0 0 0 0 0 0 0 0 0 0 127 0"/>
<feOffset dy="4"/>
<feGaussianBlur stdDeviation="2"/>
<feColorMatrix type="matrix" values="0 0 0 0 0.104167 0 0 0 0 0.4625 0 0 0 0 1 0 0 0 0.15 0"/>
<feBlend mode="normal" in2="BackgroundImageFix" result="effect1_dropShadow"/>
<feBlend mode="normal" in="SourceGraphic" in2="effect1_dropShadow" result="shape"/>
</filter>
<filter id="filter12_d" x="121.214" y="157" width="22" height="22" filterUnits="userSpaceOnUse" color-interpolation-filters="sRGB">
<feFlood flood-opacity="0" result="BackgroundImageFix"/>
<feColorMatrix in="SourceAlpha" type="matrix" values="0 0 0 0 0 0 0 0 0 0 0 0 0 0 0 0 0 0 127 0"/>
<feOffset dy="4"/>
<feGaussianBlur stdDeviation="2"/>
<feColorMatrix type="matrix" values="0 0 0 0 1 0 0 0 0 0.587917 0 0 0 0 0.104167 0 0 0 0.18 0"/>
<feBlend mode="normal" in2="BackgroundImageFix" result="effect1_dropShadow"/>
<feBlend mode="normal" in="SourceGraphic" in2="effect1_dropShadow" result="shape"/>
</filter>
<filter id="filter13_d" x="121.214" y="133" width="22" height="22" filterUnits="userSpaceOnUse" color-interpolation-filters="sRGB">
<feFlood flood-opacity="0" result="BackgroundImageFix"/>
<feColorMatrix in="SourceAlpha" type="matrix" values="0 0 0 0 0 0 0 0 0 0 0 0 0 0 0 0 0 0 127 0"/>
<feOffset dy="4"/>
<feGaussianBlur stdDeviation="2"/>
<feColorMatrix type="matrix" values="0 0 0 0 0.470588 0 0 0 0 0.172549 0 0 0 0 0.894118 0 0 0 0.19 0"/>
<feBlend mode="normal" in2="BackgroundImageFix" result="effect1_dropShadow"/>
<feBlend mode="normal" in="SourceGraphic" in2="effect1_dropShadow" result="shape"/>
</filter>
</defs>
</svg>
