<svg width="266" height="221" viewBox="0 0 266 221" fill="none" xmlns="http://www.w3.org/2000/svg">
<path opacity="0.03" d="M183.953 0H78.4874C47.9078 0 23.1182 24.7896 23.1182 55.3692V160.835C23.1182 191.414 47.9078 216.204 78.4874 216.204H183.953C214.533 216.204 239.322 191.414 239.322 160.835V55.3692C239.322 24.7896 214.533 0 183.953 0Z" fill="#F4263E"/>
<g filter="url(#filter0_d)">
<path d="M171.241 34.8518H84.2412C72.6432 34.8518 63.2412 44.2538 63.2412 55.8518V171.852C63.2412 183.45 72.6432 192.852 84.2412 192.852H171.241C182.839 192.852 192.241 183.45 192.241 171.852V55.8518C192.241 44.2538 182.839 34.8518 171.241 34.8518Z" fill="white" fill-opacity="0.01"/>
</g>
<path d="M171.241 34.8518H84.2412C72.6432 34.8518 63.2412 44.2538 63.2412 55.8518V171.852C63.2412 183.45 72.6432 192.852 84.2412 192.852H171.241C182.839 192.852 192.241 183.45 192.241 171.852V55.8518C192.241 44.2538 182.839 34.8518 171.241 34.8518Z" fill="white"/>
<g filter="url(#filter1_d)">
<path d="M84.2412 134.852H78.2412C75.4798 134.852 73.2412 137.091 73.2412 139.852V145.852C73.2412 148.613 75.4798 150.852 78.2412 150.852H84.2412C87.0026 150.852 89.2412 148.613 89.2412 145.852V139.852C89.2412 137.091 87.0026 134.852 84.2412 134.852Z" fill="#782CE4" fill-opacity="0.01"/>
</g>
<path d="M84.2412 134.852H78.2412C75.4798 134.852 73.2412 137.091 73.2412 139.852V145.852C73.2412 148.613 75.4798 150.852 78.2412 150.852H84.2412C87.0026 150.852 89.2412 148.613 89.2412 145.852V139.852C89.2412 137.091 87.0026 134.852 84.2412 134.852Z" fill="#782CE4"/>
<g filter="url(#filter2_d)">
<path d="M84.2412 158.852H78.2412C75.4798 158.852 73.2412 161.091 73.2412 163.852V169.852C73.2412 172.613 75.4798 174.852 78.2412 174.852H84.2412C87.0026 174.852 89.2412 172.613 89.2412 169.852V163.852C89.2412 161.091 87.0026 158.852 84.2412 158.852Z" fill="#F4263E" fill-opacity="0.01"/>
</g>
<path d="M84.2412 158.852H78.2412C75.4798 158.852 73.2412 161.091 73.2412 163.852V169.852C73.2412 172.613 75.4798 174.852 78.2412 174.852H84.2412C87.0026 174.852 89.2412 172.613 89.2412 169.852V163.852C89.2412 161.091 87.0026 158.852 84.2412 158.852Z" fill="#F4263E"/>
<path opacity="0.5" d="M150.241 139.852H99.2412C97.5844 139.852 96.2412 141.195 96.2412 142.852C96.2412 144.509 97.5844 145.852 99.2412 145.852H150.241C151.898 145.852 153.241 144.509 153.241 142.852C153.241 141.195 151.898 139.852 150.241 139.852Z" fill="#BEBFCC"/>
<path opacity="0.5" d="M174.241 163.852H99.2412C97.5844 163.852 96.2412 165.195 96.2412 166.852C96.2412 168.509 97.5844 169.852 99.2412 169.852H174.241C175.898 169.852 177.241 168.509 177.241 166.852C177.241 165.195 175.898 163.852 174.241 163.852Z" fill="#BEBFCC"/>
<path d="M170.241 56.8518H86.2412C79.0615 56.8518 73.2412 62.6721 73.2412 69.8518V112.852C73.2412 120.032 79.0615 125.852 86.2412 125.852H170.241C177.421 125.852 183.241 120.032 183.241 112.852V69.8518C183.241 62.6721 177.421 56.8518 170.241 56.8518Z" fill="#FAFAFC"/>
<g filter="url(#filter3_d)">
<path d="M76.2412 115.352C98.2412 115.352 100.741 79.4184 117.241 76.8518C133.741 74.2852 139.241 98.3518 156.741 98.3518C174.241 98.3518 168.474 69.8518 179.241 69.8518" stroke="#FE5660" stroke-opacity="0.01" stroke-width="3" stroke-linecap="round"/>
</g>
<path d="M76.2412 115.352C98.2412 115.352 100.741 79.4184 117.241 76.8518C133.741 74.2852 139.241 98.3518 156.741 98.3518C174.241 98.3518 168.474 69.8518 179.241 69.8518" stroke="#FE5660" stroke-width="3" stroke-linecap="round"/>
<g filter="url(#filter4_d)">
<path d="M76.2412 115.352C98.2412 115.352 86.7412 89.8518 118.241 101.352C149.741 112.852 142.241 88.8518 155.241 85.3518C168.241 81.8518 167.741 98.8518 179.741 96.3518" stroke="#782CE4" stroke-opacity="0.01" stroke-width="3" stroke-linecap="round"/>
</g>
<path d="M76.2412 115.352C98.2412 115.352 86.7412 89.8518 118.241 101.352C149.741 112.852 142.241 88.8518 155.241 85.3518C168.241 81.8518 167.741 98.8518 179.741 96.3518" stroke="#782CE4" stroke-width="3" stroke-linecap="round"/>
<g filter="url(#filter5_d)">
<path d="M88.7434 15.3518H31.2712C21.1803 15.3518 13 23.5321 13 33.623V87.5666C13 97.6575 21.1803 105.838 31.2712 105.838H88.7434C98.8343 105.838 107.015 97.6575 107.015 87.5666V33.623C107.015 23.5321 98.8343 15.3518 88.7434 15.3518Z" fill="white" fill-opacity="0.01"/>
</g>
<path d="M88.7434 15.3518H31.2712C21.1803 15.3518 13 23.5321 13 33.623V87.5666C13 97.6575 21.1803 105.838 31.2712 105.838H88.7434C98.8343 105.838 107.015 97.6575 107.015 87.5666V33.623C107.015 23.5321 98.8343 15.3518 88.7434 15.3518Z" fill="white"/>
<path opacity="0.3" d="M92.7304 60.5947C92.7304 78.6672 78.0798 93.3178 60.0073 93.3178C41.9348 93.3178 27.2842 78.6672 27.2842 60.5947C27.2842 42.5222 41.9348 27.8716 60.0073 27.8716C78.0798 27.8716 92.7304 42.5222 92.7304 60.5947ZM38.2087 60.5947C38.2087 72.6337 47.9682 82.3933 60.0073 82.3933C72.0463 82.3933 81.8059 72.6337 81.8059 60.5947C81.8059 48.5556 72.0463 38.7961 60.0073 38.7961C47.9682 38.7961 38.2087 48.5556 38.2087 60.5947Z" fill="#E7E8F1"/>
<g filter="url(#filter6_d)">
<path d="M55.2735 87.4414C54.7496 90.4123 51.8921 92.4388 49.0496 91.4286C45.3021 90.0968 41.8139 88.0877 38.7654 85.4862C34.3258 81.6975 30.9803 76.7904 29.0756 71.2734C27.171 65.7565 26.7765 59.8305 27.9332 54.1098C29.0898 48.3891 31.7554 43.0819 35.6537 38.7382C39.552 34.3945 44.5411 31.1725 50.1039 29.4062C55.6667 27.6398 61.6006 27.3934 67.2907 28.6924C72.9807 29.9915 78.2198 32.7887 82.4648 36.7942C85.3797 39.5446 87.753 42.796 89.4809 46.3781C90.7915 49.0953 89.0847 52.1545 86.1876 52.9955C83.2904 53.8364 80.3143 52.115 78.7812 49.5168C77.7452 47.761 76.4634 46.1514 74.9675 44.7399C72.1396 42.0717 68.6496 40.2082 64.8591 39.3429C61.0687 38.4775 57.1158 38.6417 53.4101 39.8183C49.7045 40.995 46.381 43.1413 43.7841 46.0349C41.1872 48.9285 39.4115 52.4639 38.641 56.2748C37.8705 60.0857 38.1333 64.0332 39.4021 67.7084C40.6708 71.3835 42.8995 74.6524 45.857 77.1763C47.4214 78.5114 49.1598 79.6123 51.017 80.4531C53.7652 81.6972 55.7973 84.4705 55.2735 87.4414Z" fill="#1B76FF" fill-opacity="0.01"/>
</g>
<path d="M55.2735 87.4414C54.7496 90.4123 51.8921 92.4388 49.0496 91.4286C45.3021 90.0968 41.8139 88.0877 38.7654 85.4862C34.3258 81.6975 30.9803 76.7904 29.0756 71.2734C27.171 65.7565 26.7765 59.8305 27.9332 54.1098C29.0898 48.3891 31.7554 43.0819 35.6537 38.7382C39.552 34.3945 44.5411 31.1725 50.1039 29.4062C55.6667 27.6398 61.6006 27.3934 67.2907 28.6924C72.9807 29.9915 78.2198 32.7887 82.4648 36.7942C85.3797 39.5446 87.753 42.796 89.4809 46.3781C90.7915 49.0953 89.0847 52.1545 86.1876 52.9955C83.2904 53.8364 80.3143 52.115 78.7812 49.5168C77.7452 47.761 76.4634 46.1514 74.9675 44.7399C72.1396 42.0717 68.6496 40.2082 64.8591 39.3429C61.0687 38.4775 57.1158 38.6417 53.4101 39.8183C49.7045 40.995 46.381 43.1413 43.7841 46.0349C41.1872 48.9285 39.4115 52.4639 38.641 56.2748C37.8705 60.0857 38.1333 64.0332 39.4021 67.7084C40.6708 71.3835 42.8995 74.6524 45.857 77.1763C47.4214 78.5114 49.1598 79.6123 51.017 80.4531C53.7652 81.6972 55.7973 84.4705 55.2735 87.4414Z" fill="#1B76FF"/>
<g filter="url(#filter7_d)">
<path d="M230.745 108.263H171.937C161.612 108.263 153.241 116.633 153.241 126.959V182.156C153.241 192.481 161.612 200.851 171.937 200.851H230.745C241.07 200.851 249.44 192.481 249.44 182.156V126.959C249.44 116.633 241.07 108.263 230.745 108.263Z" fill="white" fill-opacity="0.01"/>
</g>
<path d="M230.745 108.263H171.937C161.612 108.263 153.241 116.633 153.241 126.959V182.156C153.241 192.481 161.612 200.851 171.937 200.851H230.745C241.07 200.851 249.44 192.481 249.44 182.156V126.959C249.44 116.633 241.07 108.263 230.745 108.263Z" fill="white"/>
<g filter="url(#filter8_d)">
<path d="M176.414 137.205C176.414 135.238 174.82 133.644 172.853 133.644C170.886 133.644 169.292 135.238 169.292 137.205V181.356C169.292 183.322 170.886 184.917 172.853 184.917C174.82 184.917 176.414 183.322 176.414 181.356V137.205Z" fill="#F4263E" fill-opacity="0.01"/>
</g>
<path d="M176.414 137.205C176.414 135.238 174.82 133.644 172.853 133.644C170.886 133.644 169.292 135.238 169.292 137.205V181.356C169.292 183.322 170.886 184.917 172.853 184.917C174.82 184.917 176.414 183.322 176.414 181.356V137.205Z" fill="#F4263E"/>
<g filter="url(#filter9_d)">
<path d="M190.658 158.793C190.658 156.826 189.064 155.232 187.097 155.232C185.13 155.232 183.536 156.826 183.536 158.793V181.355C183.536 183.322 185.13 184.916 187.097 184.916C189.064 184.916 190.658 183.322 190.658 181.355V158.793Z" fill="#FF961B" fill-opacity="0.01"/>
</g>
<path d="M190.658 158.793C190.658 156.826 189.064 155.232 187.097 155.232C185.13 155.232 183.536 156.826 183.536 158.793V181.355C183.536 183.322 185.13 184.916 187.097 184.916C189.064 184.916 190.658 183.322 190.658 181.355V158.793Z" fill="#FF961B"/>
<g filter="url(#filter10_d)">
<path d="M204.902 143.951C204.902 141.984 203.308 140.39 201.341 140.39C199.374 140.39 197.78 141.984 197.78 143.951V181.355C197.78 183.322 199.374 184.916 201.341 184.916C203.308 184.916 204.902 183.322 204.902 181.355V143.951Z" fill="#F4263E" fill-opacity="0.01"/>
</g>
<path d="M204.902 143.951C204.902 141.984 203.308 140.39 201.341 140.39C199.374 140.39 197.78 141.984 197.78 143.951V181.355C197.78 183.322 199.374 184.916 201.341 184.916C203.308 184.916 204.902 183.322 204.902 181.355V143.951Z" fill="#F4263E"/>
<g filter="url(#filter11_d)">
<path d="M219.147 127.76C219.147 125.793 217.553 124.199 215.586 124.199C213.619 124.199 212.025 125.793 212.025 127.76V181.355C212.025 183.322 213.619 184.917 215.586 184.917C217.553 184.917 219.147 183.322 219.147 181.355V127.76Z" fill="#FF961B" fill-opacity="0.01"/>
</g>
<path d="M219.147 127.76C219.147 125.793 217.553 124.199 215.586 124.199C213.619 124.199 212.025 125.793 212.025 127.76V181.355C212.025 183.322 213.619 184.917 215.586 184.917C217.553 184.917 219.147 183.322 219.147 181.355V127.76Z" fill="#FF961B"/>
<g filter="url(#filter12_d)">
<path d="M233.392 149.348C233.392 147.381 231.798 145.787 229.831 145.787C227.864 145.787 226.27 147.381 226.27 149.348V181.355C226.27 183.322 227.864 184.916 229.831 184.916C231.798 184.916 233.392 183.322 233.392 181.355V149.348Z" fill="#F4263E" fill-opacity="0.01"/>
</g>
<path d="M233.392 149.348C233.392 147.381 231.798 145.787 229.831 145.787C227.864 145.787 226.27 147.381 226.27 149.348V181.355C226.27 183.322 227.864 184.916 229.831 184.916C231.798 184.916 233.392 183.322 233.392 181.355V149.348Z" fill="#F4263E"/>
<defs>
<filter id="filter0_d" x="49.2412" y="24.8518" width="157" height="186" filterUnits="userSpaceOnUse" color-interpolation-filters="sRGB">
<feFlood flood-opacity="0" result="BackgroundImageFix"/>
<feColorMatrix in="SourceAlpha" type="matrix" values="0 0 0 0 0 0 0 0 0 0 0 0 0 0 0 0 0 0 127 0"/>
<feOffset dy="4"/>
<feGaussianBlur stdDeviation="7"/>
<feColorMatrix type="matrix" values="0 0 0 0 0.121042 0 0 0 0 0.143938 0 0 0 0 0.35 0 0 0 0.08 0"/>
<feBlend mode="normal" in2="BackgroundImageFix" result="effect1_dropShadow"/>
<feBlend mode="normal" in="SourceGraphic" in2="effect1_dropShadow" result="shape"/>
</filter>
<filter id="filter1_d" x="69.2412" y="133.852" width="24" height="24" filterUnits="userSpaceOnUse" color-interpolation-filters="sRGB">
<feFlood flood-opacity="0" result="BackgroundImageFix"/>
<feColorMatrix in="SourceAlpha" type="matrix" values="0 0 0 0 0 0 0 0 0 0 0 0 0 0 0 0 0 0 127 0"/>
<feOffset dy="3"/>
<feGaussianBlur stdDeviation="2"/>
<feColorMatrix type="matrix" values="0 0 0 0 0.470588 0 0 0 0 0.172549 0 0 0 0 0.894118 0 0 0 0.25 0"/>
<feBlend mode="normal" in2="BackgroundImageFix" result="effect1_dropShadow"/>
<feBlend mode="normal" in="SourceGraphic" in2="effect1_dropShadow" result="shape"/>
</filter>
<filter id="filter2_d" x="69.2412" y="157.852" width="24" height="24" filterUnits="userSpaceOnUse" color-interpolation-filters="sRGB">
<feFlood flood-opacity="0" result="BackgroundImageFix"/>
<feColorMatrix in="SourceAlpha" type="matrix" values="0 0 0 0 0 0 0 0 0 0 0 0 0 0 0 0 0 0 127 0"/>
<feOffset dy="3"/>
<feGaussianBlur stdDeviation="2"/>
<feColorMatrix type="matrix" values="0 0 0 0 0.956863 0 0 0 0 0.14902 0 0 0 0 0.243137 0 0 0 0.17 0"/>
<feBlend mode="normal" in2="BackgroundImageFix" result="effect1_dropShadow"/>
<feBlend mode="normal" in="SourceGraphic" in2="effect1_dropShadow" result="shape"/>
</filter>
<filter id="filter3_d" x="69.7412" y="66.3518" width="116" height="58.5002" filterUnits="userSpaceOnUse" color-interpolation-filters="sRGB">
<feFlood flood-opacity="0" result="BackgroundImageFix"/>
<feColorMatrix in="SourceAlpha" type="matrix" values="0 0 0 0 0 0 0 0 0 0 0 0 0 0 0 0 0 0 127 0"/>
<feOffset dy="3"/>
<feGaussianBlur stdDeviation="2.5"/>
<feColorMatrix type="matrix" values="0 0 0 0 0.996078 0 0 0 0 0.337255 0 0 0 0 0.376471 0 0 0 0.16 0"/>
<feBlend mode="normal" in2="BackgroundImageFix" result="effect1_dropShadow"/>
<feBlend mode="normal" in="SourceGraphic" in2="effect1_dropShadow" result="shape"/>
</filter>
<filter id="filter4_d" x="69.7412" y="80.3752" width="116.5" height="43.4769" filterUnits="userSpaceOnUse" color-interpolation-filters="sRGB">
<feFlood flood-opacity="0" result="BackgroundImageFix"/>
<feColorMatrix in="SourceAlpha" type="matrix" values="0 0 0 0 0 0 0 0 0 0 0 0 0 0 0 0 0 0 127 0"/>
<feOffset dy="2"/>
<feGaussianBlur stdDeviation="2.5"/>
<feColorMatrix type="matrix" values="0 0 0 0 0.470588 0 0 0 0 0.172549 0 0 0 0 0.894118 0 0 0 0.21 0"/>
<feBlend mode="normal" in2="BackgroundImageFix" result="effect1_dropShadow"/>
<feBlend mode="normal" in="SourceGraphic" in2="effect1_dropShadow" result="shape"/>
</filter>
<filter id="filter5_d" x="0.8192" y="6.65124" width="118.376" height="114.848" filterUnits="userSpaceOnUse" color-interpolation-filters="sRGB">
<feFlood flood-opacity="0" result="BackgroundImageFix"/>
<feColorMatrix in="SourceAlpha" type="matrix" values="0 0 0 0 0 0 0 0 0 0 0 0 0 0 0 0 0 0 127 0"/>
<feOffset dy="3.48023"/>
<feGaussianBlur stdDeviation="6.0904"/>
<feColorMatrix type="matrix" values="0 0 0 0 0.121042 0 0 0 0 0.143938 0 0 0 0 0.35 0 0 0 0.11 0"/>
<feBlend mode="normal" in2="BackgroundImageFix" result="effect1_dropShadow"/>
<feBlend mode="normal" in="SourceGraphic" in2="effect1_dropShadow" result="shape"/>
</filter>
<filter id="filter6_d" x="24.8951" y="27.8716" width="67.4227" height="68.5978" filterUnits="userSpaceOnUse" color-interpolation-filters="sRGB">
<feFlood flood-opacity="0" result="BackgroundImageFix"/>
<feColorMatrix in="SourceAlpha" type="matrix" values="0 0 0 0 0 0 0 0 0 0 0 0 0 0 0 0 0 0 127 0"/>
<feOffset dy="2.38909"/>
<feGaussianBlur stdDeviation="1.19455"/>
<feColorMatrix type="matrix" values="0 0 0 0 0.104167 0 0 0 0 0.4625 0 0 0 0 1 0 0 0 0.17 0"/>
<feBlend mode="normal" in2="BackgroundImageFix" result="effect1_dropShadow"/>
<feBlend mode="normal" in="SourceGraphic" in2="effect1_dropShadow" result="shape"/>
</filter>
<filter id="filter7_d" x="136.781" y="95.364" width="129.119" height="125.508" filterUnits="userSpaceOnUse" color-interpolation-filters="sRGB">
<feFlood flood-opacity="0" result="BackgroundImageFix"/>
<feColorMatrix in="SourceAlpha" type="matrix" values="0 0 0 0 0 0 0 0 0 0 0 0 0 0 0 0 0 0 127 0"/>
<feOffset dy="3.56109"/>
<feGaussianBlur stdDeviation="8.23"/>
<feColorMatrix type="matrix" values="0 0 0 0 0.121042 0 0 0 0 0.143938 0 0 0 0 0.35 0 0 0 0.09 0"/>
<feBlend mode="normal" in2="BackgroundImageFix" result="effect1_dropShadow"/>
<feBlend mode="normal" in="SourceGraphic" in2="effect1_dropShadow" result="shape"/>
</filter>
<filter id="filter8_d" x="165.731" y="133.644" width="14.2444" height="58.3949" filterUnits="userSpaceOnUse" color-interpolation-filters="sRGB">
<feFlood flood-opacity="0" result="BackgroundImageFix"/>
<feColorMatrix in="SourceAlpha" type="matrix" values="0 0 0 0 0 0 0 0 0 0 0 0 0 0 0 0 0 0 127 0"/>
<feOffset dy="3.56109"/>
<feGaussianBlur stdDeviation="1.78055"/>
<feColorMatrix type="matrix" values="0 0 0 0 0.956863 0 0 0 0 0.14902 0 0 0 0 0.243137 0 0 0 0.12 0"/>
<feBlend mode="normal" in2="BackgroundImageFix" result="effect1_dropShadow"/>
<feBlend mode="normal" in="SourceGraphic" in2="effect1_dropShadow" result="shape"/>
</filter>
<filter id="filter9_d" x="179.975" y="154.342" width="14.2444" height="36.8064" filterUnits="userSpaceOnUse" color-interpolation-filters="sRGB">
<feFlood flood-opacity="0" result="BackgroundImageFix"/>
<feColorMatrix in="SourceAlpha" type="matrix" values="0 0 0 0 0 0 0 0 0 0 0 0 0 0 0 0 0 0 127 0"/>
<feOffset dy="2.67082"/>
<feGaussianBlur stdDeviation="1.78055"/>
<feColorMatrix type="matrix" values="0 0 0 0 1 0 0 0 0 0.587917 0 0 0 0 0.104167 0 0 0 0.35 0"/>
<feBlend mode="normal" in2="BackgroundImageFix" result="effect1_dropShadow"/>
<feBlend mode="normal" in="SourceGraphic" in2="effect1_dropShadow" result="shape"/>
</filter>
<filter id="filter10_d" x="194.219" y="140.39" width="14.2444" height="51.6485" filterUnits="userSpaceOnUse" color-interpolation-filters="sRGB">
<feFlood flood-opacity="0" result="BackgroundImageFix"/>
<feColorMatrix in="SourceAlpha" type="matrix" values="0 0 0 0 0 0 0 0 0 0 0 0 0 0 0 0 0 0 127 0"/>
<feOffset dy="3.56109"/>
<feGaussianBlur stdDeviation="1.78055"/>
<feColorMatrix type="matrix" values="0 0 0 0 0.956863 0 0 0 0 0.14902 0 0 0 0 0.243137 0 0 0 0.12 0"/>
<feBlend mode="normal" in2="BackgroundImageFix" result="effect1_dropShadow"/>
<feBlend mode="normal" in="SourceGraphic" in2="effect1_dropShadow" result="shape"/>
</filter>
<filter id="filter11_d" x="208.464" y="123.309" width="14.2444" height="67.8398" filterUnits="userSpaceOnUse" color-interpolation-filters="sRGB">
<feFlood flood-opacity="0" result="BackgroundImageFix"/>
<feColorMatrix in="SourceAlpha" type="matrix" values="0 0 0 0 0 0 0 0 0 0 0 0 0 0 0 0 0 0 127 0"/>
<feOffset dy="2.67082"/>
<feGaussianBlur stdDeviation="1.78055"/>
<feColorMatrix type="matrix" values="0 0 0 0 1 0 0 0 0 0.587917 0 0 0 0 0.104167 0 0 0 0.35 0"/>
<feBlend mode="normal" in2="BackgroundImageFix" result="effect1_dropShadow"/>
<feBlend mode="normal" in="SourceGraphic" in2="effect1_dropShadow" result="shape"/>
</filter>
<filter id="filter12_d" x="222.709" y="145.787" width="14.2444" height="46.2513" filterUnits="userSpaceOnUse" color-interpolation-filters="sRGB">
<feFlood flood-opacity="0" result="BackgroundImageFix"/>
<feColorMatrix in="SourceAlpha" type="matrix" values="0 0 0 0 0 0 0 0 0 0 0 0 0 0 0 0 0 0 127 0"/>
<feOffset dy="3.56109"/>
<feGaussianBlur stdDeviation="1.78055"/>
<feColorMatrix type="matrix" values="0 0 0 0 0.956863 0 0 0 0 0.14902 0 0 0 0 0.243137 0 0 0 0.12 0"/>
<feBlend mode="normal" in2="BackgroundImageFix" result="effect1_dropShadow"/>
<feBlend mode="normal" in="SourceGraphic" in2="effect1_dropShadow" result="shape"/>
</filter>
</defs>
</svg>
