<svg width="235" height="211" viewBox="0 0 235 211" fill="none" xmlns="http://www.w3.org/2000/svg">
<g filter="url(#filter0_d)">
<path d="M173.23 33H61.6801C46.9451 33 35 44.9451 35 59.6801V147.226C35 161.961 46.9451 173.906 61.6801 173.906H173.23C187.965 173.906 199.91 161.961 199.91 147.226V59.6801C199.91 44.9451 187.965 33 173.23 33Z" fill="white" fill-opacity="0.01"/>
</g>
<path d="M173.23 33H61.6801C46.9451 33 35 44.9451 35 59.6801V147.226C35 161.961 46.9451 173.906 61.6801 173.906H173.23C187.965 173.906 199.91 161.961 199.91 147.226V59.6801C199.91 44.9451 187.965 33 173.23 33Z" fill="white"/>
<path opacity="0.2" d="M149.75 48.3276H85.1594C82.8768 48.3276 81.0264 50.1781 81.0264 52.4607V52.4607C81.0264 54.7434 82.8768 56.5938 85.1594 56.5938H149.75C152.033 56.5938 153.883 54.7434 153.883 52.4607C153.883 50.1781 152.033 48.3276 149.75 48.3276Z" fill="#62668A"/>
<g filter="url(#filter1_d)">
<path d="M63.0686 102.268C63.0686 100.568 61.6903 99.1899 59.9901 99.1899C58.2899 99.1899 56.9116 100.568 56.9116 102.268V149.832C56.9116 151.532 58.2899 152.911 59.9901 152.911C61.6903 152.911 63.0686 151.532 63.0686 149.832V102.268Z" fill="#F4263E" fill-opacity="0.01"/>
</g>
<path d="M63.0686 102.268C63.0686 100.568 61.6903 99.1899 59.9901 99.1899C58.2899 99.1899 56.9116 100.568 56.9116 102.268V149.832C56.9116 151.532 58.2899 152.911 59.9901 152.911C61.6903 152.911 63.0686 151.532 63.0686 149.832V102.268Z" fill="#F4263E"/>
<g filter="url(#filter2_d)">
<path d="M149.266 102.268C149.266 100.568 147.888 99.1899 146.187 99.1899C144.487 99.1899 143.109 100.568 143.109 102.268V149.832C143.109 151.532 144.487 152.911 146.187 152.911C147.888 152.911 149.266 151.532 149.266 149.832V102.268Z" fill="#F4263E" fill-opacity="0.01"/>
</g>
<path d="M149.266 102.268C149.266 100.568 147.888 99.1899 146.187 99.1899C144.487 99.1899 143.109 100.568 143.109 102.268V149.832C143.109 151.532 144.487 152.911 146.187 152.911C147.888 152.911 149.266 151.532 149.266 149.832V102.268Z" fill="#F4263E"/>
<g filter="url(#filter3_d)">
<path d="M77.4348 79.7057C77.4348 78.0055 76.0565 76.6272 74.3563 76.6272C72.6561 76.6272 71.2778 78.0055 71.2778 79.7057V149.832C71.2778 151.533 72.6561 152.911 74.3563 152.911C76.0565 152.911 77.4348 151.533 77.4348 149.832V79.7057Z" fill="#FF961B" fill-opacity="0.01"/>
</g>
<path d="M77.4348 79.7057C77.4348 78.0055 76.0565 76.6272 74.3563 76.6272C72.6561 76.6272 71.2778 78.0055 71.2778 79.7057V149.832C71.2778 151.533 72.6561 152.911 74.3563 152.911C76.0565 152.911 77.4348 151.533 77.4348 149.832V79.7057Z" fill="#FF961B"/>
<g filter="url(#filter4_d)">
<path d="M163.632 79.7057C163.632 78.0055 162.254 76.6272 160.554 76.6272C158.853 76.6272 157.475 78.0055 157.475 79.7057V149.832C157.475 151.533 158.853 152.911 160.554 152.911C162.254 152.911 163.632 151.533 163.632 149.832V79.7057Z" fill="#FF961B" fill-opacity="0.01"/>
</g>
<path d="M163.632 79.7057C163.632 78.0055 162.254 76.6272 160.554 76.6272C158.853 76.6272 157.475 78.0055 157.475 79.7057V149.832C157.475 151.533 158.853 152.911 160.554 152.911C162.254 152.911 163.632 151.533 163.632 149.832V79.7057Z" fill="#FF961B"/>
<g filter="url(#filter5_d)">
<path d="M91.801 115.161C91.801 113.461 90.4227 112.083 88.7225 112.083C87.0223 112.083 85.644 113.461 85.644 115.161V149.832C85.644 151.533 87.0223 152.911 88.7225 152.911C90.4227 152.911 91.801 151.533 91.801 149.832V115.161Z" fill="#FFCD1D" fill-opacity="0.01"/>
</g>
<path d="M91.801 115.161C91.801 113.461 90.4227 112.083 88.7225 112.083C87.0223 112.083 85.644 113.461 85.644 115.161V149.832C85.644 151.533 87.0223 152.911 88.7225 152.911C90.4227 152.911 91.801 151.533 91.801 149.832V115.161Z" fill="#FFCD1D"/>
<g filter="url(#filter6_d)">
<path d="M106.167 77.5567C106.167 75.8565 104.788 74.4783 103.088 74.4783C101.388 74.4783 100.01 75.8565 100.01 77.5567V149.832C100.01 151.532 101.388 152.911 103.088 152.911C104.788 152.911 106.167 151.532 106.167 149.832V77.5567Z" fill="#F4263E" fill-opacity="0.01"/>
</g>
<path d="M106.167 77.5567C106.167 75.8565 104.788 74.4783 103.088 74.4783C101.388 74.4783 100.01 75.8565 100.01 77.5567V149.832C100.01 151.532 101.388 152.911 103.088 152.911C104.788 152.911 106.167 151.532 106.167 149.832V77.5567Z" fill="#F4263E"/>
<g filter="url(#filter7_d)">
<path d="M120.533 120.534C120.533 118.833 119.155 117.455 117.454 117.455C115.754 117.455 114.376 118.833 114.376 120.534V149.832C114.376 151.533 115.754 152.911 117.454 152.911C119.155 152.911 120.533 151.533 120.533 149.832V120.534Z" fill="#FF961B" fill-opacity="0.01"/>
</g>
<path d="M120.533 120.534C120.533 118.833 119.155 117.455 117.454 117.455C115.754 117.455 114.376 118.833 114.376 120.534V149.832C114.376 151.533 115.754 152.911 117.454 152.911C119.155 152.911 120.533 151.533 120.533 149.832V120.534Z" fill="#FF961B"/>
<g filter="url(#filter8_d)">
<path d="M134.9 89.3753C134.9 87.6752 133.522 86.2969 131.822 86.2969C130.121 86.2969 128.743 87.6752 128.743 89.3753V149.832C128.743 151.533 130.121 152.911 131.822 152.911C133.522 152.911 134.9 151.533 134.9 149.832V89.3753Z" fill="#FFCD1D" fill-opacity="0.01"/>
</g>
<path d="M134.9 89.3753C134.9 87.6752 133.522 86.2969 131.822 86.2969C130.121 86.2969 128.743 87.6752 128.743 89.3753V149.832C128.743 151.533 130.121 152.911 131.822 152.911C133.522 152.911 134.9 151.533 134.9 149.832V89.3753Z" fill="#FFCD1D"/>
<g filter="url(#filter9_d)">
<path d="M177.998 89.3753C177.998 87.6752 176.619 86.2969 174.919 86.2969C173.219 86.2969 171.841 87.6752 171.841 89.3753V149.832C171.841 151.533 173.219 152.911 174.919 152.911C176.619 152.911 177.998 151.533 177.998 149.832V89.3753Z" fill="#FFCD1D" fill-opacity="0.01"/>
</g>
<path d="M177.998 89.3753C177.998 87.6752 176.619 86.2969 174.919 86.2969C173.219 86.2969 171.841 87.6752 171.841 89.3753V149.832C171.841 151.533 173.219 152.911 174.919 152.911C176.619 152.911 177.998 151.533 177.998 149.832V89.3753Z" fill="#FFCD1D"/>
<defs>
<filter id="filter0_d" x="0.1106" y="0.16291" width="234.689" height="210.685" filterUnits="userSpaceOnUse" color-interpolation-filters="sRGB">
<feFlood flood-opacity="0" result="BackgroundImageFix"/>
<feColorMatrix in="SourceAlpha" type="matrix" values="0 0 0 0 0 0 0 0 0 0 0 0 0 0 0 0 0 0 127 0"/>
<feOffset dy="2.05231"/>
<feGaussianBlur stdDeviation="17.4447"/>
<feColorMatrix type="matrix" values="0 0 0 0 0.121042 0 0 0 0 0.143938 0 0 0 0 0.35 0 0 0 0.09 0"/>
<feBlend mode="normal" in2="BackgroundImageFix" result="effect1_dropShadow"/>
<feBlend mode="normal" in="SourceGraphic" in2="effect1_dropShadow" result="shape"/>
</filter>
<filter id="filter1_d" x="52.807" y="97.1376" width="14.3662" height="61.93" filterUnits="userSpaceOnUse" color-interpolation-filters="sRGB">
<feFlood flood-opacity="0" result="BackgroundImageFix"/>
<feColorMatrix in="SourceAlpha" type="matrix" values="0 0 0 0 0 0 0 0 0 0 0 0 0 0 0 0 0 0 127 0"/>
<feOffset dy="2.05231"/>
<feGaussianBlur stdDeviation="2.05231"/>
<feColorMatrix type="matrix" values="0 0 0 0 0.956863 0 0 0 0 0.14902 0 0 0 0 0.243137 0 0 0 0.17 0"/>
<feBlend mode="normal" in2="BackgroundImageFix" result="effect1_dropShadow"/>
<feBlend mode="normal" in="SourceGraphic" in2="effect1_dropShadow" result="shape"/>
</filter>
<filter id="filter2_d" x="139.004" y="97.1376" width="14.3662" height="61.93" filterUnits="userSpaceOnUse" color-interpolation-filters="sRGB">
<feFlood flood-opacity="0" result="BackgroundImageFix"/>
<feColorMatrix in="SourceAlpha" type="matrix" values="0 0 0 0 0 0 0 0 0 0 0 0 0 0 0 0 0 0 127 0"/>
<feOffset dy="2.05231"/>
<feGaussianBlur stdDeviation="2.05231"/>
<feColorMatrix type="matrix" values="0 0 0 0 0.956863 0 0 0 0 0.14902 0 0 0 0 0.243137 0 0 0 0.17 0"/>
<feBlend mode="normal" in2="BackgroundImageFix" result="effect1_dropShadow"/>
<feBlend mode="normal" in="SourceGraphic" in2="effect1_dropShadow" result="shape"/>
</filter>
<filter id="filter3_d" x="67.1732" y="74.5749" width="14.3662" height="84.4928" filterUnits="userSpaceOnUse" color-interpolation-filters="sRGB">
<feFlood flood-opacity="0" result="BackgroundImageFix"/>
<feColorMatrix in="SourceAlpha" type="matrix" values="0 0 0 0 0 0 0 0 0 0 0 0 0 0 0 0 0 0 127 0"/>
<feOffset dy="2.05231"/>
<feGaussianBlur stdDeviation="2.05231"/>
<feColorMatrix type="matrix" values="0 0 0 0 1 0 0 0 0 0.587917 0 0 0 0 0.104167 0 0 0 0.14 0"/>
<feBlend mode="normal" in2="BackgroundImageFix" result="effect1_dropShadow"/>
<feBlend mode="normal" in="SourceGraphic" in2="effect1_dropShadow" result="shape"/>
</filter>
<filter id="filter4_d" x="153.37" y="74.5749" width="14.3662" height="84.4928" filterUnits="userSpaceOnUse" color-interpolation-filters="sRGB">
<feFlood flood-opacity="0" result="BackgroundImageFix"/>
<feColorMatrix in="SourceAlpha" type="matrix" values="0 0 0 0 0 0 0 0 0 0 0 0 0 0 0 0 0 0 127 0"/>
<feOffset dy="2.05231"/>
<feGaussianBlur stdDeviation="2.05231"/>
<feColorMatrix type="matrix" values="0 0 0 0 1 0 0 0 0 0.587917 0 0 0 0 0.104167 0 0 0 0.14 0"/>
<feBlend mode="normal" in2="BackgroundImageFix" result="effect1_dropShadow"/>
<feBlend mode="normal" in="SourceGraphic" in2="effect1_dropShadow" result="shape"/>
</filter>
<filter id="filter5_d" x="81.5394" y="111.057" width="14.3662" height="49.037" filterUnits="userSpaceOnUse" color-interpolation-filters="sRGB">
<feFlood flood-opacity="0" result="BackgroundImageFix"/>
<feColorMatrix in="SourceAlpha" type="matrix" values="0 0 0 0 0 0 0 0 0 0 0 0 0 0 0 0 0 0 127 0"/>
<feOffset dy="3.07847"/>
<feGaussianBlur stdDeviation="2.05231"/>
<feColorMatrix type="matrix" values="0 0 0 0 1 0 0 0 0 0.80475 0 0 0 0 0.1125 0 0 0 0.2 0"/>
<feBlend mode="normal" in2="BackgroundImageFix" result="effect1_dropShadow"/>
<feBlend mode="normal" in="SourceGraphic" in2="effect1_dropShadow" result="shape"/>
</filter>
<filter id="filter6_d" x="95.9051" y="72.426" width="14.3662" height="86.6416" filterUnits="userSpaceOnUse" color-interpolation-filters="sRGB">
<feFlood flood-opacity="0" result="BackgroundImageFix"/>
<feColorMatrix in="SourceAlpha" type="matrix" values="0 0 0 0 0 0 0 0 0 0 0 0 0 0 0 0 0 0 127 0"/>
<feOffset dy="2.05231"/>
<feGaussianBlur stdDeviation="2.05231"/>
<feColorMatrix type="matrix" values="0 0 0 0 0.956863 0 0 0 0 0.14902 0 0 0 0 0.243137 0 0 0 0.17 0"/>
<feBlend mode="normal" in2="BackgroundImageFix" result="effect1_dropShadow"/>
<feBlend mode="normal" in="SourceGraphic" in2="effect1_dropShadow" result="shape"/>
</filter>
<filter id="filter7_d" x="110.271" y="115.403" width="14.3662" height="43.665" filterUnits="userSpaceOnUse" color-interpolation-filters="sRGB">
<feFlood flood-opacity="0" result="BackgroundImageFix"/>
<feColorMatrix in="SourceAlpha" type="matrix" values="0 0 0 0 0 0 0 0 0 0 0 0 0 0 0 0 0 0 127 0"/>
<feOffset dy="2.05231"/>
<feGaussianBlur stdDeviation="2.05231"/>
<feColorMatrix type="matrix" values="0 0 0 0 1 0 0 0 0 0.587917 0 0 0 0 0.104167 0 0 0 0.14 0"/>
<feBlend mode="normal" in2="BackgroundImageFix" result="effect1_dropShadow"/>
<feBlend mode="normal" in="SourceGraphic" in2="effect1_dropShadow" result="shape"/>
</filter>
<filter id="filter8_d" x="124.639" y="85.2707" width="14.3662" height="74.8231" filterUnits="userSpaceOnUse" color-interpolation-filters="sRGB">
<feFlood flood-opacity="0" result="BackgroundImageFix"/>
<feColorMatrix in="SourceAlpha" type="matrix" values="0 0 0 0 0 0 0 0 0 0 0 0 0 0 0 0 0 0 127 0"/>
<feOffset dy="3.07847"/>
<feGaussianBlur stdDeviation="2.05231"/>
<feColorMatrix type="matrix" values="0 0 0 0 1 0 0 0 0 0.80475 0 0 0 0 0.1125 0 0 0 0.2 0"/>
<feBlend mode="normal" in2="BackgroundImageFix" result="effect1_dropShadow"/>
<feBlend mode="normal" in="SourceGraphic" in2="effect1_dropShadow" result="shape"/>
</filter>
<filter id="filter9_d" x="167.736" y="85.2707" width="14.3662" height="74.8231" filterUnits="userSpaceOnUse" color-interpolation-filters="sRGB">
<feFlood flood-opacity="0" result="BackgroundImageFix"/>
<feColorMatrix in="SourceAlpha" type="matrix" values="0 0 0 0 0 0 0 0 0 0 0 0 0 0 0 0 0 0 127 0"/>
<feOffset dy="3.07847"/>
<feGaussianBlur stdDeviation="2.05231"/>
<feColorMatrix type="matrix" values="0 0 0 0 1 0 0 0 0 0.80475 0 0 0 0 0.1125 0 0 0 0.2 0"/>
<feBlend mode="normal" in2="BackgroundImageFix" result="effect1_dropShadow"/>
<feBlend mode="normal" in="SourceGraphic" in2="effect1_dropShadow" result="shape"/>
</filter>
</defs>
</svg>
