<svg width="309" height="198" viewBox="0 0 309 198" fill="none" xmlns="http://www.w3.org/2000/svg">
<path d="M309 0H0V198H309V0Z" fill="#FFCD1D"/>
<g filter="url(#filter0_d)">
<path d="M227.754 26H141.911C133.291 26 126.304 32.9878 126.304 41.6078V156.392C126.304 165.012 133.291 172 141.911 172H227.754C236.374 172 243.362 165.012 243.362 156.392V41.6078C243.362 32.9878 236.374 26 227.754 26Z" fill="white"/>
</g>
<path d="M228.636 24.5H141.029C132.232 24.5 125.101 31.6314 125.101 40.4285V157.572C125.101 166.369 132.232 173.5 141.029 173.5H228.636C237.434 173.5 244.565 166.369 244.565 157.572V40.4285C244.565 31.6314 237.434 24.5 228.636 24.5Z" fill="white"/>
<g filter="url(#filter1_d)">
<path d="M138.228 47.4999C138.228 44.6307 140.554 42.3047 143.423 42.3047H148.805C151.674 42.3047 154 44.6307 154 47.4999V52.8817C154 55.7509 151.674 58.0769 148.805 58.0769H143.423C140.554 58.0769 138.228 55.7509 138.228 52.8817V47.4999Z" fill="#FFCD1D"/>
</g>
<path d="M137.047 47.0969C137.047 43.798 139.721 41.1237 143.02 41.1237H149.208C152.507 41.1237 155.181 43.798 155.181 47.0969V53.2847C155.181 56.5836 152.507 59.2579 149.208 59.2579H143.02C139.721 59.2579 137.047 56.5836 137.047 53.2847V47.0969Z" fill="#FFCD1D"/>
<path d="M150.398 45.604L144.651 53.8138C144.575 53.9228 144.475 54.0122 144.357 54.0746C144.24 54.137 144.11 54.1707 143.977 54.1729C143.845 54.1751 143.713 54.1457 143.594 54.0872C143.475 54.0287 143.371 53.9427 143.292 53.8363L141.83 51.8873" stroke="white" stroke-width="1.99106" stroke-linecap="round" stroke-linejoin="round"/>
<g filter="url(#filter2_d)">
<path d="M138.228 72.6024C138.228 69.7332 140.554 67.4072 143.423 67.4072H148.805C151.674 67.4072 154 69.7332 154 72.6024V77.9842C154 80.8534 151.674 83.1793 148.805 83.1793H143.423C140.554 83.1793 138.228 80.8534 138.228 77.9842V72.6024Z" fill="#FFCD1D"/>
</g>
<path d="M137.047 72.1994C137.047 68.9005 139.721 66.2262 143.02 66.2262H149.208C152.507 66.2262 155.181 68.9005 155.181 72.1994V78.3872C155.181 81.6861 152.507 84.3603 149.208 84.3603H143.02C139.721 84.3603 137.047 81.6861 137.047 78.3872V72.1994Z" fill="#FFCD1D"/>
<g filter="url(#filter3_d)">
<path d="M138.228 96.7094C138.228 93.8401 140.554 91.5142 143.423 91.5142H148.805C151.674 91.5142 154 93.8401 154 96.7094V102.091C154 104.96 151.674 107.286 148.805 107.286H143.423C140.554 107.286 138.228 104.96 138.228 102.091V96.7094Z" fill="#FFCD1D"/>
</g>
<path d="M137.047 96.3065C137.047 93.0076 139.721 90.3333 143.02 90.3333H149.208C152.507 90.3333 155.181 93.0076 155.181 96.3065V102.494C155.181 105.793 152.507 108.467 149.208 108.467H143.02C139.721 108.467 137.047 105.793 137.047 102.494V96.3065Z" fill="#FFCD1D"/>
<path d="M143.02 115.632H149.208C151.957 115.632 154.185 117.86 154.185 120.609V126.797C154.185 129.546 151.957 131.775 149.208 131.775H143.02C140.271 131.775 138.042 129.546 138.042 126.797V120.609C138.042 117.86 140.271 115.632 143.02 115.632Z" stroke="#BEBFCC" stroke-width="1.99106"/>
<path d="M143.02 139.739H149.208C151.957 139.739 154.185 141.967 154.185 144.716V150.904C154.185 153.653 151.957 155.882 149.208 155.882H143.02C140.271 155.882 138.042 153.653 138.042 150.904V144.716C138.042 141.967 140.271 139.739 143.02 139.739Z" stroke="#BEBFCC" stroke-width="1.99106"/>
<path opacity="0.5" d="M187.826 46.2087H165.136C162.937 46.2087 161.154 47.9916 161.154 50.1909C161.154 52.3901 162.937 54.173 165.136 54.173H187.826C190.026 54.173 191.809 52.3901 191.809 50.1909C191.809 47.9916 190.026 46.2087 187.826 46.2087Z" fill="#BEBFCC"/>
<path opacity="0.5" d="M226.859 71.3114H165.53C163.331 71.3114 161.548 73.0943 161.548 75.2935C161.548 77.4928 163.331 79.2756 165.53 79.2756H226.859C229.059 79.2756 230.842 77.4928 230.842 75.2935C230.842 73.0943 229.059 71.3114 226.859 71.3114Z" fill="#BEBFCC"/>
<path opacity="0.5" d="M201.971 96.8723H165.136C162.937 96.8723 161.154 98.6552 161.154 100.854C161.154 103.054 162.937 104.837 165.136 104.837H201.971C204.17 104.837 205.953 103.054 205.953 100.854C205.953 98.6552 204.17 96.8723 201.971 96.8723Z" fill="#BEBFCC"/>
<path opacity="0.5" d="M214.685 119.721H165.136C162.937 119.721 161.154 121.504 161.154 123.703C161.154 125.902 162.937 127.685 165.136 127.685H214.685C216.884 127.685 218.667 125.902 218.667 123.703C218.667 121.504 216.884 119.721 214.685 119.721Z" fill="#BEBFCC"/>
<path opacity="0.5" d="M226.859 143.828H165.136C162.937 143.828 161.154 145.611 161.154 147.81C161.154 150.01 162.937 151.792 165.136 151.792H226.859C229.058 151.792 230.841 150.01 230.841 147.81C230.841 145.611 229.058 143.828 226.859 143.828Z" fill="#BEBFCC"/>
<path d="M150.398 71.0092L144.651 79.219C144.575 79.3279 144.475 79.4173 144.357 79.4798C144.24 79.5422 144.11 79.5759 143.977 79.5781C143.845 79.5803 143.713 79.5509 143.594 79.4924C143.475 79.4338 143.371 79.3478 143.292 79.2414L141.83 77.2925" stroke="white" stroke-width="1.99106" stroke-linecap="round" stroke-linejoin="round"/>
<path d="M150.398 95.1163L144.651 103.326C144.575 103.435 144.475 103.524 144.357 103.587C144.24 103.649 144.11 103.683 143.977 103.685C143.845 103.687 143.713 103.658 143.594 103.599C143.475 103.541 143.371 103.455 143.292 103.349L141.83 101.4" stroke="white" stroke-width="1.99106" stroke-linecap="round" stroke-linejoin="round"/>
<g filter="url(#filter4_d)">
<path d="M118.831 62.1075H84.8812C74.2203 62.1075 65.5779 70.7499 65.5779 81.4108V114.697C65.5779 125.358 74.2203 134 84.8812 134H118.831C129.492 134 138.135 125.358 138.135 114.697V81.4108C138.135 70.7499 129.492 62.1075 118.831 62.1075Z" fill="white"/>
</g>
<path d="M119.366 60.9767H84.3471C73.3508 60.9767 64.4365 69.891 64.4365 80.8873V115.22C64.4365 126.217 73.3508 135.131 84.3471 135.131H119.366C130.362 135.131 139.276 126.217 139.276 115.22V80.8873C139.276 69.891 130.362 60.9767 119.366 60.9767Z" fill="white"/>
<g filter="url(#filter5_d)">
<path d="M105.127 117.177H98.5875C98.4388 117.177 98.2926 117.215 98.1628 117.288C98.0329 117.36 97.9238 117.464 97.8456 117.591C97.7675 117.717 97.7231 117.862 97.7165 118.01C97.7099 118.159 97.7414 118.307 97.8081 118.44L98.3939 119.61C98.6816 120.189 99.1257 120.677 99.6761 121.018C100.226 121.358 100.861 121.538 101.508 121.536H102.206C102.852 121.539 103.487 121.361 104.037 121.022C104.588 120.683 105.033 120.196 105.322 119.618L105.908 118.448C105.975 118.315 106.006 118.167 105.999 118.019C105.993 117.87 105.948 117.726 105.87 117.599C105.792 117.472 105.682 117.368 105.552 117.296C105.422 117.224 105.275 117.185 105.127 117.186V117.177Z" fill="#FFCD1D"/>
</g>
<path d="M105.842 116.7H97.8721C97.6909 116.7 97.5127 116.747 97.3545 116.835C97.1962 116.923 97.0632 117.05 96.968 117.205C96.8728 117.359 96.8186 117.535 96.8106 117.716C96.8026 117.897 96.841 118.077 96.9222 118.239L97.6362 119.665C97.9868 120.371 98.5281 120.966 99.1988 121.381C99.8696 121.796 100.643 122.015 101.432 122.013H102.282C103.07 122.016 103.843 121.799 104.514 121.386C105.185 120.973 105.727 120.38 106.08 119.675L106.794 118.249C106.875 118.087 106.913 117.907 106.905 117.726C106.897 117.545 106.843 117.369 106.747 117.214C106.652 117.06 106.518 116.933 106.36 116.845C106.201 116.757 106.023 116.71 105.842 116.711V116.7Z" fill="#FFCD1D"/>
<g filter="url(#filter6_d)">
<path d="M101.857 80.0001C102.353 80.0001 102.829 79.8029 103.179 79.4521C103.531 79.1012 103.728 78.6254 103.728 78.1291V73.4519C103.728 72.9556 103.531 72.4798 103.179 72.1289C102.829 71.778 102.353 71.5809 101.857 71.5809C101.36 71.5809 100.884 71.778 100.534 72.1289C100.183 72.4798 99.9857 72.9556 99.9857 73.4519V78.1291C99.9857 78.6254 100.183 79.1012 100.534 79.4521C100.884 79.8029 101.36 80.0001 101.857 80.0001Z" fill="#FFCD1D"/>
</g>
<path d="M101.857 80.5721C102.42 80.5721 102.961 80.3482 103.359 79.9497C103.758 79.5511 103.982 79.0106 103.982 78.4469V73.134C103.982 72.5703 103.758 72.0298 103.359 71.6312C102.961 71.2327 102.42 71.0088 101.857 71.0088C101.293 71.0088 100.752 71.2327 100.354 71.6312C99.9553 72.0298 99.7314 72.5703 99.7314 73.134V78.4469C99.7314 79.0106 99.9553 79.5511 100.354 79.9497C100.752 80.3482 101.293 80.5721 101.857 80.5721Z" fill="#FFCD1D"/>
<g filter="url(#filter7_d)">
<path d="M120.958 79.5342C120.611 79.1866 120.139 78.9913 119.648 78.9913C119.156 78.9913 118.685 79.1866 118.337 79.5342L115.061 82.8123C114.883 82.9833 114.742 83.1878 114.645 83.4141C114.548 83.6403 114.497 83.8835 114.495 84.1297C114.493 84.3759 114.54 84.62 114.633 84.8479C114.726 85.0758 114.863 85.2828 115.038 85.4569C115.211 85.6309 115.419 85.7687 115.647 85.8619C115.875 85.9551 116.119 86.002 116.365 85.9999C116.611 85.9977 116.854 85.9466 117.08 85.8494C117.307 85.7522 117.511 85.6109 117.682 85.4339L120.958 82.1558C121.306 81.8082 121.502 81.3367 121.502 80.845C121.502 80.3534 121.306 79.8819 120.958 79.5342Z" fill="#FFCD1D"/>
</g>
<path d="M121.391 79.1012C120.993 78.7028 120.452 78.479 119.889 78.479C119.325 78.479 118.785 78.7028 118.386 79.1012L114.631 82.8586C114.428 83.0546 114.266 83.2891 114.155 83.5484C114.044 83.8077 113.985 84.0865 113.983 84.3687C113.98 84.6509 114.034 84.9307 114.141 85.1919C114.248 85.4531 114.405 85.6904 114.605 85.8899C114.804 86.0894 115.042 86.2473 115.303 86.3541C115.564 86.461 115.844 86.5147 116.126 86.5123C116.408 86.5098 116.687 86.4512 116.946 86.3398C117.206 86.2284 117.44 86.0665 117.636 85.8636L121.391 82.1062C121.79 81.7077 122.014 81.1673 122.014 80.6037C122.014 80.0402 121.79 79.4998 121.391 79.1012Z" fill="#FFCD1D"/>
<g filter="url(#filter8_d)">
<path d="M125.054 96.6904H121.163C120.647 96.6904 120.152 96.8954 119.787 97.2603C119.422 97.6252 119.217 98.12 119.217 98.6361C119.217 99.1521 119.422 99.647 119.787 100.012C120.152 100.376 120.647 100.581 121.163 100.581H125.054C125.571 100.581 126.065 100.376 126.431 100.012C126.795 99.647 127 99.1521 127 98.6361C127 98.12 126.795 97.6252 126.431 97.2603C126.065 96.8954 125.571 96.6904 125.054 96.6904Z" fill="#FFCD1D"/>
</g>
<path d="M125.234 96.511H120.984C120.42 96.511 119.879 96.7349 119.481 97.1334C119.082 97.532 118.858 98.0725 118.858 98.6362C118.858 99.1998 119.082 99.7404 119.481 100.139C119.879 100.537 120.42 100.761 120.984 100.761H125.234C125.798 100.761 126.338 100.537 126.737 100.139C127.135 99.7404 127.359 99.1998 127.359 98.6362C127.359 98.0725 127.135 97.532 126.737 97.1334C126.338 96.7349 125.798 96.511 125.234 96.511Z" fill="#FFCD1D"/>
<g filter="url(#filter9_d)">
<path d="M88.693 82.8153L85.3707 79.493C85.0162 79.1507 84.5415 78.9612 84.0488 78.9655C83.5561 78.9698 83.0848 79.1674 82.7364 79.5159C82.388 79.8643 82.1904 80.3356 82.1861 80.8283C82.1818 81.321 82.3712 81.7957 82.7136 82.1501L86.0359 85.4725C86.3903 85.8147 86.865 86.0042 87.3577 85.9999C87.8504 85.9957 88.3217 85.7979 88.6701 85.4496C89.0185 85.1012 89.2161 84.6299 89.2205 84.1372C89.2247 83.6444 89.0353 83.1697 88.693 82.8153Z" fill="#FFCD1D"/>
</g>
<path d="M89.0845 82.8589L85.3272 79.1016C84.9263 78.7145 84.3895 78.5002 83.8323 78.5051C83.2751 78.5099 82.7421 78.7334 82.348 79.1275C81.954 79.5215 81.7305 80.0545 81.7257 80.6117C81.7208 81.1689 81.935 81.7058 82.3222 82.1066L86.0795 85.8639C86.4803 86.251 87.0171 86.4652 87.5743 86.4604C88.1316 86.4556 88.6646 86.232 89.0586 85.838C89.4526 85.444 89.6761 84.911 89.681 84.3538C89.6858 83.7965 89.4716 83.2597 89.0845 82.8589Z" fill="#FFCD1D"/>
<g filter="url(#filter10_d)">
<path d="M82.3024 96.9386H78.9073C78.457 96.9386 78.0253 97.1174 77.7069 97.4358C77.3886 97.7542 77.2097 98.1859 77.2097 98.6362C77.2097 99.0864 77.3886 99.5182 77.7069 99.8366C78.0253 100.155 78.457 100.333 78.9073 100.333H82.3024C82.7527 100.333 83.1845 100.155 83.5029 99.8366C83.8212 99.5182 84 99.0864 84 98.6362C84 98.1859 83.8212 97.7542 83.5029 97.4358C83.1845 97.1174 82.7527 96.9386 82.3024 96.9386Z" fill="#FFCD1D"/>
</g>
<path d="M82.73 96.511H78.4797C77.916 96.511 77.3755 96.7349 76.9769 97.1334C76.5784 97.532 76.3545 98.0725 76.3545 98.6362C76.3545 99.1998 76.5784 99.7404 76.9769 100.139C77.3755 100.537 77.916 100.761 78.4797 100.761H82.73C83.2937 100.761 83.8342 100.537 84.2328 100.139C84.6313 99.7404 84.8552 99.1998 84.8552 98.6362C84.8552 98.0725 84.6313 97.532 84.2328 97.1334C83.8342 96.7349 83.2937 96.511 82.73 96.511Z" fill="#FFCD1D"/>
<g filter="url(#filter11_d)">
<path d="M101.858 85.2719C99.2194 85.2758 96.651 86.1204 94.5253 87.6832C92.3997 89.246 90.8274 91.4456 90.0368 93.9626C89.2461 96.4797 89.2783 99.1832 90.1286 101.681C90.9788 104.178 92.6029 106.34 94.7651 107.851C94.8919 107.939 94.9953 108.057 95.0669 108.194C95.1384 108.33 95.1757 108.482 95.1756 108.637V110.091C95.1756 110.598 95.3767 111.083 95.7348 111.441C96.0928 111.8 96.5784 112 97.0848 112H106.631C107.137 112 107.623 111.8 107.98 111.441C108.339 111.083 108.54 110.598 108.54 110.091V108.635C108.54 108.48 108.577 108.328 108.649 108.192C108.72 108.055 108.824 107.938 108.951 107.85C111.118 106.341 112.747 104.18 113.601 101.681C114.455 99.1817 114.489 96.4752 113.698 93.9557C112.905 91.4361 111.33 89.2351 109.201 87.6731C107.071 86.1112 104.498 85.2699 101.858 85.2719Z" fill="#FFCD1D"/>
</g>
<path d="M101.857 83.7599C98.9199 83.7643 96.0609 84.7045 93.6947 86.4441C91.3286 88.1837 89.5784 90.6321 88.6983 93.4339C87.8182 96.2358 87.854 99.2452 88.8005 102.025C89.7469 104.805 91.5548 107.212 93.9616 108.894C94.1027 108.992 94.2179 109.123 94.2975 109.275C94.3771 109.427 94.4186 109.596 94.4185 109.768V111.387C94.4185 111.951 94.6424 112.491 95.041 112.89C95.4395 113.289 95.9801 113.512 96.5437 113.512H107.17C107.733 113.512 108.274 113.289 108.672 112.89C109.071 112.491 109.295 111.951 109.295 111.387V109.766C109.295 109.594 109.336 109.425 109.416 109.273C109.495 109.121 109.611 108.99 109.752 108.892C112.165 107.213 113.978 104.807 114.929 102.025C115.879 99.2435 115.917 96.2308 115.036 93.4262C114.154 90.6216 112.401 88.1715 110.031 86.4328C107.66 84.6942 104.796 83.7577 101.857 83.7599Z" fill="#FFCD1D"/>
<defs>
<filter id="filter0_d" x="107.369" y="11.7639" width="154.929" height="183.87" filterUnits="userSpaceOnUse" color-interpolation-filters="sRGB">
<feFlood flood-opacity="0" result="BackgroundImageFix"/>
<feColorMatrix in="SourceAlpha" type="matrix" values="0 0 0 0 0 0 0 0 0 0 0 0 0 0 0 0 0 0 127 0"/>
<feOffset dy="4.6989"/>
<feGaussianBlur stdDeviation="9.46749"/>
<feColorMatrix type="matrix" values="0 0 0 0 1 0 0 0 0 0.587917 0 0 0 0 0.104167 0 0 0 0.5 0"/>
<feBlend mode="normal" in2="BackgroundImageFix" result="effect1_dropShadow"/>
<feBlend mode="normal" in="SourceGraphic" in2="effect1_dropShadow" result="shape"/>
</filter>
<filter id="filter1_d" x="133.228" y="40.3047" width="25.772" height="25.7722" filterUnits="userSpaceOnUse" color-interpolation-filters="sRGB">
<feFlood flood-opacity="0" result="BackgroundImageFix"/>
<feColorMatrix in="SourceAlpha" type="matrix" values="0 0 0 0 0 0 0 0 0 0 0 0 0 0 0 0 0 0 127 0"/>
<feOffset dy="3"/>
<feGaussianBlur stdDeviation="2.5"/>
<feColorMatrix type="matrix" values="0 0 0 0 1 0 0 0 0 0.80475 0 0 0 0 0.1125 0 0 0 0.29 0"/>
<feBlend mode="normal" in2="BackgroundImageFix" result="effect1_dropShadow"/>
<feBlend mode="normal" in="SourceGraphic" in2="effect1_dropShadow" result="shape"/>
</filter>
<filter id="filter2_d" x="133.228" y="65.4072" width="25.772" height="25.7721" filterUnits="userSpaceOnUse" color-interpolation-filters="sRGB">
<feFlood flood-opacity="0" result="BackgroundImageFix"/>
<feColorMatrix in="SourceAlpha" type="matrix" values="0 0 0 0 0 0 0 0 0 0 0 0 0 0 0 0 0 0 127 0"/>
<feOffset dy="3"/>
<feGaussianBlur stdDeviation="2.5"/>
<feColorMatrix type="matrix" values="0 0 0 0 1 0 0 0 0 0.80475 0 0 0 0 0.1125 0 0 0 0.29 0"/>
<feBlend mode="normal" in2="BackgroundImageFix" result="effect1_dropShadow"/>
<feBlend mode="normal" in="SourceGraphic" in2="effect1_dropShadow" result="shape"/>
</filter>
<filter id="filter3_d" x="134.524" y="90.5881" width="23.1807" height="23.1804" filterUnits="userSpaceOnUse" color-interpolation-filters="sRGB">
<feFlood flood-opacity="0" result="BackgroundImageFix"/>
<feColorMatrix in="SourceAlpha" type="matrix" values="0 0 0 0 0 0 0 0 0 0 0 0 0 0 0 0 0 0 127 0"/>
<feOffset dy="2.77822"/>
<feGaussianBlur stdDeviation="1.85215"/>
<feColorMatrix type="matrix" values="0 0 0 0 1 0 0 0 0 0.80475 0 0 0 0 0.1125 0 0 0 0.29 0"/>
<feBlend mode="normal" in2="BackgroundImageFix" result="effect1_dropShadow"/>
<feBlend mode="normal" in="SourceGraphic" in2="effect1_dropShadow" result="shape"/>
</filter>
<filter id="filter4_d" x="41.6851" y="42.1969" width="120.343" height="119.678" filterUnits="userSpaceOnUse" color-interpolation-filters="sRGB">
<feFlood flood-opacity="0" result="BackgroundImageFix"/>
<feColorMatrix in="SourceAlpha" type="matrix" values="0 0 0 0 0 0 0 0 0 0 0 0 0 0 0 0 0 0 127 0"/>
<feOffset dy="3.98212"/>
<feGaussianBlur stdDeviation="11.9464"/>
<feColorMatrix type="matrix" values="0 0 0 0 1 0 0 0 0 0.80475 0 0 0 0 0.1125 0 0 0 0.4 0"/>
<feBlend mode="normal" in2="BackgroundImageFix" result="effect1_dropShadow"/>
<feBlend mode="normal" in="SourceGraphic" in2="effect1_dropShadow" result="shape"/>
</filter>
<filter id="filter5_d" x="39.7156" y="62.1768" width="124.284" height="120.359" filterUnits="userSpaceOnUse" color-interpolation-filters="sRGB">
<feFlood flood-opacity="0" result="BackgroundImageFix"/>
<feColorMatrix in="SourceAlpha" type="matrix" values="0 0 0 0 0 0 0 0 0 0 0 0 0 0 0 0 0 0 127 0"/>
<feOffset dy="3"/>
<feGaussianBlur stdDeviation="29"/>
<feColorMatrix type="matrix" values="0 0 0 0 1 0 0 0 0 0.80475 0 0 0 0 0.1125 0 0 0 0.25 0"/>
<feBlend mode="normal" in2="BackgroundImageFix" result="effect1_dropShadow"/>
<feBlend mode="normal" in="SourceGraphic" in2="effect1_dropShadow" result="shape"/>
</filter>
<filter id="filter6_d" x="94.9857" y="68.5809" width="13.742" height="18.4191" filterUnits="userSpaceOnUse" color-interpolation-filters="sRGB">
<feFlood flood-opacity="0" result="BackgroundImageFix"/>
<feColorMatrix in="SourceAlpha" type="matrix" values="0 0 0 0 0 0 0 0 0 0 0 0 0 0 0 0 0 0 127 0"/>
<feOffset dy="2"/>
<feGaussianBlur stdDeviation="2.5"/>
<feColorMatrix type="matrix" values="0 0 0 0 1 0 0 0 0 0.80475 0 0 0 0 0.1125 0 0 0 0.2 0"/>
<feBlend mode="normal" in2="BackgroundImageFix" result="effect1_dropShadow"/>
<feBlend mode="normal" in="SourceGraphic" in2="effect1_dropShadow" result="shape"/>
</filter>
<filter id="filter7_d" x="109.495" y="75.9913" width="17.0066" height="17.0086" filterUnits="userSpaceOnUse" color-interpolation-filters="sRGB">
<feFlood flood-opacity="0" result="BackgroundImageFix"/>
<feColorMatrix in="SourceAlpha" type="matrix" values="0 0 0 0 0 0 0 0 0 0 0 0 0 0 0 0 0 0 127 0"/>
<feOffset dy="2"/>
<feGaussianBlur stdDeviation="2.5"/>
<feColorMatrix type="matrix" values="0 0 0 0 1 0 0 0 0 0.80475 0 0 0 0 0.1125 0 0 0 0.2 0"/>
<feBlend mode="normal" in2="BackgroundImageFix" result="effect1_dropShadow"/>
<feBlend mode="normal" in="SourceGraphic" in2="effect1_dropShadow" result="shape"/>
</filter>
<filter id="filter8_d" x="114.217" y="93.6904" width="17.7829" height="13.891" filterUnits="userSpaceOnUse" color-interpolation-filters="sRGB">
<feFlood flood-opacity="0" result="BackgroundImageFix"/>
<feColorMatrix in="SourceAlpha" type="matrix" values="0 0 0 0 0 0 0 0 0 0 0 0 0 0 0 0 0 0 127 0"/>
<feOffset dy="2"/>
<feGaussianBlur stdDeviation="2.5"/>
<feColorMatrix type="matrix" values="0 0 0 0 1 0 0 0 0 0.80475 0 0 0 0 0.1125 0 0 0 0.2 0"/>
<feBlend mode="normal" in2="BackgroundImageFix" result="effect1_dropShadow"/>
<feBlend mode="normal" in="SourceGraphic" in2="effect1_dropShadow" result="shape"/>
</filter>
<filter id="filter9_d" x="78.186" y="76.9655" width="15.0345" height="15.0345" filterUnits="userSpaceOnUse" color-interpolation-filters="sRGB">
<feFlood flood-opacity="0" result="BackgroundImageFix"/>
<feColorMatrix in="SourceAlpha" type="matrix" values="0 0 0 0 0 0 0 0 0 0 0 0 0 0 0 0 0 0 127 0"/>
<feOffset dy="2"/>
<feGaussianBlur stdDeviation="2"/>
<feColorMatrix type="matrix" values="0 0 0 0 1 0 0 0 0 0.80475 0 0 0 0 0.1125 0 0 0 0.2 0"/>
<feBlend mode="normal" in2="BackgroundImageFix" result="effect1_dropShadow"/>
<feBlend mode="normal" in="SourceGraphic" in2="effect1_dropShadow" result="shape"/>
</filter>
<filter id="filter10_d" x="73.2097" y="94.9386" width="14.7903" height="11.3949" filterUnits="userSpaceOnUse" color-interpolation-filters="sRGB">
<feFlood flood-opacity="0" result="BackgroundImageFix"/>
<feColorMatrix in="SourceAlpha" type="matrix" values="0 0 0 0 0 0 0 0 0 0 0 0 0 0 0 0 0 0 127 0"/>
<feOffset dy="2"/>
<feGaussianBlur stdDeviation="2"/>
<feColorMatrix type="matrix" values="0 0 0 0 1 0 0 0 0 0.80475 0 0 0 0 0.1125 0 0 0 0.2 0"/>
<feBlend mode="normal" in2="BackgroundImageFix" result="effect1_dropShadow"/>
<feBlend mode="normal" in="SourceGraphic" in2="effect1_dropShadow" result="shape"/>
</filter>
<filter id="filter11_d" x="86.4664" y="83.2674" width="30.8008" height="32.7281" filterUnits="userSpaceOnUse" color-interpolation-filters="sRGB">
<feFlood flood-opacity="0" result="BackgroundImageFix"/>
<feColorMatrix in="SourceAlpha" type="matrix" values="0 0 0 0 0 0 0 0 0 0 0 0 0 0 0 0 0 0 127 0"/>
<feOffset dy="0.99553"/>
<feGaussianBlur stdDeviation="1.5"/>
<feColorMatrix type="matrix" values="0 0 0 0 1 0 0 0 0 0.80475 0 0 0 0 0.1125 0 0 0 0.2 0"/>
<feBlend mode="normal" in2="BackgroundImageFix" result="effect1_dropShadow"/>
<feBlend mode="normal" in="SourceGraphic" in2="effect1_dropShadow" result="shape"/>
</filter>
</defs>
</svg>
