<svg width="22" height="22" viewBox="0 0 22 22" fill="none" xmlns="http://www.w3.org/2000/svg">
<g clip-path="url(#clip0_2342_9535)">
<g filter="url(#filter0_d_2342_9535)">
<path d="M7.38493 11.0007C7.38493 9.00366 9.00342 7.3843 11.0005 7.3843C12.9975 7.3843 14.6169 9.00366 14.6169 11.0007C14.6169 12.9978 12.9975 14.6171 11.0005 14.6171C9.00342 14.6171 7.38493 12.9978 7.38493 11.0007V11.0007ZM5.42996 11.0007C5.42996 14.0773 7.92387 16.5712 11.0005 16.5712C14.0771 16.5712 16.571 14.0773 16.571 11.0007C16.571 7.92412 14.0771 5.43021 11.0005 5.43021C7.92387 5.43021 5.43005 7.92394 5.43005 11.0007H5.42996ZM15.4898 5.20933C15.4897 5.46681 15.5659 5.71853 15.7089 5.93267C15.8519 6.1468 16.0551 6.31374 16.2929 6.41237C16.5308 6.51099 16.7925 6.53688 17.0451 6.48675C17.2976 6.43662 17.5296 6.31272 17.7117 6.13074C17.8939 5.94875 18.018 5.71684 18.0683 5.46433C18.1186 5.21183 18.0929 4.95007 17.9945 4.71216C17.8961 4.47424 17.7293 4.27086 17.5153 4.12773C17.3012 3.9846 17.0496 3.90815 16.7921 3.90805H16.7916C16.4465 3.90821 16.1155 4.04535 15.8714 4.28933C15.6274 4.53332 15.4901 4.86421 15.4898 5.20933V5.20933ZM6.61773 19.8311C5.56006 19.7829 4.98518 19.6068 4.60314 19.4579C4.09665 19.2608 3.73527 19.0259 3.35532 18.6465C2.97537 18.267 2.74017 17.906 2.54386 17.3995C2.39494 17.0177 2.21876 16.4426 2.17068 15.3849C2.11809 14.2414 2.10758 13.8979 2.10758 11.0009C2.10758 8.10385 2.11895 7.7613 2.17068 6.61684C2.21884 5.55917 2.39632 4.98525 2.54386 4.60226C2.74104 4.09577 2.97589 3.73439 3.35532 3.35444C3.73475 2.97448 4.09579 2.73929 4.60314 2.54298C4.98501 2.39405 5.56006 2.21787 6.61773 2.16979C7.76123 2.1172 8.10474 2.1067 11.0005 2.1067C13.8962 2.1067 14.2401 2.1179 15.3845 2.16997C16.4422 2.21813 17.0161 2.39561 17.3991 2.54315C17.9056 2.73946 18.267 2.97518 18.6469 3.35461C19.0269 3.73404 19.2612 4.09594 19.4584 4.60243C19.6073 4.9843 19.7835 5.55935 19.8316 6.61702C19.8842 7.76148 19.8947 8.10403 19.8947 11.0011C19.8947 13.8981 19.8842 14.2406 19.8316 15.3851C19.7834 16.4428 19.6064 17.0177 19.4584 17.3997C19.2612 17.9062 19.0264 18.2676 18.6469 18.6466C18.2675 19.0257 17.9056 19.2609 17.3991 19.4581C17.0172 19.607 16.4422 19.7832 15.3845 19.8313C14.241 19.8839 13.8975 19.8944 11.0005 19.8944C8.10344 19.8944 7.76089 19.8839 6.61773 19.8313V19.8311ZM6.52791 0.218042C5.37303 0.270634 4.58388 0.453755 3.8947 0.721927C3.1814 0.998864 2.57675 1.3704 1.97298 1.97322C1.3692 2.57604 0.99862 3.18078 0.721683 3.89495C0.453511 4.58455 0.27039 5.37327 0.217797 6.52815C0.164337 7.68485 0.1521 8.05464 0.1521 11.0007C0.1521 13.9468 0.164337 14.3166 0.217797 15.4733C0.27039 16.6282 0.453511 17.4169 0.721683 18.1065C0.99862 18.8198 1.36929 19.4256 1.97298 20.0282C2.57667 20.6308 3.18053 21.0018 3.8947 21.2795C4.58518 21.5477 5.37303 21.7308 6.52791 21.7834C7.68521 21.836 8.0544 21.8491 11.0005 21.8491C13.9465 21.8491 14.3163 21.8368 15.473 21.7834C16.628 21.7308 17.4166 21.5477 18.1062 21.2795C18.8195 21.0018 19.4242 20.631 20.028 20.0282C20.6317 19.4254 21.0015 18.8198 21.2793 18.1065C21.5474 17.4169 21.7314 16.6282 21.7831 15.4733C21.8357 14.3157 21.848 13.9468 21.848 11.0007C21.848 8.05464 21.8357 7.68485 21.7831 6.52815C21.7306 5.37319 21.5474 4.58412 21.2793 3.89495C21.0015 3.18164 20.6308 2.577 20.028 1.97322C19.4251 1.36944 18.8195 0.998864 18.1071 0.721927C17.4166 0.453755 16.6279 0.269767 15.4739 0.218042C14.317 0.165188 13.9474 0.152344 11.0018 0.152344C8.05614 0.152344 7.68564 0.164581 6.52834 0.218042" fill="url(#paint0_radial_2342_9535)"/>
</g>
</g>
<defs>
<filter id="filter0_d_2342_9535" x="-13.9324" y="-3.68888" width="49.8649" height="49.8652" filterUnits="userSpaceOnUse" color-interpolation-filters="sRGB">
<feFlood flood-opacity="0" result="BackgroundImageFix"/>
<feColorMatrix in="SourceAlpha" type="matrix" values="0 0 0 0 0 0 0 0 0 0 0 0 0 0 0 0 0 0 127 0" result="hardAlpha"/>
<feOffset dy="10.2433"/>
<feGaussianBlur stdDeviation="7.04224"/>
<feColorMatrix type="matrix" values="0 0 0 0 0.54902 0 0 0 0 0.227451 0 0 0 0 0.666667 0 0 0 0.15 0"/>
<feBlend mode="normal" in2="BackgroundImageFix" result="effect1_dropShadow_2342_9535"/>
<feBlend mode="normal" in="SourceGraphic" in2="effect1_dropShadow_2342_9535" result="shape"/>
</filter>
<radialGradient id="paint0_radial_2342_9535" cx="0" cy="0" r="1" gradientUnits="userSpaceOnUse" gradientTransform="translate(1.55623 21.3738) scale(27.5457 27.5468)">
<stop offset="0.09" stop-color="#FA8F21"/>
<stop offset="0.78" stop-color="#D82D7E"/>
</radialGradient>
<clipPath id="clip0_2342_9535">
<rect width="22" height="22" fill="white"/>
</clipPath>
</defs>
</svg>
