<svg width="22" height="22" viewBox="0 0 22 22" fill="none" xmlns="http://www.w3.org/2000/svg">
<path d="M0.552002 3.36153C0.552002 2.69145 0.787324 2.13865 1.25795 1.70312C1.72857 1.26757 2.3404 1.0498 3.09341 1.0498C3.83298 1.0498 4.43134 1.26421 4.88853 1.69307C5.35915 2.13531 5.59447 2.71155 5.59447 3.42184C5.59447 4.0651 5.36589 4.60114 4.9087 5.02999C4.43807 5.47224 3.81952 5.69336 3.05307 5.69336H3.0329C2.29333 5.69336 1.69497 5.47224 1.23778 5.02999C0.780587 4.58775 0.552002 4.03159 0.552002 3.36153ZM0.81421 20.9508V7.52264H5.29192V20.9508H0.81421ZM7.77282 20.9508H12.2505V13.4527C12.2505 12.9837 12.3043 12.6218 12.4119 12.3672C12.6001 11.9116 12.8859 11.5263 13.2691 11.2113C13.6523 10.8964 14.133 10.739 14.7113 10.739C16.2173 10.739 16.9703 11.7507 16.9703 13.7743V20.9508H21.448V13.2517C21.448 11.2683 20.9774 9.76401 20.0361 8.73881C19.0948 7.71361 17.851 7.20101 16.3047 7.20101C14.5701 7.20101 13.2187 7.94478 12.2505 9.43232V9.47253H12.2304L12.2505 9.43232V7.52264H7.77282C7.79971 7.95147 7.81316 9.2849 7.81316 11.5229C7.81316 13.7609 7.79971 16.9035 7.77282 20.9508Z" fill="#0A66C2"/>
</svg>
