<?xml version="1.0" encoding="utf-8"?>
<!-- Generator: Adobe Illustrator 25.0.1, SVG Export Plug-In . SVG Version: 6.00 Build 0)  -->
<svg version="1.1" id="Layer_1" xmlns="http://www.w3.org/2000/svg" xmlns:xlink="http://www.w3.org/1999/xlink" x="0px" y="0px"
	 viewBox="0 0 1280 1024" style="enable-background:new 0 0 1280 1024;" xml:space="preserve">
<style type="text/css">
	.st0{fill:#0A76FA;}
	.st1{fill:#93A4BF;}
</style>
<g>
	<path class="st0" d="M4,706.7l21.9,26.6h18v105h26.8V706.7H4z"/>
	<path class="st0" d="M196.1,706.7h-53.6c-22.3,0-40.3,18-40.3,40V798c0,22.3,18,40.3,40.3,40.3h53.6c22.3,0,40.3-18,40.3-40.3
		v-51.3C236.3,724.6,218.4,706.7,196.1,706.7z M209.5,798c0,7.5-5.9,13.4-13.4,13.4h-53.6c-7.3,0-13.4-5.9-13.4-13.4v-51.3
		c0-7.3,6.1-13.4,13.4-13.4h53.6c7.5,0,13.4,6.1,13.4,13.4V798z"/>
	<path class="st0" d="M361.8,706.7h-53.7c-22.3,0-40.3,18-40.3,40V798c0,22.3,18,40.3,40.3,40.3h53.7c22.3,0,40.2-18,40.2-40.3
		v-51.3C402,724.6,384.1,706.7,361.8,706.7z M375.2,798c0,7.5-5.9,13.4-13.4,13.4h-53.7c-7.3,0-13.4-5.9-13.4-13.4v-51.3
		c0-7.3,6.1-13.4,13.4-13.4h53.7c7.5,0,13.4,6.1,13.4,13.4V798z"/>
	<path class="st1" d="M518.9,706.7c-22.3,0-40.2,18-40.2,40V798c0,22.3,18,40.3,40.2,40.3h94v-26.8h-94c-7.3,0-13.4-5.9-13.4-13.4
		v-51.3c0-7.3,6.1-13.4,13.4-13.4h94v-26.6H518.9z"/>
	<path class="st1" d="M738.1,706.7h-53.5c-22.3,0-40.3,18-40.3,40.3v51.3c0,22.1,18,40,40.3,40h53.5c22.1,0,40.2-18,40.2-40v-51.3
		C778.4,724.6,760.2,706.7,738.1,706.7z M751.5,798.2c0,7.3-6.1,13.4-13.4,13.4h-53.5c-7.5,0-13.4-6.1-13.4-13.4v-51.3
		c0-7.5,5.9-13.4,13.4-13.4h53.5c7.3,0,13.4,5.9,13.4,13.4V798.2z"/>
	<path class="st1" d="M903.8,706.5h-94v78.1h26.8v-51.3h67.1c7.5,0,13.4,6.1,13.4,13.4V798c0,7.5-5.9,13.4-13.4,13.4h-94v26.8h94
		c22.3,0,40.2-18,40.2-40.3v-51.3C944.1,724.6,926.1,706.5,903.8,706.5z"/>
	<path class="st1" d="M1109.6,733.5v-26.8H975.6v131.6h133.9v-26.6h-107.1V786h80.3v-26.8h-80.3v-25.6H1109.6z"/>
	<path class="st1" d="M1235.5,759.1h-54.7c-7.1,0-12.8-5.7-12.8-12.8c0-7.1,5.7-12.8,12.8-12.8h77.5l16.8-26.8h-94.3
		c-21.9,0-39.7,17.8-39.7,39.7s17.8,39.7,39.7,39.7h54.7c7.1,0,12.8,5.7,12.8,12.8c0,6.9-5.8,12.8-12.8,12.8h-94.3v26.6h93.7
		c22.3,0,40.2-17.2,40.2-39.5C1275.1,776.9,1257.4,759.1,1235.5,759.1z"/>
</g>
<g>
	<path class="st1" d="M760.9,437v-98c9.5-1.3,16.8-9.3,16.8-19.1c0-10.7-8.7-19.4-19.4-19.4c-10.7,0-19.4,8.7-19.4,19.4
		c0,2.6,0.5,5,1.4,7.3l-21.9,12.5c-2.2-2.4-5.4-4-8.9-4c-3.5,0-6.7,1.6-8.9,4l-49.9-28.4c0.4-1.1,0.6-2.3,0.6-3.6
		c0-5.8-4.1-10.6-9.5-11.8V270c9.5-1.3,16.8-9.3,16.8-19.2c0-10.7-8.7-19.4-19.4-19.4s-19.4,8.7-19.4,19.4c0,2.2,0.5,4.3,1.1,6.3
		l-85.7,50c-3.6-4.1-8.8-6.8-14.6-6.8c-10.7,0-19.4,8.7-19.4,19.4s8.7,19.4,19.4,19.4c6.6,0,12.4-3.3,15.9-8.3l21.9,12.4
		c-0.5,1.3-0.8,2.8-0.8,4.3c0,5.8,4.1,10.6,9.5,11.8v56c-5.4,1.2-9.5,6-9.5,11.8c0,1.5,0.3,3,0.9,4.4l-22.5,12.8
		c-3.6-4.6-9.1-7.7-15.4-7.7c-10.7,0-19.4,8.7-19.4,19.4s8.7,19.4,19.4,19.4c6.2,0,11.7-3,15.3-7.6l85.4,49.3
		c-0.9,2.3-1.5,4.7-1.5,7.4c0,10.7,8.7,19.4,19.4,19.4s19.4-8.7,19.4-19.4c0-9.8-7.4-17.9-16.9-19.2v-26.2c5.4-1.2,9.5-6,9.5-11.8
		c0-1.3-0.3-2.5-0.6-3.7l49.2-28.6c2.2,2.4,5.3,3.9,8.9,3.9c3.5,0,6.6-1.5,8.8-3.8l22.8,13.6c-0.9,2.2-1.4,4.6-1.4,7.2
		c0,10.7,8.7,19.4,19.4,19.4c10.7,0,19.4-8.7,19.4-19.4C777.7,446.3,770.4,438.2,760.9,437z M639.3,455.4c-6.7,0-12.1,5.4-12.1,12.1
		c0,5.8,4.1,10.6,9.5,11.8v26.2c-5.1,0.7-9.6,3.4-12.7,7.3l-85.3-49.4c0.9-2.3,1.5-4.7,1.5-7.3c0-2.6-0.5-5-1.4-7.3l22.8-13
		c2.2,2.1,5.1,3.4,8.3,3.4c6.7,0,12.1-5.4,12.1-12.1c0-1.2-0.2-2.4-0.6-3.6l49.1-28c2.2,2.4,5.4,4,8.9,4c3.5,0,6.7-1.6,8.9-4
		l49,28.5c-0.3,1-0.5,2-0.5,3.1c0,1.3,0.3,2.5,0.6,3.7l-49.2,28.6C645.9,457,642.8,455.4,639.3,455.4z M538.9,326.3
		c0.7-2,1.2-4.2,1.2-6.5c0-3-0.7-5.8-2-8.3l85.1-49.7c3,4.4,7.9,7.5,13.4,8.2v25.8c-5.4,1.2-9.5,6-9.5,11.8c0,5.8,4.1,10.6,9.5,11.8
		v56.4c-5.4,1.2-9.5,6-9.5,11.8c0,1.2,0.2,2.4,0.6,3.6l-49.1,28c-1.7-1.8-3.8-3.2-6.3-3.7l-0.1-56c5.4-1.2,9.6-6,9.6-11.8
		c0-6.7-5.4-12.1-12.1-12.1c-3.3,0-6.2,1.3-8.4,3.4L538.9,326.3z M708.8,415.1c-3.7,0-7,1.7-9.2,4.4l-48.8-28.4
		c0.4-1.1,0.6-2.3,0.6-3.5c0-5.8-4.1-10.6-9.5-11.8v-56.4c2.5-0.5,4.7-1.9,6.3-3.7l49.9,28.4c-0.4,1.1-0.6,2.3-0.6,3.6
		c0,6.7,5.4,12.1,12.1,12.1s12.1-5.4,12.1-12.1c0-1.2-0.2-2.4-0.6-3.6l21.9-12.5c3.1,4,7.6,6.7,12.8,7.4v98
		c-5.2,0.7-9.8,3.5-12.9,7.5l-22.7-13.5c0.4-1.2,0.7-2.5,0.7-3.8C720.8,420.5,715.4,415.1,708.8,415.1z"/>
	<g>
		<path class="st0" d="M865.5,373.3c-2.6-1-5.2-2.2-7.6-3.7c-11.6-7.1-18.6-21.1-18.5-36.4v-17.6c0-22.2,0.1-52.5-0.1-75.8
			c-0.3-26.4-12.3-42.1-22.3-50.6c-6.7-5.7-14.8-9.9-23.6-12.3c-4.6-1.3-9.4-2.1-14.5-2.4h-59.5c-5-7.2-13.2-11.9-22.6-11.9
			c-15.2,0-27.6,12.3-27.6,27.6s12.3,27.6,27.6,27.6c9.4,0,17.7-4.7,22.7-12h58.6c7.3,0.7,13.8,3.3,18.6,7.4
			c7.4,6.2,11.1,15,11.2,26.8c0.3,23.2,0.2,53.4,0.1,75.6v17.6c-0.1,19.8,7.4,39,20.6,52.7l2.1,2.2l-2.1,2.2
			c-13.2,13.6-20.7,32.7-20.6,52.4v17.7c0,9.5,0.1,20,0.1,30.6c0,15.4-0.1,31.1-0.2,44.7c-0.1,11.9-3.8,20.8-11.3,27
			c-5.6,4.8-13.6,7.5-22.5,7.5h-54.1c-4.9-7.8-13.5-13.1-23.4-13.1c-15.2,0-27.6,12.3-27.6,27.6s12.3,27.6,27.6,27.6
			c8.9,0,16.7-4.3,21.7-10.8h55.7c16.3,0,31.4-5.3,42.7-14.9c10.1-8.5,22.1-24.2,22.3-50.5c0.2-23.1,0.1-52.2,0.1-75.6v-17.8
			c-0.1-15.1,6.9-28.9,18.5-36c2.3-1.4,4.8-2.7,7.6-3.7l0.7-0.3v-29L865.5,373.3z"/>
		<path class="st0" d="M482.4,213.1c5.6-4.8,13.6-7.5,22.5-7.5h51.6c5,7.3,13.3,12,22.8,12c15.2,0,27.6-12.3,27.6-27.6
			s-12.3-27.6-27.6-27.6c-9.4,0-17.6,4.7-22.6,11.9h-51.8c-16.3,0-31.4,5.3-42.7,14.9c-10.1,8.5-22.1,24.2-22.3,50.5
			c-0.2,23.1-0.1,52.2-0.1,75.6v17.8c0.1,15.1-6.9,28.9-18.5,36c-2.3,1.4-4.8,2.7-7.6,3.7l-0.7,0.3v29l0.8,0.3
			c2.6,1,5.2,2.2,7.6,3.7c11.6,7.1,18.6,21.1,18.5,36.4v17.6c0,22.2-0.1,52.5,0.1,75.8c0.3,26.4,12.3,42.1,22.3,50.6
			c6.7,5.7,14.8,9.9,23.6,12.3c4.6,1.3,9.4,2.1,14.5,2.4h57.4c5,6.5,12.9,10.8,21.7,10.8c15.2,0,27.6-12.3,27.6-27.6
			S594.5,557,579.2,557c-9.9,0-18.5,5.2-23.3,13H501c-7.3-0.7-13.8-3.3-18.6-7.4c-7.4-6.2-11.1-15-11.2-26.8
			c-0.3-23.2-0.2-53.4-0.1-75.6v-17.6c0.1-19.8-7.4-39-20.6-52.7l-2.1-2.2l2.1-2.2c13.2-13.6,20.7-32.7,20.6-52.4v-17.7
			c0-9.5-0.1-20-0.1-30.6c0-15.4,0.1-31.1,0.2-44.7C471.2,228.2,474.9,219.3,482.4,213.1z"/>
	</g>
</g>
</svg>
