<svg width="176" height="34" viewBox="0 0 176 34" fill="none" xmlns="http://www.w3.org/2000/svg">
<g clip-path="url(#clip0)">
<path d="M41.6016 11.9587C41.6016 10.1367 42.0084 8.50936 42.8221 7.07657C43.6535 5.62609 44.7767 4.50285 46.1918 3.70686C47.6246 2.89317 49.2254 2.48633 50.9943 2.48633C53.0639 2.48633 54.877 3.01699 56.4336 4.07832C57.9902 5.13965 59.0781 6.60782 59.6972 8.48283H55.4254C55.0008 7.59839 54.3994 6.93506 53.6211 6.49284C52.8605 6.05062 51.976 5.82951 50.9678 5.82951C49.8888 5.82951 48.9247 6.086 48.0757 6.59897C47.2443 7.09426 46.5898 7.80181 46.1122 8.72163C45.6523 9.64144 45.4223 10.7205 45.4223 11.9587C45.4223 13.1792 45.6523 14.2582 46.1122 15.1957C46.5898 16.1155 47.2443 16.8319 48.0757 17.3449C48.9247 17.8402 49.8888 18.0878 50.9678 18.0878C51.976 18.0878 52.8605 17.8667 53.6211 17.4245C54.3994 16.9646 55.0008 16.2924 55.4254 15.408H59.6972C59.0781 17.3007 57.9902 18.7777 56.4336 19.839C54.8947 20.8827 53.0816 21.4045 50.9943 21.4045C49.2254 21.4045 47.6246 21.0065 46.1918 20.2105C44.7767 19.3968 43.6535 18.2736 42.8221 16.8408C42.0084 15.408 41.6016 13.7806 41.6016 11.9587Z" fill="#1F2559"/>
<path d="M69.3971 21.4841C67.982 21.4841 66.7084 21.1745 65.5764 20.5554C64.4443 19.9186 63.551 19.0253 62.8965 17.8756C62.2597 16.7258 61.9413 15.3991 61.9413 13.8956C61.9413 12.3921 62.2686 11.0654 62.923 9.91564C63.5952 8.76587 64.5062 7.88143 65.656 7.26232C66.8057 6.62553 68.0882 6.30713 69.5033 6.30713C70.9184 6.30713 72.2008 6.62553 73.3506 7.26232C74.5004 7.88143 75.4025 8.76587 76.057 9.91564C76.7291 11.0654 77.0652 12.3921 77.0652 13.8956C77.0652 15.3991 76.7203 16.7258 76.0304 17.8756C75.3583 19.0253 74.4384 19.9186 73.271 20.5554C72.1212 21.1745 70.8299 21.4841 69.3971 21.4841ZM69.3971 18.247C70.0693 18.247 70.6973 18.0878 71.281 17.7694C71.8824 17.4334 72.36 16.9381 72.7138 16.2836C73.0676 15.6291 73.2445 14.8331 73.2445 13.8956C73.2445 12.4982 72.873 11.428 72.1301 10.6851C71.4048 9.92448 70.5115 9.54418 69.4502 9.54418C68.3889 9.54418 67.4956 9.92448 66.7704 10.6851C66.0628 11.428 65.709 12.4982 65.709 13.8956C65.709 15.293 66.054 16.372 66.7438 17.1326C67.4514 17.8756 68.3358 18.247 69.3971 18.247Z" fill="#1F2559"/>
<path d="M98.0449 6.33374C99.8492 6.33374 101.3 6.89094 102.396 8.00533C103.511 9.10204 104.068 10.641 104.068 12.6221V21.2454H100.353V13.1262C100.353 11.9765 100.061 11.1009 99.4777 10.4995C98.894 9.88034 98.098 9.57079 97.0897 9.57079C96.0814 9.57079 95.2766 9.88034 94.6752 10.4995C94.0915 11.1009 93.7996 11.9765 93.7996 13.1262V21.2454H90.0849V13.1262C90.0849 11.9765 89.7931 11.1009 89.2093 10.4995C88.6256 9.88034 87.8296 9.57079 86.8214 9.57079C85.7954 9.57079 84.9817 9.88034 84.3803 10.4995C83.7966 11.1009 83.5047 11.9765 83.5047 13.1262V21.2454H79.7901V6.54601H83.5047V8.32373C83.9823 7.70462 84.5926 7.21818 85.3355 6.8644C86.0961 6.51063 86.9275 6.33374 87.8296 6.33374C88.9794 6.33374 90.0053 6.58138 90.9075 7.07667C91.8096 7.55427 92.5083 8.24413 93.0036 9.14626C93.4812 8.2972 94.1711 7.61618 95.0732 7.1032C95.993 6.59023 96.9836 6.33374 98.0449 6.33374Z" fill="#1F2559"/>
<path d="M111.308 8.66858C111.785 7.99641 112.44 7.43921 113.271 6.99699C114.12 6.53708 115.084 6.30713 116.163 6.30713C117.419 6.30713 118.551 6.61668 119.559 7.23579C120.585 7.8549 121.39 8.73934 121.974 9.88911C122.575 11.0212 122.876 12.339 122.876 13.8425C122.876 15.3461 122.575 16.6816 121.974 17.849C121.39 18.9988 120.585 19.8921 119.559 20.5289C118.551 21.1657 117.419 21.4841 116.163 21.4841C115.084 21.4841 114.129 21.263 113.298 20.8208C112.484 20.3785 111.821 19.8213 111.308 19.1492V28.2501H107.593V6.54593H111.308V8.66858ZM119.082 13.8425C119.082 12.9581 118.896 12.1975 118.525 11.5607C118.171 10.9062 117.693 10.4109 117.092 10.0748C116.508 9.73875 115.871 9.57071 115.181 9.57071C114.509 9.57071 113.872 9.7476 113.271 10.1014C112.687 10.4374 112.21 10.9327 111.838 11.5872C111.484 12.2417 111.308 13.0112 111.308 13.8956C111.308 14.78 111.484 15.5495 111.838 16.204C112.21 16.8585 112.687 17.3626 113.271 17.7164C113.872 18.0525 114.509 18.2205 115.181 18.2205C115.871 18.2205 116.508 18.0436 117.092 17.6898C117.693 17.3361 118.171 16.8319 118.525 16.1775C118.896 15.523 119.082 14.7447 119.082 13.8425Z" fill="#1F2559"/>
<path d="M124.62 13.8425C124.62 12.3567 124.912 11.0389 125.496 9.88911C126.097 8.73934 126.902 7.8549 127.91 7.23579C128.936 6.61668 130.077 6.30713 131.333 6.30713C132.43 6.30713 133.385 6.52824 134.199 6.97046C135.03 7.41268 135.693 7.96987 136.189 8.64205V6.54593H139.93V21.2453H136.189V19.0961C135.711 19.786 135.048 20.3609 134.199 20.8208C133.367 21.263 132.403 21.4841 131.307 21.4841C130.068 21.4841 128.936 21.1657 127.91 20.5289C126.902 19.8921 126.097 18.9988 125.496 17.849C124.912 16.6816 124.62 15.3461 124.62 13.8425ZM136.189 13.8956C136.189 12.9935 136.012 12.224 135.658 11.5872C135.304 10.9327 134.827 10.4374 134.225 10.1014C133.624 9.7476 132.978 9.57071 132.288 9.57071C131.598 9.57071 130.962 9.73875 130.378 10.0748C129.794 10.4109 129.317 10.9062 128.945 11.5607C128.591 12.1975 128.414 12.9581 128.414 13.8425C128.414 14.727 128.591 15.5053 128.945 16.1775C129.317 16.8319 129.794 17.3361 130.378 17.6898C130.979 18.0436 131.616 18.2205 132.288 18.2205C132.978 18.2205 133.624 18.0525 134.225 17.7164C134.827 17.3626 135.304 16.8673 135.658 16.2305C136.012 15.576 136.189 14.7977 136.189 13.8956Z" fill="#1F2559"/>
<path d="M151.703 6.33374C153.455 6.33374 154.87 6.89094 155.949 8.00533C157.028 9.10204 157.567 10.641 157.567 12.6221V21.2454H153.853V13.1262C153.853 11.9588 153.561 11.0655 152.977 10.4464C152.393 9.80959 151.597 9.49119 150.589 9.49119C149.563 9.49119 148.749 9.80959 148.148 10.4464C147.564 11.0655 147.272 11.9588 147.272 13.1262V21.2454H143.558V6.54601H147.272V8.3768C147.768 7.74 148.396 7.24471 149.156 6.89094C149.935 6.51947 150.784 6.33374 151.703 6.33374Z" fill="#1F2559"/>
<path d="M175.162 6.5459L166.061 28.197H162.108L165.292 20.8738L159.402 6.5459H163.567L167.362 16.8142L171.209 6.5459H175.162Z" fill="#1F2559"/>
<g filter="url(#filter0_d)">
<path d="M13.7511 27.0001C8.6626 27.0001 4.55389 22.8598 4.55389 17.8029C4.55389 12.746 8.6626 8.60571 13.7511 8.60571C18.8079 8.60571 22.9483 12.7144 22.9483 17.8029C22.9166 22.8598 18.8079 27.0001 13.7511 27.0001Z" fill="#F4263E"/>
</g>
<path d="M13.7511 28.0539C8.07952 28.0539 3.5 23.4392 3.5 17.8028C3.5 12.1665 8.07952 7.55176 13.7511 7.55176C19.3874 7.55176 24.0022 12.1313 24.0022 17.8028C23.9669 23.4392 19.3874 28.0539 13.7511 28.0539Z" fill="#F4263E"/>
<g filter="url(#filter1_d)">
<path d="M28.6465 1.80322H15.6587C15.0487 1.80322 14.5543 2.29771 14.5543 2.9077V15.8955C14.5543 16.5055 15.0487 16.9999 15.6587 16.9999H28.6465C29.2564 16.9999 29.751 16.5055 29.751 15.8955V2.9077C29.751 2.29771 29.2564 1.80322 28.6465 1.80322Z" fill="#1B76FF"/>
</g>
<path d="M29.3331 1H14.9722C14.2977 1 13.751 1.54677 13.751 2.22124V16.5821C13.751 17.2566 14.2977 17.8033 14.9722 17.8033H29.3331C30.0075 17.8033 30.5543 17.2566 30.5543 16.5821V2.22124C30.5543 1.54677 30.0075 1 29.3331 1Z" fill="#1B76FF"/>
</g>
<defs>
<filter id="filter0_d" x="0.553894" y="6.60571" width="26.3944" height="26.3943" filterUnits="userSpaceOnUse" color-interpolation-filters="sRGB">
<feFlood flood-opacity="0" result="BackgroundImageFix"/>
<feColorMatrix in="SourceAlpha" type="matrix" values="0 0 0 0 0 0 0 0 0 0 0 0 0 0 0 0 0 0 127 0"/>
<feOffset dy="2"/>
<feGaussianBlur stdDeviation="2"/>
<feColorMatrix type="matrix" values="0 0 0 0 0.956863 0 0 0 0 0.14902 0 0 0 0 0.243137 0 0 0 0.3 0"/>
<feBlend mode="normal" in2="BackgroundImageFix" result="effect1_dropShadow"/>
<feBlend mode="normal" in="SourceGraphic" in2="effect1_dropShadow" result="shape"/>
</filter>
<filter id="filter1_d" x="11.3543" y="1.60322" width="21.5967" height="21.5967" filterUnits="userSpaceOnUse" color-interpolation-filters="sRGB">
<feFlood flood-opacity="0" result="BackgroundImageFix"/>
<feColorMatrix in="SourceAlpha" type="matrix" values="0 0 0 0 0 0 0 0 0 0 0 0 0 0 0 0 0 0 127 0"/>
<feOffset dy="3"/>
<feGaussianBlur stdDeviation="1.6"/>
<feColorMatrix type="matrix" values="0 0 0 0 0.104167 0 0 0 0 0.4625 0 0 0 0 1 0 0 0 0.2 0"/>
<feBlend mode="normal" in2="BackgroundImageFix" result="effect1_dropShadow"/>
<feBlend mode="normal" in="SourceGraphic" in2="effect1_dropShadow" result="shape"/>
</filter>
<clipPath id="clip0">
<rect width="175" height="34" fill="white" transform="translate(0.5)"/>
</clipPath>
</defs>
</svg>
