<svg width="178" height="29" viewBox="0 0 178 29" fill="none" xmlns="http://www.w3.org/2000/svg">
<path d="M39.7649 11.7346C39.7649 9.85345 40.185 8.17318 41.0251 6.69381C41.8835 5.19618 43.0433 4.03642 44.5044 3.21455C45.9837 2.37441 47.6366 1.95435 49.463 1.95435C51.5999 1.95435 53.4719 2.50226 55.0791 3.59809C56.6863 4.69392 57.8096 6.20982 58.4488 8.14579H54.0381C53.5997 7.23259 52.9788 6.5477 52.1752 6.0911C51.3898 5.63451 50.4766 5.40621 49.4356 5.40621C48.3215 5.40621 47.3261 5.67104 46.4495 6.20069C45.5911 6.71207 44.9153 7.44263 44.4222 8.39235C43.9473 9.34207 43.7099 10.4562 43.7099 11.7346C43.7099 12.9948 43.9473 14.1089 44.4222 15.0769C44.9153 16.0266 45.5911 16.7663 46.4495 17.296C47.3261 17.8074 48.3215 18.063 49.4356 18.063C50.4766 18.063 51.3898 17.8348 52.1752 17.3782C52.9788 16.9033 53.5997 16.2093 54.0381 15.2961H58.4488C57.8096 17.2503 56.6863 18.7753 55.0791 19.8712C53.4902 20.9487 51.6181 21.4875 49.463 21.4875C47.6366 21.4875 45.9837 21.0766 44.5044 20.2547C43.0433 19.4146 41.8835 18.2548 41.0251 16.7754C40.185 15.2961 39.7649 13.6158 39.7649 11.7346Z" fill="#C5C3D2"/>
<path d="M68.4641 21.5697C67.003 21.5697 65.688 21.2501 64.5191 20.6109C63.3502 19.9534 62.4279 19.031 61.7521 17.8439C61.0946 16.6567 60.7659 15.2869 60.7659 13.7345C60.7659 12.1821 61.1038 10.8123 61.7795 9.62516C62.4735 8.43801 63.4141 7.52482 64.6013 6.88558C65.7884 6.22808 67.1126 5.89933 68.5737 5.89933C70.0348 5.89933 71.3589 6.22808 72.546 6.88558C73.7332 7.52482 74.6646 8.43801 75.3404 9.62516C76.0344 10.8123 76.3815 12.1821 76.3815 13.7345C76.3815 15.2869 76.0253 16.6567 75.313 17.8439C74.619 19.031 73.6693 19.9534 72.4639 20.6109C71.2767 21.2501 69.9434 21.5697 68.4641 21.5697ZM68.4641 18.2274C69.1581 18.2274 69.8065 18.063 70.4092 17.7343C71.0301 17.3873 71.5233 16.8759 71.8885 16.2001C72.2538 15.5244 72.4365 14.7025 72.4365 13.7345C72.4365 12.2917 72.0529 11.1867 71.2858 10.4196C70.537 9.63429 69.6147 9.24162 68.5189 9.24162C67.423 9.24162 66.5007 9.63429 65.7519 10.4196C65.0213 11.1867 64.6561 12.2917 64.6561 13.7345C64.6561 15.1774 65.0122 16.2915 65.7245 17.0768C66.4551 17.8439 67.3682 18.2274 68.4641 18.2274Z" fill="#C5C3D2"/>
<path d="M98.0431 5.92673C99.906 5.92673 101.404 6.50204 102.536 7.65266C103.687 8.78502 104.262 10.374 104.262 12.4195V21.3231H100.427V12.94C100.427 11.7529 100.125 10.8488 99.5225 10.2279C98.9198 9.58863 98.0979 9.26901 97.0569 9.26901C96.0158 9.26901 95.1848 9.58863 94.5639 10.2279C93.9612 10.8488 93.6598 11.7529 93.6598 12.94V21.3231H89.8244V12.94C89.8244 11.7529 89.5231 10.8488 88.9204 10.2279C88.3176 9.58863 87.4958 9.26901 86.4547 9.26901C85.3954 9.26901 84.5553 9.58863 83.9343 10.2279C83.3316 10.8488 83.0303 11.7529 83.0303 12.94V21.3231H79.1949V6.1459H83.0303V7.98141C83.5234 7.34218 84.1535 6.83992 84.9206 6.47464C85.7059 6.10937 86.5643 5.92673 87.4958 5.92673C88.6829 5.92673 89.7422 6.18242 90.6737 6.69381C91.6051 7.18693 92.3266 7.89922 92.8379 8.83068C93.3311 7.95402 94.0434 7.25086 94.9748 6.72121C95.9245 6.19155 96.9473 5.92673 98.0431 5.92673Z" fill="#C5C3D2"/>
<path d="M111.737 8.33756C112.23 7.64353 112.906 7.06822 113.764 6.61162C114.641 6.13676 115.636 5.89933 116.75 5.89933C118.047 5.89933 119.216 6.21895 120.257 6.85819C121.316 7.49742 122.147 8.41061 122.75 9.59776C123.371 10.7666 123.681 12.1273 123.681 13.6797C123.681 15.2322 123.371 16.6111 122.75 17.8165C122.147 19.0036 121.316 19.926 120.257 20.5835C119.216 21.241 118.047 21.5697 116.75 21.5697C115.636 21.5697 114.65 21.3414 113.792 20.8848C112.951 20.4282 112.267 19.8529 111.737 19.1589V28.5556H107.902V6.1459H111.737V8.33756ZM119.764 13.6797C119.764 12.7665 119.572 11.9812 119.189 11.3237C118.823 10.6479 118.33 10.1365 117.709 9.78953C117.107 9.44252 116.449 9.26901 115.737 9.26901C115.043 9.26901 114.385 9.45165 113.764 9.81693C113.162 10.1639 112.668 10.6753 112.285 11.3511C111.92 12.0269 111.737 12.8213 111.737 13.7345C111.737 14.6477 111.92 15.4422 112.285 16.1179C112.668 16.7937 113.162 17.3142 113.764 17.6795C114.385 18.0265 115.043 18.2 115.737 18.2C116.449 18.2 117.107 18.0174 117.709 17.6521C118.33 17.2868 118.823 16.7663 119.189 16.0906C119.572 15.4148 119.764 14.6112 119.764 13.6797Z" fill="#C5C3D2"/>
<path d="M125.482 13.6797C125.482 12.1456 125.784 10.7849 126.386 9.59776C127.007 8.41061 127.838 7.49742 128.879 6.85819C129.939 6.21895 131.117 5.89933 132.413 5.89933C133.546 5.89933 134.532 6.12763 135.372 6.58423C136.231 7.04082 136.915 7.61613 137.427 8.31016V6.1459H141.29V21.3231H137.427V19.1041C136.934 19.8164 136.249 20.41 135.372 20.8848C134.514 21.3414 133.518 21.5697 132.386 21.5697C131.108 21.5697 129.939 21.241 128.879 20.5835C127.838 19.926 127.007 19.0036 126.386 17.8165C125.784 16.6111 125.482 15.2322 125.482 13.6797ZM137.427 13.7345C137.427 12.8031 137.244 12.0086 136.879 11.3511C136.514 10.6753 136.021 10.1639 135.4 9.81693C134.779 9.45165 134.112 9.26901 133.4 9.26901C132.687 9.26901 132.03 9.44252 131.427 9.78953C130.825 10.1365 130.331 10.6479 129.948 11.3237C129.583 11.9812 129.4 12.7665 129.4 13.6797C129.4 14.5929 129.583 15.3965 129.948 16.0906C130.331 16.7663 130.825 17.2868 131.427 17.6521C132.048 18.0174 132.706 18.2 133.4 18.2C134.112 18.2 134.779 18.0265 135.4 17.6795C136.021 17.3142 136.514 16.8028 136.879 16.1453C137.244 15.4696 137.427 14.666 137.427 13.7345Z" fill="#C5C3D2"/>
<path d="M153.446 5.92673C155.254 5.92673 156.715 6.50204 157.829 7.65266C158.944 8.78502 159.501 10.374 159.501 12.4195V21.3231H155.665V12.94C155.665 11.7346 155.364 10.8123 154.761 10.1731C154.158 9.51557 153.337 9.18682 152.295 9.18682C151.236 9.18682 150.396 9.51557 149.775 10.1731C149.172 10.8123 148.871 11.7346 148.871 12.94V21.3231H145.036V6.1459H148.871V8.0362C149.382 7.3787 150.031 6.86732 150.816 6.50204C151.62 6.1185 152.496 5.92673 153.446 5.92673Z" fill="#C5C3D2"/>
<path d="M177.668 6.1459L168.271 28.5008H164.189L167.476 20.9396L161.395 6.1459H165.696L169.613 16.7481L173.586 6.1459H177.668Z" fill="#C5C3D2"/>
<path d="M11.0099 28.3534C5.15394 28.3534 0.425537 23.5887 0.425537 17.7691C0.425537 11.9495 5.15394 7.18475 11.0099 7.18475C16.8294 7.18475 21.5942 11.9132 21.5942 17.7691C21.5578 23.5887 16.8294 28.3534 11.0099 28.3534Z" fill="#7D78A7"/>
<path d="M26.7265 0.419922H12.6429C11.741 0.419922 11.0099 1.15103 11.0099 2.05289V16.1365C11.0099 17.0384 11.741 17.7695 12.6429 17.7695H26.7265C27.6284 17.7695 28.3595 17.0384 28.3595 16.1365V2.05289C28.3595 1.15103 27.6284 0.419922 26.7265 0.419922Z" fill="#BFBBE0"/>
</svg>
