<svg width="200" height="29" viewBox="0 0 200 29" fill="none" xmlns="http://www.w3.org/2000/svg">
<path d="M69.8134 22.0204C68.2192 22.0204 66.8138 21.6743 65.5972 20.9821C64.3806 20.2899 63.4157 19.325 62.7025 18.0874C62.0103 16.8499 61.6642 15.434 61.6642 13.8398C61.6642 12.2456 62.0103 10.8298 62.7025 9.59218C63.4157 8.35459 64.3806 7.3897 65.5972 6.69749C66.8138 6.00528 68.2192 5.65918 69.8134 5.65918C71.8061 5.65918 73.4842 6.18358 74.8476 7.23238C76.211 8.2602 77.0815 9.68657 77.4591 11.5115H73.2115C73.0017 10.7563 72.5822 10.169 71.9529 9.74949C71.3446 9.309 70.6209 9.08875 69.7819 9.08875C68.6702 9.08875 67.7262 9.50827 66.9501 10.3473C66.174 11.1863 65.786 12.3505 65.786 13.8398C65.786 15.3291 66.174 16.4933 66.9501 17.3323C67.7262 18.1714 68.6702 18.5909 69.7819 18.5909C70.6209 18.5909 71.3446 18.3811 71.9529 17.9616C72.5822 17.5421 73.0017 16.9443 73.2115 16.1681H77.4591C77.0815 17.9301 76.211 19.346 74.8476 20.4158C73.4842 21.4856 71.8061 22.0204 69.8134 22.0204Z" fill="#C5C3D2"/>
<path d="M87.8928 22.0204C86.3826 22.0204 85.0191 21.6743 83.8025 20.9821C82.6069 20.2899 81.6525 19.3355 80.9393 18.1189C80.2471 16.8813 79.901 15.455 79.901 13.8398C79.901 12.2247 80.2576 10.8088 80.9708 9.59218C81.684 8.35459 82.6384 7.3897 83.834 6.69749C85.0506 6.00528 86.414 5.65918 87.9243 5.65918C89.4136 5.65918 90.7561 6.00528 91.9517 6.69749C93.1683 7.3897 94.1227 8.35459 94.8149 9.59218C95.5281 10.8088 95.8847 12.2247 95.8847 13.8398C95.8847 15.455 95.5281 16.8813 94.8149 18.1189C94.1227 19.3355 93.1683 20.2899 91.9517 20.9821C90.7351 21.6743 89.3821 22.0204 87.8928 22.0204ZM87.8928 18.5279C88.9416 18.5279 89.8541 18.1399 90.6302 17.3638C91.4063 16.5667 91.7944 15.392 91.7944 13.8398C91.7944 12.2876 91.4063 11.1234 90.6302 10.3473C89.8541 9.55022 88.9521 9.15168 87.9243 9.15168C86.8545 9.15168 85.9316 9.55022 85.1555 10.3473C84.4003 11.1234 84.0228 12.2876 84.0228 13.8398C84.0228 15.392 84.4003 16.5667 85.1555 17.3638C85.9316 18.1399 86.844 18.5279 87.8928 18.5279Z" fill="#C5C3D2"/>
<path d="M98.8563 21.6429V6.03675H102.412L102.758 8.14483C103.261 7.3897 103.922 6.79188 104.74 6.35139C105.579 5.88992 106.544 5.65918 107.635 5.65918C110.047 5.65918 111.757 6.59261 112.763 8.45947C113.33 7.59946 114.085 6.91774 115.029 6.41431C115.994 5.91089 117.042 5.65918 118.175 5.65918C120.21 5.65918 121.773 6.26748 122.863 7.48409C123.954 8.7007 124.499 10.4837 124.499 12.833V21.6429H120.472V13.2105C120.472 11.8681 120.21 10.8402 119.685 10.1271C119.182 9.41388 118.395 9.05729 117.326 9.05729C116.235 9.05729 115.354 9.45583 114.683 10.2529C114.032 11.05 113.707 12.1617 113.707 13.5881V21.6429H109.68V13.2105C109.68 11.8681 109.418 10.8402 108.893 10.1271C108.369 9.41388 107.561 9.05729 106.471 9.05729C105.401 9.05729 104.53 9.45583 103.859 10.2529C103.209 11.05 102.884 12.1617 102.884 13.5881V21.6429H98.8563Z" fill="#C5C3D2"/>
<path d="M127.694 28.565V6.03675H131.281L131.721 8.27069C132.225 7.57848 132.885 6.97018 133.703 6.44578C134.542 5.92138 135.623 5.65918 136.944 5.65918C138.413 5.65918 139.724 6.01577 140.877 6.72895C142.031 7.44214 142.943 8.41752 143.615 9.6551C144.286 10.8927 144.621 12.2981 144.621 13.8713C144.621 15.4445 144.286 16.8499 143.615 18.0874C142.943 19.3041 142.031 20.269 140.877 20.9821C139.724 21.6743 138.413 22.0204 136.944 22.0204C135.77 22.0204 134.742 21.8002 133.861 21.3597C132.98 20.9192 132.267 20.3004 131.721 19.5033V28.565H127.694ZM136.095 18.4965C137.374 18.4965 138.433 18.0665 139.273 17.2065C140.112 16.3464 140.531 15.2347 140.531 13.8713C140.531 12.5078 140.112 11.3856 139.273 10.5046C138.433 9.62364 137.374 9.18314 136.095 9.18314C134.794 9.18314 133.724 9.62364 132.885 10.5046C132.067 11.3646 131.658 12.4764 131.658 13.8398C131.658 15.2033 132.067 16.3255 132.885 17.2065C133.724 18.0665 134.794 18.4965 136.095 18.4965Z" fill="#C5C3D2"/>
<path d="M152.97 22.0204C151.628 22.0204 150.526 21.8107 149.666 21.3912C148.806 20.9507 148.167 20.3738 147.747 19.6606C147.328 18.9475 147.118 18.1609 147.118 17.3008C147.118 15.8535 147.684 14.6789 148.817 13.7769C149.95 12.8749 151.649 12.4239 153.914 12.4239H157.879V12.0464C157.879 10.9766 157.574 10.19 156.966 9.68657C156.358 9.18314 155.603 8.93143 154.701 8.93143C153.883 8.93143 153.169 9.1307 152.561 9.52925C151.953 9.90682 151.575 10.4732 151.428 11.2283H147.495C147.6 10.0956 147.978 9.10973 148.628 8.27069C149.299 7.43165 150.159 6.79188 151.208 6.35139C152.257 5.88992 153.432 5.65918 154.732 5.65918C156.956 5.65918 158.707 6.21504 159.987 7.32677C161.266 8.4385 161.906 10.0117 161.906 12.0464V21.6429H158.476L158.099 19.1258C157.637 19.9648 156.987 20.657 156.148 21.2024C155.33 21.7478 154.271 22.0204 152.97 22.0204ZM153.883 18.874C155.036 18.874 155.928 18.4965 156.557 17.7413C157.207 16.9862 157.616 16.0528 157.784 14.9411H154.355C153.285 14.9411 152.519 15.1403 152.058 15.5389C151.596 15.9164 151.366 16.3884 151.366 16.9547C151.366 17.563 151.596 18.035 152.058 18.3706C152.519 18.7062 153.127 18.874 153.883 18.874Z" fill="#C5C3D2"/>
<path d="M165.12 21.6429V6.03675H168.675L168.99 8.67972C169.472 7.75678 170.165 7.02262 171.067 6.47724C171.99 5.93187 173.07 5.65918 174.307 5.65918C176.237 5.65918 177.737 6.26748 178.807 7.48409C179.877 8.7007 180.411 10.4837 180.411 12.833V21.6429H176.384V13.2105C176.384 11.8681 176.111 10.8402 175.566 10.1271C175.021 9.41388 174.171 9.05729 173.017 9.05729C171.885 9.05729 170.951 9.45583 170.217 10.2529C169.504 11.05 169.147 12.1617 169.147 13.5881V21.6429H165.12Z" fill="#C5C3D2"/>
<path d="M185.062 28.565L188.68 20.6046H187.736L181.664 6.03675H186.037L190.411 17.0177L194.973 6.03675H199.252L189.341 28.565H185.062Z" fill="#C5C3D2"/>
<path d="M15.6729 25.9411C14.6694 26.9446 13.0419 26.9432 12.0401 25.938L1.80864 15.6714C0.809254 14.6686 0.810648 13.0459 1.81175 12.0448L12.0432 1.81334C13.0443 0.812233 14.667 0.810843 15.6698 1.81023L25.9364 12.0417C26.9417 13.0435 26.943 14.671 25.9395 15.6745L15.6729 25.9411Z" fill="#BFBBE0"/>
<path d="M29.5725 25.9364C28.5707 26.9417 26.9432 26.943 25.9397 25.9395L15.6731 15.6729C14.6695 14.6694 14.6709 13.0419 15.6762 12.0401L25.9428 1.80864C26.9456 0.809254 28.5683 0.810648 29.5694 1.81175L39.8008 12.0432C40.8019 13.0443 40.8033 14.667 39.8039 15.6698L29.5725 25.9364Z" fill="#C5C3D2"/>
<path d="M39.8758 25.9384C38.8731 26.9426 37.2458 26.9426 36.2432 25.9384L25.9924 15.6715C24.9908 14.6683 24.9922 13.043 25.9955 12.0415L36.2463 1.8098C37.2482 0.80973 38.8707 0.80973 39.8727 1.8098L50.1234 12.0415C51.1268 13.043 51.1282 14.6683 50.1265 15.6715L39.8758 25.9384Z" fill="#7D78A7"/>
</svg>
