<svg width="138" height="40" viewBox="0 0 138 40" fill="none" xmlns="http://www.w3.org/2000/svg">
<path d="M52.1153 13.6071V15.136C51.1136 13.9761 49.6374 13.2908 47.7658 13.2908C44.1016 13.2908 40.6747 15.9005 40.6747 20.25C40.6747 24.494 43.9435 27.2883 47.8448 27.2883C49.4528 27.2883 50.8499 26.7874 51.8517 25.8384V27.2355C51.8517 29.1071 50.3755 30.2934 48.3984 30.2934C46.6586 30.2934 45.446 29.3708 44.9979 27.8155L41.6237 29.4762C42.4673 32.1123 45.1033 33.8521 48.3984 33.8521C52.4052 33.8521 55.8058 31.2687 55.8058 27.2355V13.6071H52.1153ZM48.3457 23.7032C46.3159 23.7032 44.7606 22.3061 44.7606 20.3027C44.7606 18.2466 46.3686 16.8494 48.3457 16.8494C50.3227 16.8494 51.8517 18.2466 51.8517 20.3027C51.8517 22.3061 50.3755 23.7032 48.3457 23.7032ZM65.7583 13.4489C63.9922 13.4489 62.5951 13.9761 61.857 15.7687V13.6071H58.1665V28H62.1206V20.25C62.1206 18.1148 63.4386 16.8758 65.3629 16.8758H67.2609V13.4489H65.7583ZM75.4926 28.3163C79.7631 28.3163 83.1899 25.153 83.1899 20.8035C83.1899 16.454 79.7631 13.2908 75.4926 13.2908C71.2222 13.2908 67.7953 16.454 67.7953 20.8035C67.7953 25.153 71.2222 28.3163 75.4926 28.3163ZM75.4926 24.7576C73.3311 24.7576 71.8812 23.1233 71.8812 20.8035C71.8812 18.5102 73.3311 16.8494 75.4926 16.8494C77.6542 16.8494 79.104 18.5102 79.104 20.8035C79.104 23.1233 77.6542 24.7576 75.4926 24.7576ZM102.572 13.6071L99.9358 22.2007L97.1415 13.6071H92.7393L89.9451 22.2007L87.2826 13.6071H83.1967L88.1525 28H91.6321L94.9536 18.4047L98.2487 28H101.728L106.684 13.6071H102.572ZM114.635 28.1582C115.241 28.1582 115.953 28.1054 116.48 28.0264V24.9158C116.111 24.9685 115.795 24.9949 115.558 24.9949C113.897 24.9949 113.106 24.2831 113.106 22.807V17.034H116.48V13.6071H113.106V9.28393H109.152V11.3928C109.152 12.869 108.335 13.6071 106.859 13.6071H106.674V17.034H109.152V22.807C109.152 26.1811 111.156 28.1582 114.635 28.1582ZM125.795 13.2908C124.187 13.2908 122.816 13.818 122.025 14.9251V8.36131H118.071V28H122.025V19.5646C122.025 17.9302 123.106 16.8494 124.661 16.8494C126.217 16.8494 127.297 17.9302 127.297 19.5646V28H131.251V18.721C131.251 15.4523 129.037 13.2908 125.795 13.2908Z" fill="#101139"/>
<g filter="url(#filter0_d)">
<rect x="5" y="21.0739" width="6.59016" height="11.877" rx="3.29508" fill="#F4263E"/>
<rect x="14.8853" y="10.9836" width="6.59016" height="21.9672" rx="3.29508" fill="#F4263E"/>
<rect x="24.7705" y="3.2951" width="6.59016" height="29.6557" rx="3.29508" fill="#F4263E"/>
</g>
<circle cx="135.65" cy="26.0424" r="2.16441" fill="#F4263E"/>
<defs>
<filter id="filter0_d" x="0.606557" y="1.09838" width="35.1476" height="38.4426" filterUnits="userSpaceOnUse" color-interpolation-filters="sRGB">
<feFlood flood-opacity="0" result="BackgroundImageFix"/>
<feColorMatrix in="SourceAlpha" type="matrix" values="0 0 0 0 0 0 0 0 0 0 0 0 0 0 0 0 0 0 127 0"/>
<feOffset dy="2.19672"/>
<feGaussianBlur stdDeviation="2.19672"/>
<feColorMatrix type="matrix" values="0 0 0 0 0.956863 0 0 0 0 0.14902 0 0 0 0 0.243137 0 0 0 0.21 0"/>
<feBlend mode="normal" in2="BackgroundImageFix" result="effect1_dropShadow"/>
<feBlend mode="normal" in="SourceGraphic" in2="effect1_dropShadow" result="shape"/>
</filter>
</defs>
</svg>
