<svg width="193" height="32" viewBox="0 0 193 32" fill="none" xmlns="http://www.w3.org/2000/svg">
<g clip-path="url(#clip0)">
<path d="M69.0132 21.0004C67.4929 21.0004 66.1525 20.6703 64.9922 20.0102C63.832 19.35 62.9118 18.4298 62.2316 17.2495C61.5714 16.0692 61.2414 14.7189 61.2414 13.1986C61.2414 11.6782 61.5714 10.3279 62.2316 9.1476C62.9118 7.96733 63.832 7.04711 64.9922 6.38696C66.1525 5.72681 67.4929 5.39673 69.0132 5.39673C70.9137 5.39673 72.5141 5.89685 73.8144 6.89708C75.1146 7.87731 75.9448 9.23762 76.3049 10.978H72.254C72.0539 10.2578 71.6538 9.69773 71.0537 9.29762C70.4735 8.87757 69.7834 8.66754 68.9832 8.66754C67.9229 8.66754 67.0227 9.06756 66.2826 9.86779C65.5424 10.6679 65.1723 11.7782 65.1723 13.1986C65.1723 14.6189 65.5424 15.7291 66.2826 16.5294C67.0227 17.3295 67.9229 17.7296 68.9832 17.7296C69.7834 17.7296 70.4735 17.5296 71.0537 17.1295C71.6538 16.7293 72.0539 16.1593 72.254 15.4191H76.3049C75.9448 17.0994 75.1146 18.4498 73.8144 19.47C72.5141 20.4902 70.9137 21.0004 69.0132 21.0004Z" fill="#1F2559"/>
<path d="M86.2556 21.0004C84.8154 21.0004 83.5147 20.6703 82.3542 20.0102C81.2141 19.35 80.3041 18.4397 79.624 17.2795C78.9638 16.0993 78.6338 14.7389 78.6338 13.1986C78.6338 11.6582 78.9738 10.3079 79.654 9.1476C80.3341 7.96733 81.2441 7.04711 82.3842 6.38696C83.5447 5.72681 84.8454 5.39673 86.2856 5.39673C87.7055 5.39673 88.986 5.72681 90.1261 6.38696C91.2866 7.04711 92.1972 7.96733 92.8573 9.1476C93.5369 10.3079 93.8775 11.6582 93.8775 13.1986C93.8775 14.7389 93.5369 16.0993 92.8573 17.2795C92.1972 18.4397 91.2866 19.35 90.1261 20.0102C88.9665 20.6703 87.6755 21.0004 86.2556 21.0004ZM86.2556 17.6696C87.2555 17.6696 88.1256 17.2995 88.866 16.5594C89.6063 15.7991 89.9761 14.6789 89.9761 13.1986C89.9761 11.7182 89.6063 10.6079 88.866 9.86779C88.1256 9.10762 87.266 8.72754 86.2856 8.72754C85.2654 8.72754 84.3848 9.10762 83.6452 9.86779C82.9251 10.6079 82.5651 11.7182 82.5651 13.1986C82.5651 14.6789 82.9251 15.7991 83.6452 16.5594C84.3848 17.2995 85.2549 17.6696 86.2556 17.6696Z" fill="#1F2559"/>
<path d="M96.7116 20.6403V5.75681H100.102L100.432 7.76729C100.912 7.04711 101.542 6.47699 102.322 6.05689C103.123 5.61678 104.043 5.39673 105.084 5.39673C107.384 5.39673 109.014 6.28694 109.974 8.06735C110.514 7.24716 111.234 6.59701 112.135 6.11689C113.055 5.63679 114.056 5.39673 115.136 5.39673C117.076 5.39673 118.566 5.97686 119.606 7.13713C120.647 8.29743 121.167 9.99778 121.167 12.2384V20.6403H117.326V12.5984C117.326 11.3181 117.076 10.3379 116.576 9.65775C116.096 8.97755 115.346 8.63745 114.326 8.63745C113.285 8.63745 112.445 9.01761 111.805 9.77777C111.185 10.5379 110.874 11.5982 110.874 12.9585V20.6403H107.034V12.5984C107.034 11.3181 106.783 10.3379 106.284 9.65775C105.783 8.97755 105.013 8.63745 103.973 8.63745C102.952 8.63745 102.123 9.01761 101.482 9.77777C100.862 10.5379 100.552 11.5982 100.552 12.9585V20.6403H96.7116Z" fill="#1F2559"/>
<path d="M124.213 27.2418V5.75681H127.635L128.055 7.88731C128.535 7.22715 129.165 6.64702 129.945 6.14691C130.745 5.64679 131.775 5.39673 133.035 5.39673C134.436 5.39673 135.686 5.73681 136.787 6.41697C137.886 7.09713 138.757 8.02734 139.397 9.20761C140.037 10.3879 140.357 11.7282 140.357 13.2286C140.357 14.729 140.037 16.0692 139.397 17.2495C138.757 18.4097 137.886 19.33 136.787 20.0102C135.686 20.6703 134.436 21.0004 133.035 21.0004C131.915 21.0004 130.935 20.7903 130.095 20.3702C129.255 19.9502 128.574 19.36 128.055 18.5998V27.2418H124.213ZM132.225 17.6396C133.446 17.6396 134.456 17.2295 135.256 16.4093C136.056 15.5891 136.457 14.5289 136.457 13.2286C136.457 11.9283 136.056 10.858 135.256 10.0178C134.456 9.17761 133.446 8.75755 132.225 8.75755C130.985 8.75755 129.964 9.17761 129.165 10.0178C128.385 10.838 127.995 11.8983 127.995 13.1986C127.995 14.4989 128.385 15.5691 129.165 16.4093C129.964 17.2295 130.985 17.6396 132.225 17.6396Z" fill="#1F2559"/>
<path d="M148.32 21.0004C147.039 21.0004 145.989 20.8003 145.168 20.4002C144.349 19.9802 143.738 19.43 143.338 18.7498C142.938 18.0697 142.738 17.3195 142.738 16.4994C142.738 15.119 143.278 13.9987 144.358 13.1386C145.438 12.2783 147.059 11.8482 149.22 11.8482H153V11.4882C153 10.4679 152.711 9.71776 152.13 9.23762C151.55 8.75755 150.83 8.51743 149.97 8.51743C149.19 8.51743 148.509 8.70751 147.93 9.08759C147.349 9.44765 146.989 9.9878 146.849 10.708H143.098C143.198 9.62775 143.558 8.68748 144.178 7.88731C144.819 7.08712 145.639 6.47699 146.639 6.05689C147.639 5.61678 148.759 5.39673 150 5.39673C152.12 5.39673 153.791 5.92685 155.011 6.98711C156.231 8.04735 156.842 9.54771 156.842 11.4882V20.6403H153.57L153.21 18.2398C152.771 19.0399 152.15 19.7001 151.35 20.2202C150.57 20.7403 149.56 21.0004 148.32 21.0004ZM149.19 17.9997C150.29 17.9997 151.14 17.6396 151.74 16.9194C152.36 16.1992 152.751 15.309 152.91 14.2488H149.64C148.62 14.2488 147.889 14.4388 147.45 14.819C147.009 15.179 146.789 15.6292 146.789 16.1692C146.789 16.7494 147.009 17.1995 147.45 17.5196C147.889 17.8397 148.47 17.9997 149.19 17.9997Z" fill="#1F2559"/>
<path d="M159.907 20.6403V5.75681H163.297L163.598 8.2774C164.057 7.3972 164.717 6.69704 165.578 6.17691C166.458 5.65679 167.488 5.39673 168.669 5.39673C170.509 5.39673 171.939 5.97686 172.96 7.13713C173.98 8.29743 174.49 9.99778 174.49 12.2384V20.6403H170.649V12.5984C170.649 11.3181 170.389 10.3379 169.869 9.65775C169.349 8.97755 168.538 8.63745 167.438 8.63745C166.358 8.63745 165.467 9.01761 164.768 9.77777C164.087 10.5379 163.748 11.5982 163.748 12.9585V20.6403H159.907Z" fill="#1F2559"/>
<path d="M178.925 27.2419L182.376 19.6501H181.475L175.684 5.75684H179.855L184.026 16.2293L188.377 5.75684H192.458L183.006 27.2419H178.925Z" fill="#1F2559"/>
<g filter="url(#filter0_d)">
<path d="M16.9146 24.6145C16.2149 25.3142 15.0802 25.3132 14.3818 24.6123L4.28463 14.4805C3.58787 13.7813 3.58884 12.65 4.2868 11.9521L14.384 1.85491C15.0819 1.15696 16.2132 1.15599 16.9124 1.85275L27.0442 11.9499C27.7451 12.6484 27.7461 13.783 27.0464 14.4827L16.9146 24.6145Z" fill="#782CE4"/>
</g>
<path d="M16.9729 25.1463C16.2406 25.8786 15.0528 25.8777 14.3218 25.144L3.75269 14.5387C3.02337 13.8068 3.02438 12.6226 3.75496 11.8921L14.324 1.32301C15.0546 0.592435 16.2388 0.59142 16.9706 1.32074L27.576 11.8898C28.3096 12.6209 28.3106 13.8086 27.5783 14.5409L16.9729 25.1463Z" fill="#782CE4"/>
<g filter="url(#filter1_d)">
<path d="M29.1527 24.6121C28.4542 25.313 27.3194 25.314 26.6197 24.6143L16.4871 14.4816C15.7873 13.7819 15.7883 12.6471 16.4892 11.9486L26.6219 1.85059C27.3211 1.15377 28.4526 1.15475 29.1506 1.85276L39.2485 11.9508C39.9465 12.6488 39.9475 13.7802 39.2507 14.4794L29.1527 24.6121Z" fill="#FFCD1D"/>
</g>
<path d="M29.2126 25.1431C28.4815 25.8766 27.2938 25.8777 26.5615 25.1453L15.9561 14.54C15.2238 13.8076 15.2248 12.6199 15.9584 11.8888L26.5638 1.31977C27.2956 0.590443 28.4798 0.591459 29.2104 1.32204L39.7794 11.8911C40.51 12.6217 40.511 13.8059 39.7817 14.5377L29.2126 25.1431Z" fill="#FFCD1D"/>
<g filter="url(#filter2_d)">
<path d="M39.9962 24.6132C39.2972 25.3135 38.1625 25.3135 37.4634 24.6132L27.3466 14.4806C26.6482 13.7811 26.6492 12.6479 27.3487 11.9496L37.4656 1.85157C38.1642 1.15429 39.2954 1.15429 39.9941 1.85157L50.1108 11.9496C50.8105 12.6479 50.8114 13.7811 50.113 14.4806L39.9962 24.6132Z" fill="#F4263E"/>
</g>
<path d="M40.0553 25.1444C39.3236 25.8773 38.136 25.8773 37.4043 25.1444L26.8154 14.5389C26.0844 13.8068 26.0855 12.6206 26.8176 11.8898L37.4066 1.32056C38.1378 0.590738 39.3219 0.590739 40.0531 1.32056L50.6419 11.8898C51.3742 12.6206 51.3752 13.8068 50.6442 14.5389L40.0553 25.1444Z" fill="#F4263E"/>
</g>
<defs>
<filter id="filter0_d" x="0.162995" y="0.430881" width="31.0072" height="31.0072" filterUnits="userSpaceOnUse" color-interpolation-filters="sRGB">
<feFlood flood-opacity="0" result="BackgroundImageFix"/>
<feColorMatrix in="SourceAlpha" type="matrix" values="0 0 0 0 0 0 0 0 0 0 0 0 0 0 0 0 0 0 127 0"/>
<feOffset dy="2.69977"/>
<feGaussianBlur stdDeviation="1.79985"/>
<feColorMatrix type="matrix" values="0 0 0 0 0.470588 0 0 0 0 0.172549 0 0 0 0 0.894118 0 0 0 0.21 0"/>
<feBlend mode="normal" in2="BackgroundImageFix" result="effect1_dropShadow"/>
<feBlend mode="normal" in="SourceGraphic" in2="effect1_dropShadow" result="shape"/>
</filter>
<filter id="filter1_d" x="12.3632" y="1.3286" width="31.0092" height="31.0092" filterUnits="userSpaceOnUse" color-interpolation-filters="sRGB">
<feFlood flood-opacity="0" result="BackgroundImageFix"/>
<feColorMatrix in="SourceAlpha" type="matrix" values="0 0 0 0 0 0 0 0 0 0 0 0 0 0 0 0 0 0 127 0"/>
<feOffset dy="3.59969"/>
<feGaussianBlur stdDeviation="1.79985"/>
<feColorMatrix type="matrix" values="0 0 0 0 1 0 0 0 0 0.80475 0 0 0 0 0.1125 0 0 0 0.26 0"/>
<feBlend mode="normal" in2="BackgroundImageFix" result="effect1_dropShadow"/>
<feBlend mode="normal" in="SourceGraphic" in2="effect1_dropShadow" result="shape"/>
</filter>
<filter id="filter2_d" x="23.2237" y="0.428683" width="31.0122" height="31.0092" filterUnits="userSpaceOnUse" color-interpolation-filters="sRGB">
<feFlood flood-opacity="0" result="BackgroundImageFix"/>
<feColorMatrix in="SourceAlpha" type="matrix" values="0 0 0 0 0 0 0 0 0 0 0 0 0 0 0 0 0 0 127 0"/>
<feOffset dy="2.69977"/>
<feGaussianBlur stdDeviation="1.79985"/>
<feColorMatrix type="matrix" values="0 0 0 0 0.956863 0 0 0 0 0.14902 0 0 0 0 0.243137 0 0 0 0.32 0"/>
<feBlend mode="normal" in2="BackgroundImageFix" result="effect1_dropShadow"/>
<feBlend mode="normal" in="SourceGraphic" in2="effect1_dropShadow" result="shape"/>
</filter>
<clipPath id="clip0">
<rect width="193" height="31.6261" fill="white"/>
</clipPath>
</defs>
</svg>
