<svg width="177" height="29" viewBox="0 0 177 29" fill="none" xmlns="http://www.w3.org/2000/svg">
<path d="M22.8207 12.305C19.087 12.305 16.0562 9.28573 16.0562 5.57504C16.0562 5.09104 16.1138 4.63008 16.206 4.16913H7.21738C3.73717 4.16913 0.913818 6.98095 0.913818 10.4381V22.0196C0.913818 25.4883 3.73717 28.2886 7.21738 28.2886H18.8565C22.3482 28.2886 25.1601 25.4768 25.1601 22.0196V11.8786C24.4456 12.1437 23.6504 12.305 22.8207 12.305Z" fill="#BFBBE0"/>
<path d="M25.1712 22.0196V11.8786C24.4452 12.1437 23.65 12.305 22.8318 12.305C19.0981 12.305 16.0673 9.28573 16.0673 5.57504C16.0673 5.09104 16.1249 4.63008 16.2171 4.16913H7.22849C3.77132 4.16913 0.971022 6.93486 0.924927 10.369C9.22212 13.7916 17.7498 17.9517 25.1251 22.8148C25.1481 22.5497 25.1712 22.2847 25.1712 22.0196Z" fill="#BFBBE0"/>
<path d="M23.3392 9.98016C26.0473 9.98016 28.2368 7.80214 28.2368 5.10556C28.2368 2.42049 26.0473 0.230957 23.3392 0.230957C20.6311 0.230957 18.4415 2.40897 18.4415 5.10556C18.4415 7.79062 20.6311 9.98016 23.3392 9.98016Z" fill="#7D78A7"/>
<path d="M53.0121 16.181C52.8194 17.0003 52.4941 17.7954 52.0363 18.5664C51.5785 19.3133 51.0123 19.988 50.3376 20.5904C49.663 21.1686 48.8919 21.6385 48.0245 21.9999C47.1571 22.3372 46.2295 22.5059 45.2416 22.5059C44.1092 22.5059 43.0369 22.289 42.025 21.8553C41.0371 21.3975 40.1576 20.7831 39.3866 20.0121C38.6397 19.2411 38.0373 18.3496 37.5795 17.3376C37.1458 16.3015 36.929 15.1932 36.929 14.0125C36.929 12.8319 37.1458 11.7356 37.5795 10.7236C38.0373 9.68754 38.6397 8.78399 39.3866 8.01296C40.1576 7.24193 41.0371 6.63957 42.025 6.20586C43.0369 5.74806 44.1092 5.51917 45.2416 5.51917C46.2295 5.51917 47.1571 5.69987 48.0245 6.06129C48.8919 6.39862 49.663 6.86846 50.3376 7.47083C51.0123 8.0491 51.5785 8.72375 52.0363 9.49478C52.4941 10.2417 52.8194 11.0248 53.0121 11.844H48.8558C48.663 11.4103 48.398 11.0248 48.0607 10.6875C47.7715 10.3983 47.3981 10.1333 46.9403 9.89234C46.4825 9.6273 45.9163 9.49478 45.2416 9.49478C44.061 9.49478 43.0731 9.90439 42.278 10.7236C41.4828 11.5428 41.0853 12.6391 41.0853 14.0125C41.0853 15.3859 41.4828 16.4822 42.278 17.3014C43.0731 18.1207 44.061 18.5303 45.2416 18.5303C45.9163 18.5303 46.4825 18.4098 46.9403 18.1688C47.3981 17.9279 47.7715 17.6629 48.0607 17.3737C48.398 17.0364 48.663 16.6388 48.8558 16.181H53.0121Z" fill="#C5C3D2"/>
<path d="M59.8791 14.0125C59.8791 15.3859 60.2767 16.4822 61.0718 17.3014C61.8669 18.1207 62.8548 18.5303 64.0354 18.5303C65.2161 18.5303 66.2039 18.1207 66.9991 17.3014C67.7942 16.4822 68.1917 15.3859 68.1917 14.0125C68.1917 12.6391 67.7942 11.5428 66.9991 10.7236C66.2039 9.90439 65.2161 9.49478 64.0354 9.49478C62.8548 9.49478 61.8669 9.90439 61.0718 10.7236C60.2767 11.5428 59.8791 12.6391 59.8791 14.0125ZM72.3481 14.0125C72.3481 15.1932 72.1192 16.3015 71.6614 17.3376C71.2277 18.3496 70.6253 19.2411 69.8543 20.0121C69.1073 20.7831 68.2279 21.3975 67.2159 21.8553C66.228 22.289 65.1679 22.5059 64.0354 22.5059C62.903 22.5059 61.8308 22.289 60.8188 21.8553C59.8309 21.3975 58.9514 20.7831 58.1804 20.0121C57.4335 19.2411 56.8311 18.3496 56.3733 17.3376C55.9396 16.3015 55.7228 15.1932 55.7228 14.0125C55.7228 12.8319 55.9396 11.7356 56.3733 10.7236C56.8311 9.68754 57.4335 8.78399 58.1804 8.01296C58.9514 7.24193 59.8309 6.63957 60.8188 6.20586C61.8308 5.74806 62.903 5.51917 64.0354 5.51917C65.1679 5.51917 66.228 5.74806 67.2159 6.20586C68.2279 6.63957 69.1073 7.24193 69.8543 8.01296C70.6253 8.78399 71.2277 9.68754 71.6614 10.7236C72.1192 11.7356 72.3481 12.8319 72.3481 14.0125Z" fill="#C5C3D2"/>
<path d="M83.8965 5.51917C84.7399 5.51917 85.4627 5.63964 86.0651 5.88059C86.6674 6.09744 87.1614 6.33838 87.5469 6.60342C87.9806 6.91665 88.33 7.27807 88.595 7.68768C88.9805 7.27807 89.4263 6.91665 89.9322 6.60342C90.3659 6.33838 90.884 6.09744 91.4864 5.88059C92.0887 5.63964 92.7513 5.51917 93.4742 5.51917C95.2813 5.51917 96.7269 6.09744 97.8112 7.25398C98.8955 8.41052 99.4376 10.1212 99.4376 12.3861V22.3252H95.2813V12.7476C95.2813 11.7356 95.0042 10.9405 94.45 10.3622C93.9199 9.78392 93.2934 9.49478 92.5706 9.49478C91.8478 9.49478 91.2093 9.78392 90.6551 10.3622C90.125 10.9405 89.86 11.7356 89.86 12.7476V22.3252H85.7036V12.7476C85.7036 11.7356 85.4266 10.9405 84.8724 10.3622C84.3423 9.78392 83.7158 9.49478 82.993 9.49478C82.2702 9.49478 81.6316 9.78392 81.0775 10.3622C80.5474 10.9405 80.2823 11.7356 80.2823 12.7476V22.3252H76.126V5.69988H79.1981L79.9209 7.32626C80.2583 6.98894 80.6317 6.68775 81.0413 6.42271C81.3787 6.20586 81.7883 6.00106 82.2702 5.8083C82.752 5.61554 83.2942 5.51917 83.8965 5.51917Z" fill="#C5C3D2"/>
<path d="M112.449 5.51917C113.485 5.51917 114.473 5.73602 115.412 6.16972C116.352 6.57933 117.171 7.16965 117.87 7.94068C118.593 8.68761 119.159 9.57911 119.569 10.6152C120.002 11.6512 120.219 12.7837 120.219 14.0125C120.219 15.2414 120.002 16.3738 119.569 17.4099C119.159 18.4459 118.593 19.3495 117.87 20.1205C117.171 20.8674 116.352 21.4578 115.412 21.8915C114.473 22.3011 113.485 22.5059 112.449 22.5059C111.75 22.5059 111.136 22.4216 110.605 22.2529C110.099 22.0842 109.654 21.9035 109.268 21.7108C108.834 21.4698 108.449 21.1927 108.112 20.8795V28.1079H103.955V5.69988H107.027L107.75 7.32626C108.112 6.98894 108.533 6.68775 109.015 6.42271C109.425 6.20586 109.919 6.00106 110.497 5.8083C111.075 5.61554 111.726 5.51917 112.449 5.51917ZM107.75 14.0125C107.75 15.3859 108.148 16.4822 108.943 17.3014C109.738 18.1207 110.726 18.5303 111.907 18.5303C113.087 18.5303 114.075 18.1207 114.87 17.3014C115.665 16.4822 116.063 15.3859 116.063 14.0125C116.063 12.6391 115.665 11.5428 114.87 10.7236C114.075 9.90439 113.087 9.49478 111.907 9.49478C110.726 9.49478 109.738 9.90439 108.943 10.7236C108.148 11.5428 107.75 12.6391 107.75 14.0125Z" fill="#C5C3D2"/>
<path d="M130.887 5.51917C131.826 5.51917 132.694 5.68783 133.489 6.02515C134.284 6.33838 134.971 6.78413 135.549 7.3624C136.127 7.94068 136.573 8.62737 136.886 9.4225C137.224 10.2176 137.392 11.085 137.392 12.0247V22.3252H134.32L133.597 20.6988C133.212 21.0361 132.79 21.3373 132.332 21.6023C131.923 21.8433 131.429 22.0601 130.851 22.2529C130.272 22.4216 129.622 22.5059 128.899 22.5059C127.092 22.5059 125.706 22.0722 124.743 21.2048C123.779 20.3133 123.297 19.1808 123.297 17.8074C123.297 16.9882 123.454 16.2413 123.767 15.5666C124.104 14.8679 124.658 14.2776 125.429 13.7957C126.2 13.2897 127.212 12.9042 128.465 12.6391C129.742 12.35 131.332 12.2054 133.236 12.2054C133.236 11.2898 132.983 10.579 132.477 10.0731C131.995 9.56706 131.345 9.31407 130.525 9.31407C129.971 9.31407 129.525 9.41045 129.188 9.6032C128.875 9.79596 128.622 10.0008 128.429 10.2176C128.212 10.4827 128.068 10.7838 127.995 11.1212H123.839C123.935 10.3501 124.152 9.6273 124.49 8.95265C124.851 8.278 125.333 7.68768 125.935 7.18169C126.538 6.67571 127.248 6.27815 128.068 5.98901C128.911 5.67578 129.851 5.51917 130.887 5.51917ZM129.622 19.2531C130.706 19.2531 131.573 18.9399 132.224 18.3134C132.899 17.6629 133.236 16.8316 133.236 15.8196V15.0968C132.007 15.0968 131.019 15.157 130.272 15.2775C129.525 15.3739 128.935 15.5305 128.501 15.7473C128.092 15.9401 127.815 16.181 127.67 16.4702C127.526 16.7593 127.453 17.0846 127.453 17.446C127.453 17.9038 127.658 18.3255 128.068 18.711C128.477 19.0724 128.995 19.2531 129.622 19.2531Z" fill="#C5C3D2"/>
<path d="M150.389 5.51917C151.377 5.51917 152.281 5.68783 153.1 6.02515C153.919 6.33838 154.618 6.80823 155.196 7.43469C155.798 8.03705 156.256 8.77194 156.57 9.63935C156.907 10.5068 157.076 11.4826 157.076 12.5668V22.3252H152.919V13.109C152.919 12.0247 152.594 11.1573 151.943 10.5068C151.317 9.8321 150.498 9.49478 149.486 9.49478C148.474 9.49478 147.642 9.8321 146.992 10.5068C146.365 11.1573 146.052 12.0247 146.052 13.109V22.3252H141.896V5.69988H144.968L145.691 7.32626C146.1 6.98894 146.546 6.68775 147.028 6.42271C147.438 6.20586 147.92 6.00106 148.474 5.8083C149.052 5.61554 149.691 5.51917 150.389 5.51917Z" fill="#C5C3D2"/>
<path d="M159.8 5.69988H164.137L168.294 16.5425L172.089 5.69988H176.426C175.245 8.7358 174.173 11.4826 173.209 13.9402C172.799 15.0004 172.39 16.0365 171.98 17.0484C171.595 18.0604 171.245 18.9881 170.932 19.8314C170.619 20.6506 170.354 21.3373 170.137 21.8915C169.92 22.4456 169.787 22.7709 169.739 22.8673C169.33 23.8552 168.92 24.6864 168.51 25.3611C168.125 26.0598 167.703 26.6261 167.246 27.0598C166.788 27.4935 166.294 27.8067 165.764 27.9995C165.234 28.1922 164.631 28.2886 163.957 28.2886C163.764 28.2886 163.571 28.2765 163.378 28.2525C163.21 28.2525 163.065 28.2404 162.945 28.2163C162.776 28.1922 162.631 28.1561 162.511 28.1079V24.6744C163.427 24.6744 164.125 24.4696 164.607 24.06C165.113 23.6504 165.499 23.1323 165.764 22.5059L166.125 21.6023L159.8 5.69988Z" fill="#C5C3D2"/>
</svg>
