<svg width="173" height="29" viewBox="0 0 173 29" fill="none" xmlns="http://www.w3.org/2000/svg">
<path d="M59.9757 15.1839C58.7217 17.2183 56.9382 18.3887 54.6251 18.3887C51.281 18.3887 48.8287 15.6856 48.8287 12.2021C48.8287 8.71863 51.1696 6.04333 54.6809 6.04333C56.9103 6.04333 58.9168 7.29737 59.92 9.19238L63.1527 6.62855C61.5085 3.70244 58.5266 1.94678 54.7366 1.94678C48.6615 1.94678 44.3977 6.46134 44.3977 12.2021C44.3977 17.9428 48.7451 22.4853 54.6809 22.4853C58.4152 22.4853 61.5363 20.5067 63.2363 17.692L59.9757 15.1839Z" fill="#C5C3D2"/>
<path d="M72.0886 7.52032C67.6298 7.52032 64.425 10.753 64.425 14.9889C64.425 19.1969 67.6298 22.4853 72.0886 22.4853C76.5474 22.4853 79.7522 19.1969 79.7522 14.9889C79.7522 10.753 76.5474 7.52032 72.0886 7.52032ZM72.0886 11.2825C74.0115 11.2825 75.4606 12.7594 75.4606 14.9889C75.4606 17.2183 74.0115 18.7231 72.0886 18.7231C70.1657 18.7231 68.7166 17.2183 68.7166 14.9889C68.7166 12.7594 70.1657 11.2825 72.0886 11.2825Z" fill="#C5C3D2"/>
<path d="M82.5209 7.85473V22.1509H86.7568V14.7102C86.7568 12.843 87.7322 11.2546 89.5157 11.2546C91.0763 11.2546 92.0796 12.23 92.0796 14.0971V22.1509H96.3154V14.7102C96.3154 12.843 97.2908 11.2546 99.0743 11.2546C100.635 11.2546 101.61 12.23 101.61 14.0971V22.1509H105.846V13.4561C105.846 9.74973 103.756 7.52032 100.328 7.52032C97.9039 7.52032 96.5384 8.57929 95.5073 10.0284C94.5319 8.43995 92.9713 7.52032 90.7698 7.52032C88.9026 7.52032 87.5092 8.24488 86.5896 9.694V7.85473H82.5209Z" fill="#C5C3D2"/>
<path d="M116.96 11.2546C118.771 11.2546 120.276 12.7316 120.276 15.0446C120.276 17.274 118.771 18.751 116.96 18.751C115.065 18.751 113.588 17.3019 113.588 15.0446C113.588 12.7037 115.065 11.2546 116.96 11.2546ZM113.393 7.85473H109.463V27.7244H113.699V20.5903C114.591 21.9279 116.291 22.4853 117.824 22.4853C121.725 22.4853 124.54 19.2526 124.54 14.9889C124.54 10.5858 121.502 7.52032 117.852 7.52032C116.458 7.52032 114.507 8.10554 113.393 9.83333V7.85473Z" fill="#C5C3D2"/>
<path d="M134.729 13.2611L130.827 14.0135C127.818 14.6544 126.173 16.1036 126.173 18.2215C126.173 20.7017 128.124 22.4853 130.911 22.4853C132.806 22.4853 134.199 21.6492 134.868 20.3952V22.1509H138.798V13.1496C138.798 9.66613 136.429 7.52032 132.444 7.52032C129.768 7.52032 127.623 8.63502 126.313 10.2235L128.514 12.8988C129.378 11.9234 130.604 11.171 132.193 11.171C133.642 11.171 134.729 11.7283 134.729 13.1496V13.2611ZM131.859 19.3362C130.855 19.3362 130.214 18.7789 130.214 17.9707C130.214 17.1904 130.772 16.6888 131.914 16.4937L134.757 15.9364V16.3544C134.757 18.0543 133.614 19.3362 131.859 19.3362Z" fill="#C5C3D2"/>
<path d="M142.366 7.85473V22.1509H146.602V14.7102C146.602 12.843 147.577 11.2546 149.416 11.2546C150.977 11.2546 151.98 12.23 151.98 14.0971V22.1509H156.216V13.4561C156.216 9.74973 154.098 7.52032 150.67 7.52032C148.747 7.52032 147.354 8.24488 146.434 9.694V7.85473H142.366Z" fill="#C5C3D2"/>
<path d="M163.132 21.6214L162.965 22.0951C162.352 24.1295 161.321 24.4917 160.206 24.4917C159.733 24.4917 159.008 24.436 158.256 24.018V27.5293C158.896 27.8359 159.816 28.0588 160.819 28.0588C163.523 28.0588 165.25 26.7769 166.672 23.3213L172.914 7.85473H168.594L165.25 17.2183L161.934 7.85473H157.503L163.132 21.6214Z" fill="#C5C3D2"/>
<path d="M18.9897 0.0112915H14.5107C14.055 0.0112915 13.6855 0.380727 13.6855 0.83645V24.5465C13.6855 25.0023 14.055 25.3717 14.5107 25.3717H18.9897C19.4454 25.3717 19.8148 25.0023 19.8148 24.5465V0.836451C19.8148 0.380728 19.4454 0.0112915 18.9897 0.0112915Z" fill="#BFBBE0"/>
<path d="M28.0384 25.3715C30.9158 25.3715 33.2485 23.0389 33.2485 20.1614C33.2485 17.2839 30.9158 14.9513 28.0384 14.9513C25.1609 14.9513 22.8282 17.2839 22.8282 20.1614C22.8282 23.0389 25.1609 25.3715 28.0384 25.3715Z" fill="#BFBBE0"/>
<path d="M28.0384 10.4315C30.9158 10.4315 33.2485 8.09886 33.2485 5.2214C33.2485 2.34393 30.9158 0.0112915 28.0384 0.0112915C25.1609 0.0112915 22.8282 2.34393 22.8282 5.2214C22.8282 8.09886 25.1609 10.4315 28.0384 10.4315Z" fill="#7D78A7"/>
<path d="M5.46206 25.3715C8.33952 25.3715 10.6722 23.0389 10.6722 20.1614C10.6722 17.2839 8.33952 14.9513 5.46206 14.9513C2.5846 14.9513 0.251953 17.2839 0.251953 20.1614C0.251953 23.0389 2.5846 25.3715 5.46206 25.3715Z" fill="#7D78A7"/>
</svg>
