<svg width="647" height="424" viewBox="0 0 647 424" fill="none" xmlns="http://www.w3.org/2000/svg">
<path d="M0 0H646.342V423.553H0V0Z" fill="#782CE4"/>
<g filter="url(#filter0_d)">
<path d="M418.621 72.6152H233.592C222.337 72.6152 213.213 81.7911 213.213 93.11V330.505C213.213 341.824 222.337 351 233.592 351H418.621C429.876 351 439 341.824 439 330.505V93.11C439 81.7911 429.876 72.6152 418.621 72.6152Z" fill="white"/>
</g>
<path d="M420.896 70H231.317C219.785 70 210.437 79.3482 210.437 90.8798V332.735C210.437 344.267 219.785 353.615 231.317 353.615H420.896C432.428 353.615 441.776 344.267 441.776 332.735V90.8798C441.776 79.3482 432.428 70 420.896 70Z" fill="white"/>
<path d="M224.285 129.817C224.285 119.381 232.745 110.921 243.181 110.921H409.032C419.468 110.921 427.928 119.381 427.928 129.817V316.953C427.928 327.389 419.468 335.849 409.032 335.849H243.181C232.745 335.849 224.285 327.389 224.285 316.953V129.817Z" fill="#FAFAFC"/>
<g filter="url(#filter1_d)">
<path d="M340.955 303.32H311.257C307.366 303.32 304.212 306.159 304.212 309.66C304.212 313.162 307.366 316 311.257 316H340.955C344.846 316 348 313.162 348 309.66C348 306.159 344.846 303.32 340.955 303.32Z" fill="#782CE4"/>
</g>
<path d="M342.288 301.984H309.924C305.685 301.984 302.248 305.421 302.248 309.66C302.248 313.9 305.685 317.337 309.924 317.337H342.288C346.527 317.337 349.964 313.9 349.964 309.66C349.964 305.421 346.527 301.984 342.288 301.984Z" fill="#782CE4"/>
<g filter="url(#filter2_d)">
<path d="M239.018 97.8586C242.322 97.8586 245 95.1804 245 91.8766C245 88.5728 242.322 85.8945 239.018 85.8945C235.714 85.8945 233.036 88.5728 233.036 91.8766C233.036 95.1804 235.714 97.8586 239.018 97.8586Z" fill="#F4263E"/>
</g>
<path d="M239.018 98.3425C242.589 98.3425 245.484 95.4475 245.484 91.8763C245.484 88.3052 242.589 85.4102 239.018 85.4102C235.447 85.4102 232.552 88.3052 232.552 91.8763C232.552 95.4475 235.447 98.3425 239.018 98.3425Z" fill="#F4263E"/>
<g filter="url(#filter3_d)">
<path d="M260.572 97.3042C263.57 97.3042 266 94.874 266 91.8762C266 88.8784 263.57 86.4482 260.572 86.4482C257.574 86.4482 255.144 88.8784 255.144 91.8762C255.144 94.874 257.574 97.3042 260.572 97.3042Z" fill="#FFCD1D"/>
</g>
<path d="M260.572 98.3425C264.143 98.3425 267.038 95.4475 267.038 91.8763C267.038 88.3052 264.143 85.4102 260.572 85.4102C257.001 85.4102 254.106 88.3052 254.106 91.8763C254.106 95.4475 257.001 98.3425 260.572 98.3425Z" fill="#FFCD1D"/>
<g filter="url(#filter4_d)">
<path d="M282.126 97.7505C285.37 97.7505 288 95.1206 288 91.8765C288 88.6323 285.37 86.0024 282.126 86.0024C278.882 86.0024 276.252 88.6323 276.252 91.8765C276.252 95.1206 278.882 97.7505 282.126 97.7505Z" fill="#83E436"/>
</g>
<path d="M282.126 98.3425C285.697 98.3425 288.592 95.4475 288.592 91.8763C288.592 88.3052 285.697 85.4102 282.126 85.4102C278.555 85.4102 275.66 88.3052 275.66 91.8763C275.66 95.4475 278.555 98.3425 282.126 98.3425Z" fill="#83E436"/>
<path opacity="0.76" d="M312.67 227.926H245.083C241.17 227.926 237.997 231.098 237.997 235.012V286.406C237.997 290.32 241.17 293.492 245.083 293.492H312.67C316.584 293.492 319.756 290.32 319.756 286.406V235.012C319.756 231.098 316.584 227.926 312.67 227.926Z" fill="#E7E8F1"/>
<path opacity="0.76" d="M407.129 227.926H339.542C335.629 227.926 332.456 231.098 332.456 235.012V286.406C332.456 290.32 335.629 293.492 339.542 293.492H407.129C411.043 293.492 414.215 290.32 414.215 286.406V235.012C414.215 231.098 411.043 227.926 407.129 227.926Z" fill="#E7E8F1"/>
<path opacity="0.3" d="M401.225 131.002H343.484C336.309 131.002 330.493 136.818 330.493 143.993V201.734C330.493 208.908 336.309 214.725 343.484 214.725H401.225C408.399 214.725 414.216 208.908 414.216 201.734V143.993C414.216 136.818 408.399 131.002 401.225 131.002Z" fill="#782CE4"/>
<path d="M308.266 140.027H243.312C240.376 140.027 237.997 142.406 237.997 145.341V145.341C237.997 148.276 240.376 150.656 243.312 150.656H308.266C311.201 150.656 313.58 148.276 313.58 145.341C313.58 142.406 311.201 140.027 308.266 140.027Z" fill="#BEBFCC"/>
<path d="M298.231 159.869H241.54C239.583 159.869 237.997 161.455 237.997 163.412C237.997 165.369 239.583 166.955 241.54 166.955H298.231C300.187 166.955 301.774 165.369 301.774 163.412C301.774 161.455 300.187 159.869 298.231 159.869Z" fill="#E7E8F1"/>
<path d="M311.39 172.86H241.54C239.583 172.86 237.997 174.446 237.997 176.403C237.997 178.36 239.583 179.946 241.54 179.946H311.39C313.346 179.946 314.933 178.36 314.933 176.403C314.933 174.446 313.346 172.86 311.39 172.86Z" fill="#E7E8F1"/>
<g filter="url(#filter5_d)">
<path d="M276.875 192H246.835C242.9 192 239.71 194.696 239.71 198.023C239.71 201.349 242.9 204.045 246.835 204.045H276.875C280.81 204.045 284 201.349 284 198.023C284 194.696 280.81 192 276.875 192Z" fill="#782CE4"/>
</g>
<path d="M278.037 190.346H245.673C241.434 190.346 237.997 193.783 237.997 198.023C237.997 202.262 241.434 205.699 245.673 205.699H278.037C282.276 205.699 285.713 202.262 285.713 198.023C285.713 193.783 282.276 190.346 278.037 190.346Z" fill="#782CE4"/>
<g filter="url(#filter6_d)">
<path d="M539.499 90.2998H413.863C397.267 90.2998 383.813 103.753 383.813 120.349V218.951C383.813 235.547 397.267 249 413.863 249H539.499C556.095 249 569.549 235.547 569.549 218.951V120.349C569.549 103.753 556.095 90.2998 539.499 90.2998Z" fill="white"/>
</g>
<path d="M542.55 86.4458H410.812C393.41 86.4458 379.303 100.553 379.303 117.955V221.345C379.303 238.747 393.41 252.854 410.812 252.854H542.55C559.952 252.854 574.059 238.747 574.059 221.345V117.955C574.059 100.553 559.952 86.4458 542.55 86.4458Z" fill="white"/>
<g filter="url(#filter7_d)">
<path d="M220.344 169.708H105.763C89.0195 169.708 75.4465 183.281 75.4465 200.024V305.684C75.4465 322.427 89.0195 336 105.763 336H220.344C237.088 336 250.661 322.427 250.661 305.684V200.024C250.661 183.281 237.088 169.708 220.344 169.708Z" fill="white"/>
</g>
<path d="M222.598 166.437H103.509C86.107 166.437 72 180.544 72 197.946V307.762C72 325.164 86.107 339.271 103.509 339.271H222.598C240 339.271 254.107 325.164 254.107 307.762V197.946C254.107 180.544 240 166.437 222.598 166.437Z" fill="white"/>
<g filter="url(#filter8_d)">
<path d="M213 259.835C213 270.568 209.817 278.401 203.854 287.325C197.891 296.25 189.416 303.206 179.5 307.313C169.583 311.42 158.673 312.495 148.145 310.4C137.618 308.307 127.949 303.139 120.359 295.549C112.77 287.959 107.602 278.29 105.507 267.763C103.413 257.236 104.488 246.324 108.595 236.409C112.703 226.492 119.659 218.017 128.582 212.054C137.507 206.091 146.838 202.909 157.572 202.909V259.835H213Z" fill="#782CE4"/>
</g>
<path d="M216.358 257.176C216.358 268.573 212.978 279.715 206.646 289.191C200.314 298.668 191.315 306.054 180.785 310.415C170.255 314.777 158.669 315.918 147.49 313.694C136.312 311.471 126.044 305.983 117.985 297.924C109.926 289.864 104.438 279.597 102.214 268.418C99.9908 257.24 101.132 245.653 105.493 235.124C109.855 224.594 117.241 215.594 126.717 209.262C136.194 202.93 147.335 199.551 158.733 199.551V257.176H216.358Z" fill="#782CE4"/>
<g filter="url(#filter9_d)">
<path d="M169.908 193.438C176.81 193.438 183.645 194.798 190.022 197.44C196.399 200.081 202.193 203.953 207.074 208.834C211.955 213.715 215.827 219.509 218.468 225.886C221.11 232.263 222.469 239.098 222.469 246H169.908V193.438Z" fill="#1B76FF"/>
</g>
<path d="M167.376 190.906C174.943 190.906 182.436 192.397 189.428 195.293C196.419 198.189 202.772 202.434 208.123 207.785C213.474 213.136 217.719 219.488 220.615 226.48C223.511 233.471 225.001 240.965 225.001 248.532H167.376V190.906Z" fill="#1B76FF"/>
<path opacity="0.2" d="M514.821 106.724H438.54C435.844 106.724 433.659 108.909 433.659 111.605C433.659 114.301 435.844 116.486 438.54 116.486H514.821C517.517 116.486 519.702 114.301 519.702 111.605C519.702 108.909 517.517 106.724 514.821 106.724Z" fill="#62668A"/>
<g filter="url(#filter10_d)">
<path d="M412.451 168.251C412.451 166.243 410.823 164.615 408.816 164.615C406.808 164.615 405.18 166.243 405.18 168.251V224.423C405.18 226.431 406.808 228.059 408.816 228.059C410.823 228.059 412.451 226.431 412.451 224.423V168.251Z" fill="#782CE4"/>
</g>
<path d="M412.451 168.251C412.451 166.243 410.823 164.615 408.816 164.615C406.808 164.615 405.18 166.243 405.18 168.251V224.423C405.18 226.431 406.808 228.059 408.816 228.059C410.823 228.059 412.451 226.431 412.451 224.423V168.251Z" fill="#782CE4"/>
<g filter="url(#filter11_d)">
<path d="M513 169.188C513 167.247 511.932 165.674 510.614 165.674C509.296 165.674 508.227 167.247 508.227 169.188V223.486C508.227 225.426 509.296 227 510.614 227C511.932 227 513 225.426 513 223.486V169.188Z" fill="#782CE4"/>
</g>
<path d="M514.249 168.251C514.249 166.243 512.622 164.615 510.614 164.615C508.606 164.615 506.978 166.243 506.978 168.251V224.423C506.978 226.431 508.606 228.059 510.614 228.059C512.622 228.059 514.249 226.431 514.249 224.423V168.251Z" fill="#782CE4"/>
<g filter="url(#filter12_d)">
<path d="M429 159.13C429 157.179 427.559 155.599 425.782 155.599C424.004 155.599 422.563 157.179 422.563 159.13V223.469C422.563 225.419 424.004 227 425.782 227C427.559 227 429 225.419 429 223.469V159.13Z" fill="#1B76FF"/>
</g>
<path d="M429.417 158.176C429.417 156.168 427.79 154.54 425.782 154.54C423.774 154.54 422.146 156.168 422.146 158.176V224.423C422.146 226.431 423.774 228.059 425.782 228.059C427.79 228.059 429.417 226.431 429.417 224.423V158.176Z" fill="#1B76FF"/>
<g filter="url(#filter13_d)">
<path d="M530 137.11C530 135.146 528.916 133.555 527.58 133.555C526.243 133.555 525.159 135.146 525.159 137.11V223.445C525.159 225.408 526.243 227 527.58 227C528.916 227 530 225.408 530 223.445V137.11Z" fill="#1B76FF"/>
</g>
<path d="M531.215 136.132C531.215 134.124 529.587 132.496 527.58 132.496C525.572 132.496 523.944 134.124 523.944 136.132V224.423C523.944 226.431 525.572 228.059 527.58 228.059C529.587 228.059 531.215 226.431 531.215 224.423V136.132Z" fill="#1B76FF"/>
<g filter="url(#filter14_d)">
<path d="M446 184.377C446 182.457 444.544 180.901 442.749 180.901C440.953 180.901 439.497 182.457 439.497 184.377V223.524C439.497 225.444 440.953 227 442.749 227C444.544 227 446 225.444 446 223.524V184.377Z" fill="#782CE4"/>
</g>
<path d="M446.384 183.477C446.384 181.47 444.757 179.842 442.749 179.842C440.741 179.842 439.113 181.47 439.113 183.477V224.423C439.113 226.431 440.741 228.059 442.749 228.059C444.757 228.059 446.384 226.431 446.384 224.423V183.477Z" fill="#782CE4"/>
<g filter="url(#filter15_d)">
<path d="M463 162.867C463 160.92 461.529 159.342 459.715 159.342C457.9 159.342 456.429 160.92 456.429 162.867V223.475C456.429 225.422 457.9 227 459.715 227C461.529 227 463 225.422 463 223.475V162.867Z" fill="#1B76FF"/>
</g>
<path d="M463.35 161.919C463.35 159.911 461.723 158.283 459.715 158.283C457.707 158.283 456.079 159.911 456.079 161.919V224.423C456.079 226.431 457.707 228.059 459.715 228.059C461.723 228.059 463.35 226.431 463.35 224.423V161.919Z" fill="#1B76FF"/>
<g filter="url(#filter16_d)">
<path d="M479 190.697C479 188.791 477.962 187.245 476.681 187.245C475.4 187.245 474.361 188.791 474.361 190.697V223.548C474.361 225.455 475.4 227 476.681 227C477.962 227 479 225.455 479 223.548V190.697Z" fill="#782CE4"/>
</g>
<path d="M480.316 189.822C480.316 187.814 478.688 186.186 476.681 186.186C474.673 186.186 473.045 187.814 473.045 189.822V224.423C473.045 226.431 474.673 228.059 476.681 228.059C478.688 228.059 480.316 226.431 480.316 224.423V189.822Z" fill="#782CE4"/>
<g filter="url(#filter17_d)">
<path d="M496 154.733C496 152.779 494.947 151.196 493.648 151.196C492.348 151.196 491.295 152.779 491.295 154.733V223.463C491.295 225.417 492.348 227 493.648 227C494.947 227 496 225.417 496 223.463V154.733Z" fill="#1B76FF"/>
</g>
<path d="M497.283 153.772C497.283 151.764 495.656 150.136 493.648 150.136C491.64 150.136 490.012 151.764 490.012 153.772V224.424C490.012 226.432 491.64 228.06 493.648 228.06C495.656 228.06 497.283 226.432 497.283 224.424V153.772Z" fill="#1B76FF"/>
<g filter="url(#filter18_d)">
<path d="M547 123.906C547 121.937 545.902 120.341 544.547 120.341C543.192 120.341 542.093 121.937 542.093 123.906V223.435C542.093 225.404 543.192 227 544.547 227C545.902 227 547 225.404 547 223.435V123.906Z" fill="#782CE4"/>
</g>
<path d="M548.182 122.918C548.182 120.91 546.555 119.282 544.547 119.282C542.539 119.282 540.911 120.91 540.911 122.918V224.424C540.911 226.432 542.539 228.059 544.547 228.059C546.555 228.059 548.182 226.432 548.182 224.424V122.918Z" fill="#782CE4"/>
<defs>
<filter id="filter0_d" x="173.213" y="35.6152" width="305.787" height="358.385" filterUnits="userSpaceOnUse" color-interpolation-filters="sRGB">
<feFlood flood-opacity="0" result="BackgroundImageFix"/>
<feColorMatrix in="SourceAlpha" type="matrix" values="0 0 0 0 0 0 0 0 0 0 0 0 0 0 0 0 0 0 127 0"/>
<feOffset dy="3"/>
<feGaussianBlur stdDeviation="20"/>
<feColorMatrix type="matrix" values="0 0 0 0 0.121042 0 0 0 0 0.143938 0 0 0 0 0.35 0 0 0 0.5 0"/>
<feBlend mode="normal" in2="BackgroundImageFix" result="effect1_dropShadow"/>
<feBlend mode="normal" in="SourceGraphic" in2="effect1_dropShadow" result="shape"/>
</filter>
<filter id="filter1_d" x="299.212" y="301.32" width="53.7878" height="22.6797" filterUnits="userSpaceOnUse" color-interpolation-filters="sRGB">
<feFlood flood-opacity="0" result="BackgroundImageFix"/>
<feColorMatrix in="SourceAlpha" type="matrix" values="0 0 0 0 0 0 0 0 0 0 0 0 0 0 0 0 0 0 127 0"/>
<feOffset dy="3"/>
<feGaussianBlur stdDeviation="2.5"/>
<feColorMatrix type="matrix" values="0 0 0 0 0.470588 0 0 0 0 0.172549 0 0 0 0 0.894118 0 0 0 0.2 0"/>
<feBlend mode="normal" in2="BackgroundImageFix" result="effect1_dropShadow"/>
<feBlend mode="normal" in="SourceGraphic" in2="effect1_dropShadow" result="shape"/>
</filter>
<filter id="filter2_d" x="228.312" y="85.8945" width="21.412" height="21.412" filterUnits="userSpaceOnUse" color-interpolation-filters="sRGB">
<feFlood flood-opacity="0" result="BackgroundImageFix"/>
<feColorMatrix in="SourceAlpha" type="matrix" values="0 0 0 0 0 0 0 0 0 0 0 0 0 0 0 0 0 0 127 0"/>
<feOffset dy="4.72395"/>
<feGaussianBlur stdDeviation="2.36197"/>
<feColorMatrix type="matrix" values="0 0 0 0 0.956863 0 0 0 0 0.14902 0 0 0 0 0.243137 0 0 0 0.12 0"/>
<feBlend mode="normal" in2="BackgroundImageFix" result="effect1_dropShadow"/>
<feBlend mode="normal" in="SourceGraphic" in2="effect1_dropShadow" result="shape"/>
</filter>
<filter id="filter3_d" x="250.42" y="86.4482" width="20.3038" height="20.3039" filterUnits="userSpaceOnUse" color-interpolation-filters="sRGB">
<feFlood flood-opacity="0" result="BackgroundImageFix"/>
<feColorMatrix in="SourceAlpha" type="matrix" values="0 0 0 0 0 0 0 0 0 0 0 0 0 0 0 0 0 0 127 0"/>
<feOffset dy="4.72395"/>
<feGaussianBlur stdDeviation="2.36197"/>
<feColorMatrix type="matrix" values="0 0 0 0 1 0 0 0 0 0.80475 0 0 0 0 0.1125 0 0 0 0.25 0"/>
<feBlend mode="normal" in2="BackgroundImageFix" result="effect1_dropShadow"/>
<feBlend mode="normal" in="SourceGraphic" in2="effect1_dropShadow" result="shape"/>
</filter>
<filter id="filter4_d" x="271.528" y="86.0024" width="21.1959" height="21.1959" filterUnits="userSpaceOnUse" color-interpolation-filters="sRGB">
<feFlood flood-opacity="0" result="BackgroundImageFix"/>
<feColorMatrix in="SourceAlpha" type="matrix" values="0 0 0 0 0 0 0 0 0 0 0 0 0 0 0 0 0 0 127 0"/>
<feOffset dy="4.72395"/>
<feGaussianBlur stdDeviation="2.36197"/>
<feColorMatrix type="matrix" values="0 0 0 0 0.513726 0 0 0 0 0.894118 0 0 0 0 0.211765 0 0 0 0.25 0"/>
<feBlend mode="normal" in2="BackgroundImageFix" result="effect1_dropShadow"/>
<feBlend mode="normal" in="SourceGraphic" in2="effect1_dropShadow" result="shape"/>
</filter>
<filter id="filter5_d" x="234.71" y="191" width="54.29" height="22.0452" filterUnits="userSpaceOnUse" color-interpolation-filters="sRGB">
<feFlood flood-opacity="0" result="BackgroundImageFix"/>
<feColorMatrix in="SourceAlpha" type="matrix" values="0 0 0 0 0 0 0 0 0 0 0 0 0 0 0 0 0 0 127 0"/>
<feOffset dy="4"/>
<feGaussianBlur stdDeviation="2.5"/>
<feColorMatrix type="matrix" values="0 0 0 0 0.470588 0 0 0 0 0.172549 0 0 0 0 0.894118 0 0 0 0.2 0"/>
<feBlend mode="normal" in2="BackgroundImageFix" result="effect1_dropShadow"/>
<feBlend mode="normal" in="SourceGraphic" in2="effect1_dropShadow" result="shape"/>
</filter>
<filter id="filter6_d" x="342.609" y="51.5198" width="268.143" height="241.108" filterUnits="userSpaceOnUse" color-interpolation-filters="sRGB">
<feFlood flood-opacity="0" result="BackgroundImageFix"/>
<feColorMatrix in="SourceAlpha" type="matrix" values="0 0 0 0 0 0 0 0 0 0 0 0 0 0 0 0 0 0 127 0"/>
<feOffset dy="2.42375"/>
<feGaussianBlur stdDeviation="20.6019"/>
<feColorMatrix type="matrix" values="0 0 0 0 0.121042 0 0 0 0 0.143938 0 0 0 0 0.35 0 0 0 0.29 0"/>
<feBlend mode="normal" in2="BackgroundImageFix" result="effect1_dropShadow"/>
<feBlend mode="normal" in="SourceGraphic" in2="effect1_dropShadow" result="shape"/>
</filter>
<filter id="filter7_d" x="35.4465" y="132.708" width="255.214" height="246.292" filterUnits="userSpaceOnUse" color-interpolation-filters="sRGB">
<feFlood flood-opacity="0" result="BackgroundImageFix"/>
<feColorMatrix in="SourceAlpha" type="matrix" values="0 0 0 0 0 0 0 0 0 0 0 0 0 0 0 0 0 0 127 0"/>
<feOffset dy="3"/>
<feGaussianBlur stdDeviation="20"/>
<feColorMatrix type="matrix" values="0 0 0 0 0.121042 0 0 0 0 0.143938 0 0 0 0 0.35 0 0 0 0.3 0"/>
<feBlend mode="normal" in2="BackgroundImageFix" result="effect1_dropShadow"/>
<feBlend mode="normal" in="SourceGraphic" in2="effect1_dropShadow" result="shape"/>
</filter>
<filter id="filter8_d" x="94.4646" y="202.909" width="128.535" height="133.535" filterUnits="userSpaceOnUse" color-interpolation-filters="sRGB">
<feFlood flood-opacity="0" result="BackgroundImageFix"/>
<feColorMatrix in="SourceAlpha" type="matrix" values="0 0 0 0 0 0 0 0 0 0 0 0 0 0 0 0 0 0 127 0"/>
<feOffset dy="15"/>
<feGaussianBlur stdDeviation="5"/>
<feColorMatrix type="matrix" values="0 0 0 0 0.470588 0 0 0 0 0.172549 0 0 0 0 0.894118 0 0 0 0.25 0"/>
<feBlend mode="normal" in2="BackgroundImageFix" result="effect1_dropShadow"/>
<feBlend mode="normal" in="SourceGraphic" in2="effect1_dropShadow" result="shape"/>
</filter>
<filter id="filter9_d" x="159.908" y="193.438" width="72.5607" height="72.5616" filterUnits="userSpaceOnUse" color-interpolation-filters="sRGB">
<feFlood flood-opacity="0" result="BackgroundImageFix"/>
<feColorMatrix in="SourceAlpha" type="matrix" values="0 0 0 0 0 0 0 0 0 0 0 0 0 0 0 0 0 0 127 0"/>
<feOffset dy="10"/>
<feGaussianBlur stdDeviation="5"/>
<feColorMatrix type="matrix" values="0 0 0 0 0.104167 0 0 0 0 0.4625 0 0 0 0 1 0 0 0 0.22 0"/>
<feBlend mode="normal" in2="BackgroundImageFix" result="effect1_dropShadow"/>
<feBlend mode="normal" in="SourceGraphic" in2="effect1_dropShadow" result="shape"/>
</filter>
<filter id="filter10_d" x="400.18" y="164.615" width="17.2713" height="73.4436" filterUnits="userSpaceOnUse" color-interpolation-filters="sRGB">
<feFlood flood-opacity="0" result="BackgroundImageFix"/>
<feColorMatrix in="SourceAlpha" type="matrix" values="0 0 0 0 0 0 0 0 0 0 0 0 0 0 0 0 0 0 127 0"/>
<feOffset dy="5"/>
<feGaussianBlur stdDeviation="2.5"/>
<feColorMatrix type="matrix" values="0 0 0 0 0.470588 0 0 0 0 0.172549 0 0 0 0 0.894118 0 0 0 0.2 0"/>
<feBlend mode="normal" in2="BackgroundImageFix" result="effect1_dropShadow"/>
<feBlend mode="normal" in="SourceGraphic" in2="effect1_dropShadow" result="shape"/>
</filter>
<filter id="filter11_d" x="503.227" y="165.674" width="14.7727" height="71.3259" filterUnits="userSpaceOnUse" color-interpolation-filters="sRGB">
<feFlood flood-opacity="0" result="BackgroundImageFix"/>
<feColorMatrix in="SourceAlpha" type="matrix" values="0 0 0 0 0 0 0 0 0 0 0 0 0 0 0 0 0 0 127 0"/>
<feOffset dy="5"/>
<feGaussianBlur stdDeviation="2.5"/>
<feColorMatrix type="matrix" values="0 0 0 0 0.470588 0 0 0 0 0.172549 0 0 0 0 0.894118 0 0 0 0.2 0"/>
<feBlend mode="normal" in2="BackgroundImageFix" result="effect1_dropShadow"/>
<feBlend mode="normal" in="SourceGraphic" in2="effect1_dropShadow" result="shape"/>
</filter>
<filter id="filter12_d" x="417.563" y="155.599" width="16.4367" height="81.4012" filterUnits="userSpaceOnUse" color-interpolation-filters="sRGB">
<feFlood flood-opacity="0" result="BackgroundImageFix"/>
<feColorMatrix in="SourceAlpha" type="matrix" values="0 0 0 0 0 0 0 0 0 0 0 0 0 0 0 0 0 0 127 0"/>
<feOffset dy="5"/>
<feGaussianBlur stdDeviation="2.5"/>
<feColorMatrix type="matrix" values="0 0 0 0 0.104167 0 0 0 0 0.4625 0 0 0 0 1 0 0 0 0.2 0"/>
<feBlend mode="normal" in2="BackgroundImageFix" result="effect1_dropShadow"/>
<feBlend mode="normal" in="SourceGraphic" in2="effect1_dropShadow" result="shape"/>
</filter>
<filter id="filter13_d" x="520.159" y="133.555" width="14.8409" height="103.445" filterUnits="userSpaceOnUse" color-interpolation-filters="sRGB">
<feFlood flood-opacity="0" result="BackgroundImageFix"/>
<feColorMatrix in="SourceAlpha" type="matrix" values="0 0 0 0 0 0 0 0 0 0 0 0 0 0 0 0 0 0 127 0"/>
<feOffset dy="5"/>
<feGaussianBlur stdDeviation="2.5"/>
<feColorMatrix type="matrix" values="0 0 0 0 0.104167 0 0 0 0 0.4625 0 0 0 0 1 0 0 0 0.2 0"/>
<feBlend mode="normal" in2="BackgroundImageFix" result="effect1_dropShadow"/>
<feBlend mode="normal" in="SourceGraphic" in2="effect1_dropShadow" result="shape"/>
</filter>
<filter id="filter14_d" x="434.497" y="180.901" width="16.5027" height="56.0993" filterUnits="userSpaceOnUse" color-interpolation-filters="sRGB">
<feFlood flood-opacity="0" result="BackgroundImageFix"/>
<feColorMatrix in="SourceAlpha" type="matrix" values="0 0 0 0 0 0 0 0 0 0 0 0 0 0 0 0 0 0 127 0"/>
<feOffset dy="5"/>
<feGaussianBlur stdDeviation="2.5"/>
<feColorMatrix type="matrix" values="0 0 0 0 0.470588 0 0 0 0 0.172549 0 0 0 0 0.894118 0 0 0 0.2 0"/>
<feBlend mode="normal" in2="BackgroundImageFix" result="effect1_dropShadow"/>
<feBlend mode="normal" in="SourceGraphic" in2="effect1_dropShadow" result="shape"/>
</filter>
<filter id="filter15_d" x="451.429" y="159.342" width="16.5708" height="77.6583" filterUnits="userSpaceOnUse" color-interpolation-filters="sRGB">
<feFlood flood-opacity="0" result="BackgroundImageFix"/>
<feColorMatrix in="SourceAlpha" type="matrix" values="0 0 0 0 0 0 0 0 0 0 0 0 0 0 0 0 0 0 127 0"/>
<feOffset dy="5"/>
<feGaussianBlur stdDeviation="2.5"/>
<feColorMatrix type="matrix" values="0 0 0 0 0.104167 0 0 0 0 0.4625 0 0 0 0 1 0 0 0 0.2 0"/>
<feBlend mode="normal" in2="BackgroundImageFix" result="effect1_dropShadow"/>
<feBlend mode="normal" in="SourceGraphic" in2="effect1_dropShadow" result="shape"/>
</filter>
<filter id="filter16_d" x="469.361" y="187.245" width="14.6387" height="49.7551" filterUnits="userSpaceOnUse" color-interpolation-filters="sRGB">
<feFlood flood-opacity="0" result="BackgroundImageFix"/>
<feColorMatrix in="SourceAlpha" type="matrix" values="0 0 0 0 0 0 0 0 0 0 0 0 0 0 0 0 0 0 127 0"/>
<feOffset dy="5"/>
<feGaussianBlur stdDeviation="2.5"/>
<feColorMatrix type="matrix" values="0 0 0 0 0.470588 0 0 0 0 0.172549 0 0 0 0 0.894118 0 0 0 0.2 0"/>
<feBlend mode="normal" in2="BackgroundImageFix" result="effect1_dropShadow"/>
<feBlend mode="normal" in="SourceGraphic" in2="effect1_dropShadow" result="shape"/>
</filter>
<filter id="filter17_d" x="486.295" y="151.196" width="14.7048" height="85.8042" filterUnits="userSpaceOnUse" color-interpolation-filters="sRGB">
<feFlood flood-opacity="0" result="BackgroundImageFix"/>
<feColorMatrix in="SourceAlpha" type="matrix" values="0 0 0 0 0 0 0 0 0 0 0 0 0 0 0 0 0 0 127 0"/>
<feOffset dy="5"/>
<feGaussianBlur stdDeviation="2.5"/>
<feColorMatrix type="matrix" values="0 0 0 0 0.104167 0 0 0 0 0.4625 0 0 0 0 1 0 0 0 0.2 0"/>
<feBlend mode="normal" in2="BackgroundImageFix" result="effect1_dropShadow"/>
<feBlend mode="normal" in="SourceGraphic" in2="effect1_dropShadow" result="shape"/>
</filter>
<filter id="filter18_d" x="537.093" y="120.341" width="14.9067" height="116.659" filterUnits="userSpaceOnUse" color-interpolation-filters="sRGB">
<feFlood flood-opacity="0" result="BackgroundImageFix"/>
<feColorMatrix in="SourceAlpha" type="matrix" values="0 0 0 0 0 0 0 0 0 0 0 0 0 0 0 0 0 0 127 0"/>
<feOffset dy="5"/>
<feGaussianBlur stdDeviation="2.5"/>
<feColorMatrix type="matrix" values="0 0 0 0 0.470588 0 0 0 0 0.172549 0 0 0 0 0.894118 0 0 0 0.2 0"/>
<feBlend mode="normal" in2="BackgroundImageFix" result="effect1_dropShadow"/>
<feBlend mode="normal" in="SourceGraphic" in2="effect1_dropShadow" result="shape"/>
</filter>
</defs>
</svg>
