<svg width="178" height="34" viewBox="0 0 178 34" fill="none" xmlns="http://www.w3.org/2000/svg">
<path d="M64.1827 16.2881C62.919 18.3381 61.1217 19.5175 58.7909 19.5175C55.4211 19.5175 52.9499 16.7936 52.9499 13.2834C52.9499 9.77312 55.3088 7.07726 58.8471 7.07726C61.0936 7.07726 63.1155 8.34094 64.1265 10.2505L67.384 7.66698C65.7272 4.71838 62.7224 2.94922 58.9033 2.94922C52.7814 2.94922 48.4849 7.49849 48.4849 13.2834C48.4849 19.0682 52.8656 23.6456 58.8471 23.6456C62.6101 23.6456 65.7552 21.6518 67.4682 18.8155L64.1827 16.2881Z" fill="#1F2559"/>
<path d="M76.3886 8.56567C71.8955 8.56567 68.6661 11.8232 68.6661 16.0917C68.6661 20.332 71.8955 23.6457 76.3886 23.6457C80.8817 23.6457 84.1112 20.332 84.1112 16.0917C84.1112 11.8232 80.8817 8.56567 76.3886 8.56567ZM76.3886 12.3568C78.3263 12.3568 79.7865 13.8451 79.7865 16.0917C79.7865 18.3382 78.3263 19.8546 76.3886 19.8546C74.451 19.8546 72.9907 18.3382 72.9907 16.0917C72.9907 13.8451 74.451 12.3568 76.3886 12.3568Z" fill="#1F2559"/>
<path d="M86.9011 8.90265V23.3087H91.1696V15.8108C91.1696 13.9293 92.1525 12.3287 93.9497 12.3287C95.5223 12.3287 96.5332 13.3115 96.5332 15.193V23.3087H100.802V15.8108C100.802 13.9293 101.785 12.3287 103.582 12.3287C105.154 12.3287 106.137 13.3115 106.137 15.193V23.3087H110.406V14.5471C110.406 10.8123 108.3 8.56567 104.845 8.56567C102.402 8.56567 101.026 9.63278 99.9873 11.0931C99.0044 9.49237 97.4319 8.56567 95.2134 8.56567C93.3319 8.56567 91.9278 9.2958 91.0011 10.7561V8.90265H86.9011Z" fill="#1F2559"/>
<path d="M121.605 12.3287C123.43 12.3287 124.946 13.817 124.946 16.1478C124.946 18.3944 123.43 19.8827 121.605 19.8827C119.695 19.8827 118.207 18.4225 118.207 16.1478C118.207 13.7889 119.695 12.3287 121.605 12.3287ZM118.01 8.90265H114.051V28.9251H118.319V21.7361C119.218 23.084 120.931 23.6457 122.475 23.6457C126.407 23.6457 129.243 20.3882 129.243 16.0917C129.243 11.6547 126.182 8.56567 122.503 8.56567C121.099 8.56567 119.133 9.15539 118.01 10.8965V8.90265Z" fill="#1F2559"/>
<path d="M139.51 14.3506L135.579 15.1088C132.546 15.7547 130.889 17.2149 130.889 19.3492C130.889 21.8484 132.855 23.6457 135.663 23.6457C137.573 23.6457 138.977 22.8032 139.651 21.5395V23.3087H143.61V14.2382C143.61 10.728 141.223 8.56567 137.208 8.56567C134.512 8.56567 132.35 9.68895 131.03 11.2896L133.248 13.9855C134.119 13.0026 135.354 12.2444 136.955 12.2444C138.415 12.2444 139.51 12.8061 139.51 14.2382V14.3506ZM136.618 20.4724C135.607 20.4724 134.961 19.9108 134.961 19.0964C134.961 18.3101 135.523 17.8046 136.674 17.6081L139.538 17.0464V17.4677C139.538 19.1807 138.387 20.4724 136.618 20.4724Z" fill="#1F2559"/>
<path d="M147.206 8.90265V23.3087H151.474V15.8108C151.474 13.9293 152.457 12.3287 154.311 12.3287C155.883 12.3287 156.894 13.3115 156.894 15.193V23.3087H161.163V14.5471C161.163 10.8123 159.028 8.56567 155.574 8.56567C153.637 8.56567 152.233 9.2958 151.306 10.7561V8.90265H147.206Z" fill="#1F2559"/>
<path d="M168.132 22.775L167.964 23.2524C167.346 25.3024 166.307 25.6675 165.184 25.6675C164.706 25.6675 163.976 25.6113 163.218 25.1901V28.7284C163.864 29.0373 164.79 29.262 165.801 29.262C168.525 29.262 170.266 27.9702 171.699 24.488L177.989 8.90259H173.636L170.266 18.3381L166.925 8.90259H162.46L168.132 22.775Z" fill="#1F2559"/>
<g filter="url(#filter0_d)">
<path d="M22.207 1.55542H19.0427C18.6047 1.55542 18.2496 1.997 18.2496 2.54171V25.0138C18.2496 25.5586 18.6047 26.0001 19.0427 26.0001H22.207C22.645 26.0001 23 25.5586 23 25.0138V2.54171C23 1.997 22.645 1.55542 22.207 1.55542Z" fill="#F4263E"/>
</g>
<path d="M22.6819 1H18.5677C17.9983 1 17.5366 1.46164 17.5366 2.0311V25.5242C17.5366 26.0937 17.9983 26.5553 18.5677 26.5553H22.6819C23.2514 26.5553 23.713 26.0937 23.713 25.5242V2.0311C23.713 1.46164 23.2514 1 22.6819 1Z" fill="#F4263E"/>
<g filter="url(#filter1_d)">
<path d="M32.0002 25.9999C34.5932 25.9999 36.6953 23.8978 36.6953 21.3047C36.6953 18.7117 34.5932 16.6096 32.0002 16.6096C29.4071 16.6096 27.305 18.7117 27.305 21.3047C27.305 23.8978 29.4071 25.9999 32.0002 25.9999Z" fill="#1B76FF"/>
</g>
<path d="M32.0002 26.555C34.8997 26.555 37.2503 24.2044 37.2503 21.3048C37.2503 18.4053 34.8997 16.0547 32.0002 16.0547C29.1006 16.0547 26.75 18.4053 26.75 21.3048C26.75 24.2044 29.1006 26.555 32.0002 26.555Z" fill="#1B76FF"/>
<g filter="url(#filter2_d)">
<path d="M32.0002 10.2499C34.2092 10.2499 36 8.45915 36 6.25009C36 4.04104 34.2092 2.25024 32.0002 2.25024C29.7911 2.25024 28.0003 4.04104 28.0003 6.25009C28.0003 8.45915 29.7911 10.2499 32.0002 10.2499Z" fill="#FFCD1D"/>
</g>
<path d="M32.0002 11.5003C34.8997 11.5003 37.2503 9.14973 37.2503 6.25015C37.2503 3.35057 34.8997 1 32.0002 1C29.1006 1 26.75 3.35057 26.75 6.25015C26.75 9.14973 29.1006 11.5003 32.0002 11.5003Z" fill="#FFCD1D"/>
<g filter="url(#filter3_d)">
<path d="M9.25016 25.9999C11.8432 25.9999 13.9453 23.8978 13.9453 21.3047C13.9453 18.7117 11.8432 16.6096 9.25016 16.6096C6.65709 16.6096 4.55499 18.7117 4.55499 21.3047C4.55499 23.8978 6.65709 25.9999 9.25016 25.9999Z" fill="#782CE4"/>
</g>
<path d="M9.25015 26.555C12.1497 26.555 14.5003 24.2044 14.5003 21.3048C14.5003 18.4053 12.1497 16.0547 9.25015 16.0547C6.35057 16.0547 4 18.4053 4 21.3048C4 24.2044 6.35057 26.555 9.25015 26.555Z" fill="#782CE4"/>
<defs>
<filter id="filter0_d" x="14.2496" y="0.55542" width="12.7504" height="32.4447" filterUnits="userSpaceOnUse" color-interpolation-filters="sRGB">
<feFlood flood-opacity="0" result="BackgroundImageFix"/>
<feColorMatrix in="SourceAlpha" type="matrix" values="0 0 0 0 0 0 0 0 0 0 0 0 0 0 0 0 0 0 127 0"/>
<feOffset dy="3"/>
<feGaussianBlur stdDeviation="2"/>
<feColorMatrix type="matrix" values="0 0 0 0 0.956863 0 0 0 0 0.14902 0 0 0 0 0.243137 0 0 0 0.15 0"/>
<feBlend mode="normal" in2="BackgroundImageFix" result="effect1_dropShadow"/>
<feBlend mode="normal" in="SourceGraphic" in2="effect1_dropShadow" result="shape"/>
</filter>
<filter id="filter1_d" x="23.305" y="15.6096" width="17.3903" height="17.3903" filterUnits="userSpaceOnUse" color-interpolation-filters="sRGB">
<feFlood flood-opacity="0" result="BackgroundImageFix"/>
<feColorMatrix in="SourceAlpha" type="matrix" values="0 0 0 0 0 0 0 0 0 0 0 0 0 0 0 0 0 0 127 0"/>
<feOffset dy="3"/>
<feGaussianBlur stdDeviation="2"/>
<feColorMatrix type="matrix" values="0 0 0 0 0.104167 0 0 0 0 0.4625 0 0 0 0 1 0 0 0 0.15 0"/>
<feBlend mode="normal" in2="BackgroundImageFix" result="effect1_dropShadow"/>
<feBlend mode="normal" in="SourceGraphic" in2="effect1_dropShadow" result="shape"/>
</filter>
<filter id="filter2_d" x="24.0003" y="1.25024" width="15.9997" height="15.9997" filterUnits="userSpaceOnUse" color-interpolation-filters="sRGB">
<feFlood flood-opacity="0" result="BackgroundImageFix"/>
<feColorMatrix in="SourceAlpha" type="matrix" values="0 0 0 0 0 0 0 0 0 0 0 0 0 0 0 0 0 0 127 0"/>
<feOffset dy="3"/>
<feGaussianBlur stdDeviation="2"/>
<feColorMatrix type="matrix" values="0 0 0 0 1 0 0 0 0 0.80475 0 0 0 0 0.1125 0 0 0 0.3 0"/>
<feBlend mode="normal" in2="BackgroundImageFix" result="effect1_dropShadow"/>
<feBlend mode="normal" in="SourceGraphic" in2="effect1_dropShadow" result="shape"/>
</filter>
<filter id="filter3_d" x="0.554993" y="15.6096" width="17.3903" height="17.3903" filterUnits="userSpaceOnUse" color-interpolation-filters="sRGB">
<feFlood flood-opacity="0" result="BackgroundImageFix"/>
<feColorMatrix in="SourceAlpha" type="matrix" values="0 0 0 0 0 0 0 0 0 0 0 0 0 0 0 0 0 0 127 0"/>
<feOffset dy="3"/>
<feGaussianBlur stdDeviation="2"/>
<feColorMatrix type="matrix" values="0 0 0 0 0.470588 0 0 0 0 0.172549 0 0 0 0 0.894118 0 0 0 0.15 0"/>
<feBlend mode="normal" in2="BackgroundImageFix" result="effect1_dropShadow"/>
<feBlend mode="normal" in="SourceGraphic" in2="effect1_dropShadow" result="shape"/>
</filter>
</defs>
</svg>
