<svg width="22" height="22" viewBox="0 0 22 22" fill="none" xmlns="http://www.w3.org/2000/svg">
<path d="M14.704 2.04597V2.04199H15.735L16.1117 2.11755C16.3628 2.1666 16.5908 2.23089 16.7957 2.31042C17.0005 2.38996 17.1988 2.48276 17.3904 2.5888C17.5821 2.69484 17.7559 2.80289 17.9119 2.91291C18.0665 3.02161 18.2053 3.13694 18.3282 3.25889C18.4498 3.38217 18.6395 3.41398 18.8972 3.35433C19.1549 3.29468 19.4325 3.21182 19.7299 3.10578C20.0273 2.99974 20.3214 2.88044 20.6122 2.74787C20.9029 2.6153 21.0801 2.53114 21.1435 2.49534C21.2056 2.45824 21.2387 2.43836 21.2426 2.43569L21.2466 2.42973L21.2664 2.41979L21.2862 2.40984L21.3061 2.3999L21.3259 2.38996L21.3299 2.38399L21.3358 2.38002L21.3418 2.37604L21.3457 2.37008L21.3655 2.36411L21.3854 2.36013L21.3814 2.38996L21.3755 2.41979L21.3655 2.44961L21.3556 2.47944L21.3457 2.49932L21.3358 2.51921L21.3259 2.54903C21.3193 2.56891 21.3127 2.59542 21.3061 2.62857C21.2995 2.66171 21.2367 2.79426 21.1177 3.02624C20.9988 3.25823 20.8501 3.49351 20.6716 3.73212C20.4932 3.97073 20.3333 4.15099 20.1919 4.27296C20.0491 4.39624 19.9546 4.4824 19.9083 4.53145C19.8621 4.58182 19.8059 4.62821 19.7398 4.67064L19.6407 4.73626L19.6209 4.7462L19.601 4.75614L19.5971 4.76211L19.5911 4.76608L19.5852 4.77006L19.5812 4.77602L19.5614 4.78597L19.5416 4.79591L19.5376 4.80187L19.5316 4.80585L19.5257 4.80983L19.5217 4.81579L19.5178 4.82176L19.5118 4.82573L19.5059 4.82971L19.5019 4.83568H19.601L20.1562 4.71637C20.5263 4.63684 20.8798 4.54074 21.2169 4.42806L21.7522 4.2491L21.8116 4.22922L21.8414 4.21928L21.8612 4.20933L21.881 4.19939L21.9009 4.18945L21.9207 4.17951L21.9603 4.17354L22 4.16957V4.20933L21.9901 4.21331L21.9802 4.21928L21.9762 4.22524L21.9702 4.22922L21.9643 4.23319L21.9603 4.23916L21.9564 4.24513L21.9504 4.2491L21.9445 4.25308L21.9405 4.25904L21.9366 4.26501L21.9306 4.26899L21.9207 4.28887L21.9108 4.30875L21.9048 4.31273C21.9022 4.31671 21.8183 4.42937 21.653 4.65076C21.4878 4.87346 21.3986 4.98612 21.3854 4.98878C21.3722 4.99276 21.3537 5.01264 21.3299 5.04843C21.3074 5.08554 21.1673 5.23335 20.9095 5.49184C20.6518 5.75033 20.3994 5.98031 20.1522 6.18181C19.9037 6.38463 19.7782 6.63383 19.7755 6.92945C19.7716 7.22373 19.7564 7.55647 19.7299 7.92762C19.7035 8.29879 19.6539 8.69977 19.5812 9.13059C19.5085 9.56142 19.3962 10.0486 19.2442 10.5921C19.0922 11.1355 18.9071 11.6658 18.689 12.1828C18.471 12.6997 18.243 13.1637 18.005 13.5746C17.7671 13.9856 17.549 14.3335 17.3508 14.6185C17.1525 14.9035 16.951 15.172 16.7461 15.4238C16.5412 15.6757 16.2822 15.9594 15.9689 16.2749C15.6544 16.589 15.4825 16.7614 15.4535 16.7918C15.4231 16.821 15.2935 16.9297 15.0648 17.1179C14.8375 17.3075 14.593 17.497 14.3313 17.6866C14.0709 17.8749 13.8317 18.0319 13.6136 18.1579C13.3955 18.2838 13.1325 18.4276 12.8245 18.5893C12.5179 18.7524 12.1861 18.9035 11.8292 19.0427C11.4724 19.1819 11.0957 19.3111 10.6992 19.4304C10.3026 19.5497 9.91934 19.6425 9.54925 19.7088C9.17918 19.7751 8.75952 19.8314 8.2903 19.8778L7.58647 19.9474V19.9574H6.29778V19.9474L6.12926 19.9375C6.01693 19.9309 5.9244 19.9242 5.8517 19.9176C5.77902 19.911 5.50474 19.8745 5.02892 19.8082C4.55309 19.742 4.17971 19.6757 3.90875 19.6094C3.63781 19.5431 3.23467 19.4172 2.69936 19.2316C2.16406 19.046 1.70608 18.8584 1.32542 18.6689C0.94609 18.4806 0.708178 18.3613 0.611685 18.311C0.51652 18.2619 0.40946 18.201 0.290504 18.128L0.112069 18.0187L0.108124 18.0127L0.102156 18.0087L0.0962087 18.0048L0.0922435 17.9988L0.0724175 17.9889L0.0525915 17.9789L0.0486461 17.9729L0.0426785 17.969L0.0367307 17.965L0.0327655 17.959L0.0288201 17.9531L0.0228525 17.9491H0.0129395V17.9093L0.0327655 17.9133L0.0525915 17.9193L0.141808 17.9292C0.201287 17.9358 0.363206 17.9458 0.627546 17.959C0.891906 17.9723 1.17276 17.9723 1.47015 17.959C1.76754 17.9458 2.07155 17.9159 2.38215 17.8696C2.69276 17.8232 3.05954 17.7436 3.48249 17.6309C3.90546 17.5183 4.29405 17.3844 4.64828 17.2293C5.00118 17.0729 5.2523 16.9562 5.40167 16.8793C5.54969 16.8038 5.77571 16.6633 6.0797 16.4578L6.5357 16.1496L6.53966 16.1436L6.54561 16.1397L6.55158 16.1357L6.55552 16.1297L6.55949 16.1237L6.56543 16.1198L6.5714 16.1158L6.57535 16.1098L6.59517 16.1039L6.615 16.0999L6.61896 16.08L6.62491 16.0601L6.63088 16.0561L6.63483 16.0502L6.47622 16.0402C6.37049 16.0336 6.26804 16.027 6.16891 16.0204C6.06978 16.0137 5.91449 15.9839 5.703 15.9309C5.49154 15.8778 5.26354 15.7983 5.01901 15.6923C4.77449 15.5862 4.53658 15.4603 4.30527 15.3145C4.07398 15.1687 3.90677 15.0474 3.80367 14.9506C3.7019 14.8551 3.56972 14.7199 3.40715 14.545C3.24591 14.3687 3.1058 14.1877 2.98684 14.0021C2.86788 13.8166 2.75422 13.6025 2.64585 13.3599L2.48128 12.998L2.47136 12.9682L2.46145 12.9384L2.4555 12.9185L2.45154 12.8986L2.48128 12.9026L2.51102 12.9085L2.7291 12.9384C2.87451 12.9582 3.10251 12.9649 3.4131 12.9582C3.72371 12.9516 3.93849 12.9384 4.05744 12.9185C4.1764 12.8986 4.2491 12.8853 4.27553 12.8787L4.31518 12.8688L4.36475 12.8588L4.41431 12.8489L4.41828 12.8429L4.42423 12.8389L4.43019 12.835L4.43414 12.829L4.39449 12.8191L4.35483 12.8091L4.31518 12.7992L4.27553 12.7892L4.23588 12.7793C4.20945 12.7727 4.1632 12.7594 4.0971 12.7395C4.03102 12.7196 3.85258 12.6467 3.56179 12.5208C3.27103 12.3949 3.03972 12.2722 2.86788 12.1529C2.69563 12.0333 2.53138 11.9024 2.3762 11.7612C2.22156 11.6181 2.05173 11.4338 1.86667 11.2085C1.68163 10.9831 1.51642 10.7213 1.37102 10.423C1.22564 10.1248 1.11659 9.83979 1.04389 9.56804C0.971482 9.29788 0.92371 9.02169 0.901164 8.74286L0.865458 8.3253L0.885284 8.32927L0.90511 8.33524L0.924936 8.34518L0.944762 8.35512L0.964588 8.36506L0.984414 8.37501L1.29172 8.51419C1.4966 8.60699 1.75103 8.68653 2.05502 8.7528C2.35903 8.81907 2.54076 8.85554 2.60023 8.86216L2.68945 8.8721H2.86788L2.86394 8.86614L2.85797 8.86216L2.85202 8.85818L2.84806 8.85222L2.84411 8.84625L2.83815 8.84228L2.8322 8.8383L2.82823 8.83233L2.80841 8.82239L2.78858 8.81245L2.78463 8.80649L2.77867 8.80251L2.77272 8.79853L2.76875 8.79257L2.74893 8.78262L2.7291 8.77268L2.72516 8.76672C2.72119 8.76405 2.66435 8.72164 2.55463 8.63946C2.44624 8.55595 2.33258 8.44792 2.21363 8.31535C2.09467 8.18279 1.97571 8.0436 1.85676 7.89779C1.73758 7.75165 1.63144 7.59529 1.53954 7.43052C1.44703 7.26483 1.34921 7.05404 1.24612 6.79821C1.14435 6.5437 1.06703 6.2872 1.01415 6.02871C0.961297 5.77022 0.931558 5.51505 0.924936 5.26318C0.918334 5.01131 0.924936 4.79591 0.944762 4.61695C0.964588 4.438 1.00424 4.23584 1.06372 4.0105C1.1232 3.78515 1.20912 3.54655 1.32146 3.29468L1.48998 2.91688L1.49989 2.88706L1.5098 2.85723L1.51577 2.85325L1.51972 2.84729L1.52368 2.84132L1.52963 2.83735L1.5356 2.84132L1.53954 2.84729L1.54351 2.85325L1.54945 2.85723L1.55542 2.86121L1.55937 2.86717L1.56333 2.87314L1.56928 2.87711L1.57919 2.897L1.58911 2.91688L1.59507 2.92086L1.59902 2.92682L1.86667 3.22508C2.04511 3.42392 2.25659 3.64596 2.5011 3.89119C2.74564 4.13642 2.88111 4.26368 2.90754 4.27296C2.93398 4.28356 2.96701 4.31404 3.00667 4.36443C3.04632 4.41348 3.1785 4.5308 3.40319 4.71637C3.62789 4.90195 3.92197 5.11737 4.28544 5.3626C4.64893 5.60783 5.05206 5.84975 5.49483 6.08836C5.93762 6.32697 6.41345 6.54237 6.9223 6.73459C7.43118 6.9268 7.78804 7.05273 7.99291 7.11238C8.19779 7.17203 8.54804 7.24825 9.04369 7.34104C9.53934 7.43384 9.91274 7.49349 10.1639 7.52C10.415 7.5465 10.5868 7.56175 10.6793 7.56573L10.8181 7.56971L10.8142 7.53988L10.8082 7.51006L10.7685 7.26151C10.7421 7.09582 10.7289 6.86383 10.7289 6.56557C10.7289 6.26731 10.752 5.99226 10.7983 5.74039C10.8446 5.48852 10.914 5.23335 11.0065 4.97486C11.099 4.71637 11.1895 4.5089 11.2781 4.3525C11.368 4.1974 11.4856 4.02044 11.631 3.8216C11.7764 3.62276 11.9647 3.4173 12.196 3.2052C12.4273 2.9931 12.6917 2.8042 12.9891 2.63851C13.2865 2.47282 13.5607 2.34687 13.8118 2.26071C14.063 2.17456 14.2745 2.11821 14.4463 2.0917C14.6181 2.0652 14.704 2.04995 14.704 2.04597V2.04597Z" fill="#1DA1F2"/>
</svg>
