<svg width="32" height="32" viewBox="0 0 32 32" fill="none" xmlns="http://www.w3.org/2000/svg">
<g clip-path="url(#clip0_3226_26338)">
<rect width="32" height="32" rx="16" fill="#EEF8FF"/>
<path d="M18.6907 9.51265V9.50977H19.4409L19.7151 9.56451C19.8978 9.60006 20.0637 9.64664 20.2128 9.70427C20.3619 9.7619 20.5062 9.82914 20.6456 9.90597C20.7851 9.98281 20.9116 10.0611 21.0251 10.1408C21.1376 10.2196 21.2386 10.3031 21.3281 10.3915C21.4165 10.4808 21.5546 10.5039 21.7421 10.4607C21.9297 10.4174 22.1317 10.3574 22.3481 10.2806C22.5645 10.2037 22.7785 10.1173 22.9901 10.0212C23.2017 9.92518 23.3306 9.86419 23.3768 9.83826C23.422 9.81137 23.446 9.79696 23.4489 9.79503L23.4518 9.79071L23.4662 9.78351L23.4806 9.7763L23.495 9.7691L23.5095 9.7619L23.5124 9.75757L23.5167 9.75469L23.521 9.75181L23.5239 9.74749L23.5383 9.74317L23.5528 9.74029L23.5499 9.7619L23.5455 9.78351L23.5383 9.80512L23.5311 9.82673L23.5239 9.84114L23.5167 9.85555L23.5095 9.87716C23.5047 9.89156 23.4999 9.91077 23.495 9.93479C23.4902 9.9588 23.4445 10.0548 23.358 10.2229C23.2714 10.391 23.1632 10.5615 23.0334 10.7344C22.9035 10.9073 22.7871 11.0379 22.6842 11.1263C22.5804 11.2156 22.5116 11.278 22.4779 11.3136C22.4442 11.3501 22.4034 11.3837 22.3553 11.4144L22.2831 11.462L22.2687 11.4692L22.2543 11.4764L22.2514 11.4807L22.2471 11.4836L22.2427 11.4865L22.2399 11.4908L22.2254 11.498L22.211 11.5052L22.2081 11.5095L22.2038 11.5124L22.1995 11.5153L22.1966 11.5196L22.1937 11.5239L22.1894 11.5268L22.185 11.5297L22.1821 11.534H22.2543L22.6583 11.4476C22.9276 11.3899 23.1849 11.3203 23.4301 11.2387L23.8197 11.109L23.8629 11.0946L23.8846 11.0874L23.899 11.0802L23.9134 11.073L23.9279 11.0658L23.9423 11.0586L23.9711 11.0542L24 11.0514V11.0802L23.9928 11.0831L23.9856 11.0874L23.9827 11.0917L23.9784 11.0946L23.974 11.0975L23.9711 11.1018L23.9683 11.1061L23.9639 11.109L23.9596 11.1119L23.9567 11.1162L23.9538 11.1205L23.9495 11.1234L23.9423 11.1378L23.9351 11.1522L23.9307 11.1551C23.9288 11.158 23.8678 11.2396 23.7475 11.4C23.6273 11.5614 23.5624 11.643 23.5528 11.645C23.5431 11.6478 23.5297 11.6622 23.5124 11.6882C23.496 11.7151 23.394 11.8222 23.2065 12.0095C23.0189 12.1968 22.8352 12.3634 22.6554 12.5094C22.4746 12.6564 22.3832 12.8369 22.3813 13.0511C22.3784 13.2644 22.3673 13.5054 22.3481 13.7744C22.3288 14.0433 22.2928 14.3339 22.2399 14.646C22.187 14.9582 22.1052 15.3112 21.9946 15.705C21.884 16.0988 21.7493 16.483 21.5906 16.8576C21.4319 17.2322 21.266 17.5683 21.0929 17.8661C20.9197 18.1639 20.761 18.416 20.6168 18.6225C20.4725 18.829 20.3258 19.0235 20.1767 19.206C20.0277 19.3885 19.8391 19.594 19.6112 19.8226C19.3823 20.0503 19.2572 20.1751 19.2361 20.1972C19.214 20.2184 19.1197 20.2971 18.9533 20.4335C18.7879 20.5709 18.6099 20.7082 18.4195 20.8456C18.23 20.982 18.0559 21.0958 17.8972 21.187C17.7385 21.2783 17.5471 21.3825 17.323 21.4997C17.0999 21.6178 16.8584 21.7273 16.5987 21.8282C16.339 21.929 16.0649 22.0227 15.7764 22.1091C15.4878 22.1955 15.2089 22.2628 14.9396 22.3108C14.6703 22.3588 14.3649 22.3997 14.0234 22.4333L13.5113 22.4837V22.4909H12.5735V22.4837L12.4509 22.4765C12.3691 22.4717 12.3018 22.4669 12.2489 22.4621C12.196 22.4573 11.9964 22.4309 11.6501 22.3828C11.3039 22.3348 11.0322 22.2868 10.835 22.2388C10.6378 22.1907 10.3445 22.0995 9.95491 21.965C9.56537 21.8306 9.2321 21.6946 8.95509 21.5573C8.67905 21.4209 8.50593 21.3345 8.43571 21.298C8.36646 21.2624 8.28855 21.2182 8.20198 21.1654L8.07214 21.0862L8.06927 21.0818L8.06492 21.079L8.0606 21.0761L8.05771 21.0718L8.04328 21.0646L8.02885 21.0574L8.02598 21.053L8.02164 21.0502L8.01731 21.0473L8.01443 21.0429L8.01156 21.0386L8.00721 21.0357H8V21.0069L8.01443 21.0098L8.02885 21.0141L8.09378 21.0213C8.13706 21.0261 8.25489 21.0333 8.44725 21.0429C8.63962 21.0526 8.844 21.0526 9.06041 21.0429C9.27683 21.0333 9.49806 21.0117 9.72408 20.9781C9.95011 20.9445 10.217 20.8869 10.5248 20.8052C10.8326 20.7236 11.1154 20.6266 11.3731 20.5142C11.63 20.4009 11.8127 20.3163 11.9214 20.2606C12.0291 20.2059 12.1936 20.1041 12.4148 19.9552L12.7466 19.7319L12.7495 19.7275L12.7538 19.7247L12.7582 19.7218L12.761 19.7175L12.7639 19.7131L12.7683 19.7103L12.7726 19.7074L12.7755 19.7031L12.7899 19.6987L12.8043 19.6959L12.8072 19.6814L12.8115 19.667L12.8159 19.6642L12.8188 19.6598L12.7033 19.6526C12.6264 19.6478 12.5518 19.643 12.4797 19.6382C12.4076 19.6334 12.2946 19.6118 12.1407 19.5734C11.9868 19.535 11.8209 19.4773 11.6429 19.4005C11.465 19.3237 11.2919 19.2324 11.1235 19.1268C10.9552 19.0211 10.8335 18.9332 10.7585 18.8631C10.6845 18.7939 10.5883 18.696 10.47 18.5692C10.3526 18.4414 10.2507 18.3103 10.1641 18.1759C10.0775 18.0414 9.99483 17.8863 9.91597 17.7105L9.79621 17.4483L9.789 17.4267L9.78179 17.4051L9.77746 17.3907L9.77457 17.3762L9.79621 17.3791L9.81785 17.3835L9.97656 17.4051C10.0824 17.4195 10.2483 17.4243 10.4743 17.4195C10.7003 17.4147 10.8566 17.4051 10.9432 17.3907C11.0298 17.3762 11.0827 17.3666 11.1019 17.3618L11.1307 17.3546L11.1668 17.3474L11.2029 17.3402L11.2058 17.3359L11.2101 17.333L11.2144 17.3301L11.2173 17.3258L11.1885 17.3186L11.1596 17.3114L11.1307 17.3042L11.1019 17.297L11.073 17.2898C11.0538 17.285 11.0201 17.2754 10.972 17.261C10.924 17.2466 10.7941 17.1937 10.5825 17.1025C10.3709 17.0113 10.2026 16.9224 10.0775 16.836C9.9522 16.7493 9.83267 16.6545 9.71975 16.5521C9.60721 16.4484 9.48363 16.3149 9.34896 16.1516C9.21431 15.9883 9.09409 15.7986 8.98828 15.5825C8.88248 15.3664 8.80313 15.1599 8.75023 14.963C8.69753 14.7672 8.66277 14.5671 8.64636 14.3651L8.62038 14.0625L8.63481 14.0654L8.64923 14.0697L8.66366 14.0769L8.67809 14.0841L8.69252 14.0913L8.70694 14.0985L8.93057 14.1994C9.07966 14.2666 9.26481 14.3243 9.48602 14.3723C9.70725 14.4203 9.8395 14.4467 9.88278 14.4515L9.9477 14.4587H10.0775L10.0747 14.4544L10.0703 14.4515L10.066 14.4486L10.0631 14.4443L10.0602 14.44L10.0559 14.4371L10.0516 14.4342L10.0487 14.4299L10.0343 14.4227L10.0198 14.4155L10.017 14.4112L10.0126 14.4083L10.0083 14.4054L10.0054 14.4011L9.99098 14.3939L9.97656 14.3867L9.97368 14.3824C9.9708 14.3804 9.92944 14.3497 9.84959 14.2902C9.77072 14.2297 9.68801 14.1514 9.60144 14.0553C9.51488 13.9593 9.42831 13.8584 9.34175 13.7528C9.25503 13.6469 9.17778 13.5336 9.11091 13.4142C9.04359 13.2941 8.97241 13.1414 8.89739 12.956C8.82333 12.7716 8.76706 12.5858 8.72858 12.3985C8.69012 12.2112 8.66848 12.0263 8.66366 11.8438C8.65886 11.6613 8.66366 11.5052 8.67809 11.3755C8.69252 11.2459 8.72137 11.0994 8.76465 10.9361C8.80794 10.7728 8.87046 10.5999 8.95221 10.4174L9.07484 10.1437L9.08206 10.1221L9.08927 10.1005L9.09361 10.0976L9.09648 10.0933L9.09937 10.0889L9.1037 10.0861L9.10804 10.0889L9.11091 10.0933L9.1138 10.0976L9.11812 10.1005L9.12247 10.1034L9.12534 10.1077L9.12822 10.112L9.13255 10.1149L9.13977 10.1293L9.14698 10.1437L9.15132 10.1466L9.15419 10.1509L9.34896 10.367C9.47881 10.5111 9.63271 10.672 9.81064 10.8497C9.98859 11.0273 10.0872 11.1196 10.1064 11.1263C10.1256 11.134 10.1497 11.1561 10.1785 11.1926C10.2074 11.2281 10.3036 11.3131 10.4671 11.4476C10.6306 11.582 10.8446 11.7381 11.1091 11.9158C11.3736 12.0935 11.667 12.2688 11.9892 12.4417C12.3114 12.6146 12.6577 12.7707 13.028 12.9099C13.3983 13.0492 13.658 13.1404 13.807 13.1837C13.9561 13.2269 14.211 13.2821 14.5717 13.3494C14.9324 13.4166 15.2041 13.4598 15.3868 13.479C15.5696 13.4982 15.6946 13.5093 15.7619 13.5122L15.8629 13.515L15.8601 13.4934L15.8557 13.4718L15.8269 13.2917C15.8076 13.1717 15.798 13.0036 15.798 12.7875C15.798 12.5714 15.8149 12.3721 15.8485 12.1896C15.8822 12.0071 15.9327 11.8222 16 11.6349C16.0673 11.4476 16.1332 11.2972 16.1977 11.1839C16.2631 11.0715 16.3487 10.9433 16.4545 10.7992C16.5603 10.6552 16.6973 10.5063 16.8656 10.3526C17.034 10.1989 17.2263 10.062 17.4427 9.94199C17.6592 9.82193 17.8587 9.73068 18.0415 9.66825C18.2242 9.60582 18.3781 9.56499 18.5032 9.54578C18.6282 9.52658 18.6907 9.51553 18.6907 9.51265V9.51265Z" fill="#1BA4FF"/>
</g>
<defs>
<clipPath id="clip0_3226_26338">
<rect width="32" height="32" fill="white"/>
</clipPath>
</defs>
</svg>
