<svg width="81" height="80" viewBox="0 0 81 80" fill="none" xmlns="http://www.w3.org/2000/svg">
<g clip-path="url(#clip0_2450_26630)">
<rect width="80" height="80" transform="translate(0.744141)" fill="white"/>
<rect x="0.744141" width="80" height="80" fill="white"/>
<path d="M54.3476 33.6726C54.3476 33.6726 50.1203 46.9493 49.7759 48.0452C49.6506 46.918 46.5507 23.0889 46.5507 23.0889C39.3487 23.0889 35.4972 28.2242 33.4619 33.6413C33.4619 33.6413 28.3266 46.9493 27.8882 48.0766C27.8569 47.0432 27.1054 33.7979 27.1054 33.7979C26.667 27.1595 20.5923 23.1202 15.6761 23.1202L21.6256 59.2239C29.172 59.1926 33.2427 54.0886 35.372 48.6715C35.372 48.6715 39.9123 36.9292 40.1002 36.3968C40.1315 36.8978 43.3567 59.2239 43.3567 59.2239C50.9345 59.2239 55.0051 54.4331 57.197 49.2038L67.8121 23.1202C60.3283 23.1202 56.3829 28.2242 54.3476 33.6726Z" fill="#4253FF"/>
</g>
<defs>
<clipPath id="clip0_2450_26630">
<rect width="80" height="80" fill="white" transform="translate(0.744141)"/>
</clipPath>
</defs>
</svg>
