<svg width="22" height="22" viewBox="0 0 22 22" fill="none" xmlns="http://www.w3.org/2000/svg">
<path fill-rule="evenodd" clip-rule="evenodd" d="M0.311523 10.9999C0.311523 5.10749 5.10456 0.314453 10.997 0.314453V0.31463H11.0032C16.8956 0.31463 21.6886 5.10767 21.6886 11.0001C21.6886 16.8923 16.8956 21.6855 11.0032 21.6855C8.82961 21.6855 6.81311 21.0386 5.12336 19.9204L1.01501 21.2331L2.34682 17.263C1.06536 15.504 0.311523 13.3368 0.311523 10.9999ZM7.3347 5.21388C7.64868 5.22664 7.80576 5.24544 8.01301 5.74167C8.07996 5.90325 8.17192 6.12635 8.2727 6.37084C8.55975 7.06719 8.91834 7.9371 8.9741 8.05336C9.04945 8.21044 9.12498 8.42407 9.01807 8.63133C8.92456 8.83006 8.84194 8.92554 8.70441 9.08447C8.69411 9.09639 8.68349 9.10866 8.67253 9.12136C8.60531 9.19935 8.53925 9.26927 8.47337 9.339C8.3853 9.43221 8.29753 9.5251 8.20768 9.63656C8.20516 9.63951 8.20264 9.64247 8.20012 9.64543C8.05777 9.81245 7.90308 9.99395 8.08216 10.3025C8.26423 10.6102 8.89237 11.6341 9.81588 12.4569C10.9119 13.4316 11.817 13.7976 12.2253 13.9627C12.2617 13.9774 12.2941 13.9905 12.3224 14.0023C12.5798 14.1092 12.8878 14.0841 13.0762 13.883C13.2805 13.6628 13.5261 13.3183 13.7816 12.9599C13.8247 12.8993 13.8682 12.8383 13.9118 12.7774C14.1253 12.4759 14.3953 12.4381 14.6781 12.5448C14.967 12.6454 16.4937 13.3992 16.8077 13.5563C16.8718 13.5884 16.9315 13.6171 16.9865 13.6435C17.2009 13.7466 17.3445 13.8156 17.4044 13.9206C17.48 14.0525 17.48 14.6744 17.2224 15.4033C16.9648 16.1318 15.9407 16.7351 15.1241 16.911C14.5651 17.0303 13.8363 17.1246 11.3801 16.1069C8.47088 14.9023 6.52081 12.0755 6.12417 11.5006C6.09259 11.4548 6.07086 11.4233 6.05927 11.408C6.05486 11.402 6.04961 11.3948 6.04359 11.3866C5.84402 11.1137 4.79041 9.6732 4.79041 8.18526C4.79041 6.6954 5.52634 5.9475 5.85592 5.61256C5.86543 5.6029 5.8746 5.59358 5.8834 5.58459C6.14101 5.32079 6.5681 5.20147 6.97657 5.20147C7.09605 5.20206 7.21547 5.2062 7.3347 5.21388Z" fill="#56DB59"/>
</svg>
