<svg width="22" height="22" viewBox="0 0 22 22" fill="none" xmlns="http://www.w3.org/2000/svg">
<path d="M11.4807 18.6487L7.02954 18.5655C5.58836 18.5365 4.14359 18.5944 2.73066 18.294C0.581275 17.8453 0.429004 15.6452 0.26967 13.7996C0.0501226 11.2051 0.135116 8.56342 0.549429 5.99052C0.783323 4.54685 1.70379 3.6854 3.12726 3.59166C7.93251 3.25145 12.7697 3.29177 17.5643 3.45049C18.0707 3.46504 18.5805 3.54456 19.0798 3.63508C21.5445 4.07658 21.6046 6.56985 21.7644 8.66872C21.9237 10.7892 21.8565 12.9206 21.5519 15.0267C21.3076 16.7705 20.8401 18.2328 18.8674 18.374C16.3956 18.5586 13.9806 18.7072 11.5019 18.6599C11.502 18.6487 11.4878 18.6487 11.4807 18.6487ZM8.86385 14.2339C10.7265 13.141 12.5537 12.0663 14.4057 10.9807C12.5395 9.88781 10.7159 8.81311 8.86385 7.72752V14.2339Z" fill="#FF0201"/>
</svg>
